<svg viewBox="0 0 644.43 163.49" xmlns="http://www.w3.org/2000/svg"><g transform="translate(-73.79 -224.25)"><path d="m547.55 283.13c-2.93-5.38-10.39-11.86-22.62-11.86-18.83 0-34.11 14.43-34.11 35.58 0 19 12.59 35.71 34.11 35.71 9.42 0 18.34-3.92 22.62-11.74v9.66h16v-67.13h-16zm.13 24.33a23.08 23.08 0 0 1 -2.57 9.42c-3.06 6.11-8.93 10.76-17.85 10.76-14.43 0-20.43-12.11-20.43-20.42v-.12c0-10.4 7.34-20.91 20.3-20.91 9.66 0 15.9 5.5 18.71 11.86a20.84 20.84 0 0 1 1.84 9.41z" fill="#fff"/><path d="m604.92 286.19a18.83 18.83 0 0 1 18.1 12.1h16.38c-3.91-16.38-18.22-27-35.09-27-20 0-35.34 15.78-35.34 35.58 0 19.2 14.68 35.71 35.95 35.71a35.14 35.14 0 0 0 34.48-26.58h-16.4c-2.45 5.51-8.07 11.5-18.1 11.5-11.37 0-19.81-8.56-19.81-20.67a21.9 21.9 0 0 1 5.5-14.91 19 19 0 0 1 14.33-5.73z" fill="#fff"/><path d="m408.37 273.35-18.07 46.26-16.79-46.26h-18.05l22.1 55.56 4.6 11.57c-5 13.67-8.87 12.79-17.11 11.73v13.41a53.67 53.67 0 0 0 11.8 1.27c11.73 0 16.29-10.24 20.1-19.91 3.11-7.88 28.31-73.63 28.31-73.63z" fill="#fff"/><path d="m332.37 287.31c-17.83-5.15-20.23-9-20.23-14s4.76-10.53 15.5-10.53 24.91 5.84 24.91 5.84v-15.88a79.66 79.66 0 0 0 -26.41-4.34c-20 0-31.26 9.7-31.26 25.17 0 16.75 8.92 23.52 30.42 29 14.08 3.62 15.23 9.41 15.23 13.06s-2.36 11.6-15.46 11.6c-13.75 0-28.36-6.3-28.36-6.3v15.86c5.07 1.91 14.78 4.83 29.65 4.83 21.69 0 31.9-11 31.9-26.85s-8.06-22.3-25.89-27.46z" fill="#fff"/><path d="m454.52 270.35c-16.89 0-31.75 13.69-31.75 30.58v39.55h16v-40c0-8.09 7.71-14.64 15.8-14.64s15.8 6.55 15.8 14.64v40h15.95v-39.55c-.05-16.93-14.91-30.58-31.8-30.58z" fill="#fff"/><path d="m644.39 245.11h16v57.18l22.18-28.93h20.13l-25.64 31.64 25.77 35.48h-19l-16.83-24.36-6.58 8.36v16h-16z" fill="#fff"/></g><path d="m97.72 10.66-17.99 31.14h35.97z" fill="#e70000"/><path d="m121.2 252.1-47.41-27.85 7.81 24.88 31.3 18.38.29.15c11.13 5.45 19.74 15.44 25.67 29.78l-51.65-30.44 7.79 24.9 69.7 41.1c-2.32-26.35-11.4-65-43.5-80.9z" fill="#e70000" transform="translate(-73.79 -224.25)"/><path d="m26.45 84.18 7.83 24.93 46.16 27.21-11.52 6.79-.02 20.38 28.82-16.99 28.82 16.99-.02-20.38-11.53-6.79 46.16-27.21 7.83-24.93-71.26 41.97z" fill="#e70000"/><path d="m229.81 267.66.3-.15 31.29-18.38 7.82-24.88-47.41 27.85c-32.11 15.9-41.18 54.55-43.51 80.9l69.7-41.1 7.8-24.9-51.66 30.47c5.94-14.37 14.54-24.36 25.67-29.81z" fill="#e70000" transform="translate(-73.79 -224.25)"/><path d="m710.05 338h-1.64v-7.71h3.16a3.69 3.69 0 0 1 2.35.62 2.35 2.35 0 0 1 .75 1.93 2.5 2.5 0 0 1 -.45 1.57 2.41 2.41 0 0 1 -1.19.84l1.8 2.71h-1.78l-1.66-2.51h-1.34zm1.65-3.91a1.53 1.53 0 0 0 1-.27 1.18 1.18 0 0 0 .32-.94 1 1 0 0 0 -.34-.84 1.73 1.73 0 0 0 -1.12-.28h-1.52v2.37z" fill="#fff" transform="translate(-73.79 -224.25)"/><path d="m711.23 341.07a7 7 0 1 1 7-7 7 7 0 0 1 -7 7zm0-12.79a5.81 5.81 0 1 0 5.8 5.81 5.81 5.81 0 0 0 -5.8-5.81z" fill="#fff" transform="translate(-73.79 -224.25)"/></svg>