<svg height="165" viewBox="0 0 196 165" width="196" xmlns="http://www.w3.org/2000/svg"><g fill="#006bff"><path d="m98.2 11.23-17.98 31.15h35.96z"/><path d="m47.89 28.42-47.41-27.84 7.82 24.88 31.3 18.38.3.15c11.13 5.45 19.73 15.45 25.67 29.78l-51.67-30.47 7.83 24.93 69.67 41.07c-2.33-26.33-11.41-64.93-43.51-80.88z"/><path d="m26.93 84.76 7.84 24.92 46.16 27.22-11.53 6.79-.02 20.38 28.82-16.99 28.82 16.99-.02-20.38-11.53-6.79 46.16-27.22 7.83-24.92-71.26 41.97z"/><path d="m156.5 43.98.3-.15 31.3-18.38 7.82-24.88-47.42 27.85c-32.1 15.95-41.18 54.55-43.5 80.88l69.66-41.07 7.83-24.93-51.65 30.46c5.93-14.33 14.54-24.33 25.66-29.78z"/></g></svg>