<svg height="165" viewBox="0 0 630 165" width="630" xmlns="http://www.w3.org/2000/svg"><g fill="none"><g fill="#fff" transform="translate(221 21)"><g transform="translate(0 3)"><path d="m253.25 35.46c-2.93-5.38-10.39-11.86-22.62-11.86-18.83 0-34.11 14.43-34.11 35.58 0 18.95 12.59 35.7 34.11 35.7 9.42 0 18.34-3.91 22.62-11.74v9.66h16.02v-67.13h-16.02zm.12 24.33c-.25 3.3-.98 6.48-2.57 9.42-3.06 6.11-8.93 10.76-17.85 10.76-14.43 0-20.42-12.11-20.42-20.42v-.12c0-10.39 7.34-20.91 20.3-20.91 9.66 0 15.9 5.5 18.71 11.86 1.34 2.93 1.95 6.23 1.83 9.41z"/><path d="m310.62 38.51c8.8 0 15.28 5.01 18.1 12.11h16.38c-3.91-16.38-18.22-27.02-35.09-27.02-20.05 0-35.34 15.77-35.34 35.58 0 19.2 14.67 35.7 35.95 35.7 17.36 0 30.69-11.61 34.48-26.53h-16.38c-2.45 5.5-8.07 11.49-18.1 11.49-11.37 0-19.81-8.56-19.81-20.66 0-5.87 2.08-11.25 5.5-14.92 3.91-3.79 8.44-5.87 14.31-5.75z"/><path d="m114.06 25.67-18.06 46.26-16.79-46.26h-18.05l22.1 55.56 4.6 11.57c-4.95 13.67-8.87 12.79-17.11 11.74v13.4c2.78.63 6.82 1.27 11.8 1.27 11.73 0 16.28-10.24 20.1-19.91 3.11-7.88 28.3-73.63 28.3-73.63z"/><path d="m38.07 39.64c-17.83-5.16-20.23-9.02-20.23-13.96s4.76-10.53 15.5-10.53 24.9 5.84 24.9 5.84v-15.92c-5.15-1.83-14.39-4.35-26.41-4.35-19.98 0-31.26 9.7-31.26 25.17 0 16.76 8.92 23.53 30.42 29.05 14.08 3.62 15.23 9.41 15.23 13.06s-2.36 11.6-15.47 11.6c-13.75 0-28.36-6.3-28.36-6.3v15.86c5.07 1.91 14.78 4.83 29.65 4.83 21.7 0 31.9100093-10.96 31.9100093-26.85.0099907-15.9-8.0500093-22.35-25.8800093-27.5z"/><path d="m160.21 22.67c-16.89 0-31.75 13.69-31.75 30.59v39.54h15.95v-39.98c0-8.09 7.71-14.64 15.8-14.64s15.8 6.55 15.8 14.64v39.98h15.95v-39.54c0-16.9-14.85-30.59-31.75-30.59z"/></g><path d="m350.08.43h16.02v57.18l22.18-28.93h20.12l-25.64 31.65 25.77 35.48h-19.04l-16.82-24.36-6.57 8.36v16h-16.02z"/></g><g fill="#006bff"><path d="m98.2 11.23-17.98 31.15h35.96z"/><path d="m47.89 28.42-47.41-27.84 7.82 24.88 31.3 18.38.3.15c11.13 5.45 19.73 15.45 25.67 29.78l-51.67-30.47 7.83 24.93 69.67 41.07c-2.33-26.33-11.41-64.93-43.51-80.88z"/><path d="m26.93 84.76 7.84 24.92 46.16 27.22-11.53 6.79-.02 20.38 28.82-16.99 28.82 16.99-.02-20.38-11.53-6.79 46.16-27.22 7.83-24.92-71.26 41.97z"/><path d="m156.5 43.98.3-.15 31.3-18.38 7.82-24.88-47.42 27.85c-32.1 15.95-41.18 54.55-43.5 80.88l69.66-41.07 7.83-24.93-51.65 30.46c5.93-14.33 14.54-24.33 25.66-29.78z"/></g></g></svg>