<svg viewBox="0 0 2000 405.9" xmlns="http://www.w3.org/2000/svg"><g fill="#565656"><path d="m1804.4 399.6h-5.2v-8.5h2.1v6.4h3.1m186.1 2.1h-5.2v-2.1h3.1v-6.4h2.1m-13.8 8.5h-8.6v-2.1h8.6zm-17.3 0h-8.6v-2.1h8.6zm-17.2 0h-8.6v-2.1h8.6zm-17.2 0h-8.6v-2.1h8.6zm-17.2 0h-8.6v-2.1h8.6zm-17.3 0h-8.6v-2.1h8.6zm-17.2 0h-8.6v-2.1h8.6zm-17.2 0h-8.6v-2.1h8.6zm-17.2 0h-8.6v-2.1h8.6zm-17.3 0h-8.6v-2.1h8.6z"/><path d="m1980 405.9h-5.2v-2.1h3.1v-5.3h2.1m-13.6 7.4h-8.4v-2.1h8.4zm-16.9 0h-8.4v-2.1h8.4zm-16.8 0h-8.4v-2.1h8.4zm-16.8 0h-8.4v-2.1h8.4zm-16.8 0h-8.4v-2.1h8.4zm-16.9 0h-8.4v-2.1h8.4zm-16.8 0h-8.4v-2.1h8.4zm-16.8 0h-8.4v-2.1h8.4zm-16.8 0h-8.4v-2.1h8.4zm-16.9 0h-5.2v-7.4h2.1v5.3h3.1"/><path d="m1972.7 300.7c4.6 0 8.4-3.8 8.4-8.4s-3.8-8.4-8.4-8.4-8.4 3.8-8.4 8.4c-.1 4.6 3.7 8.4 8.4 8.4zm0-14.7c3.5 0 6.3 2.8 6.3 6.3s-2.8 6.3-6.3 6.3-6.3-2.8-6.3-6.3 2.8-6.3 6.3-6.3zm0 86.2c4.6 0 8.4-3.8 8.4-8.4s-3.8-8.4-8.4-8.4-8.4 3.8-8.4 8.4c-.1 4.6 3.7 8.4 8.4 8.4zm0-14.7c3.5 0 6.3 2.8 6.3 6.3s-2.8 6.3-6.3 6.3-6.3-2.8-6.3-6.3 2.8-6.3 6.3-6.3zm-155.7-56.8c4.6 0 8.4-3.8 8.4-8.4s-3.8-8.4-8.4-8.4-8.4 3.8-8.4 8.4 3.8 8.4 8.4 8.4zm0-14.7c3.5 0 6.3 2.8 6.3 6.3s-2.8 6.3-6.3 6.3-6.3-2.8-6.3-6.3 2.9-6.3 6.3-6.3zm0 86.2c4.6 0 8.4-3.8 8.4-8.4s-3.8-8.4-8.4-8.4-8.4 3.8-8.4 8.4 3.8 8.4 8.4 8.4zm0-14.7c3.5 0 6.3 2.8 6.3 6.3s-2.8 6.3-6.3 6.3-6.3-2.8-6.3-6.3 2.9-6.3 6.3-6.3z"/><path d="m1993.7 271.3h-197.7v113.6h197.7zm-2.1 111.4h-193.5v-109.3h193.5zm-173-365.9c-.1 0-.1 0 0 0-37 0-71.9 33.4-71.8 74.1.1 40.9 34.8 95.6 71.8 95.6h.1c37.1-.1 71.4-54.9 71.3-95.7-.2-40.9-34.6-74-71.4-74zm36.6 149.4c-11.8 11.8-24.4 18.1-36.7 18.1-16.3 0-33.8-11.5-48-31.6-13.3-18.8-21.6-42.5-21.7-61.9 0-18.9 7.6-36.9 21.5-50.9 13.3-13.4 30.9-21.1 48.2-21.1 36.8 0 69.1 33.6 69.3 71.8.1 25.2-13.3 56.3-32.6 75.6z"/><path d="m1864.1 193.4c12 0 23.2 3.4 35 10.8 14.7 9.2 24.6 20.7 30.1 35.3 3.1 8.1 4.7 16.8 5.5 25.5h-100.3l20.8-23.1-6.3-8.4 12.6-6.3-15.8-33.7c5.3-.1 18.4-.1 18.4-.1zm-5.4 32.7-10.8 5.4-2.2 1.1 1.5 2 5.2 7-20.8 23.3h-9.2l22.6-67.9zm-14.7-32.7-23.8 71.6h-5.7l-23.7-71.6c6.5-.1 50.8-.1 53.2 0zm-31.7 71.6h-9.2l-20.8-23.3 5.2-7 1.5-2-2.2-1.1-10.8-5.4 13.7-29.1zm87.9-62.6c-11.3-7-22.9-11.1-36.1-11.1-.8 0-78.3 0-91.3.2-26 .5-47.4 9.2-61.8 32.7-8.1 13.3-11.7 28.3-11.7 44.2v28.1h2.1v-16.1-12c.1-16.3 3.9-30.8 11.4-43.1 12.9-21 31.9-31.1 60-31.7 5.2-.1 10.6-.2 16.4-.2l-15.8 33.7 12.6 6.3-6.3 8.4 20.7 23.1h-10.7v59.9h2.1v-57.8h206.1v122h-206.1v-62h-2.1v64.1h210.3v-126.1h-63.2c-2.4-25.4-10.9-46.5-36.6-62.6"/></g><path d="m1820.3 265h-5.7v-.1.1h5.7v-.1" fill="#1b1b1b"/><path d="m764.5 0v2.1c36.9 0 69.3 33.6 69.4 71.8.1 25-13.3 56-32.6 75.4-11.8 11.9-24.5 18.2-36.8 18.2-16.3 0-33.9-11.5-48.1-31.6-13.3-18.8-21.7-42.5-21.7-61.9 0-18.8 7.6-36.9 21.5-50.8 13.4-13.4 31-21.1 48.3-21.1zm6.6 176.4c15.3 0 27.7.1 39 .3 28.2.6 47.3 10.7 60.2 31.7 3.5 5.7 6.3 12 8.1 18.6h-227.3c5.3-16.4 15.9-29.4 32.5-39.8 11.8-7.4 23-10.8 35.1-10.8h2.3c8.3 0 16.7 0 25-.1 8.5.2 16.8.1 25.1.1m-6.6-176.4c-37 0-72 33.4-71.9 74.1.1 40.9 34.8 95.6 71.9 95.6h.1c37.1-.1 71.6-54.9 71.5-95.7-.2-40.9-34.6-74-71.6-74zm6.6 174.3c-16.7 0-33.4.1-50.1.1h-2.3c-13.2 0-24.9 4.1-36.2 11.1-19 11.9-29.4 26.5-34.2 43.6h232.9c-1.9-7.7-4.9-15-9.1-21.8-14.4-23.5-35.9-32.2-61.9-32.7-13-.2-26-.3-39.1-.3z" fill="#565656"/><path d="m759.2 289.3-5.4 9.6h10.8zm-15.2 5.3-14.3-8.6 2.4 7.7 9.4 5.7h.1c3.4 1.7 5.9 4.8 7.7 9.2l-15.6-9.4 2.4 7.7 21 12.7c-.6-8.2-3.4-20.1-13.1-25z" fill="#ed2224"/><path d="m737.7 312 2.4 7.7 13.9 8.4-3.5 2.1v6.3l8.7-5.2 8.7 5.2v-6.3l-3.5-2.1 13.9-8.4 2.4-7.7-21.5 13z" fill="#ed2224"/><path d="m776.8 299.4 9.5-5.7 2.4-7.7-14.3 8.6c-9.7 4.9-12.4 16.8-13.1 25l21-12.7 2.4-7.7-15.6 9.4c1.7-4.4 4.3-7.5 7.7-9.2z" fill="#ed2224"/><path d="m418.5 259.7v51.5c0 5.8-4.7 10.5-10.5 10.5h-395.4c-5.8 0-10.5-4.7-10.5-10.5v-248.1c0-5.8 4.7-10.5 10.5-10.5h395.4c5.8 0 10.5 4.7 10.5 10.5v194.5h2.1v-194.5c0-7-5.6-12.6-12.6-12.6h-395.4c-7-.1-12.6 5.6-12.6 12.6v248.2c0 7 5.6 12.6 12.6 12.6h158.2l-8.6 52.6h-29.8v10.5h151.4v-10.5h-21.4l-8.6-52.6h154.2c7 0 12.6-5.6 12.6-12.6v-51.5h-2.1zm-136.7 118.8v6.3h-147.2v-6.3zm-21.4-2.1h-96l8.6-52.6h78.8z" fill="#565656"/><path d="m399.6 259.7v43.1h-378.6v-231.3h378.6v186.1h2.1v-188.2h-382.8v235.5h382.8v-45.2" fill="#565656"/><path d="m1293.4 121.8-13.5 24h27.1zm-37.9 13.2-35.7-21.5 5.9 19.2 23.6 14.2.2.1c8.4 4.2 14.9 11.9 19.3 23l-38.9-23.5 5.9 19.2 52.5 31.7c-1.8-20.3-8.6-50.1-32.8-62.4z" fill="#ed2224"/><path d="m1239.7 178.5 5.9 19.2 34.8 21-8.7 5.2v15.7l21.7-13.1 21.7 13.1v-15.7l-8.7-5.2 34.8-21 5.9-19.2-53.7 32.4z" fill="#ed2224"/><path d="m1337.3 147 .2-.1 23.6-14.2 5.9-19.2-35.7 21.5c-24.2 12.3-31 42.1-32.8 62.4l52.5-31.7 5.9-19.2-38.9 23.5c4.4-11 10.9-18.8 19.3-23z" fill="#ed2224"/><path clip-rule="evenodd" d="m1247.1 300.7h92.5v8.4h-92.5z" fill="#565656" fill-rule="evenodd"/><path clip-rule="evenodd" d="m1226.1 279.7h134.6v8.4h-134.6z" fill="#565656" fill-rule="evenodd"/><g fill="#565656"><path d="m1449 175.6v207.1h-269.2v-8.4h4.2v-2.1h-8.4v2.1h2.1v10.5h273.4v-209.2m0-2.1v-146.2h-10.5v-2.1h-2.1v8.4h2.1v-4.2h8.4v144.1"/><path d="m1377.5 372.2h8.4v2.1h-8.4zm-16.8 0h8.4v2.1h-8.4zm-16.9 0h8.4v2.1h-8.4zm94.7-27.3h2.1v8.4h-2.1zm0 16.8h2.1v8.4h-2.1zm-111.5 10.5h8.4v2.1h-8.4zm-33.6 0h8.4v2.1h-8.4zm100.9 0h8.4v2.1h-8.4zm33.7 0h8.4v2.1h-8.4zm-16.9 0h8.4v2.1h-8.4zm-100.9 0h8.4v2.1h-8.4zm-33.6 0h8.4v2.1h-8.4zm-84.2 0h8.4v2.1h-8.4zm67.3 0h8.4v2.1h-8.4zm-16.8 0h8.4v2.1h-8.4zm-33.6 0h8.4v2.1h-8.4zm16.8 0h8.4v2.1h-8.4zm212.4-262.9h2.1v8.4h-2.1zm0 16.9h2.1v8.4h-2.1zm0 33.6h2.1v8.4h-2.1zm0 168.3h2.1v8.4h-2.1zm0-185.1h2.1v8.4h-2.1zm0-67.3h2.1v8.4h-2.1zm0-33.7h2.1v8.4h-2.1zm0 16.9h2.1v8.4h-2.1zm0 33.6h2.1v8.4h-2.1zm0 168.3h2.1v8.4h-2.1zm0 33.6h2.1v8.4h-2.1zm0-16.8h2.1v8.4h-2.1zm0 33.6h2.1v8.4h-2.1zm0-67.3h2.1v8.4h-2.1zm0-50.4h2.1v8.4h-2.1zm0 16.8h2.1v8.4h-2.1zm0-33.7h2.1v8.4h-2.1zm0 50.5h2.1v8.4h-2.1zm-279.7-53.6v-165.1h269.2v165.1h2.1v-154.6h8.4v-2.1h-8.4v-10.5h-273.4v167.2zm-2.1 2.1v188.2h10.5v8.4h2.1v-8.4h260.8v-188.2h-2.1v186.1h-269.2v-186.1z"/></g><path d="m1894.8 359.6c17.4 0 31.5-14.1 31.5-31.5s-14.1-31.5-31.5-31.5-31.5 14.1-31.5 31.5 14.1 31.5 31.5 31.5zm0-61c16.2 0 29.4 13.2 29.4 29.4s-13.2 29.4-29.4 29.4-29.4-13.2-29.4-29.4 13.2-29.4 29.4-29.4z" fill="#ed2224"/><path d="m1621.284 259.13-5.377-6.455 1.613-1.344 5.377 6.454zm10.72 13.065-5.377-6.453 1.613-1.344 5.378 6.453zm-53.864-64.681-5.38-6.453 1.614-1.344 5.378 6.453zm21.517 25.798-5.378-6.453 1.612-1.346 5.378 6.453zm-10.724-12.802-5.377-6.454 1.613-1.345 5.377 6.454zm53.802 64.604-5.378-6.453 1.613-1.344 5.378 6.453zm-75.332-90.477-5.38-6.452 1.614-1.345 5.38 6.452zm42.995 51.709-5.377-6.453 1.614-1.345 5.378 6.453zm139.902 78.554h8.4v2.1h-8.4zm-16.8 0h8.4v2.1h-8.4zm-16.8 0h8.4v2.1h-8.4zm67.3 0h8.4v2.1h-8.4zm-16.9 0h8.4v2.1h-8.4zm-113.553-26.89-5.378-6.452 1.612-1.344 5.378 6.452zm21.607 25.8-5.376-6.454 1.613-1.344 5.378 6.454zm7.846 1.09h8.4v2.1h-8.4zm-18.66-13.937-5.377-6.453 1.613-1.344 5.378 6.453zm35.46 13.937h8.4v2.1h-8.4zm116.2-8.4c-4.9 0-8.8 3.7-9.4 8.4h-5.8v2.1h5.8c.5 4.7 4.5 8.4 9.4 8.4 5.2 0 9.5-4.2 9.5-9.5s-4.3-9.4-9.5-9.4zm0 16.8c-4.1 0-7.4-3.3-7.4-7.4s3.3-7.4 7.4-7.4 7.4 3.3 7.4 7.4c-.1 4.1-3.4 7.4-7.4 7.4zm-115.7-168.2c-4.9 0-8.8 3.7-9.4 8.4h-291.5c-.5-4.7-4.5-8.4-9.4-8.4-5.2 0-9.5 4.2-9.5 9.5 0 5.2 4.2 9.5 9.5 9.5 4.9 0 8.8-3.7 9.4-8.4h152.1l5.1 6.1 1.6-1.3-3.9-4.7h136.7c.5 4.7 4.5 8.4 9.4 8.4 5.2 0 9.5-4.2 9.5-9.5-.1-5.4-4.4-9.6-9.6-9.6zm-310.2 16.8c-4.1 0-7.4-3.3-7.4-7.4s3.3-7.4 7.4-7.4 7.4 3.3 7.4 7.4-3.3 7.4-7.4 7.4zm310.2 0c-4.1 0-7.4-3.3-7.4-7.4s3.3-7.4 7.4-7.4 7.4 3.3 7.4 7.4-3.3 7.4-7.4 7.4zm-496.3-16.8c-4.9 0-8.8 3.7-9.4 8.4h-165.2v168.2h-207.2c-.5-4.7-4.5-8.4-9.4-8.4-5.2 0-9.5 4.2-9.5 9.5 0 5.2 4.2 9.5 9.5 9.5 4.9 0 8.8-3.7 9.4-8.4h209.4v-168.3h163.1c.5 4.7 4.5 8.4 9.4 8.4 5.2 0 9.5-4.2 9.5-9.5-.1-5.2-4.4-9.4-9.6-9.4zm-391.2 185c-4.1 0-7.4-3.3-7.4-7.4s3.3-7.4 7.4-7.4 7.4 3.3 7.4 7.4-3.3 7.4-7.4 7.4zm391.2-168.2c-4.1 0-7.4-3.3-7.4-7.4s3.3-7.4 7.4-7.4 7.4 3.3 7.4 7.4-3.3 7.4-7.4 7.4zm-502.6 151.4c-4.9 0-8.8 3.7-9.4 8.4h-2.2v2.1h2.2c.5 4.7 4.5 8.4 9.4 8.4 5.2 0 9.5-4.2 9.5-9.5-.1-5.2-4.3-9.4-9.5-9.4zm0 16.8c-4.1 0-7.4-3.3-7.4-7.4s3.3-7.4 7.4-7.4 7.4 3.3 7.4 7.4c-.1 4.1-3.4 7.4-7.4 7.4zm-393.3-100.9c-5.2 0-9.5 4.2-9.5 9.5 0 5.2 4.2 9.5 9.5 9.5 4.9 0 8.8-3.7 9.4-8.4h2.2v-2.1h-2.2c-.6-4.8-4.5-8.5-9.4-8.5zm0 16.8c-4.1 0-7.4-3.3-7.4-7.4s3.3-7.4 7.4-7.4 7.4 3.3 7.4 7.4-3.3 7.4-7.4 7.4zm105.3-8.4h8.5v2.1h-8.5zm17.1 0h8.5v2.1h-8.5zm17 0h8.5v2.1h-8.5zm-102.3 0h8.5v2.1h-8.5zm-17 0h8.5v2.1h-8.5zm51.1 0h8.5v2.1h-8.5zm85.3 0h8.5v2.1h-8.5zm-102.3 0h8.5v2.1h-8.5zm34.1 0h8.5v2.1h-8.5zm88.4 5.3h2.1v-5.3h-5.3v2.1h3.2m0 62h2.1v8.4h-2.1zm0-16.8h2.1v8.4h-2.1zm0-16.8h2.1v8.4h-2.1zm0-16.8h2.1v8.4h-2.1zm2.1 67.3h-2.1v5.2h5.2v-2.1h-3.1m133.4 0h8.7v2.1h-8.7zm17.4 0h8.7v2.1h-8.7zm17.4 0h8.7v2.1h-8.7zm17.3 0h8.7v2.1h-8.7zm-69.5 0h8.7v2.1h-8.7zm-34.7 0h8.7v2.1h-8.7zm-69.5 0h8.7v2.1h-8.7zm86.9 0h8.7v2.1h-8.7zm-69.5 0h8.7v2.1h-8.7zm17.3 0h8.7v2.1h-8.7zm17.4 0h8.7v2.1h-8.7z" fill="#ed2224"/><path clip-rule="evenodd" d="m1803.2 193.3 13.3 24.6-8.4 27.7 6.5 19.4h5.7l5.9-18-8.9-29.1 13.3-24.5" fill="#ed2224" fill-rule="evenodd"/><g fill="#565656"><path d="m954.7 227.2c-1.6-2.4-3.3-4.7-5.1-6.8l-1.6 1.4c1.7 2.1 3.4 4.3 5 6.6zm7.9 15c-1-2.6-2.2-5.3-3.5-7.8l-1.9 1c1.3 2.4 2.4 5 3.4 7.5zm-33-37.7c-2.5-1.2-5.2-2.3-7.9-3.2l-.7 2c2.6.9 5.2 2 7.6 3.1zm14.1 9.7c-2.1-1.9-4.4-3.7-6.7-5.3l-1.2 1.7c2.2 1.5 4.4 3.3 6.5 5.1zm-392.5 80.4v-10.6h2.1v10.6m56.6-63.3h296.5l-12.1 110.4h-2.1l11.9-108.3h-291.8l11.8 108.3h-2.1m346.5-47.1v-10.6h-2.1v10.6m0-19.9v.9h2.1v-.9c0-2.6-.1-5.2-.3-7.6l-2.1.2c.1 2.4.2 4.9.3 7.4zm-78.2-77.8v2.1c2.2 0 4.4.1 6.6.1h1.8l.1-2.1c-.6 0-1.2 0-1.9-.1-2.2.1-4.4.1-6.6 0zm-16.8 2c2.8 0 5.6 0 8.4.1v-2.1c-2.8 0-5.6-.1-8.4-.1zm95.7 59.7c-.5-2.8-1.1-5.6-1.8-8.3l-2 .6c.7 2.6 1.3 5.4 1.8 8.1zm-62.2-58.8c2.8.3 5.6.8 8.2 1.3l.4-2.1c-2.7-.6-5.5-1-8.4-1.3zm-239.814-.987-8.4.01-.002-2.1 8.4-.01zm-25.186.087c2.8 0 5.6-.1 8.4-.1v-2.1c-2.8 0-5.6 0-8.4.1zm-56.1 11.7-1.2-1.7c-2.3 1.6-4.6 3.4-6.7 5.3l1.4 1.6c2.1-1.9 4.3-3.7 6.5-5.2zm14.8-7.3-.7-2c-2.7.9-5.4 2-7.9 3.2l.9 1.9c2.5-1.2 5-2.2 7.7-3.1zm16.2-3.5-.2-2.1c-2.9.3-5.7.8-8.4 1.3l.4 2.1c2.6-.5 5.3-1 8.2-1.3zm-58.4 51.1-2-.6c-.7 2.7-1.3 5.5-1.8 8.3l2.1.4c.4-2.8 1-5.5 1.7-8.1zm15.2-29.2-1.6-1.4c-1.8 2.1-3.5 4.4-5.1 6.8l1.7 1.2c1.6-2.3 3.3-4.6 5-6.6zm-18.3 53c0-2.5.1-5.1.3-7.5l-2.1-.2c-.2 2.5-.3 5-.3 7.6v.8h2.1zm9.1-39.2-1.9-1c-1.3 2.5-2.5 5.1-3.5 7.8l2 .8c1-2.7 2.2-5.2 3.4-7.6zm60.6-38.4.1 2.1h1.8c2.2 0 4.4-.1 6.6-.1v-2.1c-2.2 0-4.4.1-6.6.1zm272.2-154.6c0-.1 0-.1 0 0 0-.1-.1-.1 0 0-.1-.1-.1-.1 0 0l-.1-.1-.1-.1-.1-.1-.1-.1-3.6-3s-.1 0-.1-.1h-.1-.1l-.1-.1c-.2-.2-.5-.4-.7-.6l-1.3 1.7c2.2 1.6 4.3 3.4 6.3 5.2zm3.1 105.1s0-.1 0 0c0-.1 0-.1 0 0l.1-.1.1-.1.1-.1.1-.1.1-.1.1-.1.1-.1.1-.1c1-1.1 2-2.2 3-3.4 0 0 0-.1.1-.1l.1-.1-1.6-1.3c-1.7 2.1-3.5 4.1-5.5 6zm20.4-61.5c-.1-.8-.3-1.5-.4-2.3v-.1-.1c-.4-1.8-.8-3.5-1.2-5.2l-2 .6c.7 2.6 1.3 5.3 1.7 8zm-1.3 11c0 1.9-.1 3.8-.2 5.6l2.1.2c.1-1.4.2-2.8.2-4.3v-.1-.1-.1-.1-.1-.1-.1c0-.8 0-1.5-.1-2.3l-2.1.1c.1-.3.1.5.1 1.4zm-3.4 21.6 2 .7c.4-1.1.7-2.1 1-3.2v-.1-.1-.1-.2-.2l.9-3.9-2.1-.4c-.2 2.2-.9 4.9-1.8 7.5zm.2-48.8v-.1s0-.1-.1-.1v-.1c-.5-1.2-1-2.4-1.6-3.5 0 0 0-.1-.1-.1 0 0 0-.1-.1-.1v-.1-.1-.1-.1s0-.1-.1-.1c-.2-.3-.4-.7-.6-1l-1.8 1c1.3 2.4 2.5 4.9 3.5 7.4zm-8-14.8-.6-.9-.1-.1v-.1s0-.1-.1-.1c-.8-1.1-1.6-2.2-2.5-3.2v-.1c-.4-.5-.8-.9-1.1-1.3l-1.6 1.4c1.8 2.1 3.5 4.2 5 6.5zm3.7 77.6c.1 0 .1 0 0 0 .1-.1.1-.1 0 0 0-.1.1-.1.1-.1v-.1s0-.1.1-.1c.5-.9 1-1.9 1.5-2.8 0 0 0-.1.1-.1v-.1-.1l.6-1.2-1.9-.9c-1.2 2.4-2.5 4.8-3.9 7.2l1.8 1.1c.9-1.6 1.3-2.2 1.6-2.8zm-37.5 31.4s0-.1 0 0c0-.1 0-.1 0 0 .1 0 .1 0 .2-.1h.9c.7-.3 1.3-.6 2-.9l-.9-1.9c-2.5 1.1-5 2.2-7.6 3l.7 2c3-1.5 3.8-1.8 4.7-2.1zm-35.8 3.5c.1 0 .1 0 0 0h.6c2.5.4 4.9.6 7.4.7l.1-2.1c-2.7-.1-5.4-.4-8.1-.9zm11.4-142.4v-2.1h-.1-.3c-.6 0-1.3 0-1.9.1h-.4-.1-.1-.1-.1-.1-.1-.1-.1-.1-.1-.1-.1-.1-.3l.3 2.1c-1.4.1 1.3-.1 4-.1zm-16 2.2-.5-2h-.1-.1-.1-.1-.3c-2.1.6-4.2 1.4-6.3 2.2l.8 2c1.5-.6 4.1-1.5 6.7-2.2zm-23.7 128.9s.1 0 0 0c.1 0 .1 0 0 0l.1.1h1.2c.5.3 1 .6 1.5.8l1-1.8c-2.4-1.3-4.7-2.8-6.9-4.4l-1.2 1.7c2.7 2.5 3.5 3.1 4.3 3.6zm13.2 7c.1 0 .1 0 0 0h.1c1.9.8 3.8 1.4 5.8 2h.2c.2.1.4.1.5.2l.6-2c-2.6-.8-5.2-1.7-7.7-2.7l-.8 1.9c.6.3 1 .4 1.3.6zm28.2-140.1h-.9v2.1h1.6zm32 9.3s-.1 0-.1-.1l-3.9-2.1h-.1-.1-.1-.1-.1c-.8-.4-1.5-.7-2.3-1.1l-.8 1.9c2.5 1.1 4.9 2.3 7.3 3.7zm-15.4-6.7c-1.9-.6-3.9-1-5.8-1.4h-.1-.1-.1l-1.5-.3-.3 2.1c2.6.4 5.3 1 7.9 1.8zm22.6 129.6.1-.1s.1 0 .1-.1h.3s.1 0 .1-.1h.8l.1-.1-1.3-1.7c-2.1 1.7-4.4 3.2-6.7 4.6l1.1 1.8c2.9-2.6 4.2-3.5 5.4-4.3zm-35.5 12.9s.1 0 0 0c.1 0 .1 0 0 0h.6c1.8-.2 3.7-.5 5.5-.9l-.4-2.1c-2.7.5-5.4.9-8.1 1.1zm-158.9-141.3s-.1 0 0 0c-.1 0-.1 0 0 0h-.1-.1c-.1 0-.1 0-.2-.1-.1 0-.1 0-.2-.1-.1 0-.2-.1-.3-.1s-.3-.1-.4-.1c-1.7-.5-3.4-1-5.2-1.4l-.5 2.1c2.6.6 5.3 1.3 7.8 2.3zm9.4 134.1c.1 0 .1 0 .1-.1h.2c.3-.2.6-.3.9-.5l-1-1.9c-2.4 1.3-4.9 2.4-7.4 3.4l.8 2c2.5-1.1 4.5-2 6.4-2.9zm1.2-129.3s-1.9-1-2.8-1.5l-.9 1.9c.9.4 1.7.9 2.6 1.4-.2.2 1.1-1.8 1.1-1.8zm-15.1 134.4-.5-2c-2.6.7-5.3 1.2-8 1.6l.3 2.1c2.8-.4 5.5-.9 8.2-1.7zm22.9-10.4c.1 0 .1-.1.1-.1h.6s.1 0 .1-.1l.1-.1c1.3-1 2.5-1.9 3.7-3l-1.4-1.6c-2.1 1.8-4.2 3.5-6.5 5zm-56.3-128.4-.5-2h-.1-.1-.1c-.7.2-1.4.4-2 .6h-.1-.1-.1-.1-.1-.1-.1-.1c-1.2.4-2.4.9-3.6 1.3l.8 2c1.2-.3 3.8-1.2 6.4-1.9zm-52.6 57.1-2.1-.4c-.2 1.1-.4 2.2-.5 3.3v.7c-.1 1.1-.2 2.2-.3 3.2l2.1.1c-.1-1.5.3-4.2.8-6.9zm-.2 24.4c-.5-2.7-.8-5.4-.9-8.1l-2.1.1c.2 2.8.5 5.6.9 8.4zm5-40-1.9-.8c-1.1 2.6-2.1 5.2-2.9 7.9l2 .6c.7-2.6 1.7-5.2 2.8-7.7zm39.9 95.4c2.6 1 5.3 1.8 8.1 2.4l.5-2c-2.6-.6-5.3-1.4-7.8-2.3zm22.5 4.2h1.2v-2.1h-.8c-2.4 0-4.9-.1-7.3-.4l-.2 2.1c2.9.2 5 .3 7.1.4zm-37.6-11.7c2.4 1.5 4.8 2.9 7.3 4.2l.9-1.9c-2.4-1.2-4.8-2.6-7.1-4.1zm-27.9-40-2 .6c.8 2.7 1.8 5.3 2.9 7.9l1.9-.8c-1.1-2.5-2-5.1-2.8-7.7zm35.7-83.3-1-1.8c-.6.3-1.1.6-1.7 1 0 0-.1 0-.1.1 0 0-.1 0-.1.1h-.1c-1.7 1-3.3 2-4.9 3.1l1.2 1.7c2-1.5 4.4-2.9 6.7-4.2zm-13.3 9.3-1.4-1.6c-.6.6-1.3 1.1-1.9 1.7 0 0-.1 0-.1.1h-.1l-.1.1-.1.1c-1 1-2 2-3 3.1l1.5 1.4c1.1-1.2 3.1-3.1 5.2-4.9zm-7.4 103.3c2 2 4 3.9 6.2 5.7l1.3-1.6c-2.1-1.7-4.1-3.6-6-5.5zm51.9-120.9v-2.1h-.1-.1-.1-.1-.1-.1c-2.4 0-4.9.2-7.3.6l.3 2.1c2.2-.4 4.9-.6 7.6-.6zm-55.6 29.6-1.7-1.3c-1.7 2.2-3.2 4.6-4.6 7l1.8 1.1c1.3-2.3 2.9-4.6 4.5-6.8zm61.1-31.4c-.7-.1-1.3-.1-2-.1h-.1-.1-.1v2.1c1.8 0 3.5.1 5.3.2zm-67.6 109.4c0 .1 0 .1 0 0 0 .1.1.1 0 0l.1.1v.3s0 .1.1.1l.1.1c.6 1 1.2 2 1.9 2.9l.1.1s0 .1.1.1c0 0 0 .1.1.1v1.4l1.7-1.3c-1.7-2.2-3.2-4.4-4.6-6.8zm203.4 260.4h-109.4v6.3h109.4zm-102 4.3h-5.3v-2.1h5.3zm6.3 0h-4.2v-2.1h4.2zm6.3 0h-4.2v-2.1h4.2zm6.3 0h-4.2v-2.1h4.2zm6.3 0h-4.2v-2.1h4.2zm6.4 0h-4.2v-2.1h4.2zm6.3 0h-4.2v-2.1h4.2zm6.3 0h-4.2v-2.1h4.2zm6.3 0h-4.2v-2.1h4.2zm6.3 0h-4.2v-2.1h4.2zm6.3 0h-4.2v-2.1h4.2zm6.3 0h-4.2v-2.1h4.2zm6.3 0h-4.2v-2.1h4.2zm6.3 0h-4.2v-2.1h4.2zm6.3 0h-4.2v-2.1h4.2v2.1zm6.3 0h-4.2v-2.1h4.2zm5.3 0h-3.1v-2.1h3.1zm-151.4-4.3h-21v6.3h21zm-2.1 4.3h-16.8v-2.1h16.8z"/><path d="m887.7 382.8h-259.1l-4.3-38.9h-2.1l4.5 41h12.6v4.2h-12.6v14.7h262.9v-14.8h-8.4v-4.2h8.4l4.5-41h-2.1zm-246.3 2.1h237.6v4.2h-237.6zm246.1 6.2v10.5h-258.7v-10.5z"/></g></svg>