<svg xmlns="http://www.w3.org/2000/svg" viewBox="0 0 200 200"><path fill="#FFF" d="M92.3 68.9c-2.9-3.6-7-6-11.2-7.6-2.2-.7-4.5-.9-6.8-1.2-2-.2-3.9.1-5.9.4-9.3 1.3-17.6 9.9-19.8 19.2-.7 3.2-.7 6.5 0 9.7.8 2.7 1.9 3.5 3.5 5.7 3.9 5.5 10.3 9 17 9.9 2.5.2 5.1.2 7.6-.1 3.3-.6 6.6-1.7 9.5-3.5C92 98 96.1 92 97 85.4c.2-2.1.1-4.1 0-6.2-.7-3.7-2.1-7.4-4.7-10.3zm54.6-2.7c-5.8-5-14-7.2-21.6-5.7-5.9 1-11.4 4.2-15.1 8.8-3.5 4.3-5.1 9.8-4.8 15.3.5 2.8 1.2 5.7 2.7 8.2 3.7 6.9 11.1 11.4 18.9 12.3 4 .3 8.2.1 12-1.4 7.2-2.5 13.1-8.5 15-15.8 1.9-7.8-1-16.5-7.1-21.7zm49.9 27.7c-2.5-.3-4.6 1.5-6.5 2.8-.2-.7-.3-1.5-.3-2.2V20.6c.1-2.7-.2-5.3-1.1-7.9-2.3-7.2-9.5-12.9-17.3-12.7H29.3c-3.9-.1-7.8 1-10.9 3.3C13 7.1 10 13.7 10.2 20.2v77.1c0 .5-.2.9-.3 1.4l-3.6-2.4c-1.5-.4-3.3-.9-4.7.2-1.4.9-1.7 2.7-1.5 4.2 0 2.1 1.4 3.8 2.7 5.3 10.6 11.7 24.5 20 38.9 26.3.6.3 1.3.5 1.9.8 0 .3-.1 1-.2 1.4-1.2 4-2 8.1-2.7 12.2-1.2 8.2-1.5 13.3.1 21.3.5 1.9 1 3.9 1.6 5.9.7 1.7 1.3 3.3 2.1 5 4.1 8.7 11.5 16 20.7 19.4.4.1.8.3 1.2.4 2.4.6 4.7 1.4 7.2 1.4 2.8 0 5.7.2 8.4-.6 4.4-1.1 8.5-3.4 11.2-7 2.8-3.5 4-8.1 4.1-12.5v-38.7c1.2.1 2.4.3 3.6.7l1.8.3c0 2.2-.2 4.3.1 6.5-.1 9.4 0 18.9 0 28.3-.2 5.2.5 10.8 3.8 15 3 4.3 8.1 6.8 13.2 7.7 6.1.8 12.4 0 18-2.6 7.6-3.4 13.5-9.8 17.2-17 4-7.6 5.6-16.2 5.4-24.6.2-6.9-1.1-13.6-2.7-20.3l-.2-.3c-.3-1.6-.8-3.1-1.1-4.6.3-.1.8-.3 1.1-.5 1.4-.6 2.9-1.3 4.3-1.9 12.8-5.8 25-13.2 34.6-23.4 1.9-1.8 3.7-4.1 3.5-6.8.2-1.9-1.2-3.8-3.1-3.9zm-16.7 7.2c.1.8-.4 1.6-.9 2.2-13.5 6.9-28.6 10.9-43.8 11.3-4.6.5-9.2-.2-13.9-.1-4.6.1-9.4-1-13.7 1.1-3.1 1.4-4.8 4.7-4.9 7.9h-.7c-1.1-.8-2.3-1.6-3.1-2.7-.4-.5-1-.7-1.6-.8-1.8-1.8-3.5-3.8-5.9-4.8-2.8-1.2-5.9-.9-8.9-.9-4.6.2-9.3 0-13.9.4-6.2-.3-12.4-.4-18.4-1.6-10-1.7-19.7-2.7-28.8-7.3-.8-1.6-.5-3.5-.5-5.2V28.1c.1-3.8.2-7.7 1.8-11.2.9-2.2 2.8-4 5-4.9 3.6-1.4 7.6-1.5 11.5-1.4 41.8 0 83.6-.2 125.4-.2 4.1 0 8.7.8 11.6 4.1 3.1 3.4 3.5 8.3 3.7 12.7v73.9z"/></svg>