<svg xmlns="http://www.w3.org/2000/svg" viewBox="0 0 200 160"><path fill="#FFF" d="M200 18.9c-7.3 3.2-15.3 5.4-23.6 6.4 8.5-5 15-12.9 18.1-22.4-7.9 4.6-16.7 8-26.1 9.8C160.9 4.9 150.3 0 138.5 0c-22.6 0-41 18.1-41 40.4 0 3.2.4 6.2 1 9.2-34.1-1.7-64.3-17.7-84.6-42.2-3.5 6-5.6 12.9-5.6 20.3 0 14 7.3 26.4 18.2 33.6-6.7-.2-13-2-18.5-5v.5c0 19.6 14.2 35.9 32.9 39.7-3.4.9-7.1 1.4-10.8 1.4-2.6 0-5.2-.2-7.7-.7 5.2 16 20.4 27.7 38.3 28.1-14 10.8-31.7 17.2-51 17.2-3.3 0-6.5-.2-9.8-.5 18.3 11.3 39.8 18 63 18 75.4 0 116.7-61.5 116.7-114.9l-.1-5.2c8-5.8 15-12.8 20.5-21zm0 0"/></svg>