<svg enable-background="new 0 0 1611.9 408.2" viewBox="0 0 1611.9 408.2" xmlns="http://www.w3.org/2000/svg" xmlns:xlink="http://www.w3.org/1999/xlink"><linearGradient id="a"><stop offset="0" stop-color="#fff"/><stop offset="1" stop-color="#f1f1f2"/></linearGradient><linearGradient id="b" gradientTransform="matrix(1 0 0 -1 0 410)" gradientUnits="userSpaceOnUse" x1="980.4287" x2="1038.0031" xlink:href="#a" y1="371.823" y2="156.9525"/><linearGradient id="c"><stop offset="0" stop-color="#af05c1"/><stop offset="1" stop-color="#006bff"/></linearGradient><linearGradient id="d" gradientTransform="matrix(1 0 0 -1 0 410)" gradientUnits="userSpaceOnUse" x1="889.9" x2="1125.4" xlink:href="#c" y1="260.1" y2="260.1"/><linearGradient id="e" gradientTransform="matrix(1 0 0 -1 0 410)" gradientUnits="userSpaceOnUse" x1="213.0031" x2="270.5774" xlink:href="#a" y1="371.8272" y2="156.9567"/><linearGradient id="f" gradientTransform="matrix(1 0 0 -1 0 410)" gradientUnits="userSpaceOnUse" x1="596.7092" x2="654.2836" xlink:href="#a" y1="371.8233" y2="156.9528"/><linearGradient id="g" gradientTransform="matrix(1 0 0 -1 0 410)" gradientUnits="userSpaceOnUse" x1="1364.2004" x2="1421.7749" xlink:href="#a" y1="371.8367" y2="156.9662"/><linearGradient id="h" gradientTransform="matrix(1 0 0 -1 0 410)" gradientUnits="userSpaceOnUse" x1="119.9" x2="283.7" xlink:href="#c" y1="260.05" y2="260.05"/><linearGradient id="i" gradientTransform="matrix(1 0 0 -1 0 410)" gradientUnits="userSpaceOnUse" x1="507.5" x2="671.3" xlink:href="#c" y1="260.05" y2="260.05"/><linearGradient id="j"><stop offset="0" stop-color="#7a22d2"/><stop offset="1" stop-color="#006bff"/></linearGradient><linearGradient id="k" gradientTransform="matrix(1 0 0 -1 0 410)" gradientUnits="userSpaceOnUse" x1="1084.3044" x2="1147.0955" xlink:href="#j" y1="311.9044" y2="374.6956"/><linearGradient id="l" gradientTransform="matrix(1 0 0 -1 0 410)" gradientUnits="userSpaceOnUse" x1="1087.207" x2="1108.6338" y1="344.5464" y2="362.7591"><stop offset=".05452887" stop-color="#fff" stop-opacity=".001761"/><stop offset=".2793" stop-color="#c0daff" stop-opacity=".2272"/><stop offset=".7804" stop-color="#378bff" stop-opacity=".7298"/><stop offset="1" stop-color="#006bff" stop-opacity=".95"/></linearGradient><linearGradient id="m" gradientTransform="matrix(1 0 0 -1 0 410)" gradientUnits="userSpaceOnUse" x1="1087.84" x2="1143.4961" xlink:href="#j" y1="315.44" y2="371.0962"/><linearGradient id="n" gradientTransform="matrix(1 0 0 -1 0 410)" gradientUnits="userSpaceOnUse" x1="1274.6" x2="1510.1" xlink:href="#c" y1="260.1" y2="260.1"/><path d="m1143.8 144.5h1.5" fill="none" stroke="#006bff" stroke-miterlimit="10"/><path d="m1148.3 144.5h75.2" fill="none" stroke="#006bff" stroke-dasharray="2.951 2.951" stroke-miterlimit="10"/><path d="m1225 144.5h1.5" fill="none" stroke="#006bff" stroke-miterlimit="10"/><path d="m1233.5 144.5-9.9 4.1 2.4-4.1-2.4-4z" fill="#006bff"/><path d="m1119.1 104.5c.2-1.3.4-2.6.4-3.9 0-11.5-9.3-20.8-20.8-20.8-.9 0-1.9.1-2.8.2-7.9-28-33.7-48.6-64.3-48.6-19.1 0-36.3 8-48.5 20.9-3.2 3.4-6.1 7.2-8.6 11.2-10.5-6.3-22.8-10-35.9-10-19.9 0-37.9 8.4-50.6 21.8-11.9 12.5-19.1 29.4-19.1 48 0 12.4 3.3 24.1 9 34.2-5 7.8-7.8 17-7.8 26.9 0 27.7 22.4 50.1 50.1 50.1h177c36.9 0 66.8-29.9 66.8-66.8.1-29.3-18.7-54.1-44.9-63.2z" fill="url(#b)" stroke="#a6a8ab" stroke-miterlimit="10"/><path d="m1101.6 226.3h-187.8c-12.6 0-22.9-10.2-22.9-22.9v-107c0-12.6 10.2-22.9 22.9-22.9h187.7c12.6 0 22.9 10.2 22.9 22.9v107c0 12.7-10.2 22.9-22.8 22.9z" fill="none" stroke="url(#d)" stroke-miterlimit="10" stroke-width="2"/><path d="m376.7 144.5h1.5" fill="none" stroke="#006bff" stroke-miterlimit="10"/><path d="m381.2 144.5h75.2" fill="none" stroke="#006bff" stroke-dasharray="2.951 2.951" stroke-miterlimit="10"/><path d="m457.9 144.5h1.5" fill="none" stroke="#006bff" stroke-miterlimit="10"/><path d="m466.5 144.5-10 4.1 2.4-4.1-2.4-4z" fill="#006bff"/><path d="m761 144.5h1.5" fill="none" stroke="#006bff" stroke-miterlimit="10"/><path d="m765.5 144.5h75.2" fill="none" stroke="#006bff" stroke-dasharray="2.951 2.951" stroke-miterlimit="10"/><path d="m842.2 144.5h1.5" fill="none" stroke="#006bff" stroke-miterlimit="10"/><path d="m850.8 144.5-10 4.1 2.4-4.1-2.4-4z" fill="#006bff"/><path d="m351.7 104.5c.2-1.3.4-2.6.4-3.9 0-11.5-9.3-20.8-20.8-20.8-.9 0-1.9.1-2.8.2-7.9-28-33.7-48.6-64.3-48.6-19.1 0-36.3 8-48.5 20.9-3.2 3.4-6.1 7.2-8.6 11.2-10.5-6.3-22.8-10-35.9-10-19.9 0-37.9 8.4-50.6 21.8-11.9 12.5-19.1 29.4-19.1 48 0 12.4 3.3 24.1 9 34.2-5 7.8-7.8 17-7.8 26.9 0 27.7 22.4 50.1 50.1 50.1h177c36.9 0 66.8-29.9 66.8-66.8 0-29.3-18.8-54.1-44.9-63.2z" fill="url(#e)" stroke="#a6a8ab" stroke-miterlimit="10"/><path d="m735.4 104.5c.2-1.3.4-2.6.4-3.9 0-11.5-9.3-20.8-20.8-20.8-.9 0-1.9.1-2.8.2-7.9-28-33.7-48.6-64.3-48.6-19.1 0-36.3 8-48.5 20.9-3.2 3.4-6.1 7.2-8.6 11.2-10.5-6.3-22.8-10-35.9-10-19.9 0-37.9 8.4-50.6 21.8-11.9 12.5-19.1 29.4-19.1 48 0 12.4 3.3 24.1 9 34.2-5 7.8-7.8 17-7.8 26.9 0 27.7 22.4 50.1 50.1 50.1h177c36.9 0 66.8-29.9 66.8-66.8 0-29.3-18.7-54.1-44.9-63.2z" fill="url(#f)" stroke="#a6a8ab" stroke-miterlimit="10"/><path d="m1502.9 104.5c.2-1.3.4-2.6.4-3.9 0-11.5-9.3-20.8-20.8-20.8-.9 0-1.9.1-2.8.2-7.9-28-33.7-48.6-64.3-48.6-19.1 0-36.3 8-48.5 20.9-3.2 3.4-6.1 7.2-8.6 11.2-10.5-6.3-22.8-10-35.9-10-19.9 0-37.9 8.4-50.6 21.8-11.9 12.5-19.1 29.4-19.1 48 0 12.4 3.3 24.1 9 34.2-5 7.8-7.8 17-7.8 26.9 0 27.7 22.4 50.1 50.1 50.1h177c36.9 0 66.8-29.9 66.8-66.8 0-29.3-18.8-54.1-44.9-63.2z" fill="url(#g)" stroke="#a6a8ab" stroke-miterlimit="10"/><path d="m135.4 127.2v43.3c0 5.4 9.9 9.7 22 9.7s22-4.4 22-9.7v-43.3" fill="#fff" stroke="#999" stroke-miterlimit="10" stroke-width=".5"/><ellipse cx="157.4" cy="127.2" fill="#fff" rx="22" ry="9.7" stroke="#999" stroke-miterlimit="10" stroke-width=".5"/><path d="m135.4 159.3c0 5.4 9.9 9.7 22 9.7s22-4.4 22-9.7" fill="none" stroke="#999" stroke-miterlimit="10" stroke-width=".5"/><path d="m135.4 148.3c0 5.4 9.9 9.7 22 9.7s22-4.4 22-9.7" fill="none" stroke="#999" stroke-miterlimit="10" stroke-width=".5"/><path d="m135.4 137.8c0 5.4 9.9 9.7 22 9.7s22-4.4 22-9.7" fill="none" stroke="#999" stroke-miterlimit="10" stroke-width=".5"/><circle cx="172.6" cy="139.8" fill="#d4d4d4" r="1.6"/><circle cx="172.6" cy="150.4" fill="#d4d4d4" r="1.6"/><circle cx="172.6" cy="161.1" fill="#d4d4d4" r="1.6"/><circle cx="172.6" cy="171.8" fill="#d4d4d4" r="1.6"/><path d="m255.8 211.7h-59c-1.9 0-3.5-1.6-3.5-3.5v-116.5c0-1.9 1.6-3.5 3.5-3.5h59c1.9 0 3.5 1.6 3.5 3.5v116.5c0 2-1.5 3.5-3.5 3.5z" fill="#fff" stroke="#999" stroke-miterlimit="10" stroke-width=".5"/><path d="m196.1 93.2h60.5v8.2h-60.5z" fill="#fff" stroke="#999" stroke-miterlimit="10" stroke-width=".5"/><path d="m196.1 104.2h60.5v8.2h-60.5z" fill="#fff" stroke="#999" stroke-miterlimit="10" stroke-width=".5"/><path d="m196.1 115.2h60.5v8.2h-60.5z" fill="#fff" stroke="#999" stroke-miterlimit="10" stroke-width=".5"/><path d="m196.1 126.1h60.5v8.2h-60.5z" fill="#fff" stroke="#999" stroke-miterlimit="10" stroke-width=".5"/><path d="m196.1 137.1h60.5v8.2h-60.5z" fill="#fff" stroke="#999" stroke-miterlimit="10" stroke-width=".5"/><path d="m196.1 148.1h60.5v8.2h-60.5z" fill="#fff" stroke="#999" stroke-miterlimit="10" stroke-width=".5"/><path d="m196.1 159h60.5v8.2h-60.5z" fill="#fff" stroke="#999" stroke-miterlimit="10" stroke-width=".5"/><path d="m196.1 170h60.5v8.2h-60.5z" fill="#fff" stroke="#999" stroke-miterlimit="10" stroke-width=".5"/><path d="m196.1 180.9h60.5v8.2h-60.5z" fill="#fff" stroke="#999" stroke-miterlimit="10" stroke-width=".5"/><path d="m196.1 191.9h60.5v8.2h-60.5z" fill="#fff" stroke="#999" stroke-miterlimit="10" stroke-width=".5"/><path d="m198 95.1h1.7v4.6h-1.7z" fill="#fff"/><path d="m199.4 95.4v4.1h-1.2v-4.1zm.5-.5h-2.2v5.1h2.2z" fill="#999"/><path d="m253 95.1h1.7v4.6h-1.7z" fill="#fff"/><path d="m254.5 95.4v4.1h-1.2v-4.1zm.5-.5h-2.2v5.1h2.2z" fill="#999"/><circle cx="202.4" cy="97.4" fill="#d6d6d5" r="1"/><path d="m198 106.1h1.7v4.6h-1.7z" fill="#fff"/><path d="m199.4 106.3v4.1h-1.2v-4.1zm.5-.5h-2.2v5.1h2.2z" fill="#999"/><path d="m253 106.1h1.7v4.6h-1.7z" fill="#fff"/><path d="m254.5 106.3v4.1h-1.2v-4.1zm.5-.5h-2.2v5.1h2.2z" fill="#999"/><circle cx="202.4" cy="108.4" fill="#d6d6d5" r="1"/><path d="m198 117.1h1.7v4.6h-1.7z" fill="#fff"/><path d="m199.4 117.3v4.1h-1.2v-4.1zm.5-.5h-2.2v5.1h2.2z" fill="#999"/><path d="m253 117.1h1.7v4.6h-1.7z" fill="#fff"/><path d="m254.5 117.3v4.1h-1.2v-4.1zm.5-.5h-2.2v5.1h2.2z" fill="#999"/><circle cx="202.4" cy="119.3" fill="#d6d6d5" r="1"/><path d="m198 128h1.7v4.6h-1.7z" fill="#fff"/><path d="m199.4 128.3v4.1h-1.2v-4.1zm.5-.5h-2.2v5.1h2.2z" fill="#999"/><path d="m253 128h1.7v4.6h-1.7z" fill="#fff"/><path d="m254.5 128.3v4.1h-1.2v-4.1zm.5-.5h-2.2v5.1h2.2z" fill="#999"/><circle cx="202.4" cy="130.3" fill="#d6d6d5" r="1"/><path d="m198 139h1.7v4.6h-1.7z" fill="#fff"/><path d="m199.4 139.2v4.1h-1.2v-4.1zm.5-.5h-2.2v5.1h2.2z" fill="#999"/><path d="m253 139h1.7v4.6h-1.7z" fill="#fff"/><path d="m254.5 139.2v4.1h-1.2v-4.1zm.5-.5h-2.2v5.1h2.2z" fill="#999"/><circle cx="202.4" cy="141.3" fill="#d6d6d5" r="1"/><path d="m198 149.9h1.7v4.6h-1.7z" fill="#fff"/><path d="m199.4 150.2v4.1h-1.2v-4.1zm.5-.5h-2.2v5.1h2.2z" fill="#999"/><path d="m253 149.9h1.7v4.6h-1.7z" fill="#fff"/><path d="m254.5 150.2v4.1h-1.2v-4.1zm.5-.5h-2.2v5.1h2.2z" fill="#999"/><circle cx="202.4" cy="152.2" fill="#d6d6d5" r="1"/><path d="m198 160.9h1.7v4.6h-1.7z" fill="#fff"/><path d="m199.4 161.2v4.1h-1.2v-4.1zm.5-.5h-2.2v5.1h2.2z" fill="#999"/><path d="m253 160.9h1.7v4.6h-1.7z" fill="#fff"/><path d="m254.5 161.2v4.1h-1.2v-4.1zm.5-.5h-2.2v5.1h2.2z" fill="#999"/><circle cx="202.4" cy="163.2" fill="#d6d6d5" r="1"/><path d="m198 171.9h1.7v4.6h-1.7z" fill="#fff"/><path d="m199.4 172.1v4.1h-1.2v-4.1zm.5-.5h-2.2v5.1h2.2z" fill="#999"/><path d="m253 171.9h1.7v4.6h-1.7z" fill="#fff"/><path d="m254.5 172.1v4.1h-1.2v-4.1zm.5-.5h-2.2v5.1h2.2z" fill="#999"/><circle cx="202.4" cy="174.1" fill="#d6d6d5" r="1"/><path d="m198 182.8h1.7v4.6h-1.7z" fill="#fff"/><path d="m199.4 183.1v4.1h-1.2v-4.1zm.5-.5h-2.2v5.1h2.2z" fill="#999"/><path d="m253 182.8h1.7v4.6h-1.7z" fill="#fff"/><path d="m254.5 183.1v4.1h-1.2v-4.1zm.5-.5h-2.2v5.1h2.2z" fill="#999"/><circle cx="202.4" cy="185.1" fill="#d6d6d5" r="1"/><path d="m198 193.8h1.7v4.6h-1.7z" fill="#fff"/><path d="m199.4 194v4.1h-1.2v-4.1zm.5-.5h-2.2v5.1h2.2z" fill="#999"/><path d="m253 193.8h1.7v4.6h-1.7z" fill="#fff"/><path d="m254.5 194v4.1h-1.2v-4.1zm.5-.5h-2.2v5.1h2.2z" fill="#999"/><circle cx="202.4" cy="196.1" fill="#d6d6d5" r="1"/><path d="m140.4 157v43.3c0 5.4 9.9 9.7 22 9.7s22-4.4 22-9.7v-43.3" fill="#fff" stroke="#999" stroke-miterlimit="10" stroke-width=".5"/><ellipse cx="162.5" cy="157" fill="#fff" rx="22" ry="9.7" stroke="#999" stroke-miterlimit="10" stroke-width=".5"/><path d="m140.4 189.2c0 5.4 9.9 9.7 22 9.7s22-4.4 22-9.7" fill="none" stroke="#999" stroke-miterlimit="10" stroke-width=".5"/><path d="m140.4 178.1c0 5.4 9.9 9.7 22 9.7s22-4.4 22-9.7" fill="none" stroke="#999" stroke-miterlimit="10" stroke-width=".5"/><path d="m140.4 167.7c0 5.4 9.9 9.7 22 9.7s22-4.4 22-9.7" fill="none" stroke="#999" stroke-miterlimit="10" stroke-width=".5"/><circle cx="177.7" cy="169.6" fill="#d4d4d4" r="1.6"/><circle cx="177.7" cy="180.3" fill="#d4d4d4" r="1.6"/><circle cx="177.7" cy="191" fill="#d4d4d4" r="1.6"/><circle cx="177.7" cy="201.6" fill="#d4d4d4" r="1.6"/><path d="m260.3 226.3h-117c-12.4 0-22.4-10-22.4-22.4v-107.9c0-12.4 10-22.4 22.4-22.4h117c12.4 0 22.4 10 22.4 22.4v108c0 12.3-10 22.3-22.4 22.3z" fill="none" stroke="url(#h)" stroke-miterlimit="10" stroke-width="2"/><path d="m523 127.2v43.3c0 5.4 9.9 9.7 22 9.7 12.2 0 22-4.4 22-9.7v-43.3" fill="#fff" stroke="#999" stroke-miterlimit="10" stroke-width=".5"/><ellipse cx="545" cy="127.2" fill="#fff" rx="22" ry="9.7" stroke="#999" stroke-miterlimit="10" stroke-width=".5"/><path d="m523 159.3c0 5.4 9.9 9.7 22 9.7 12.2 0 22-4.4 22-9.7" fill="none" stroke="#999" stroke-miterlimit="10" stroke-width=".5"/><path d="m523 148.3c0 5.4 9.9 9.7 22 9.7 12.2 0 22-4.4 22-9.7" fill="none" stroke="#999" stroke-miterlimit="10" stroke-width=".5"/><path d="m523 137.8c0 5.4 9.9 9.7 22 9.7 12.2 0 22-4.4 22-9.7" fill="none" stroke="#999" stroke-miterlimit="10" stroke-width=".5"/><circle cx="560.2" cy="139.8" fill="#d4d4d4" r="1.6"/><circle cx="560.2" cy="150.4" fill="#d4d4d4" r="1.6"/><circle cx="560.2" cy="161.1" fill="#d4d4d4" r="1.6"/><circle cx="560.2" cy="171.8" fill="#d4d4d4" r="1.6"/><path d="m643.5 211.7h-59c-1.9 0-3.5-1.6-3.5-3.5v-116.5c0-1.9 1.6-3.5 3.5-3.5h59c1.9 0 3.5 1.6 3.5 3.5v116.5c-.1 2-1.6 3.5-3.5 3.5z" fill="#fff" stroke="#999" stroke-miterlimit="10" stroke-width=".5"/><path d="m583.7 93.2h60.5v8.2h-60.5z" fill="#fff" stroke="#999" stroke-miterlimit="10" stroke-width=".5"/><path d="m583.7 104.2h60.5v8.2h-60.5z" fill="#fff" stroke="#999" stroke-miterlimit="10" stroke-width=".5"/><path d="m583.7 115.2h60.5v8.2h-60.5z" fill="#fff" stroke="#999" stroke-miterlimit="10" stroke-width=".5"/><path d="m583.7 126.1h60.5v8.2h-60.5z" fill="#fff" stroke="#999" stroke-miterlimit="10" stroke-width=".5"/><path d="m583.7 137.1h60.5v8.2h-60.5z" fill="#fff" stroke="#999" stroke-miterlimit="10" stroke-width=".5"/><path d="m583.7 148.1h60.5v8.2h-60.5z" fill="#fff" stroke="#999" stroke-miterlimit="10" stroke-width=".5"/><path d="m583.7 159h60.5v8.2h-60.5z" fill="#fff" stroke="#999" stroke-miterlimit="10" stroke-width=".5"/><path d="m583.7 170h60.5v8.2h-60.5z" fill="#fff" stroke="#999" stroke-miterlimit="10" stroke-width=".5"/><path d="m583.7 180.9h60.5v8.2h-60.5z" fill="#fff" stroke="#999" stroke-miterlimit="10" stroke-width=".5"/><path d="m583.7 191.9h60.5v8.2h-60.5z" fill="#fff" stroke="#999" stroke-miterlimit="10" stroke-width=".5"/><path d="m585.6 95.1h1.7v4.6h-1.7z" fill="#fff"/><path d="m587 95.4v4.1h-1.2v-4.1zm.5-.5h-2.2v5.1h2.2z" fill="#999"/><path d="m640.6 95.1h1.7v4.6h-1.7z" fill="#fff"/><path d="m642.1 95.4v4.1h-1.2v-4.1zm.5-.5h-2.2v5.1h2.2z" fill="#999"/><circle cx="590" cy="97.4" fill="#d6d6d5" r="1"/><path d="m585.6 106.1h1.7v4.6h-1.7z" fill="#fff"/><path d="m587 106.3v4.1h-1.2v-4.1zm.5-.5h-2.2v5.1h2.2z" fill="#999"/><path d="m640.6 106.1h1.7v4.6h-1.7z" fill="#fff"/><path d="m642.1 106.3v4.1h-1.2v-4.1zm.5-.5h-2.2v5.1h2.2z" fill="#999"/><circle cx="590" cy="108.4" fill="#d6d6d5" r="1"/><path d="m585.6 117.1h1.7v4.6h-1.7z" fill="#fff"/><path d="m587 117.3v4.1h-1.2v-4.1zm.5-.5h-2.2v5.1h2.2z" fill="#999"/><path d="m640.6 117.1h1.7v4.6h-1.7z" fill="#fff"/><path d="m642.1 117.3v4.1h-1.2v-4.1zm.5-.5h-2.2v5.1h2.2z" fill="#999"/><circle cx="590" cy="119.3" fill="#d6d6d5" r="1"/><path d="m585.6 128h1.7v4.6h-1.7z" fill="#fff"/><path d="m587 128.3v4.1h-1.2v-4.1zm.5-.5h-2.2v5.1h2.2z" fill="#999"/><path d="m640.6 128h1.7v4.6h-1.7z" fill="#fff"/><path d="m642.1 128.3v4.1h-1.2v-4.1zm.5-.5h-2.2v5.1h2.2z" fill="#999"/><circle cx="590" cy="130.3" fill="#d6d6d5" r="1"/><path d="m585.6 139h1.7v4.6h-1.7z" fill="#fff"/><path d="m587 139.2v4.1h-1.2v-4.1zm.5-.5h-2.2v5.1h2.2z" fill="#999"/><path d="m640.6 139h1.7v4.6h-1.7z" fill="#fff"/><path d="m642.1 139.2v4.1h-1.2v-4.1zm.5-.5h-2.2v5.1h2.2z" fill="#999"/><circle cx="590" cy="141.3" fill="#d6d6d5" r="1"/><path d="m585.6 149.9h1.7v4.6h-1.7z" fill="#fff"/><path d="m587 150.2v4.1h-1.2v-4.1zm.5-.5h-2.2v5.1h2.2z" fill="#999"/><path d="m640.6 149.9h1.7v4.6h-1.7z" fill="#fff"/><path d="m642.1 150.2v4.1h-1.2v-4.1zm.5-.5h-2.2v5.1h2.2z" fill="#999"/><circle cx="590" cy="152.2" fill="#d6d6d5" r="1"/><path d="m585.6 160.9h1.7v4.6h-1.7z" fill="#fff"/><path d="m587 161.2v4.1h-1.2v-4.1zm.5-.5h-2.2v5.1h2.2z" fill="#999"/><path d="m640.6 160.9h1.7v4.6h-1.7z" fill="#fff"/><path d="m642.1 161.2v4.1h-1.2v-4.1zm.5-.5h-2.2v5.1h2.2z" fill="#999"/><circle cx="590" cy="163.2" fill="#d6d6d5" r="1"/><path d="m585.6 171.9h1.7v4.6h-1.7z" fill="#fff"/><path d="m587 172.1v4.1h-1.2v-4.1zm.5-.5h-2.2v5.1h2.2z" fill="#999"/><path d="m640.6 171.9h1.7v4.6h-1.7z" fill="#fff"/><path d="m642.1 172.1v4.1h-1.2v-4.1zm.5-.5h-2.2v5.1h2.2z" fill="#999"/><circle cx="590" cy="174.1" fill="#d6d6d5" r="1"/><path d="m585.6 182.8h1.7v4.6h-1.7z" fill="#fff"/><path d="m587 183.1v4.1h-1.2v-4.1zm.5-.5h-2.2v5.1h2.2z" fill="#999"/><path d="m640.6 182.8h1.7v4.6h-1.7z" fill="#fff"/><path d="m642.1 183.1v4.1h-1.2v-4.1zm.5-.5h-2.2v5.1h2.2z" fill="#999"/><circle cx="590" cy="185.1" fill="#d6d6d5" r="1"/><path d="m585.6 193.8h1.7v4.6h-1.7z" fill="#fff"/><path d="m587 194v4.1h-1.2v-4.1zm.5-.5h-2.2v5.1h2.2z" fill="#999"/><path d="m640.6 193.8h1.7v4.6h-1.7z" fill="#fff"/><path d="m642.1 194v4.1h-1.2v-4.1zm.5-.5h-2.2v5.1h2.2z" fill="#999"/><circle cx="590" cy="196.1" fill="#d6d6d5" r="1"/><path d="m736.1 214.3h-46c-1.5 0-2.7-1.2-2.7-2.7v-90.7c0-1.5 1.2-2.7 2.7-2.7h46c1.5 0 2.7 1.2 2.7 2.7v90.7c0 1.5-1.2 2.7-2.7 2.7z" fill="#fff" stroke="#999" stroke-miterlimit="10" stroke-width=".5"/><path d="m689.6 122.1h47.1v6.4h-47.1z" fill="#fff" stroke="#999" stroke-miterlimit="10" stroke-width=".5"/><path d="m689.6 130.6h47.1v6.4h-47.1z" fill="#fff" stroke="#999" stroke-miterlimit="10" stroke-width=".5"/><path d="m689.6 139.1h47.1v6.4h-47.1z" fill="#fff" stroke="#999" stroke-miterlimit="10" stroke-width=".5"/><path d="m689.6 147.7h47.1v6.4h-47.1z" fill="#fff" stroke="#999" stroke-miterlimit="10" stroke-width=".5"/><path d="m689.6 156.2h47.1v6.4h-47.1z" fill="#fff" stroke="#999" stroke-miterlimit="10" stroke-width=".5"/><path d="m689.6 164.7h47.1v6.4h-47.1z" fill="#fff" stroke="#999" stroke-miterlimit="10" stroke-width=".5"/><path d="m689.6 173.3h47.1v6.4h-47.1z" fill="#fff" stroke="#999" stroke-miterlimit="10" stroke-width=".5"/><path d="m689.6 181.8h47.1v6.4h-47.1z" fill="#fff" stroke="#999" stroke-miterlimit="10" stroke-width=".5"/><path d="m689.6 190.3h47.1v6.4h-47.1z" fill="#fff" stroke="#999" stroke-miterlimit="10" stroke-width=".5"/><path d="m689.6 198.9h47.1v6.4h-47.1z" fill="#fff" stroke="#999" stroke-miterlimit="10" stroke-width=".5"/><path d="m691.1 123.6h1.2v3.4h-1.2z" fill="#fff"/><path d="m692.1 123.8v2.9h-.7v-2.9zm.5-.5h-1.7v3.9h1.7z" fill="#999"/><path d="m734 123.6h1.2v3.4h-1.2z" fill="#fff"/><path d="m734.9 123.8v2.9h-.7v-2.9zm.5-.5h-1.7v3.9h1.7z" fill="#999"/><circle cx="694.5" cy="125.3" fill="#d6d6d5" r=".8"/><path d="m691.1 132.1h1.2v3.4h-1.2z" fill="#fff"/><path d="m692.1 132.4v2.9h-.7v-2.9zm.5-.5h-1.7v3.9h1.7z" fill="#999"/><path d="m734 132.1h1.2v3.4h-1.2z" fill="#fff"/><path d="m734.9 132.4v2.9h-.7v-2.9zm.5-.5h-1.7v3.9h1.7z" fill="#999"/><circle cx="694.5" cy="133.8" fill="#d6d6d5" r=".8"/><path d="m691.1 140.7h1.2v3.4h-1.2z" fill="#fff"/><path d="m692.1 140.9v2.9h-.7v-2.9zm.5-.5h-1.7v3.9h1.7z" fill="#999"/><path d="m734 140.7h1.2v3.4h-1.2z" fill="#fff"/><path d="m734.9 140.9v2.9h-.7v-2.9zm.5-.5h-1.7v3.9h1.7z" fill="#999"/><circle cx="694.5" cy="142.4" fill="#d6d6d5" r=".8"/><path d="m691.1 149.2h1.2v3.4h-1.2z" fill="#fff"/><path d="m692.1 149.4v2.9h-.7v-2.9zm.5-.5h-1.7v3.9h1.7z" fill="#999"/><path d="m734 149.2h1.2v3.4h-1.2z" fill="#fff"/><path d="m734.9 149.4v2.9h-.7v-2.9zm.5-.5h-1.7v3.9h1.7z" fill="#999"/><circle cx="694.5" cy="150.9" fill="#d6d6d5" r=".8"/><path d="m691.1 157.7h1.2v3.4h-1.2z" fill="#fff"/><path d="m692.1 158v2.9h-.7v-2.9zm.5-.5h-1.7v3.9h1.7z" fill="#999"/><path d="m734 157.7h1.2v3.4h-1.2z" fill="#fff"/><path d="m734.9 158v2.9h-.7v-2.9zm.5-.5h-1.7v3.9h1.7z" fill="#999"/><circle cx="694.5" cy="159.4" fill="#d6d6d5" r=".8"/><path d="m691.1 166.3h1.2v3.4h-1.2z" fill="#fff"/><path d="m692.1 166.5v2.9h-.7v-2.9zm.5-.5h-1.7v3.9h1.7z" fill="#999"/><path d="m734 166.3h1.2v3.4h-1.2z" fill="#fff"/><path d="m734.9 166.5v2.9h-.7v-2.9zm.5-.5h-1.7v3.9h1.7z" fill="#999"/><circle cx="694.5" cy="168" fill="#d6d6d5" r=".8"/><path d="m691.1 174.8h1.2v3.4h-1.2z" fill="#fff"/><path d="m692.1 175v2.9h-.7v-2.9zm.5-.5h-1.7v3.9h1.7z" fill="#999"/><path d="m734 174.8h1.2v3.4h-1.2z" fill="#fff"/><path d="m734.9 175v2.9h-.7v-2.9zm.5-.5h-1.7v3.9h1.7z" fill="#999"/><circle cx="694.5" cy="176.5" fill="#d6d6d5" r=".8"/><path d="m691.1 183.3h1.2v3.4h-1.2z" fill="#fff"/><path d="m692.1 183.6v2.9h-.7v-2.9zm.5-.5h-1.7v3.9h1.7z" fill="#999"/><path d="m734 183.3h1.2v3.4h-1.2z" fill="#fff"/><path d="m734.9 183.6v2.9h-.7v-2.9zm.5-.5h-1.7v3.9h1.7z" fill="#999"/><circle cx="694.5" cy="185.1" fill="#d6d6d5" r=".8"/><path d="m691.1 191.9h1.2v3.4h-1.2z" fill="#fff"/><path d="m692.1 192.1v2.9h-.7v-2.9zm.5-.5h-1.7v3.9h1.7z" fill="#999"/><path d="m734 191.9h1.2v3.4h-1.2z" fill="#fff"/><path d="m734.9 192.1v2.9h-.7v-2.9zm.5-.5h-1.7v3.9h1.7z" fill="#999"/><circle cx="694.5" cy="193.6" fill="#d6d6d5" r=".8"/><path d="m691.1 200.4h1.2v3.4h-1.2z" fill="#fff"/><path d="m692.1 200.7v2.9h-.7v-2.9zm.5-.5h-1.7v3.9h1.7z" fill="#999"/><path d="m734 200.4h1.2v3.4h-1.2z" fill="#fff"/><path d="m734.9 200.7v2.9h-.7v-2.9zm.5-.5h-1.7v3.9h1.7z" fill="#999"/><circle cx="694.5" cy="202.1" fill="#d6d6d5" r=".8"/><path d="m528 157v43.3c0 5.4 9.9 9.7 22 9.7 12.2 0 22-4.4 22-9.7v-43.3" fill="#fff" stroke="#999" stroke-miterlimit="10" stroke-width=".5"/><ellipse cx="550.1" cy="157" fill="#fff" rx="22" ry="9.7" stroke="#999" stroke-miterlimit="10" stroke-width=".5"/><path d="m528 189.2c0 5.4 9.9 9.7 22 9.7 12.2 0 22-4.4 22-9.7" fill="none" stroke="#999" stroke-miterlimit="10" stroke-width=".5"/><path d="m528 178.1c0 5.4 9.9 9.7 22 9.7 12.2 0 22-4.4 22-9.7" fill="none" stroke="#999" stroke-miterlimit="10" stroke-width=".5"/><path d="m528 167.7c0 5.4 9.9 9.7 22 9.7 12.2 0 22-4.4 22-9.7" fill="none" stroke="#999" stroke-miterlimit="10" stroke-width=".5"/><circle cx="565.3" cy="169.6" fill="#d4d4d4" r="1.6"/><circle cx="565.3" cy="180.3" fill="#d4d4d4" r="1.6"/><circle cx="565.3" cy="191" fill="#d4d4d4" r="1.6"/><circle cx="565.3" cy="201.6" fill="#d4d4d4" r="1.6"/><path d="m647.9 226.3h-117c-12.4 0-22.4-10-22.4-22.4v-107.9c0-12.4 10-22.4 22.4-22.4h117c12.4 0 22.4 10 22.4 22.4v108c0 12.3-10 22.3-22.4 22.3z" fill="none" stroke="url(#i)" stroke-miterlimit="10" stroke-width="2"/><circle cx="691" cy="125.1" fill="#fff" r="11.6"/><path d="m691 115.4c-5.4 0-9.7 4.3-9.7 9.7s4.3 9.7 9.7 9.7 9.7-4.3 9.7-9.7-4.3-9.7-9.7-9.7zm5.3 10.7h-4.2v4.2h-2.1v-4.2h-4.2v-2.1h4.2v-4.2h2.1v4.2h4.2z" fill="#006bff"/><path d="m905.1 127.2v43.3c0 5.4 9.9 9.7 22 9.7s22-4.4 22-9.7v-43.3" fill="#fff" stroke="#999" stroke-miterlimit="10" stroke-width=".5"/><ellipse cx="927.1" cy="127.2" fill="#fff" rx="22" ry="9.7" stroke="#999" stroke-miterlimit="10" stroke-width=".5"/><path d="m905.1 159.3c0 5.4 9.9 9.7 22 9.7s22-4.4 22-9.7" fill="none" stroke="#999" stroke-miterlimit="10" stroke-width=".5"/><path d="m905.1 148.3c0 5.4 9.9 9.7 22 9.7s22-4.4 22-9.7" fill="none" stroke="#999" stroke-miterlimit="10" stroke-width=".5"/><path d="m905.1 137.8c0 5.4 9.9 9.7 22 9.7s22-4.4 22-9.7" fill="none" stroke="#999" stroke-miterlimit="10" stroke-width=".5"/><circle cx="942.3" cy="139.8" fill="#d4d4d4" r="1.6"/><circle cx="942.3" cy="150.4" fill="#d4d4d4" r="1.6"/><circle cx="942.3" cy="161.1" fill="#d4d4d4" r="1.6"/><circle cx="942.3" cy="171.8" fill="#d4d4d4" r="1.6"/><path d="m1025.6 211.7h-59c-1.9 0-3.5-1.6-3.5-3.5v-116.5c0-1.9 1.6-3.5 3.5-3.5h59c1.9 0 3.5 1.6 3.5 3.5v116.5c-.1 2-1.6 3.5-3.5 3.5z" fill="#fff" stroke="#999" stroke-miterlimit="10" stroke-width=".5"/><path d="m965.8 93.2h60.5v8.2h-60.5z" fill="#fff" stroke="#999" stroke-miterlimit="10" stroke-width=".5"/><path d="m965.8 104.2h60.5v8.2h-60.5z" fill="#fff" stroke="#999" stroke-miterlimit="10" stroke-width=".5"/><path d="m965.8 115.2h60.5v8.2h-60.5z" fill="#fff" stroke="#999" stroke-miterlimit="10" stroke-width=".5"/><path d="m965.8 126.1h60.5v8.2h-60.5z" fill="#fff" stroke="#999" stroke-miterlimit="10" stroke-width=".5"/><path d="m965.8 137.1h60.5v8.2h-60.5z" fill="#fff" stroke="#999" stroke-miterlimit="10" stroke-width=".5"/><path d="m965.8 148.1h60.5v8.2h-60.5z" fill="#fff" stroke="#999" stroke-miterlimit="10" stroke-width=".5"/><path d="m965.8 159h60.5v8.2h-60.5z" fill="#fff" stroke="#999" stroke-miterlimit="10" stroke-width=".5"/><path d="m965.8 170h60.5v8.2h-60.5z" fill="#fff" stroke="#999" stroke-miterlimit="10" stroke-width=".5"/><path d="m965.8 180.9h60.5v8.2h-60.5z" fill="#fff" stroke="#999" stroke-miterlimit="10" stroke-width=".5"/><path d="m965.8 191.9h60.5v8.2h-60.5z" fill="#fff" stroke="#999" stroke-miterlimit="10" stroke-width=".5"/><path d="m967.7 95.1h1.7v4.6h-1.7z" fill="#fff"/><path d="m969.1 95.4v4.1h-1.2v-4.1zm.5-.5h-2.2v5.1h2.2z" fill="#999"/><path d="m1022.7 95.1h1.7v4.6h-1.7z" fill="#fff"/><path d="m1024.2 95.4v4.1h-1.2v-4.1zm.5-.5h-2.2v5.1h2.2z" fill="#999"/><circle cx="972.1" cy="97.4" fill="#d6d6d5" r="1"/><path d="m967.7 106.1h1.7v4.6h-1.7z" fill="#fff"/><path d="m969.1 106.3v4.1h-1.2v-4.1zm.5-.5h-2.2v5.1h2.2z" fill="#999"/><path d="m1022.7 106.1h1.7v4.6h-1.7z" fill="#fff"/><path d="m1024.2 106.3v4.1h-1.2v-4.1zm.5-.5h-2.2v5.1h2.2z" fill="#999"/><circle cx="972.1" cy="108.4" fill="#d6d6d5" r="1"/><path d="m967.7 117.1h1.7v4.6h-1.7z" fill="#fff"/><path d="m969.1 117.3v4.1h-1.2v-4.1zm.5-.5h-2.2v5.1h2.2z" fill="#999"/><path d="m1022.7 117.1h1.7v4.6h-1.7z" fill="#fff"/><path d="m1024.2 117.3v4.1h-1.2v-4.1zm.5-.5h-2.2v5.1h2.2z" fill="#999"/><circle cx="972.1" cy="119.3" fill="#d6d6d5" r="1"/><path d="m967.7 128h1.7v4.6h-1.7z" fill="#fff"/><path d="m969.1 128.3v4.1h-1.2v-4.1zm.5-.5h-2.2v5.1h2.2z" fill="#999"/><path d="m1022.7 128h1.7v4.6h-1.7z" fill="#fff"/><path d="m1024.2 128.3v4.1h-1.2v-4.1zm.5-.5h-2.2v5.1h2.2z" fill="#999"/><circle cx="972.1" cy="130.3" fill="#d6d6d5" r="1"/><path d="m967.7 139h1.7v4.6h-1.7z" fill="#fff"/><path d="m969.1 139.2v4.1h-1.2v-4.1zm.5-.5h-2.2v5.1h2.2z" fill="#999"/><path d="m1022.7 139h1.7v4.6h-1.7z" fill="#fff"/><path d="m1024.2 139.2v4.1h-1.2v-4.1zm.5-.5h-2.2v5.1h2.2z" fill="#999"/><circle cx="972.1" cy="141.3" fill="#d6d6d5" r="1"/><path d="m967.7 149.9h1.7v4.6h-1.7z" fill="#fff"/><path d="m969.1 150.2v4.1h-1.2v-4.1zm.5-.5h-2.2v5.1h2.2z" fill="#999"/><path d="m1022.7 149.9h1.7v4.6h-1.7z" fill="#fff"/><path d="m1024.2 150.2v4.1h-1.2v-4.1zm.5-.5h-2.2v5.1h2.2z" fill="#999"/><circle cx="972.1" cy="152.2" fill="#d6d6d5" r="1"/><path d="m967.7 160.9h1.7v4.6h-1.7z" fill="#fff"/><path d="m969.1 161.2v4.1h-1.2v-4.1zm.5-.5h-2.2v5.1h2.2z" fill="#999"/><path d="m1022.7 160.9h1.7v4.6h-1.7z" fill="#fff"/><path d="m1024.2 161.2v4.1h-1.2v-4.1zm.5-.5h-2.2v5.1h2.2z" fill="#999"/><circle cx="972.1" cy="163.2" fill="#d6d6d5" r="1"/><path d="m967.7 171.9h1.7v4.6h-1.7z" fill="#fff"/><path d="m969.1 172.1v4.1h-1.2v-4.1zm.5-.5h-2.2v5.1h2.2z" fill="#999"/><path d="m1022.7 171.9h1.7v4.6h-1.7z" fill="#fff"/><path d="m1024.2 172.1v4.1h-1.2v-4.1zm.5-.5h-2.2v5.1h2.2z" fill="#999"/><circle cx="972.1" cy="174.1" fill="#d6d6d5" r="1"/><path d="m967.7 182.8h1.7v4.6h-1.7z" fill="#fff"/><path d="m969.1 183.1v4.1h-1.2v-4.1zm.5-.5h-2.2v5.1h2.2z" fill="#999"/><path d="m1022.7 182.8h1.7v4.6h-1.7z" fill="#fff"/><path d="m1024.2 183.1v4.1h-1.2v-4.1zm.5-.5h-2.2v5.1h2.2z" fill="#999"/><circle cx="972.1" cy="185.1" fill="#d6d6d5" r="1"/><path d="m967.7 193.8h1.7v4.6h-1.7z" fill="#fff"/><path d="m969.1 194v4.1h-1.2v-4.1zm.5-.5h-2.2v5.1h2.2z" fill="#999"/><path d="m1022.7 193.8h1.7v4.6h-1.7z" fill="#fff"/><path d="m1024.2 194v4.1h-1.2v-4.1zm.5-.5h-2.2v5.1h2.2z" fill="#999"/><circle cx="972.1" cy="196.1" fill="#d6d6d5" r="1"/><path d="m1108.2 214.3h-46c-1.5 0-2.7-1.2-2.7-2.7v-90.7c0-1.5 1.2-2.7 2.7-2.7h46c1.5 0 2.7 1.2 2.7 2.7v90.7c0 1.5-1.2 2.7-2.7 2.7z" fill="#fff" stroke="#999" stroke-miterlimit="10" stroke-width=".5"/><path d="m1061.7 122.1h47.1v6.4h-47.1z" fill="#fff" stroke="#999" stroke-miterlimit="10" stroke-width=".5"/><path d="m1061.7 130.6h47.1v6.4h-47.1z" fill="#fff" stroke="#999" stroke-miterlimit="10" stroke-width=".5"/><path d="m1061.7 139.1h47.1v6.4h-47.1z" fill="#fff" stroke="#999" stroke-miterlimit="10" stroke-width=".5"/><path d="m1061.7 147.7h47.1v6.4h-47.1z" fill="#fff" stroke="#999" stroke-miterlimit="10" stroke-width=".5"/><path d="m1061.7 156.2h47.1v6.4h-47.1z" fill="#fff" stroke="#999" stroke-miterlimit="10" stroke-width=".5"/><path d="m1061.7 164.7h47.1v6.4h-47.1z" fill="#fff" stroke="#999" stroke-miterlimit="10" stroke-width=".5"/><path d="m1061.7 173.3h47.1v6.4h-47.1z" fill="#fff" stroke="#999" stroke-miterlimit="10" stroke-width=".5"/><path d="m1061.7 181.8h47.1v6.4h-47.1z" fill="#fff" stroke="#999" stroke-miterlimit="10" stroke-width=".5"/><path d="m1061.7 190.3h47.1v6.4h-47.1z" fill="#fff" stroke="#999" stroke-miterlimit="10" stroke-width=".5"/><path d="m1061.7 198.9h47.1v6.4h-47.1z" fill="#fff" stroke="#999" stroke-miterlimit="10" stroke-width=".5"/><path d="m1063.2 123.6h1.2v3.4h-1.2z" fill="#fff"/><path d="m1064.2 123.8v2.9h-.7v-2.9zm.5-.5h-1.7v3.9h1.7z" fill="#999"/><path d="m1106 123.6h1.2v3.4h-1.2z" fill="#fff"/><path d="m1107 123.8v2.9h-.7v-2.9zm.5-.5h-1.7v3.9h1.7z" fill="#999"/><circle cx="1066.6" cy="125.3" fill="#d6d6d5" r=".8"/><path d="m1063.2 132.1h1.2v3.4h-1.2z" fill="#fff"/><path d="m1064.2 132.4v2.9h-.7v-2.9zm.5-.5h-1.7v3.9h1.7z" fill="#999"/><path d="m1106 132.1h1.2v3.4h-1.2z" fill="#fff"/><path d="m1107 132.4v2.9h-.7v-2.9zm.5-.5h-1.7v3.9h1.7z" fill="#999"/><circle cx="1066.6" cy="133.8" fill="#d6d6d5" r=".8"/><path d="m1063.2 140.7h1.2v3.4h-1.2z" fill="#fff"/><path d="m1064.2 140.9v2.9h-.7v-2.9zm.5-.5h-1.7v3.9h1.7z" fill="#999"/><path d="m1106 140.7h1.2v3.4h-1.2z" fill="#fff"/><path d="m1107 140.9v2.9h-.7v-2.9zm.5-.5h-1.7v3.9h1.7z" fill="#999"/><circle cx="1066.6" cy="142.4" fill="#d6d6d5" r=".8"/><path d="m1063.2 149.2h1.2v3.4h-1.2z" fill="#fff"/><path d="m1064.2 149.4v2.9h-.7v-2.9zm.5-.5h-1.7v3.9h1.7z" fill="#999"/><path d="m1106 149.2h1.2v3.4h-1.2z" fill="#fff"/><path d="m1107 149.4v2.9h-.7v-2.9zm.5-.5h-1.7v3.9h1.7z" fill="#999"/><circle cx="1066.6" cy="150.9" fill="#d6d6d5" r=".8"/><path d="m1063.2 157.7h1.2v3.4h-1.2z" fill="#fff"/><path d="m1064.2 158v2.9h-.7v-2.9zm.5-.5h-1.7v3.9h1.7z" fill="#999"/><path d="m1106 157.7h1.2v3.4h-1.2z" fill="#fff"/><path d="m1107 158v2.9h-.7v-2.9zm.5-.5h-1.7v3.9h1.7z" fill="#999"/><circle cx="1066.6" cy="159.4" fill="#d6d6d5" r=".8"/><path d="m1063.2 166.3h1.2v3.4h-1.2z" fill="#fff"/><path d="m1064.2 166.5v2.9h-.7v-2.9zm.5-.5h-1.7v3.9h1.7z" fill="#999"/><path d="m1106 166.3h1.2v3.4h-1.2z" fill="#fff"/><path d="m1107 166.5v2.9h-.7v-2.9zm.5-.5h-1.7v3.9h1.7z" fill="#999"/><circle cx="1066.6" cy="168" fill="#d6d6d5" r=".8"/><path d="m1063.2 174.8h1.2v3.4h-1.2z" fill="#fff"/><path d="m1064.2 175v2.9h-.7v-2.9zm.5-.5h-1.7v3.9h1.7z" fill="#999"/><path d="m1106 174.8h1.2v3.4h-1.2z" fill="#fff"/><path d="m1107 175v2.9h-.7v-2.9zm.5-.5h-1.7v3.9h1.7z" fill="#999"/><circle cx="1066.6" cy="176.5" fill="#d6d6d5" r=".8"/><path d="m1063.2 183.3h1.2v3.4h-1.2z" fill="#fff"/><path d="m1064.2 183.6v2.9h-.7v-2.9zm.5-.5h-1.7v3.9h1.7z" fill="#999"/><path d="m1106 183.3h1.2v3.4h-1.2z" fill="#fff"/><path d="m1107 183.6v2.9h-.7v-2.9zm.5-.5h-1.7v3.9h1.7z" fill="#999"/><circle cx="1066.6" cy="185.1" fill="#d6d6d5" r=".8"/><path d="m1063.2 191.9h1.2v3.4h-1.2z" fill="#fff"/><path d="m1064.2 192.1v2.9h-.7v-2.9zm.5-.5h-1.7v3.9h1.7z" fill="#999"/><path d="m1106 191.9h1.2v3.4h-1.2z" fill="#fff"/><path d="m1107 192.1v2.9h-.7v-2.9zm.5-.5h-1.7v3.9h1.7z" fill="#999"/><circle cx="1066.6" cy="193.6" fill="#d6d6d5" r=".8"/><path d="m1063.2 200.4h1.2v3.4h-1.2z" fill="#fff"/><path d="m1064.2 200.7v2.9h-.7v-2.9zm.5-.5h-1.7v3.9h1.7z" fill="#999"/><path d="m1106 200.4h1.2v3.4h-1.2z" fill="#fff"/><path d="m1107 200.7v2.9h-.7v-2.9zm.5-.5h-1.7v3.9h1.7z" fill="#999"/><circle cx="1066.6" cy="202.1" fill="#d6d6d5" r=".8"/><path d="m910.1 157v43.3c0 5.4 9.9 9.7 22 9.7s22-4.4 22-9.7v-43.3" fill="#fff" stroke="#999" stroke-miterlimit="10" stroke-width=".5"/><ellipse cx="932.2" cy="157" fill="#fff" rx="22" ry="9.7" stroke="#999" stroke-miterlimit="10" stroke-width=".5"/><path d="m910.1 189.2c0 5.4 9.9 9.7 22 9.7s22-4.4 22-9.7" fill="none" stroke="#999" stroke-miterlimit="10" stroke-width=".5"/><path d="m910.1 178.1c0 5.4 9.9 9.7 22 9.7s22-4.4 22-9.7" fill="none" stroke="#999" stroke-miterlimit="10" stroke-width=".5"/><path d="m910.1 167.7c0 5.4 9.9 9.7 22 9.7s22-4.4 22-9.7" fill="none" stroke="#999" stroke-miterlimit="10" stroke-width=".5"/><circle cx="947.4" cy="169.6" fill="#d4d4d4" r="1.6"/><circle cx="947.4" cy="180.3" fill="#d4d4d4" r="1.6"/><circle cx="947.4" cy="191" fill="#d4d4d4" r="1.6"/><circle cx="947.4" cy="201.6" fill="#d4d4d4" r="1.6"/><circle cx="1063" cy="125.1" fill="#fff" r="11.6"/><path d="m1063.1 115.4c-5.4 0-9.7 4.3-9.7 9.7s4.3 9.7 9.7 9.7 9.7-4.3 9.7-9.7-4.4-9.7-9.7-9.7zm5.2 10.7h-4.2v4.2h-2.1v-4.2h-4.2v-2.1h4.2v-4.2h2.1v4.2h4.2z" fill="#006bff"/><circle cx="1115.7" cy="66.7" fill="#fff" r="43.9" stroke="url(#k)" stroke-miterlimit="10"/><path d="m1088.2 94.2 1.7-1.7" fill="none" stroke="#999" stroke-miterlimit="10" stroke-width=".5"/><path d="m1143.2 39.2-1.7 1.7" fill="none" stroke="#999" stroke-miterlimit="10" stroke-width=".5"/><path d="m1143.2 94.2-1.7-1.7" fill="none" stroke="#999" stroke-miterlimit="10" stroke-width=".5"/><path d="m1088.2 39.2 1.7 1.7" fill="none" stroke="#999" stroke-miterlimit="10" stroke-width=".5"/><path d="m1119.1 105.4-.2-2.4" fill="none" stroke="#999" stroke-miterlimit="10" stroke-width=".5"/><path d="m1112.3 28 .2 2.3" fill="none" stroke="#999" stroke-miterlimit="10" stroke-width=".5"/><path d="m1079.3 69.9-2.3.2" fill="none" stroke="#999" stroke-miterlimit="10" stroke-width=".5"/><path d="m1154.4 63.3-2.3.2" fill="none" stroke="#999" stroke-miterlimit="10" stroke-width=".5"/><path d="m1140.7 36.9-1.5 1.8" fill="none" stroke="#999" stroke-miterlimit="10" stroke-width=".5"/><path d="m1090.7 96.4 1.5-1.8" fill="none" stroke="#999" stroke-miterlimit="10" stroke-width=".5"/><path d="m1085.9 41.7 1.8 1.5" fill="none" stroke="#999" stroke-miterlimit="10" stroke-width=".5"/><path d="m1145.5 91.7-1.8-1.6" fill="none" stroke="#999" stroke-miterlimit="10" stroke-width=".5"/><path d="m1109 28.4.4 2.3" fill="none" stroke="#999" stroke-miterlimit="10" stroke-width=".5"/><path d="m1122.5 104.9-.5-2.3" fill="none" stroke="#999" stroke-miterlimit="10" stroke-width=".5"/><path d="m1154 59.9-2.3.4" fill="none" stroke="#999" stroke-miterlimit="10" stroke-width=".5"/><path d="m1079.8 73-2.4.4" fill="none" stroke="#999" stroke-miterlimit="10" stroke-width=".5"/><path d="m1093.4 98.5 1.4-1.9" fill="none" stroke="#999" stroke-miterlimit="10" stroke-width=".5"/><path d="m1138 34.9-1.4 1.9" fill="none" stroke="#999" stroke-miterlimit="10" stroke-width=".5"/><path d="m1083.9 44.4 1.9 1.3" fill="none" stroke="#999" stroke-miterlimit="10" stroke-width=".5"/><path d="m1145.6 87.6 1.9 1.4" fill="none" stroke="#999" stroke-miterlimit="10" stroke-width=".5"/><path d="m1105.7 29.2.6 2.2" fill="none" stroke="#999" stroke-miterlimit="10" stroke-width=".5"/><path d="m1125.8 104.2-.6-2.2" fill="none" stroke="#999" stroke-miterlimit="10" stroke-width=".5"/><path d="m1153.2 56.6-2.2.6" fill="none" stroke="#999" stroke-miterlimit="10" stroke-width=".5"/><path d="m1080.4 76.1-2.2.6" fill="none" stroke="#999" stroke-miterlimit="10" stroke-width=".5"/><path d="m1135.1 33-1.1 2.1" fill="none" stroke="#999" stroke-miterlimit="10" stroke-width=".5"/><path d="m1096.3 100.3 1.2-2" fill="none" stroke="#999" stroke-miterlimit="10" stroke-width=".5"/><path d="m1084.1 48.4-2-1.1" fill="none" stroke="#999" stroke-miterlimit="10" stroke-width=".5"/><path d="m1149.4 86.1-2.1-1.2" fill="none" stroke="#999" stroke-miterlimit="10" stroke-width=".5"/><path d="m1129 103.2-.8-2.2" fill="none" stroke="#999" stroke-miterlimit="10" stroke-width=".5"/><path d="m1102.4 30.2.8 2.2" fill="none" stroke="#999" stroke-miterlimit="10" stroke-width=".5"/><path d="m1152.2 53.4-2.2.8" fill="none" stroke="#999" stroke-miterlimit="10" stroke-width=".5"/><path d="m1081.4 79.2-2.2.8" fill="none" stroke="#999" stroke-miterlimit="10" stroke-width=".5"/><path d="m1099.3 101.9 1-2.1" fill="none" stroke="#999" stroke-miterlimit="10" stroke-width=".5"/><path d="m1132.1 31.5-1 2.1" fill="none" stroke="#999" stroke-miterlimit="10" stroke-width=".5"/><path d="m1080.5 50.3 2.1 1" fill="none" stroke="#999" stroke-miterlimit="10" stroke-width=".5"/><path d="m1148.8 82.1 2.1 1" fill="none" stroke="#999" stroke-miterlimit="10" stroke-width=".5"/><path d="m1132.1 101.9-1-2.1" fill="none" stroke="#999" stroke-miterlimit="10" stroke-width=".5"/><path d="m1082.6 82.1-2.1 1" fill="none" stroke="#999" stroke-miterlimit="10" stroke-width=".5"/><path d="m1150.9 50.3-2.1 1" fill="none" stroke="#999" stroke-miterlimit="10" stroke-width=".5"/><path d="m1129 30.2-.8 2.2" fill="none" stroke="#999" stroke-miterlimit="10" stroke-width=".5"/><path d="m1102.4 103.2.8-2.2" fill="none" stroke="#999" stroke-miterlimit="10" stroke-width=".5"/><path d="m1081.4 54.2-2.2-.8" fill="none" stroke="#999" stroke-miterlimit="10" stroke-width=".5"/><path d="m1152.2 80-2.2-.8" fill="none" stroke="#999" stroke-miterlimit="10" stroke-width=".5"/><path d="m1096.3 33 1.2 2.1" fill="none" stroke="#999" stroke-miterlimit="10" stroke-width=".5"/><path d="m1135.1 100.3-1.1-2" fill="none" stroke="#999" stroke-miterlimit="10" stroke-width=".5"/><path d="m1084.1 84.9-2 1.2" fill="none" stroke="#999" stroke-miterlimit="10" stroke-width=".5"/><path d="m1149.4 47.3-2.1 1.1" fill="none" stroke="#999" stroke-miterlimit="10" stroke-width=".5"/><path d="m1105.7 104.2.6-2.2" fill="none" stroke="#999" stroke-miterlimit="10" stroke-width=".5"/><path d="m1125.8 29.2-.6 2.2" fill="none" stroke="#999" stroke-miterlimit="10" stroke-width=".5"/><path d="m1151 76.1 2.2.6" fill="none" stroke="#999" stroke-miterlimit="10" stroke-width=".5"/><path d="m1078.2 56.6 2.2.6" fill="none" stroke="#999" stroke-miterlimit="10" stroke-width=".5"/><path d="m1093.4 34.9 1.4 1.9" fill="none" stroke="#999" stroke-miterlimit="10" stroke-width=".5"/><path d="m1138 98.5-1.4-1.9" fill="none" stroke="#999" stroke-miterlimit="10" stroke-width=".5"/><path d="m1147.5 44.4-1.9 1.3" fill="none" stroke="#999" stroke-miterlimit="10" stroke-width=".5"/><path d="m1085.8 87.6-1.9 1.4" fill="none" stroke="#999" stroke-miterlimit="10" stroke-width=".5"/><path d="m1109 104.9.4-2.3" fill="none" stroke="#999" stroke-miterlimit="10" stroke-width=".5"/><path d="m1122.5 28.4-.5 2.3" fill="none" stroke="#999" stroke-miterlimit="10" stroke-width=".5"/><path d="m1154 73.4-2.3-.4" fill="none" stroke="#999" stroke-miterlimit="10" stroke-width=".5"/><path d="m1079.8 60.3-2.4-.4" fill="none" stroke="#999" stroke-miterlimit="10" stroke-width=".5"/><path d="m1090.7 36.9 1.5 1.8" fill="none" stroke="#999" stroke-miterlimit="10" stroke-width=".5"/><path d="m1140.7 96.4-1.5-1.8" fill="none" stroke="#999" stroke-miterlimit="10" stroke-width=".5"/><path d="m1145.5 41.7-1.8 1.5" fill="none" stroke="#999" stroke-miterlimit="10" stroke-width=".5"/><path d="m1085.9 91.7 1.8-1.6" fill="none" stroke="#999" stroke-miterlimit="10" stroke-width=".5"/><path d="m1119.1 28-.2 2.3" fill="none" stroke="#999" stroke-miterlimit="10" stroke-width=".5"/><path d="m1112.3 105.4.2-2.4" fill="none" stroke="#999" stroke-miterlimit="10" stroke-width=".5"/><path d="m1077 63.3 2.3.2" fill="none" stroke="#999" stroke-miterlimit="10" stroke-width=".5"/><path d="m1152.1 69.9 2.3.2" fill="none" stroke="#999" stroke-miterlimit="10" stroke-width=".5"/><circle cx="1115.7" cy="66.7" fill="none" r="26.1" stroke="#999" stroke-miterlimit="10" stroke-width=".5"/><circle cx="1115.7" cy="66.7" fill="none" r="13.1" stroke="#999" stroke-miterlimit="10" stroke-width=".5"/><path d="m1076.9 66.7c0-15.6 9.2-29 22.4-35.2l16.4 35.2z" fill="url(#l)"/><path d="m1115.7 105.5v-77.7" fill="none" stroke="#999" stroke-miterlimit="10" stroke-width=".5"/><path d="m1113.3 47.3h4.8" fill="none" stroke="#999" stroke-miterlimit="10" stroke-width=".5"/><path d="m1113.3 86.1h4.8" fill="none" stroke="#999" stroke-miterlimit="10" stroke-width=".5"/><path d="m1135.1 64.3v4.8" fill="none" stroke="#999" stroke-miterlimit="10" stroke-width=".5"/><path d="m1096.3 64.3v4.8" fill="none" stroke="#999" stroke-miterlimit="10" stroke-width=".5"/><circle cx="1094.8" cy="43.8" fill="#006bff" r="1.4"/><circle cx="1102.6" cy="56.1" fill="#006bff" r="1.4"/><circle cx="1085.8" cy="58.5" fill="#e70000" opacity=".2" r="3.1"/><path d="m1099.3 31.5 16.4 35.2" fill="none" stroke="#999" stroke-miterlimit="10" stroke-width=".5"/><circle cx="1085.8" cy="58.5" fill="#e70000" opacity=".3" r="2.2"/><circle cx="1085.8" cy="58.5" fill="#e70000" r="1.4"/><path d="m1076.9 66.7h77.7" fill="none" stroke="#999" stroke-miterlimit="10" stroke-width=".5"/><circle cx="1115.7" cy="66.7" fill="none" r="38.9" stroke="url(#m)" stroke-miterlimit="10"/><path d="m1289.9 127.2v43.3c0 5.4 9.9 9.7 22 9.7s22-4.4 22-9.7v-43.3" fill="#fff" stroke="#999" stroke-miterlimit="10" stroke-width=".5"/><ellipse cx="1311.9" cy="127.2" fill="#fff" rx="22" ry="9.7" stroke="#999" stroke-miterlimit="10" stroke-width=".5"/><path d="m1289.9 159.3c0 5.4 9.9 9.7 22 9.7s22-4.4 22-9.7" fill="none" stroke="#999" stroke-miterlimit="10" stroke-width=".5"/><path d="m1289.9 148.3c0 5.4 9.9 9.7 22 9.7s22-4.4 22-9.7" fill="none" stroke="#999" stroke-miterlimit="10" stroke-width=".5"/><path d="m1289.9 137.8c0 5.4 9.9 9.7 22 9.7s22-4.4 22-9.7" fill="none" stroke="#999" stroke-miterlimit="10" stroke-width=".5"/><circle cx="1327.1" cy="139.8" fill="#d4d4d4" r="1.6"/><circle cx="1327.1" cy="150.4" fill="#d4d4d4" r="1.6"/><circle cx="1327.1" cy="161.1" fill="#d4d4d4" r="1.6"/><circle cx="1327.1" cy="171.8" fill="#d4d4d4" r="1.6"/><path d="m1410.3 211.7h-59c-1.9 0-3.5-1.6-3.5-3.5v-116.5c0-1.9 1.6-3.5 3.5-3.5h59c1.9 0 3.5 1.6 3.5 3.5v116.5c0 2-1.6 3.5-3.5 3.5z" fill="#fff" stroke="#999" stroke-miterlimit="10" stroke-width=".5"/><path d="m1350.6 93.2h60.5v8.2h-60.5z" fill="#fff" stroke="#999" stroke-miterlimit="10" stroke-width=".5"/><path d="m1350.6 104.2h60.5v8.2h-60.5z" fill="#fff" stroke="#999" stroke-miterlimit="10" stroke-width=".5"/><path d="m1350.6 115.2h60.5v8.2h-60.5z" fill="#fff" stroke="#999" stroke-miterlimit="10" stroke-width=".5"/><path d="m1350.6 126.1h60.5v8.2h-60.5z" fill="#fff" stroke="#999" stroke-miterlimit="10" stroke-width=".5"/><path d="m1350.6 137.1h60.5v8.2h-60.5z" fill="#fff" stroke="#999" stroke-miterlimit="10" stroke-width=".5"/><path d="m1350.6 148.1h60.5v8.2h-60.5z" fill="#fff" stroke="#999" stroke-miterlimit="10" stroke-width=".5"/><path d="m1350.6 159h60.5v8.2h-60.5z" fill="#fff" stroke="#999" stroke-miterlimit="10" stroke-width=".5"/><path d="m1350.6 170h60.5v8.2h-60.5z" fill="#fff" stroke="#999" stroke-miterlimit="10" stroke-width=".5"/><path d="m1350.6 180.9h60.5v8.2h-60.5z" fill="#fff" stroke="#999" stroke-miterlimit="10" stroke-width=".5"/><path d="m1350.6 191.9h60.5v8.2h-60.5z" fill="#fff" stroke="#999" stroke-miterlimit="10" stroke-width=".5"/><path d="m1352.4 95.1h1.7v4.6h-1.7z" fill="#fff"/><path d="m1353.9 95.4v4.1h-1.2v-4.1zm.5-.5h-2.2v5.1h2.2z" fill="#999"/><path d="m1407.5 95.1h1.7v4.6h-1.7z" fill="#fff"/><path d="m1408.9 95.4v4.1h-1.2v-4.1zm.5-.5h-2.2v5.1h2.2z" fill="#999"/><circle cx="1356.9" cy="97.4" fill="#d6d6d5" r="1"/><path d="m1352.4 106.1h1.7v4.6h-1.7z" fill="#fff"/><path d="m1353.9 106.3v4.1h-1.2v-4.1zm.5-.5h-2.2v5.1h2.2z" fill="#999"/><path d="m1407.5 106.1h1.7v4.6h-1.7z" fill="#fff"/><path d="m1408.9 106.3v4.1h-1.2v-4.1zm.5-.5h-2.2v5.1h2.2z" fill="#999"/><circle cx="1356.9" cy="108.4" fill="#d6d6d5" r="1"/><path d="m1352.4 117.1h1.7v4.6h-1.7z" fill="#fff"/><path d="m1353.9 117.3v4.1h-1.2v-4.1zm.5-.5h-2.2v5.1h2.2z" fill="#999"/><path d="m1407.5 117.1h1.7v4.6h-1.7z" fill="#fff"/><path d="m1408.9 117.3v4.1h-1.2v-4.1zm.5-.5h-2.2v5.1h2.2z" fill="#999"/><circle cx="1356.9" cy="119.3" fill="#d6d6d5" r="1"/><path d="m1352.4 128h1.7v4.6h-1.7z" fill="#fff"/><path d="m1353.9 128.3v4.1h-1.2v-4.1zm.5-.5h-2.2v5.1h2.2z" fill="#999"/><path d="m1407.5 128h1.7v4.6h-1.7z" fill="#fff"/><path d="m1408.9 128.3v4.1h-1.2v-4.1zm.5-.5h-2.2v5.1h2.2z" fill="#999"/><circle cx="1356.9" cy="130.3" fill="#d6d6d5" r="1"/><path d="m1352.4 139h1.7v4.6h-1.7z" fill="#fff"/><path d="m1353.9 139.2v4.1h-1.2v-4.1zm.5-.5h-2.2v5.1h2.2z" fill="#999"/><path d="m1407.5 139h1.7v4.6h-1.7z" fill="#fff"/><path d="m1408.9 139.2v4.1h-1.2v-4.1zm.5-.5h-2.2v5.1h2.2z" fill="#999"/><circle cx="1356.9" cy="141.3" fill="#d6d6d5" r="1"/><path d="m1352.4 149.9h1.7v4.6h-1.7z" fill="#fff"/><path d="m1353.9 150.2v4.1h-1.2v-4.1zm.5-.5h-2.2v5.1h2.2z" fill="#999"/><path d="m1407.5 149.9h1.7v4.6h-1.7z" fill="#fff"/><path d="m1408.9 150.2v4.1h-1.2v-4.1zm.5-.5h-2.2v5.1h2.2z" fill="#999"/><circle cx="1356.9" cy="152.2" fill="#d6d6d5" r="1"/><path d="m1352.4 160.9h1.7v4.6h-1.7z" fill="#fff"/><path d="m1353.9 161.2v4.1h-1.2v-4.1zm.5-.5h-2.2v5.1h2.2z" fill="#999"/><path d="m1407.5 160.9h1.7v4.6h-1.7z" fill="#fff"/><path d="m1408.9 161.2v4.1h-1.2v-4.1zm.5-.5h-2.2v5.1h2.2z" fill="#999"/><circle cx="1356.9" cy="163.2" fill="#d6d6d5" r="1"/><path d="m1352.4 171.9h1.7v4.6h-1.7z" fill="#fff"/><path d="m1353.9 172.1v4.1h-1.2v-4.1zm.5-.5h-2.2v5.1h2.2z" fill="#999"/><path d="m1407.5 171.9h1.7v4.6h-1.7z" fill="#fff"/><path d="m1408.9 172.1v4.1h-1.2v-4.1zm.5-.5h-2.2v5.1h2.2z" fill="#999"/><circle cx="1356.9" cy="174.1" fill="#d6d6d5" r="1"/><path d="m1352.4 182.8h1.7v4.6h-1.7z" fill="#fff"/><path d="m1353.9 183.1v4.1h-1.2v-4.1zm.5-.5h-2.2v5.1h2.2z" fill="#999"/><path d="m1407.5 182.8h1.7v4.6h-1.7z" fill="#fff"/><path d="m1408.9 183.1v4.1h-1.2v-4.1zm.5-.5h-2.2v5.1h2.2z" fill="#999"/><circle cx="1356.9" cy="185.1" fill="#d6d6d5" r="1"/><path d="m1352.4 193.8h1.7v4.6h-1.7z" fill="#fff"/><path d="m1353.9 194v4.1h-1.2v-4.1zm.5-.5h-2.2v5.1h2.2z" fill="#999"/><path d="m1407.5 193.8h1.7v4.6h-1.7z" fill="#fff"/><path d="m1408.9 194v4.1h-1.2v-4.1zm.5-.5h-2.2v5.1h2.2z" fill="#999"/><circle cx="1356.9" cy="196.1" fill="#d6d6d5" r="1"/><path d="m1493 214.3h-46c-1.5 0-2.7-1.2-2.7-2.7v-90.7c0-1.5 1.2-2.7 2.7-2.7h46c1.5 0 2.7 1.2 2.7 2.7v90.7c0 1.5-1.2 2.7-2.7 2.7z" fill="#fff" stroke="#999" stroke-miterlimit="10" stroke-width=".5"/><path d="m1446.4 122.1h47.1v6.4h-47.1z" fill="#fff" stroke="#999" stroke-miterlimit="10" stroke-width=".5"/><path d="m1446.4 130.6h47.1v6.4h-47.1z" fill="#fff" stroke="#999" stroke-miterlimit="10" stroke-width=".5"/><path d="m1446.4 139.1h47.1v6.4h-47.1z" fill="#fff" stroke="#999" stroke-miterlimit="10" stroke-width=".5"/><path d="m1446.4 147.7h47.1v6.4h-47.1z" fill="#fff" stroke="#999" stroke-miterlimit="10" stroke-width=".5"/><path d="m1446.4 156.2h47.1v6.4h-47.1z" fill="#fff" stroke="#999" stroke-miterlimit="10" stroke-width=".5"/><path d="m1446.4 164.7h47.1v6.4h-47.1z" fill="#fff" stroke="#999" stroke-miterlimit="10" stroke-width=".5"/><path d="m1446.4 173.3h47.1v6.4h-47.1z" fill="#fff" stroke="#999" stroke-miterlimit="10" stroke-width=".5"/><path d="m1446.4 181.8h47.1v6.4h-47.1z" fill="#fff" stroke="#999" stroke-miterlimit="10" stroke-width=".5"/><path d="m1446.4 190.3h47.1v6.4h-47.1z" fill="#fff" stroke="#999" stroke-miterlimit="10" stroke-width=".5"/><path d="m1446.4 198.9h47.1v6.4h-47.1z" fill="#fff" stroke="#999" stroke-miterlimit="10" stroke-width=".5"/><path d="m1448 123.6h1.2v3.4h-1.2z" fill="#fff"/><path d="m1448.9 123.8v2.9h-.7v-2.9zm.5-.5h-1.7v3.9h1.7z" fill="#999"/><path d="m1490.8 123.6h1.2v3.4h-1.2z" fill="#fff"/><path d="m1491.8 123.8v2.9h-.7v-2.9zm.5-.5h-1.7v3.9h1.7z" fill="#999"/><circle cx="1451.4" cy="125.3" fill="#d6d6d5" r=".8"/><path d="m1448 132.1h1.2v3.4h-1.2z" fill="#fff"/><path d="m1448.9 132.4v2.9h-.7v-2.9zm.5-.5h-1.7v3.9h1.7z" fill="#999"/><path d="m1490.8 132.1h1.2v3.4h-1.2z" fill="#fff"/><path d="m1491.8 132.4v2.9h-.7v-2.9zm.5-.5h-1.7v3.9h1.7z" fill="#999"/><circle cx="1451.4" cy="133.8" fill="#d6d6d5" r=".8"/><path d="m1448 140.7h1.2v3.4h-1.2z" fill="#fff"/><path d="m1448.9 140.9v2.9h-.7v-2.9zm.5-.5h-1.7v3.9h1.7z" fill="#999"/><path d="m1490.8 140.7h1.2v3.4h-1.2z" fill="#fff"/><path d="m1491.8 140.9v2.9h-.7v-2.9zm.5-.5h-1.7v3.9h1.7z" fill="#999"/><circle cx="1451.4" cy="142.4" fill="#d6d6d5" r=".8"/><path d="m1448 149.2h1.2v3.4h-1.2z" fill="#fff"/><path d="m1448.9 149.4v2.9h-.7v-2.9zm.5-.5h-1.7v3.9h1.7z" fill="#999"/><path d="m1490.8 149.2h1.2v3.4h-1.2z" fill="#fff"/><path d="m1491.8 149.4v2.9h-.7v-2.9zm.5-.5h-1.7v3.9h1.7z" fill="#999"/><circle cx="1451.4" cy="150.9" fill="#d6d6d5" r=".8"/><path d="m1448 157.7h1.2v3.4h-1.2z" fill="#fff"/><path d="m1448.9 158v2.9h-.7v-2.9zm.5-.5h-1.7v3.9h1.7z" fill="#999"/><path d="m1490.8 157.7h1.2v3.4h-1.2z" fill="#fff"/><path d="m1491.8 158v2.9h-.7v-2.9zm.5-.5h-1.7v3.9h1.7z" fill="#999"/><circle cx="1451.4" cy="159.4" fill="#d6d6d5" r=".8"/><path d="m1448 166.3h1.2v3.4h-1.2z" fill="#fff"/><path d="m1448.9 166.5v2.9h-.7v-2.9zm.5-.5h-1.7v3.9h1.7z" fill="#999"/><path d="m1490.8 166.3h1.2v3.4h-1.2z" fill="#fff"/><path d="m1491.8 166.5v2.9h-.7v-2.9zm.5-.5h-1.7v3.9h1.7z" fill="#999"/><circle cx="1451.4" cy="168" fill="#d6d6d5" r=".8"/><path d="m1448 174.8h1.2v3.4h-1.2z" fill="#fff"/><path d="m1448.9 175v2.9h-.7v-2.9zm.5-.5h-1.7v3.9h1.7z" fill="#999"/><path d="m1490.8 174.8h1.2v3.4h-1.2z" fill="#fff"/><path d="m1491.8 175v2.9h-.7v-2.9zm.5-.5h-1.7v3.9h1.7z" fill="#999"/><circle cx="1451.4" cy="176.5" fill="#d6d6d5" r=".8"/><path d="m1448 183.3h1.2v3.4h-1.2z" fill="#fff"/><path d="m1448.9 183.6v2.9h-.7v-2.9zm.5-.5h-1.7v3.9h1.7z" fill="#999"/><path d="m1490.8 183.3h1.2v3.4h-1.2z" fill="#fff"/><path d="m1491.8 183.6v2.9h-.7v-2.9zm.5-.5h-1.7v3.9h1.7z" fill="#999"/><circle cx="1451.4" cy="185.1" fill="#d6d6d5" r=".8"/><path d="m1448 191.9h1.2v3.4h-1.2z" fill="#fff"/><path d="m1448.9 192.1v2.9h-.7v-2.9zm.5-.5h-1.7v3.9h1.7z" fill="#999"/><path d="m1490.8 191.9h1.2v3.4h-1.2z" fill="#fff"/><path d="m1491.8 192.1v2.9h-.7v-2.9zm.5-.5h-1.7v3.9h1.7z" fill="#999"/><circle cx="1451.4" cy="193.6" fill="#d6d6d5" r=".8"/><path d="m1448 200.4h1.2v3.4h-1.2z" fill="#fff"/><path d="m1448.9 200.7v2.9h-.7v-2.9zm.5-.5h-1.7v3.9h1.7z" fill="#999"/><path d="m1490.8 200.4h1.2v3.4h-1.2z" fill="#fff"/><path d="m1491.8 200.7v2.9h-.7v-2.9zm.5-.5h-1.7v3.9h1.7z" fill="#999"/><circle cx="1451.4" cy="202.1" fill="#d6d6d5" r=".8"/><path d="m1294.9 157v43.3c0 5.4 9.9 9.7 22 9.7 12.2 0 22-4.4 22-9.7v-43.3" fill="#fff" stroke="#999" stroke-miterlimit="10" stroke-width=".5"/><ellipse cx="1316.9" cy="157" fill="#fff" rx="22" ry="9.7" stroke="#999" stroke-miterlimit="10" stroke-width=".5"/><path d="m1294.9 189.2c0 5.4 9.9 9.7 22 9.7 12.2 0 22-4.4 22-9.7" fill="none" stroke="#999" stroke-miterlimit="10" stroke-width=".5"/><path d="m1294.9 178.1c0 5.4 9.9 9.7 22 9.7 12.2 0 22-4.4 22-9.7" fill="none" stroke="#999" stroke-miterlimit="10" stroke-width=".5"/><path d="m1294.9 167.7c0 5.4 9.9 9.7 22 9.7 12.2 0 22-4.4 22-9.7" fill="none" stroke="#999" stroke-miterlimit="10" stroke-width=".5"/><circle cx="1332.1" cy="169.6" fill="#d4d4d4" r="1.6"/><circle cx="1332.1" cy="180.3" fill="#d4d4d4" r="1.6"/><circle cx="1332.1" cy="191" fill="#d4d4d4" r="1.6"/><circle cx="1332.1" cy="201.6" fill="#d4d4d4" r="1.6"/><circle cx="1447.8" cy="125.1" fill="#fff" r="11.6"/><path d="m1447.8 115.4c-5.4 0-9.7 4.3-9.7 9.7s4.3 9.7 9.7 9.7 9.7-4.3 9.7-9.7c.1-5.4-4.3-9.7-9.7-9.7zm5.3 10.7h-4.2v4.2h-2.1v-4.2h-4.2v-2.1h4.2v-4.2h2.1v4.2h4.2z" fill="#006bff"/><path d="m1486.2 226.3h-187.7c-12.6 0-22.9-10.2-22.9-22.9v-107c0-12.6 10.2-22.9 22.9-22.9h187.7c12.6 0 22.9 10.2 22.9 22.9v107c0 12.7-10.3 22.9-22.9 22.9z" fill="none" stroke="url(#n)" stroke-miterlimit="10" stroke-width="2"/><path d="m1491.8 55c4.5-2.6 4.6-8.4 4.2-9.1s-1.5-.4-1.5-.4.3-1.7.3-6.5c0-7-7.2-14.7-17.8-14.7s-17.8 7.7-17.8 14.7c0 4.9.3 6.5.3 6.5s-1.2-.3-1.5.4c-.4.7-.4 6.5 4.1 9.1 1.4 9.9 7.5 17.4 14.9 17.4 7.3 0 13.4-7.5 14.8-17.4zm-32.4-9.5c0 1.1 1.7 5.7 1.7 5.7 0-2.6 2.1-9.4 4.7-11.7 0 0 5.4 2.3 17.7 2.3 0 0-1.3-.8-1.6-1.5 0 0 3.5.3 6.3 1.6 0 0-1.1-2.3-1.8-3 0 0 6.2 3 6.2 12.1 0 0 1.6-3.9 1.7-5.4m-27.3 21.6c.1 1.9.2 4.9-3.9 6.2-4.5 1.3-16.5 3.6-20.5 7.3-3.9 3.7-4.8 5.9-4.8 8.8s.2 8.4.8 8.8c.6.5 11.5 7.5 38.2 7.5h.1c26.7 0 37.7-7.1 38.2-7.5.6-.5.8-5.9.8-8.8s-.9-5.1-4.8-8.8-15.9-6-20.5-7.3c-4.2-1.2-4-4.3-3.9-6.2" fill="#fff" stroke="#999" stroke-linecap="round" stroke-linejoin="round" stroke-miterlimit="10"/><path d="m1476.9 80.9-2.2 3.8h4.4z" fill="#e70000"/><path d="m1470.7 83-5.8-3.4 1 3.1 3.8 2.3c1.4.7 2.4 1.9 3.2 3.7l-6.3-3.7 1 3.1 8.6 5c-.4-3.4-1.5-8.1-5.5-10.1z" fill="#e70000"/><path d="m1468.2 89.9.9 3.1 5.7 3.3-1.4.9v2.5l3.5-2.1 3.6 2.1v-2.5l-1.5-.9 5.7-3.3 1-3.1-8.8 5.2z" fill="#e70000"/><path d="m1484.1 84.9 3.9-2.3 1-3.1-5.8 3.4c-3.9 2-5.1 6.7-5.3 9.9l8.6-5 1-3.1-6.3 3.7c.5-1.6 1.5-2.8 2.9-3.5z" fill="#e70000"/><circle cx="1502.4" cy="91.1" fill="#fff" r="16.1"/><path d="m1526.2 118.8c-1.3 0-2.5-.5-3.5-1.4-3.4-3.3-6.7-6.6-10.1-9.9-.2-.2-.2-.2-.3-.2 0 0-.1 0-.2.1-2.4 1.4-5 2.3-8.1 2.6-.6.1-1.3.1-1.9.1-9.8 0-18.5-7.9-19.3-17.7s7-19.2 17-20.5c.8-.1 1.5-.1 2.3-.1.5 0 1.1 0 1.6.1 5.2.5 10.1 3 13.4 7 2.6 3.1 4.1 7 4.4 11 .1 2-.1 4-.6 5.9-.3 1-.6 2-1.1 3-.1.3-.3.5-.4.8-.4.7-.7 1.2-.5 1.6.4.7 1.2 1.4 2 2 .4.3.8.6 1.1.9l2.2 2.1c1.3 1.3 2.7 2.6 4 3.9 1.4 1.4 2.8 3 2.2 5.4-.3 2-2.1 3.3-4.2 3.3zm-24.5-42.8c-7 0-14.5 5.9-14.5 14.8 0 4 1.6 7.8 4.4 10.6 2.9 2.8 6.7 4.4 10.7 4.4 4.1 0 7.9-1.6 10.7-4.4 2.9-2.8 4.4-6.6 4.4-10.6 0-8-6.7-14.8-14.6-14.8-.2 0-.4 0-.6 0s-.3 0-.5 0z" fill="#006bff"/><path d="m1502.3 72.2c.5 0 1 0 1.6.1 5.1.4 9.8 2.9 13.1 6.8 2.5 3 4 6.8 4.3 10.7.1 1.9-.1 3.9-.6 5.8-.3 1-.6 2-1 2.9s-1.4 1.9-.9 2.9c.6 1.1 2.3 2.2 3.2 3.1 2.1 2 4.1 4 6.2 6.1 1.4 1.3 2.6 2.8 2.1 4.9-.5 1.9-2.2 2.9-3.9 2.9-1.1 0-2.2-.4-3.1-1.3-3.4-3.3-6.7-6.6-10.1-9.9-.2-.2-.4-.3-.6-.3-.1 0-.3.1-.5.2-2.4 1.4-5.1 2.2-7.9 2.5-.6.1-1.2.1-1.8.1-9.5 0-18-7.6-18.8-17.2-.8-9.7 7.1-18.7 16.6-20 .6-.2 1.4-.3 2.1-.3m-.1 3.3c-.2 0-.3 0-.5 0-7.3 0-15 6.3-15 15.3 0 8.5 7 15.5 15.6 15.5 8.6 0 15.6-6.9 15.6-15.4 0-8.7-7.3-15.3-15.1-15.3-.1-.1-.4-.1-.6-.1m.1-4.3c-.8 0-1.6.1-2.4.2-10.3 1.3-18.3 10.9-17.5 21 .8 10 9.7 18.1 19.8 18.1.6 0 1.3 0 1.9-.1 3.1-.3 5.8-1.2 8.2-2.6 3.2 3.2 6.6 6.5 10 9.9 1 1 2.4 1.5 3.8 1.5 2.3 0 4.3-1.5 4.9-3.6.8-2.8-1.3-4.8-2.4-5.9-1.4-1.3-2.8-2.7-4.1-4.1l-2-2c-.3-.3-.7-.6-1.1-1-.7-.6-1.6-1.3-1.9-1.9-.1-.2.2-.7.5-1.2.2-.3.3-.6.5-.9.4-1 .8-2 1.1-3.1.5-2 .7-4.1.6-6.1-.2-4-1.8-8-4.5-11.2-3.4-4.1-8.4-6.7-13.8-7.2-.5.2-1 .2-1.6.2zm-.1 5.3h.6c7.7 0 14.1 6.6 14.1 14.3 0 3.8-1.5 7.5-4.3 10.2s-6.4 4.2-10.3 4.2c-4 0-7.6-1.5-10.4-4.3-2.8-2.7-4.3-6.4-4.3-10.2 0-8.5 7.2-14.3 14-14.3.3.1.4.1.6.1z" fill="#fff"/><g fill="#666"><path d="m167.4 283.6c-3.1-.5-5.1-1.5-5.1-4.5 0-3.3 2.4-4.6 5.7-4.6 4 0 5.9 1.7 6 4.9h-2c-.1-2-1.3-3.1-4-3.1-2.1 0-3.7.7-3.7 2.8 0 1.7 1.2 2.3 3.4 2.6l1.7.3c3.4.5 5 1.9 5 4.7 0 3.5-2.4 5-6 5-3.9 0-6.4-1.8-6.5-5.7h2c.1 2.7 2 3.9 4.5 3.9s4-1 4-3.2c0-1.7-1-2.5-3.3-2.8z"/><path d="m180.2 291.3-4.6-12h2l3.6 9.7 3.2-9.7h2l-4.8 13.8c-.6 1.8-1.8 2.6-3.5 2.6-.6 0-1.3-.1-1.8-.3v-1.7c.5.1 1.1.2 1.6.2 1.1 0 1.5-.4 1.9-1.4z"/><path d="m188.4 279.3h1.9v1.9c.5-1.1 1.8-2.2 4-2.2 2.7 0 4 1.3 4 4.3v8h-2v-8c0-1.8-.6-2.6-2.3-2.6-2.4 0-3.7 1.6-3.7 3.5v7.1h-2v-12z"/><path d="m201.7 282.9c.1-2.4 1.8-3.8 4.9-3.8 3.5 0 4.6 1.8 4.6 3.9v8.4h-1.9v-1.8c-.7 1.2-2.1 2.1-4.2 2.1-2.4 0-4-1.1-4-3.5 0-3.1 2.7-3.6 5.3-3.9l2.9-.2v-1c0-1.3-.6-2.1-2.6-2.1-1.9 0-2.9.6-3 2.1h-2zm7.6 2.7-2.6.2c-2.2.2-3.7.5-3.7 2.3 0 1.3.9 1.9 2.2 1.9 2.4 0 4.1-1.7 4.1-3.3z"/><path d="m222.5 287.7h2c-.1 2.5-1.8 4-4.9 4-3.6 0-5.6-2.4-5.6-6.3 0-4 1.8-6.3 5.6-6.3 2.9 0 4.6 1.5 4.7 4h-2c0-1.4-.9-2.3-2.7-2.3-2.7 0-3.6 1.7-3.6 4.6 0 2.9 1.1 4.6 3.6 4.6 1.8 0 2.8-.9 2.9-2.3z"/><path d="m230.6 285.2-1.6 1.5v4.7h-2v-16.6h2v9.4l5.3-4.9h2.6l-5 4.7 5.3 7.4h-2.2z"/><path d="m248 289.6v5.9h-2v-16.2h1.9v1.9c.5-1.1 1.9-2.2 4-2.2 3.3 0 5.1 2.4 5.1 6.3 0 4-1.8 6.3-5 6.3-2.1.1-3.5-.8-4-2zm7.1-4.2c0-3-1-4.6-3.3-4.6s-3.9 1.5-3.9 3.6v2.1c0 2 1.5 3.5 3.8 3.5 2.4 0 3.4-1.7 3.4-4.6z"/><path d="m260 274.9h2v16.6h-2z"/><path d="m265.4 282.9c.1-2.4 1.8-3.8 4.9-3.8 3.5 0 4.6 1.8 4.6 3.9v8.4h-1.9v-1.8c-.7 1.2-2.1 2.1-4.2 2.1-2.4 0-4-1.1-4-3.5 0-3.1 2.7-3.6 5.3-3.9l2.9-.2v-1c0-1.3-.6-2.1-2.6-2.1-1.9 0-2.9.6-3 2.1h-2zm7.6 2.7-2.6.2c-2.2.2-3.7.5-3.7 2.3 0 1.3.9 1.9 2.2 1.9 2.4 0 4.1-1.7 4.1-3.3z"/><path d="m280.8 281.1v7.4c0 .9.4 1.3 1.5 1.3.6 0 1.3-.1 1.8-.2v1.7c-.7.2-1.5.3-2.2.3-2.1 0-3-.9-3-3.1v-7.5h-1.6v-1.7h1.7l.2-3.4h1.7v3.4h3.2v1.7h-3.3z"/><path d="m292.5 279.3v1.7h-3.2v10.3h-1.9v-10.3h-1.6v-1.7h1.6v-1.6c0-2 .8-3.1 3.2-3.1.6 0 1.5.1 2.1.3v1.7c-.6-.1-1.2-.2-1.9-.2-1.2 0-1.5.5-1.5 1.4v1.6h3.2z"/><path d="m304.7 285.3c0 4-1.8 6.4-5.5 6.4s-5.5-2.4-5.5-6.3c0-4 1.8-6.3 5.5-6.3s5.5 2.3 5.5 6.2zm-2 .1c0-3-1-4.6-3.5-4.6s-3.5 1.7-3.5 4.6c0 2.9 1 4.6 3.5 4.6s3.5-1.7 3.5-4.6z"/><path d="m307.5 279.3h1.9v2.3c.4-1.4 1.8-2.7 4.1-2.5v2c-2.9 0-4.1 1.4-4.1 4.1v6.2h-2v-12.1z"/><path d="m323 283.5c0-1.9-.6-2.7-2-2.7-2.2 0-3.2 1.6-3.2 3.4v7.2h-2v-12.1h1.9l.1 1.9c.5-1.2 1.7-2.2 3.7-2.2 1.7 0 2.5.9 3 2.4.6-1.2 1.9-2.4 4-2.4 2.4 0 3.5 1.4 3.5 4.3v8h-2v-8c0-1.7-.5-2.5-1.9-2.5-2.2 0-3.2 1.5-3.2 3.3v7.3h-1.9z"/><path d="m154.8 312.3c0-1.9-.6-2.7-2-2.7-2.2 0-3.2 1.6-3.2 3.4v7.2h-2v-12.1h1.9l.1 1.9c.5-1.2 1.7-2.2 3.7-2.2 1.7 0 2.5.9 3 2.4.6-1.2 1.9-2.4 4-2.4 2.4 0 3.5 1.4 3.5 4.3v8h-2v-8c0-1.7-.5-2.5-1.9-2.5-2.2 0-3.2 1.5-3.2 3.3v7.3h-1.9z"/><path d="m167.2 311.7c.1-2.4 1.8-3.8 4.9-3.8 3.5 0 4.6 1.8 4.6 3.9v8.4h-1.9v-1.8c-.7 1.2-2.1 2.1-4.2 2.1-2.4 0-4-1.1-4-3.5 0-3.1 2.7-3.6 5.3-3.9l2.9-.2v-1c0-1.3-.6-2.1-2.6-2.1-1.9 0-2.9.6-3 2.1h-2zm7.6 2.7-2.6.2c-2.2.2-3.7.5-3.7 2.3 0 1.3.9 1.9 2.2 1.9 2.4 0 4.1-1.7 4.1-3.3z"/><path d="m180.1 303.7h2.1v2.4h-2.1zm0 4.4h2v12.1h-2z"/><path d="m185.6 308.1h1.9v1.9c.5-1.1 1.8-2.2 4-2.2 2.7 0 4 1.3 4 4.3v8h-2v-8c0-1.8-.6-2.6-2.3-2.6-2.4 0-3.7 1.6-3.7 3.5v7.1h-2v-12z"/><path d="m201.3 309.9v7.4c0 .9.4 1.3 1.5 1.3.6 0 1.3-.1 1.8-.2v1.7c-.7.2-1.5.3-2.2.3-2.1 0-3-.9-3-3.1v-7.5h-1.6v-1.7h1.7l.2-3.4h1.7v3.4h3.2v1.7h-3.3z"/><path d="m207.1 311.7c.1-2.4 1.8-3.8 4.9-3.8 3.5 0 4.6 1.8 4.6 3.9v8.4h-1.9v-1.8c-.7 1.2-2.1 2.1-4.2 2.1-2.4 0-4-1.1-4-3.5 0-3.1 2.7-3.6 5.3-3.9l2.9-.2v-1c0-1.3-.6-2.1-2.6-2.1-1.9 0-2.9.6-3 2.1h-2zm7.7 2.7-2.6.2c-2.2.2-3.7.5-3.7 2.3 0 1.3.9 1.9 2.2 1.9 2.4 0 4.1-1.7 4.1-3.3z"/><path d="m220 303.7h2.1v2.4h-2.1zm.1 4.4h2v12.1h-2z"/><path d="m225.5 308.1h1.9v1.9c.5-1.1 1.8-2.2 4-2.2 2.7 0 4 1.3 4 4.3v8h-2v-8c0-1.8-.6-2.6-2.3-2.6-2.4 0-3.7 1.6-3.7 3.5v7.1h-2v-12z"/><path d="m246.2 316.9c0-1.2-.9-1.6-2.5-1.8l-1.2-.2c-2.6-.4-4.1-1.2-4.1-3.5 0-2.2 1.6-3.5 4.7-3.5 2.9 0 4.6 1.1 4.8 3.6h-1.9c-.1-1.3-1.1-1.8-2.8-1.8-2.1 0-2.8.8-2.8 1.8 0 1.1 1 1.5 2.6 1.7l1.1.1c2.8.4 4.2 1.3 4.2 3.6 0 2.4-1.8 3.6-4.9 3.6s-5.1-1.2-5.2-3.9h1.9c.1 1.5 1.4 2.2 3.3 2.2 1.7 0 2.8-.7 2.8-1.9z"/><path d="m257.6 308.1h1.9v2.3c.4-1.4 1.8-2.7 4.1-2.5v2c-2.9 0-4.1 1.4-4.1 4.1v6.2h-2v-12.1z"/><path d="m274.8 318.1v1.7c-1.3.5-2.4.7-3.8.7-4.4 0-6.1-2.2-6.1-6.3 0-4 1.8-6.3 5.5-6.3s5 2.3 5 6c0 .4 0 .7-.1 1.2h-8.5c0 2.5 1.2 3.8 4.2 3.8 1.1-.1 2.4-.3 3.8-.8zm-8-4.8h6.7c0-2.6-.8-3.8-3.1-3.8s-3.5 1.3-3.6 3.8z"/><path d="m278 311.7c.1-2.4 1.8-3.8 4.9-3.8 3.5 0 4.6 1.8 4.6 3.9v8.4h-1.9v-1.8c-.7 1.2-2.1 2.1-4.2 2.1-2.4 0-4-1.1-4-3.5 0-3.1 2.7-3.6 5.3-3.9l2.9-.2v-1c0-1.3-.6-2.1-2.6-2.1-1.9 0-2.9.6-3 2.1h-2zm7.6 2.7-2.6.2c-2.2.2-3.7.5-3.7 2.3 0 1.3.9 1.9 2.2 1.9 2.4 0 4.1-1.7 4.1-3.3z"/><path d="m291 303.7h2v16.6h-2z"/><path d="m301.5 313.9h-5.7v-1.8h5.7z"/><path d="m306.9 309.9v7.4c0 .9.4 1.3 1.5 1.3.6 0 1.3-.1 1.8-.2v1.7c-.7.2-1.5.3-2.2.3-2.1 0-3-.9-3-3.1v-7.5h-1.6v-1.7h1.7l.2-3.4h1.7v3.4h3.2v1.7h-3.3z"/><path d="m312.7 303.7h2.1v2.4h-2.1zm.1 4.4h2v12.1h-2z"/><path d="m325.3 312.3c0-1.9-.6-2.7-2-2.7-2.2 0-3.2 1.6-3.2 3.4v7.2h-2v-12.1h1.9l.1 1.9c.5-1.2 1.7-2.2 3.7-2.2 1.7 0 2.5.9 3 2.4.6-1.2 1.9-2.4 4-2.4 2.4 0 3.5 1.4 3.5 4.3v8h-2v-8c0-1.7-.5-2.5-1.9-2.5-2.2 0-3.2 1.5-3.2 3.3v7.3h-1.9z"/><path d="m347.1 318.1v1.7c-1.3.5-2.4.7-3.8.7-4.4 0-6.1-2.2-6.1-6.3 0-4 1.8-6.3 5.5-6.3s5 2.3 5 6c0 .4 0 .7-.1 1.2h-8.5c0 2.5 1.2 3.8 4.2 3.8 1.1-.1 2.4-.3 3.8-.8zm-8-4.8h6.7c0-2.6-.8-3.8-3.1-3.8s-3.5 1.3-3.6 3.8z"/><path d="m176.2 345.3h2c-.1 2.5-1.8 4-4.9 4-3.6 0-5.6-2.4-5.6-6.3 0-4 1.8-6.3 5.6-6.3 2.9 0 4.6 1.5 4.7 4h-2c0-1.4-.9-2.3-2.7-2.3-2.7 0-3.6 1.7-3.6 4.6 0 2.9 1.1 4.6 3.6 4.6 1.8 0 2.9-.9 2.9-2.3z"/><path d="m180.9 332.5h2v16.5h-2z"/><path d="m196.8 342.9c0 4-1.8 6.4-5.5 6.4s-5.5-2.4-5.5-6.3c0-4 1.8-6.3 5.5-6.3s5.5 2.3 5.5 6.2zm-2.1.1c0-3-1-4.6-3.5-4.6s-3.5 1.7-3.5 4.6c0 2.9 1 4.6 3.5 4.6s3.5-1.7 3.5-4.6z"/><path d="m209.3 349h-1.9v-1.9c-.5 1.1-1.7 2.2-3.8 2.2-2.7 0-4.1-1.3-4.1-4.3v-8h2v8c0 1.8.7 2.6 2.4 2.6 2.3 0 3.6-1.6 3.6-3.5v-7.1h2v12z"/><path d="m212.2 343c0-3.9 1.8-6.3 5.1-6.3 2.1 0 3.5 1.1 4 2.2v-6.4h2v16.5h-1.9v-1.8c-.6 1.2-1.9 2.1-4 2.1-3.4 0-5.2-2.3-5.2-6.3zm9.1 1.1v-2.1c0-2.1-1.6-3.6-3.9-3.6s-3.3 1.7-3.3 4.6c0 2.9 1 4.6 3.4 4.6s3.8-1.5 3.8-3.5z"/><path d="m233.5 340.5c.1-2.4 1.8-3.8 4.9-3.8 3.5 0 4.6 1.8 4.6 3.9v8.4h-1.9v-1.8c-.7 1.2-2.1 2.1-4.2 2.1-2.4 0-4-1.1-4-3.5 0-3.1 2.7-3.6 5.3-3.9l2.9-.2v-1c0-1.3-.6-2.1-2.6-2.1-1.9 0-2.9.6-3 2.1h-2zm7.6 2.7-2.6.2c-2.2.2-3.7.5-3.7 2.3 0 1.3.9 1.9 2.2 1.9 2.4 0 4.1-1.7 4.1-3.3z"/><path d="m253.9 345.7c0-1.2-.9-1.6-2.5-1.8l-1.2-.2c-2.6-.4-4.1-1.2-4.1-3.5 0-2.2 1.6-3.5 4.7-3.5 2.9 0 4.6 1.1 4.8 3.6h-1.9c-.1-1.3-1.1-1.8-2.8-1.8-2.1 0-2.8.8-2.8 1.8 0 1.1 1 1.5 2.6 1.7l1.1.1c2.8.4 4.2 1.3 4.2 3.6 0 2.4-1.8 3.6-4.9 3.6s-5.1-1.2-5.2-3.9h1.9c.1 1.5 1.4 2.2 3.3 2.2 1.7 0 2.8-.7 2.8-1.9z"/><path d="m265.9 345.7c0-1.2-.9-1.6-2.5-1.8l-1.2-.2c-2.6-.4-4.1-1.2-4.1-3.5 0-2.2 1.6-3.5 4.7-3.5 2.9 0 4.6 1.1 4.8 3.6h-1.9c-.1-1.3-1.1-1.8-2.8-1.8-2.1 0-2.8.8-2.8 1.8 0 1.1 1 1.5 2.6 1.7l1.1.1c2.8.4 4.2 1.3 4.2 3.6 0 2.4-1.8 3.6-4.9 3.6s-5.1-1.2-5.2-3.9h1.9c.1 1.5 1.4 2.2 3.3 2.2 1.7 0 2.8-.7 2.8-1.9z"/><path d="m279.8 346.9v1.7c-1.3.5-2.4.7-3.8.7-4.4 0-6.1-2.2-6.1-6.3 0-4 1.8-6.3 5.5-6.3s5 2.3 5 6c0 .4 0 .7-.1 1.2h-8.5c0 2.5 1.2 3.8 4.2 3.8 1.1-.1 2.5-.3 3.8-.8zm-7.9-4.8h6.7c0-2.6-.8-3.8-3.1-3.8s-3.5 1.3-3.6 3.8z"/><path d="m285.8 338.7v7.4c0 .9.4 1.3 1.5 1.3.6 0 1.3-.1 1.8-.2v1.7c-.7.2-1.5.3-2.2.3-2.1 0-3-.9-3-3.1v-7.5h-1.6v-1.7h1.7l.2-3.4h1.7v3.4h3.2v1.7h-3.3z"/><path d="m298.5 332.5h2v16.5h-2z"/><path d="m303.9 332.5h2.1v2.4h-2.1zm0 4.4h2v12.1h-2z"/><path d="m316.8 345.7c0-1.2-.9-1.6-2.5-1.8l-1.2-.2c-2.6-.4-4.1-1.2-4.1-3.5 0-2.2 1.6-3.5 4.7-3.5 2.9 0 4.6 1.1 4.8 3.6h-1.9c-.1-1.3-1.1-1.8-2.8-1.8-2.1 0-2.8.8-2.8 1.8 0 1.1 1 1.5 2.6 1.7l1.1.1c2.8.4 4.2 1.3 4.2 3.6 0 2.4-1.8 3.6-4.9 3.6s-5.1-1.2-5.2-3.9h1.9c.1 1.5 1.4 2.2 3.3 2.2 1.7 0 2.8-.7 2.8-1.9z"/><path d="m323.8 338.7v7.4c0 .9.4 1.3 1.5 1.3.6 0 1.3-.1 1.8-.2v1.7c-.7.2-1.5.3-2.2.3-2.1 0-3-.9-3-3.1v-7.5h-1.6v-1.7h1.7l.2-3.4h1.7v3.4h3.2v1.7h-3.3z"/><path d="m555.8 283.6c-3.1-.5-5.1-1.5-5.1-4.5 0-3.3 2.4-4.6 5.7-4.6 4 0 5.9 1.7 6 4.9h-2c-.1-2-1.3-3.1-4-3.1-2.1 0-3.7.7-3.7 2.8 0 1.7 1.2 2.3 3.4 2.6l1.7.3c3.4.5 5 1.9 5 4.7 0 3.5-2.4 5-6 5-3.9 0-6.4-1.8-6.5-5.7h2c.1 2.7 2 3.9 4.5 3.9s4-1 4-3.2c0-1.7-1-2.5-3.3-2.8z"/><path d="m568.6 291.3-4.6-12h2l3.6 9.7 3.2-9.7h2l-4.8 13.8c-.6 1.8-1.8 2.6-3.5 2.6-.6 0-1.3-.1-1.8-.3v-1.7c.5.1 1.1.2 1.6.2 1.1 0 1.5-.4 1.9-1.4z"/><path d="m576.8 279.3h1.9v1.9c.5-1.1 1.8-2.2 4-2.2 2.7 0 4 1.3 4 4.3v8h-2v-8c0-1.8-.6-2.6-2.3-2.6-2.4 0-3.7 1.6-3.7 3.5v7.1h-2v-12z"/><path d="m590.1 282.9c.1-2.4 1.8-3.8 4.9-3.8 3.5 0 4.6 1.8 4.6 3.9v8.4h-1.9v-1.8c-.7 1.2-2.1 2.1-4.2 2.1-2.4 0-4-1.1-4-3.5 0-3.1 2.7-3.6 5.3-3.9l2.9-.2v-1c0-1.3-.6-2.1-2.6-2.1-1.9 0-2.9.6-3 2.1h-2zm7.6 2.7-2.6.2c-2.2.2-3.7.5-3.7 2.3 0 1.3.9 1.9 2.2 1.9 2.4 0 4.1-1.7 4.1-3.3z"/><path d="m610.9 287.7h2c-.1 2.5-1.8 4-4.9 4-3.6 0-5.6-2.4-5.6-6.3 0-4 1.8-6.3 5.6-6.3 2.9 0 4.6 1.5 4.7 4h-2c0-1.4-.9-2.3-2.7-2.3-2.7 0-3.6 1.7-3.6 4.6 0 2.9 1.1 4.6 3.6 4.6 1.8 0 2.8-.9 2.9-2.3z"/><path d="m619 285.2-1.6 1.5v4.7h-2v-16.6h2v9.4l5.3-4.9h2.6l-5 4.7 5.3 7.4h-2.2z"/><path d="m633.7 285.4c0-3.9 1.8-6.3 5.1-6.3 2.1 0 3.5 1.1 4 2.2v-6.4h2v16.6h-1.9v-1.8c-.6 1.2-1.9 2.1-4 2.1-3.4-.1-5.2-2.4-5.2-6.4zm9.2 1.1v-2.1c0-2.1-1.6-3.6-3.9-3.6s-3.3 1.7-3.3 4.6c0 2.9 1 4.6 3.4 4.6 2.3 0 3.8-1.5 3.8-3.5z"/><path d="m657.7 289.3v1.7c-1.3.5-2.4.7-3.8.7-4.4 0-6.1-2.2-6.1-6.3 0-4 1.8-6.3 5.5-6.3s5 2.3 5 6c0 .4 0 .7-.1 1.2h-8.5c0 2.5 1.2 3.8 4.2 3.8 1-.1 2.4-.3 3.8-.8zm-8-4.8h6.7c0-2.6-.8-3.8-3.1-3.8s-3.5 1.3-3.6 3.8z"/><path d="m663.7 281.1v7.4c0 .9.4 1.3 1.5 1.3.6 0 1.3-.1 1.8-.2v1.7c-.7.2-1.5.3-2.2.3-2.1 0-3-.9-3-3.1v-7.5h-1.6v-1.7h1.7l.2-3.4h1.7v3.4h3.2v1.7h-3.3z"/><path d="m678.5 289.3v1.7c-1.3.5-2.4.7-3.8.7-4.4 0-6.1-2.2-6.1-6.3 0-4 1.8-6.3 5.5-6.3s5 2.3 5 6c0 .4 0 .7-.1 1.2h-8.5c0 2.5 1.2 3.8 4.2 3.8 1.1-.1 2.4-.3 3.8-.8zm-8-4.8h6.7c0-2.6-.8-3.8-3.1-3.8s-3.5 1.3-3.6 3.8z"/><path d="m689.7 287.7h2c-.1 2.5-1.8 4-4.9 4-3.6 0-5.6-2.4-5.6-6.3 0-4 1.8-6.3 5.6-6.3 2.9 0 4.6 1.5 4.7 4h-2c0-1.4-.9-2.3-2.7-2.3-2.7 0-3.6 1.7-3.6 4.6 0 2.9 1.1 4.6 3.6 4.6 1.8 0 2.9-.9 2.9-2.3z"/><path d="m696.8 281.1v7.4c0 .9.4 1.3 1.5 1.3.6 0 1.3-.1 1.8-.2v1.7c-.7.2-1.5.3-2.2.3-2.1 0-3-.9-3-3.1v-7.5h-1.6v-1.7h1.7l.2-3.4h1.7v3.4h3.2v1.7h-3.3z"/><path d="m710.1 288.1c0-1.2-.9-1.6-2.5-1.8l-1.2-.2c-2.6-.4-4.1-1.2-4.1-3.5 0-2.2 1.6-3.5 4.7-3.5 2.9 0 4.6 1.1 4.8 3.6h-1.9c-.1-1.3-1.1-1.8-2.8-1.8-2.1 0-2.8.8-2.8 1.8 0 1.1 1 1.5 2.6 1.7l1.1.1c2.8.4 4.2 1.3 4.2 3.6 0 2.4-1.8 3.6-4.9 3.6s-5.1-1.2-5.2-3.9h1.9c.1 1.5 1.4 2.2 3.3 2.2 1.7 0 2.8-.7 2.8-1.9z"/><path d="m572.6 308.1h1.9v1.9c.5-1.1 1.8-2.2 4-2.2 2.7 0 4 1.3 4 4.3v8h-2v-8c0-1.8-.6-2.6-2.3-2.6-2.4 0-3.7 1.6-3.7 3.5v7.1h-2v-12z"/><path d="m595.2 318.1v1.7c-1.3.5-2.4.7-3.8.7-4.4 0-6.1-2.2-6.1-6.3 0-4 1.8-6.3 5.5-6.3s5 2.3 5 6c0 .4 0 .7-.1 1.2h-8.5c0 2.5 1.2 3.8 4.2 3.8 1.1-.1 2.4-.3 3.8-.8zm-8-4.8h6.7c0-2.6-.8-3.8-3.1-3.8s-3.4 1.3-3.6 3.8z"/><path d="m606.7 308.1 2.6 9.4 2.7-9.4h2l-3.6 12.1h-2.1l-2.6-9.4-2.6 9.4h-2.1l-3.6-12.1h2l2.7 9.4 2.6-9.4z"/><path d="m622.9 311.7c.1-2.4 1.8-3.8 4.9-3.8 3.5 0 4.6 1.8 4.6 3.9v8.4h-1.9v-1.8c-.7 1.2-2.1 2.1-4.2 2.1-2.4 0-4-1.1-4-3.5 0-3.1 2.7-3.6 5.3-3.9l2.9-.2v-1c0-1.3-.6-2.1-2.6-2.1-1.9 0-2.9.6-3 2.1h-2zm7.6 2.7-2.6.2c-2.2.2-3.7.5-3.7 2.3 0 1.3.9 1.9 2.2 1.9 2.4 0 4.1-1.7 4.1-3.3z"/><path d="m643.2 316.9c0-1.2-.9-1.6-2.5-1.8l-1.2-.2c-2.6-.4-4.1-1.2-4.1-3.5 0-2.2 1.6-3.5 4.7-3.5 2.9 0 4.6 1.1 4.8 3.6h-1.9c-.1-1.3-1.1-1.8-2.8-1.8-2.1 0-2.8.8-2.8 1.8 0 1.1 1 1.5 2.6 1.7l1.1.1c2.8.4 4.2 1.3 4.2 3.6 0 2.4-1.8 3.6-4.9 3.6s-5.1-1.2-5.2-3.9h1.9c.1 1.5 1.4 2.2 3.3 2.2 1.7 0 2.8-.7 2.8-1.9z"/><path d="m655.3 316.9c0-1.2-.9-1.6-2.5-1.8l-1.2-.2c-2.6-.4-4.1-1.2-4.1-3.5 0-2.2 1.6-3.5 4.7-3.5 2.9 0 4.6 1.1 4.8 3.6h-2c-.1-1.3-1.1-1.8-2.8-1.8-2.1 0-2.8.8-2.8 1.8 0 1.1 1 1.5 2.6 1.7l1.1.1c2.8.4 4.2 1.3 4.2 3.6 0 2.4-1.8 3.6-4.9 3.6s-5.1-1.2-5.2-3.9h1.9c.1 1.5 1.4 2.2 3.3 2.2 1.8 0 2.9-.7 2.9-1.9z"/><path d="m669.2 318.1v1.7c-1.3.5-2.4.7-3.8.7-4.4 0-6.1-2.2-6.1-6.3 0-4 1.8-6.3 5.5-6.3s5 2.3 5 6c0 .4 0 .7-.1 1.2h-8.5c0 2.5 1.2 3.8 4.2 3.8 1.1-.1 2.4-.3 3.8-.8zm-8-4.8h6.7c0-2.6-.8-3.8-3.1-3.8s-3.5 1.3-3.6 3.8z"/><path d="m675.2 309.9v7.4c0 .9.4 1.3 1.5 1.3.6 0 1.3-.1 1.8-.2v1.7c-.7.2-1.5.3-2.2.3-2.1 0-3-.9-3-3.1v-7.5h-1.6v-1.7h1.7l.2-3.4h1.7v3.4h3.2v1.7h-3.3z"/><path d="m688.5 316.9c0-1.2-.9-1.6-2.5-1.8l-1.2-.2c-2.6-.4-4.1-1.2-4.1-3.5 0-2.2 1.6-3.5 4.7-3.5 2.9 0 4.6 1.1 4.8 3.6h-1.9c-.1-1.3-1.1-1.8-2.8-1.8-2.1 0-2.8.8-2.8 1.8 0 1.1 1 1.5 2.6 1.7l1.1.1c2.8.4 4.2 1.3 4.2 3.6 0 2.4-1.8 3.6-4.9 3.6s-5.1-1.2-5.2-3.9h1.9c.1 1.5 1.4 2.2 3.3 2.2 1.7 0 2.8-.7 2.8-1.9z"/><path d="m908.1 283.6c-3.1-.5-5.1-1.5-5.1-4.5 0-3.3 2.4-4.6 5.7-4.6 4 0 5.9 1.7 6 4.9h-2c-.1-2-1.3-3.1-4-3.1-2.1 0-3.7.7-3.7 2.8 0 1.7 1.2 2.3 3.4 2.6l1.7.3c3.4.5 5 1.9 5 4.7 0 3.5-2.4 5-6 5-3.9 0-6.4-1.8-6.5-5.7h2c.1 2.7 2 3.9 4.5 3.9s4-1 4-3.2c0-1.7-1-2.5-3.3-2.8z"/><path d="m920.9 291.3-4.6-12h2l3.6 9.7 3.2-9.7h2l-4.8 13.8c-.6 1.8-1.8 2.6-3.5 2.6-.6 0-1.3-.1-1.8-.3v-1.7c.5.1 1.1.2 1.6.2 1.1 0 1.5-.4 1.9-1.4z"/><path d="m929.2 279.3h1.9v1.9c.5-1.1 1.8-2.2 4-2.2 2.7 0 4 1.3 4 4.3v8h-2v-8c0-1.8-.6-2.6-2.3-2.6-2.4 0-3.7 1.6-3.7 3.5v7.1h-2v-12z"/><path d="m942.4 282.9c.1-2.4 1.8-3.8 4.9-3.8 3.5 0 4.6 1.8 4.6 3.9v8.4h-1.9v-1.8c-.7 1.2-2.1 2.1-4.2 2.1-2.4 0-4-1.1-4-3.5 0-3.1 2.7-3.6 5.3-3.9l2.9-.2v-1c0-1.3-.6-2.1-2.6-2.1-1.9 0-2.9.6-3 2.1h-2zm7.6 2.7-2.6.2c-2.2.2-3.7.5-3.7 2.3 0 1.3.9 1.9 2.2 1.9 2.4 0 4.1-1.7 4.1-3.3z"/><path d="m963.2 287.7h2c-.1 2.5-1.8 4-4.9 4-3.6 0-5.6-2.4-5.6-6.3 0-4 1.8-6.3 5.6-6.3 2.9 0 4.6 1.5 4.7 4h-2c0-1.4-.9-2.3-2.7-2.3-2.7 0-3.6 1.7-3.6 4.6 0 2.9 1.1 4.6 3.6 4.6 1.8 0 2.9-.9 2.9-2.3z"/><path d="m971.4 285.2-1.6 1.5v4.7h-2v-16.6h2v9.4l5.3-4.9h2.6l-5 4.7 5.3 7.4h-2.2z"/><path d="m986.7 282.9c.1-2.4 1.8-3.8 4.9-3.8 3.5 0 4.6 1.8 4.6 3.9v8.4h-1.9v-1.8c-.7 1.2-2.1 2.1-4.2 2.1-2.4 0-4-1.1-4-3.5 0-3.1 2.7-3.6 5.3-3.9l2.9-.2v-1c0-1.3-.6-2.1-2.6-2.1-1.9 0-2.9.6-3 2.1h-2zm7.6 2.7-2.6.2c-2.2.2-3.7.5-3.7 2.3 0 1.3.9 1.9 2.2 1.9 2.4 0 4.1-1.7 4.1-3.3z"/><path d="m1009.4 291.4h-1.9v-1.9c-.5 1.1-1.7 2.2-3.8 2.2-2.7 0-4.1-1.3-4.1-4.3v-8h2v8c0 1.8.7 2.6 2.4 2.6 2.3 0 3.6-1.6 3.6-3.5v-7.1h2v12z"/><path d="m1015.4 281.1v7.4c0 .9.4 1.3 1.5 1.3.6 0 1.3-.1 1.8-.2v1.7c-.7.2-1.5.3-2.2.3-2.1 0-3-.9-3-3.1v-7.5h-1.6v-1.7h1.7l.2-3.4h1.7v3.4h3.2v1.7h-3.3z"/><path d="m1031.4 285.3c0 4-1.8 6.4-5.5 6.4s-5.5-2.4-5.5-6.3c0-4 1.8-6.3 5.5-6.3s5.5 2.3 5.5 6.2zm-2 .1c0-3-1-4.6-3.5-4.6s-3.5 1.7-3.5 4.6c0 2.9 1 4.6 3.5 4.6s3.5-1.7 3.5-4.6z"/><path d="m1041.4 283.5c0-1.9-.6-2.7-2-2.7-2.2 0-3.2 1.6-3.2 3.4v7.2h-2v-12.1h1.9l.1 1.9c.5-1.2 1.7-2.2 3.7-2.2 1.7 0 2.5.9 3 2.4.6-1.2 1.9-2.4 4-2.4 2.4 0 3.5 1.4 3.5 4.3v8h-2v-8c0-1.7-.5-2.5-1.9-2.5-2.2 0-3.2 1.5-3.2 3.3v7.3h-1.9z"/><path d="m1053.8 282.9c.1-2.4 1.8-3.8 4.9-3.8 3.5 0 4.6 1.8 4.6 3.9v8.4h-1.9v-1.8c-.7 1.2-2.1 2.1-4.2 2.1-2.4 0-4-1.1-4-3.5 0-3.1 2.7-3.6 5.3-3.9l2.9-.2v-1c0-1.3-.6-2.1-2.6-2.1-1.9 0-2.9.6-3 2.1h-2zm7.6 2.7-2.6.2c-2.2.2-3.7.5-3.7 2.3 0 1.3.9 1.9 2.2 1.9 2.4 0 4.1-1.7 4.1-3.3z"/><path d="m1069.2 281.1v7.4c0 .9.4 1.3 1.5 1.3.6 0 1.3-.1 1.8-.2v1.7c-.7.2-1.5.3-2.2.3-2.1 0-3-.9-3-3.1v-7.5h-1.6v-1.7h1.7l.2-3.4h1.7v3.4h3.2v1.7h-3.3z"/><path d="m1075 274.9h2.1v2.4h-2.1zm0 4.4h2v12.1h-2z"/><path d="m1088.3 287.7h2c-.1 2.5-1.8 4-4.9 4-3.6 0-5.6-2.4-5.6-6.3 0-4 1.8-6.3 5.6-6.3 2.9 0 4.6 1.5 4.7 4h-2c0-1.4-.9-2.3-2.7-2.3-2.7 0-3.6 1.7-3.6 4.6 0 2.9 1.1 4.6 3.6 4.6 1.8 0 2.9-.9 2.9-2.3z"/><path d="m1092.7 282.9c.1-2.4 1.8-3.8 4.9-3.8 3.5 0 4.6 1.8 4.6 3.9v8.4h-1.9v-1.8c-.7 1.2-2.1 2.1-4.2 2.1-2.4 0-4-1.1-4-3.5 0-3.1 2.7-3.6 5.3-3.9l2.9-.2v-1c0-1.3-.6-2.1-2.6-2.1-1.9 0-2.9.6-3 2.1h-2zm7.6 2.7-2.6.2c-2.2.2-3.7.5-3.7 2.3 0 1.3.9 1.9 2.2 1.9 2.4 0 4.1-1.7 4.1-3.3z"/><path d="m1105.7 274.9h2v16.6h-2z"/><path d="m1111.2 274.9h2v16.6h-2z"/><path d="m1119.8 291.3-4.6-12h2l3.6 9.7 3.2-9.7h2l-4.8 13.8c-.6 1.8-1.8 2.6-3.5 2.6-.6 0-1.3-.1-1.8-.3v-1.7c.5.1 1.1.2 1.6.2 1.1 0 1.5-.4 1.9-1.4z"/><path d="m893 311.7c.1-2.4 1.8-3.8 4.9-3.8 3.5 0 4.6 1.8 4.6 3.9v8.4h-1.9v-1.8c-.7 1.2-2.1 2.1-4.2 2.1-2.4 0-4-1.1-4-3.5 0-3.1 2.7-3.6 5.3-3.9l2.9-.2v-1c0-1.3-.6-2.1-2.6-2.1-1.9 0-2.9.6-3 2.1h-2zm7.6 2.7-2.6.2c-2.2.2-3.7.5-3.7 2.3 0 1.3.9 1.9 2.2 1.9 2.4 0 4.1-1.7 4.1-3.3z"/><path d="m905.3 314.2c0-3.9 1.8-6.3 5.1-6.3 2.1 0 3.5 1.1 4 2.2v-6.4h2v16.6h-1.9v-1.8c-.6 1.2-1.9 2.1-4 2.1-3.4-.1-5.2-2.4-5.2-6.4zm9.2 1.1v-2.1c0-2.1-1.6-3.6-3.9-3.6s-3.3 1.7-3.3 4.6c0 2.9 1 4.6 3.4 4.6 2.3 0 3.8-1.5 3.8-3.5z"/><path d="m919.3 314.2c0-3.9 1.8-6.3 5.1-6.3 2.1 0 3.5 1.1 4 2.2v-6.4h2v16.6h-1.9v-1.8c-.6 1.2-1.9 2.1-4 2.1-3.4-.1-5.2-2.4-5.2-6.4zm9.2 1.1v-2.1c0-2.1-1.6-3.6-3.9-3.6s-3.3 1.7-3.3 4.6c0 2.9 1 4.6 3.4 4.6 2.3 0 3.8-1.5 3.8-3.5z"/><path d="m941.4 316.9c0-1.2-.9-1.6-2.5-1.8l-1.2-.2c-2.6-.4-4.1-1.2-4.1-3.5 0-2.2 1.6-3.5 4.7-3.5 2.9 0 4.6 1.1 4.8 3.6h-1.9c-.1-1.3-1.1-1.8-2.8-1.8-2.1 0-2.8.8-2.8 1.8 0 1.1 1 1.5 2.6 1.7l1.1.1c2.8.4 4.2 1.3 4.2 3.6 0 2.4-1.8 3.6-4.9 3.6s-5.1-1.2-5.2-3.9h1.9c.1 1.5 1.4 2.2 3.3 2.2 1.7 0 2.8-.7 2.8-1.9z"/><path d="m952.7 308.1h1.9v1.9c.5-1.1 1.8-2.2 4-2.2 2.7 0 4 1.3 4 4.3v8h-2v-8c0-1.8-.6-2.6-2.3-2.6-2.4 0-3.7 1.6-3.7 3.5v7.1h-2v-12z"/><path d="m975.3 318.1v1.7c-1.3.5-2.4.7-3.8.7-4.4 0-6.1-2.2-6.1-6.3 0-4 1.8-6.3 5.5-6.3s5 2.3 5 6c0 .4 0 .7-.1 1.2h-8.5c0 2.5 1.2 3.8 4.2 3.8 1.1-.1 2.5-.3 3.8-.8zm-7.9-4.8h6.7c0-2.6-.8-3.8-3.1-3.8-2.4 0-3.5 1.3-3.6 3.8z"/><path d="m986.8 308.1 2.6 9.4 2.7-9.4h2l-3.6 12.1h-2.1l-2.6-9.4-2.6 9.4h-2.1l-3.6-12.1h2l2.7 9.4 2.6-9.4z"/><path d="m1010.8 316.5h2c-.1 2.5-1.8 4-4.9 4-3.6 0-5.6-2.4-5.6-6.3 0-4 1.8-6.3 5.6-6.3 2.9 0 4.6 1.5 4.7 4h-2c0-1.4-.9-2.3-2.7-2.3-2.7 0-3.6 1.7-3.6 4.6 0 2.9 1.1 4.6 3.6 4.6 1.8 0 2.9-.9 2.9-2.3z"/><path d="m1015.5 303.7h2v16.6h-2z"/><path d="m1031.4 314.1c0 4-1.8 6.4-5.5 6.4s-5.5-2.4-5.5-6.3c0-4 1.8-6.3 5.5-6.3 3.6 0 5.5 2.3 5.5 6.2zm-2 .1c0-3-1-4.6-3.5-4.6s-3.5 1.7-3.5 4.6c0 2.9 1 4.6 3.5 4.6s3.5-1.7 3.5-4.6z"/><path d="m1043.9 320.2h-1.9v-1.9c-.5 1.1-1.7 2.2-3.8 2.2-2.7 0-4.1-1.3-4.1-4.3v-8h2v8c0 1.8.7 2.6 2.4 2.6 2.3 0 3.6-1.6 3.6-3.5v-7.1h2v12z"/><path d="m1046.8 314.2c0-3.9 1.8-6.3 5.1-6.3 2.1 0 3.5 1.1 4 2.2v-6.4h2v16.6h-1.9v-1.8c-.6 1.2-1.9 2.1-4 2.1-3.4-.1-5.2-2.4-5.2-6.4zm9.1 1.1v-2.1c0-2.1-1.6-3.6-3.9-3.6s-3.3 1.7-3.3 4.6c0 2.9 1 4.6 3.4 4.6s3.8-1.5 3.8-3.5z"/><path d="m1068.1 311.7c.1-2.4 1.8-3.8 4.9-3.8 3.5 0 4.6 1.8 4.6 3.9v8.4h-1.9v-1.8c-.7 1.2-2.1 2.1-4.2 2.1-2.4 0-4-1.1-4-3.5 0-3.1 2.7-3.6 5.3-3.9l2.9-.2v-1c0-1.3-.6-2.1-2.6-2.1-1.9 0-2.9.6-3 2.1h-2zm7.6 2.7-2.6.2c-2.2.2-3.7.5-3.7 2.3 0 1.3.9 1.9 2.2 1.9 2.4 0 4.1-1.7 4.1-3.3z"/><path d="m1088.5 316.9c0-1.2-.9-1.6-2.5-1.8l-1.2-.2c-2.6-.4-4.1-1.2-4.1-3.5 0-2.2 1.6-3.5 4.7-3.5 2.9 0 4.6 1.1 4.8 3.6h-1.9c-.1-1.3-1.1-1.8-2.8-1.8-2.1 0-2.8.8-2.8 1.8 0 1.1 1 1.5 2.6 1.7l1.1.1c2.8.4 4.2 1.3 4.2 3.6 0 2.4-1.8 3.6-4.9 3.6s-5.1-1.2-5.2-3.9h1.9c.1 1.5 1.4 2.2 3.3 2.2 1.7 0 2.8-.7 2.8-1.9z"/><path d="m1100.5 316.9c0-1.2-.9-1.6-2.5-1.8l-1.2-.2c-2.6-.4-4.1-1.2-4.1-3.5 0-2.2 1.6-3.5 4.7-3.5 2.9 0 4.6 1.1 4.8 3.6h-1.9c-.1-1.3-1.1-1.8-2.8-1.8-2.1 0-2.8.8-2.8 1.8 0 1.1 1 1.5 2.6 1.7l1.1.1c2.8.4 4.2 1.3 4.2 3.6 0 2.4-1.8 3.6-4.9 3.6s-5.1-1.2-5.2-3.9h1.9c.1 1.5 1.4 2.2 3.3 2.2 1.7 0 2.8-.7 2.8-1.9z"/><path d="m1114.4 318.1v1.7c-1.3.5-2.4.7-3.8.7-4.4 0-6.1-2.2-6.1-6.3 0-4 1.8-6.3 5.5-6.3s5 2.3 5 6c0 .4 0 .7-.1 1.2h-8.5c0 2.5 1.2 3.8 4.2 3.8 1.1-.1 2.5-.3 3.8-.8zm-7.9-4.8h6.7c0-2.6-.8-3.8-3.1-3.8-2.4 0-3.5 1.3-3.6 3.8z"/><path d="m1120.4 309.9v7.4c0 .9.4 1.3 1.5 1.3.6 0 1.3-.1 1.8-.2v1.7c-.7.2-1.5.3-2.2.3-2.1 0-3-.9-3-3.1v-7.5h-1.6v-1.7h1.7l.2-3.4h1.7v3.4h3.2v1.7h-3.3z"/><path d="m1133.7 316.9c0-1.2-.9-1.6-2.5-1.8l-1.2-.2c-2.6-.4-4.1-1.2-4.1-3.5 0-2.2 1.6-3.5 4.7-3.5 2.9 0 4.6 1.1 4.8 3.6h-1.9c-.1-1.3-1.1-1.8-2.8-1.8-2.1 0-2.8.8-2.8 1.8 0 1.1 1 1.5 2.6 1.7l1.1.1c2.8.4 4.2 1.3 4.2 3.6 0 2.4-1.8 3.6-4.9 3.6s-5.1-1.2-5.2-3.9h1.9c.1 1.5 1.4 2.2 3.3 2.2 1.7 0 2.8-.7 2.8-1.9z"/><path d="m955.4 336.9v1.7h-3.2v10.4h-1.9v-10.3h-1.6v-1.7h1.6v-1.6c0-2 .8-3.1 3.2-3.1.6 0 1.5.1 2.1.3v1.7c-.6-.1-1.2-.2-1.9-.2-1.2 0-1.5.5-1.5 1.4v1.6h3.2z"/><path d="m967.6 342.9c0 4-1.8 6.4-5.5 6.4s-5.5-2.4-5.5-6.3c0-4 1.8-6.3 5.5-6.3 3.6 0 5.5 2.3 5.5 6.2zm-2 .1c0-3-1-4.6-3.5-4.6s-3.5 1.7-3.5 4.6c0 2.9 1 4.6 3.5 4.6s3.5-1.7 3.5-4.6z"/><path d="m970.4 336.9h1.9v2.3c.4-1.4 1.8-2.7 4.1-2.5v2c-2.9 0-4.1 1.4-4.1 4.1v6.2h-2v-12.1z"/><path d="m992.9 345.7c0-1.2-.9-1.6-2.5-1.8l-1.2-.2c-2.6-.4-4.1-1.2-4.1-3.5 0-2.2 1.6-3.5 4.7-3.5 2.9 0 4.6 1.1 4.8 3.6h-1.9c-.1-1.3-1.1-1.8-2.8-1.8-2.1 0-2.8.8-2.8 1.8 0 1.1 1 1.5 2.6 1.7l1.1.1c2.8.4 4.2 1.3 4.2 3.6 0 2.4-1.8 3.6-4.9 3.6s-5.1-1.2-5.2-3.9h1.9c.1 1.5 1.4 2.2 3.3 2.2 1.7 0 2.8-.7 2.8-1.9z"/><path d="m1005.4 345.3h2c-.1 2.5-1.8 4-4.9 4-3.6 0-5.6-2.4-5.6-6.3 0-4 1.8-6.3 5.6-6.3 2.9 0 4.6 1.5 4.7 4h-2c0-1.4-.9-2.3-2.7-2.3-2.7 0-3.6 1.7-3.6 4.6 0 2.9 1.1 4.6 3.6 4.6 1.8 0 2.8-.9 2.9-2.3z"/><path d="m1009.8 340.5c.1-2.4 1.8-3.8 4.9-3.8 3.5 0 4.6 1.8 4.6 3.9v8.4h-1.9v-1.8c-.7 1.2-2.1 2.1-4.2 2.1-2.4 0-4-1.1-4-3.5 0-3.1 2.7-3.6 5.3-3.9l2.9-.2v-1c0-1.3-.6-2.1-2.6-2.1-1.9 0-2.9.6-3 2.1h-2zm7.6 2.7-2.6.2c-2.2.2-3.7.5-3.7 2.3 0 1.3.9 1.9 2.2 1.9 2.4 0 4.1-1.7 4.1-3.3z"/><path d="m1022.7 336.9h1.9v1.9c.5-1.1 1.8-2.2 4-2.2 2.7 0 4 1.3 4 4.3v8h-2v-8c0-1.8-.6-2.6-2.3-2.6-2.4 0-3.7 1.6-3.7 3.5v7.1h-2v-12z"/><path d="m1036 336.9h1.9v1.9c.5-1.1 1.8-2.2 4-2.2 2.7 0 4 1.3 4 4.3v8h-2v-8c0-1.8-.6-2.6-2.3-2.6-2.4 0-3.7 1.6-3.7 3.5v7.1h-2v-12z"/><path d="m1049.3 332.5h2.1v2.4h-2.1zm0 4.4h2v12.1h-2z"/><path d="m1054.8 336.9h1.9v1.9c.5-1.1 1.8-2.2 4-2.2 2.7 0 4 1.3 4 4.3v8h-2v-8c0-1.8-.6-2.6-2.3-2.6-2.4 0-3.7 1.6-3.7 3.5v7.1h-2v-12z"/><path d="m1076.4 346.9c-.6 1.2-1.9 2.1-3.9 2.1-3.3 0-5.1-2.3-5.1-6.1 0-3.7 1.8-6.1 5.1-6.1 2 0 3.4 1.1 3.9 2.2v-1.9h1.9v11.7c0 3-1.8 4.7-5.7 4.7-1.7 0-3.1-.3-4.2-.7v-1.8c1.4.5 2.8.7 4.1.7 2.9 0 3.8-1.2 3.8-3v-1.8zm0-3.2v-1.7c0-2.1-1.5-3.6-3.7-3.6s-3.2 1.6-3.2 4.4c0 2.7 1 4.4 3.3 4.4 2.2 0 3.6-1.5 3.6-3.5z"/><path d="m1283.1 283.6c-3.1-.5-5.1-1.5-5.1-4.5 0-3.3 2.4-4.6 5.7-4.6 4 0 5.9 1.7 6 4.9h-2c-.1-2-1.3-3.1-4-3.1-2.1 0-3.7.7-3.7 2.8 0 1.7 1.2 2.3 3.4 2.6l1.7.3c3.4.5 5 1.9 5 4.7 0 3.5-2.4 5-6 5-3.9 0-6.4-1.8-6.5-5.7h2c.1 2.7 2 3.9 4.5 3.9s4-1 4-3.2c0-1.7-1-2.5-3.3-2.8z"/><path d="m1295.9 291.3-4.6-12h2l3.6 9.7 3.2-9.7h2l-4.8 13.8c-.6 1.8-1.8 2.6-3.5 2.6-.6 0-1.3-.1-1.8-.3v-1.7c.5.1 1.1.2 1.6.2 1.1 0 1.5-.4 1.9-1.4z"/><path d="m1304.2 279.3h1.9v1.9c.5-1.1 1.8-2.2 4-2.2 2.7 0 4 1.3 4 4.3v8h-2v-8c0-1.8-.6-2.6-2.3-2.6-2.4 0-3.7 1.6-3.7 3.5v7.1h-2v-12z"/><path d="m1317.4 282.9c.1-2.4 1.8-3.8 4.9-3.8 3.5 0 4.6 1.8 4.6 3.9v8.4h-1.9v-1.8c-.7 1.2-2.1 2.1-4.2 2.1-2.4 0-4-1.1-4-3.5 0-3.1 2.7-3.6 5.3-3.9l2.9-.2v-1c0-1.3-.6-2.1-2.6-2.1-1.9 0-2.9.6-3 2.1h-2zm7.6 2.7-2.6.2c-2.2.2-3.7.5-3.7 2.3 0 1.3.9 1.9 2.2 1.9 2.4 0 4.1-1.7 4.1-3.3z"/><path d="m1338.2 287.7h2c-.1 2.5-1.8 4-4.9 4-3.6 0-5.6-2.4-5.6-6.3 0-4 1.8-6.3 5.6-6.3 2.9 0 4.6 1.5 4.7 4h-2c0-1.4-.9-2.3-2.7-2.3-2.7 0-3.6 1.7-3.6 4.6 0 2.9 1.1 4.6 3.6 4.6 1.8 0 2.9-.9 2.9-2.3z"/><path d="m1346.4 285.2-1.6 1.5v4.7h-2v-16.6h2v9.4l5.3-4.9h2.6l-5 4.7 5.3 7.4h-2.2z"/><path d="m1363.9 291.4h-2.1v-16.6h5.8c4.1 0 5.7 1.4 5.7 5 0 3.1-1.4 4.6-4.1 5l4.7 6.5h-2.4l-4.6-6.4h-3.1v6.5zm3.7-8.2c2.7 0 3.7-.9 3.7-3.3 0-2.4-.9-3.2-3.6-3.2h-3.8v6.5z"/><path d="m1385.3 289.3v1.7c-1.3.5-2.4.7-3.8.7-4.4 0-6.1-2.2-6.1-6.3 0-4 1.8-6.3 5.5-6.3s5 2.3 5 6c0 .4 0 .7-.1 1.2h-8.5c0 2.5 1.2 3.8 4.2 3.8 1.1-.1 2.4-.3 3.8-.8zm-8-4.8h6.7c0-2.6-.8-3.8-3.1-3.8s-3.4 1.3-3.6 3.8z"/><path d="m1388.1 285.4c0-3.9 1.8-6.3 5.1-6.3 2.1 0 3.5 1.1 4 2.2v-6.4h2v16.6h-1.9v-1.8c-.6 1.2-1.9 2.1-4 2.1-3.4-.1-5.2-2.4-5.2-6.4zm9.1 1.1v-2.1c0-2.1-1.6-3.6-3.9-3.6s-3.3 1.7-3.3 4.6c0 2.9 1 4.6 3.4 4.6 2.3 0 3.8-1.5 3.8-3.5z"/><path d="m1419.9 276.7h-4.9v14.7h-2.1v-14.7h-4.9v-1.8h11.9z"/><path d="m1429 289.3v1.7c-1.3.5-2.4.7-3.8.7-4.4 0-6.1-2.2-6.1-6.3 0-4 1.8-6.3 5.5-6.3s5 2.3 5 6c0 .4 0 .7-.1 1.2h-8.5c0 2.5 1.2 3.8 4.2 3.8 1.1-.1 2.5-.3 3.8-.8zm-7.9-4.8h6.7c0-2.6-.8-3.8-3.1-3.8s-3.5 1.3-3.6 3.8z"/><path d="m1432.2 282.9c.1-2.4 1.8-3.8 4.9-3.8 3.5 0 4.6 1.8 4.6 3.9v8.4h-1.9v-1.8c-.7 1.2-2.1 2.1-4.2 2.1-2.4 0-4-1.1-4-3.5 0-3.1 2.7-3.6 5.3-3.9l2.9-.2v-1c0-1.3-.6-2.1-2.6-2.1-1.9 0-2.9.6-3 2.1h-2zm7.7 2.7-2.6.2c-2.2.2-3.7.5-3.7 2.3 0 1.3.9 1.9 2.2 1.9 2.4 0 4.1-1.7 4.1-3.3z"/><path d="m1452.3 283.5c0-1.9-.6-2.7-2-2.7-2.2 0-3.2 1.6-3.2 3.4v7.2h-2v-12.1h1.9l.1 1.9c.5-1.2 1.7-2.2 3.7-2.2 1.7 0 2.5.9 3 2.4.6-1.2 1.9-2.4 4-2.4 2.4 0 3.5 1.4 3.5 4.3v8h-2v-8c0-1.7-.5-2.5-1.9-2.5-2.2 0-3.2 1.5-3.2 3.3v7.3h-1.9z"/><path d="m1477.9 281.1h-3.8v10.3h-1.9v-10.3h-1.6v-1.7h1.6v-1.1c0-2.3 1-3.6 3.6-3.6 1.1 0 1.8.2 2.5.4v1.7c-.6-.2-1.3-.3-2.1-.3-1.5 0-2 .7-2 1.9v1.1h5.8v12.1h-2v-10.5z"/><path d="m1483.3 279.3h1.9v1.9c.5-1.1 1.8-2.2 4-2.2 2.7 0 4 1.3 4 4.3v8h-2v-8c0-1.8-.6-2.6-2.3-2.6-2.4 0-3.7 1.6-3.7 3.5v7.1h-2v-12z"/><path d="m1496 285.4c0-3.9 1.8-6.3 5.1-6.3 2.1 0 3.5 1.1 4 2.2v-6.4h2v16.6h-1.9v-1.8c-.6 1.2-1.9 2.1-4 2.1-3.4-.1-5.2-2.4-5.2-6.4zm9.2 1.1v-2.1c0-2.1-1.6-3.6-3.9-3.6s-3.3 1.7-3.3 4.6c0 2.9 1 4.6 3.4 4.6 2.3 0 3.8-1.5 3.8-3.5z"/><path d="m1518.1 288.1c0-1.2-.9-1.6-2.5-1.8l-1.2-.2c-2.6-.4-4.1-1.2-4.1-3.5 0-2.2 1.6-3.5 4.7-3.5 2.9 0 4.6 1.1 4.8 3.6h-1.9c-.1-1.3-1.1-1.8-2.8-1.8-2.1 0-2.8.8-2.8 1.8 0 1.1 1 1.5 2.6 1.7l1.1.1c2.8.4 4.2 1.3 4.2 3.6 0 2.4-1.8 3.6-4.9 3.6s-5.1-1.2-5.2-3.9h1.9c.1 1.5 1.4 2.2 3.3 2.2 1.7 0 2.8-.7 2.8-1.9z"/><path d="m1311.5 308.1h2l-4.2 12.1h-2.3l-4.2-12.1h2l3.3 10z"/><path d="m1325.2 320.2h-1.9v-1.9c-.5 1.1-1.7 2.2-3.8 2.2-2.7 0-4.1-1.3-4.1-4.3v-8h2v8c0 1.8.7 2.6 2.4 2.6 2.3 0 3.6-1.6 3.6-3.5v-7.1h2v12z"/><path d="m1328.7 303.7h2v16.6h-2z"/><path d="m1334.2 308.1h1.9v1.9c.5-1.1 1.8-2.2 4-2.2 2.7 0 4 1.3 4 4.3v8h-2v-8c0-1.8-.6-2.6-2.3-2.6-2.4 0-3.7 1.6-3.7 3.5v7.1h-2v-12z"/><path d="m1356.8 318.1v1.7c-1.3.5-2.4.7-3.8.7-4.4 0-6.1-2.2-6.1-6.3 0-4 1.8-6.3 5.5-6.3s5 2.3 5 6c0 .4 0 .7-.1 1.2h-8.5c0 2.5 1.2 3.8 4.2 3.8 1.1-.1 2.4-.3 3.8-.8zm-8-4.8h6.7c0-2.6-.8-3.8-3.1-3.8-2.4 0-3.5 1.3-3.6 3.8z"/><path d="m1360.2 308.1h1.9v2.3c.4-1.4 1.8-2.7 4.1-2.5v2c-2.9 0-4.1 1.4-4.1 4.1v6.2h-2v-12.1z"/><path d="m1368 311.7c.1-2.4 1.8-3.8 4.9-3.8 3.5 0 4.6 1.8 4.6 3.9v8.4h-1.9v-1.8c-.7 1.2-2.1 2.1-4.2 2.1-2.4 0-4-1.1-4-3.5 0-3.1 2.7-3.6 5.3-3.9l2.9-.2v-1c0-1.3-.6-2.1-2.6-2.1-1.9 0-2.9.6-3 2.1h-2zm7.6 2.7-2.6.2c-2.2.2-3.7.5-3.7 2.3 0 1.3.9 1.9 2.2 1.9 2.4 0 4.1-1.7 4.1-3.3z"/><path d="m1383 318.4-.1 1.8h-1.9v-16.6h2v6.4c.5-1.1 1.9-2.2 4.1-2.2 3.2 0 5 2.4 5 6.3 0 4-1.8 6.3-5 6.3-2.2.1-3.6-.8-4.1-2zm7.1-4.2c0-3-1-4.6-3.3-4.6s-3.9 1.5-3.9 3.6v2.1c0 2 1.5 3.5 3.8 3.5 2.4 0 3.4-1.7 3.4-4.6z"/><path d="m1394.9 303.7h2.1v2.4h-2.1zm0 4.4h2v12.1h-2z"/><path d="m1400.4 303.7h2v16.6h-2z"/><path d="m1405.8 303.7h2.1v2.4h-2.1zm0 4.4h2v12.1h-2z"/><path d="m1413.9 309.9v7.4c0 .9.4 1.3 1.5 1.3.6 0 1.3-.1 1.8-.2v1.7c-.7.2-1.5.3-2.2.3-2.1 0-3-.9-3-3.1v-7.5h-1.6v-1.7h1.7l.2-3.4h1.7v3.4h3.2v1.7h-3.3z"/><path d="m1419.7 303.7h2.1v2.4h-2.1zm.1 4.4h2v12.1h-2z"/><path d="m1434.5 318.1v1.7c-1.3.5-2.4.7-3.8.7-4.4 0-6.1-2.2-6.1-6.3 0-4 1.8-6.3 5.5-6.3s5 2.3 5 6c0 .4 0 .7-.1 1.2h-8.5c0 2.5 1.2 3.8 4.2 3.8 1.1-.1 2.4-.3 3.8-.8zm-8-4.8h6.7c0-2.6-.8-3.8-3.1-3.8s-3.5 1.3-3.6 3.8z"/><path d="m1445.3 316.9c0-1.2-.9-1.6-2.5-1.8l-1.2-.2c-2.6-.4-4.1-1.2-4.1-3.5 0-2.2 1.6-3.5 4.7-3.5 2.9 0 4.6 1.1 4.8 3.6h-1.9c-.1-1.3-1.1-1.8-2.8-1.8-2.1 0-2.8.8-2.8 1.8 0 1.1 1 1.5 2.6 1.7l1.1.1c2.8.4 4.2 1.3 4.2 3.6 0 2.4-1.8 3.6-4.9 3.6s-5.1-1.2-5.2-3.9h1.9c.1 1.5 1.4 2.2 3.3 2.2 1.7 0 2.8-.7 2.8-1.9z"/><path d="m1456.6 311.7c.1-2.4 1.8-3.8 4.9-3.8 3.5 0 4.6 1.8 4.6 3.9v8.4h-1.9v-1.8c-.7 1.2-2.1 2.1-4.2 2.1-2.4 0-4-1.1-4-3.5 0-3.1 2.7-3.6 5.3-3.9l2.9-.2v-1c0-1.3-.6-2.1-2.6-2.1-1.9 0-2.9.6-3 2.1h-2zm7.6 2.7-2.6.2c-2.2.2-3.7.5-3.7 2.3 0 1.3.9 1.9 2.2 1.9 2.4 0 4.1-1.7 4.1-3.3z"/><path d="m1469.5 308.1h1.9v1.9c.5-1.1 1.8-2.2 4-2.2 2.7 0 4 1.3 4 4.3v8h-2v-8c0-1.8-.6-2.6-2.3-2.6-2.4 0-3.7 1.6-3.7 3.5v7.1h-2v-12z"/><path d="m1482.2 314.2c0-3.9 1.8-6.3 5.1-6.3 2.1 0 3.5 1.1 4 2.2v-6.4h2v16.6h-1.9v-1.8c-.6 1.2-1.9 2.1-4 2.1-3.4-.1-5.2-2.4-5.2-6.4zm9.2 1.1v-2.1c0-2.1-1.6-3.6-3.9-3.6s-3.3 1.7-3.3 4.6c0 2.9 1 4.6 3.4 4.6 2.3 0 3.8-1.5 3.8-3.5z"/><path d="m1272.2 343c0-3.9 1.8-6.3 5.1-6.3 2.1 0 3.5 1.1 4 2.2v-6.4h2v16.5h-1.9v-1.8c-.6 1.2-1.9 2.1-4 2.1-3.4 0-5.2-2.3-5.2-6.3zm9.2 1.1v-2.1c0-2.1-1.6-3.6-3.9-3.6s-3.3 1.7-3.3 4.6c0 2.9 1 4.6 3.4 4.6 2.3 0 3.8-1.5 3.8-3.5z"/><path d="m1297.3 342.9c0 4-1.8 6.4-5.5 6.4s-5.5-2.4-5.5-6.3c0-4 1.8-6.3 5.5-6.3 3.6 0 5.5 2.3 5.5 6.2zm-2 .1c0-3-1-4.6-3.5-4.6s-3.5 1.7-3.5 4.6c0 2.9 1 4.6 3.5 4.6s3.5-1.7 3.5-4.6z"/><path d="m1308 345.3h2c-.1 2.5-1.8 4-4.9 4-3.6 0-5.6-2.4-5.6-6.3 0-4 1.8-6.3 5.6-6.3 2.9 0 4.6 1.5 4.7 4h-2c0-1.4-.9-2.3-2.7-2.3-2.7 0-3.6 1.7-3.6 4.6 0 2.9 1.1 4.6 3.6 4.6 1.7 0 2.8-.9 2.9-2.3z"/><path d="m1322.3 349h-1.9v-1.9c-.5 1.1-1.7 2.2-3.8 2.2-2.7 0-4.1-1.3-4.1-4.3v-8h2v8c0 1.8.7 2.6 2.4 2.6 2.3 0 3.6-1.6 3.6-3.5v-7.1h2v12z"/><path d="m1332.9 341.1c0-1.9-.6-2.7-2-2.7-2.2 0-3.2 1.6-3.2 3.4v7.2h-2v-12.1h1.9l.1 1.9c.5-1.2 1.7-2.2 3.7-2.2 1.7 0 2.5.9 3 2.4.6-1.2 1.9-2.4 4-2.4 2.4 0 3.5 1.4 3.5 4.3v8h-2v-8c0-1.7-.5-2.5-1.9-2.5-2.2 0-3.2 1.5-3.2 3.3v7.3h-1.9z"/><path d="m1354.6 346.9v1.7c-1.3.5-2.4.7-3.8.7-4.4 0-6.1-2.2-6.1-6.3 0-4 1.8-6.3 5.5-6.3s5 2.3 5 6c0 .4 0 .7-.1 1.2h-8.5c0 2.5 1.2 3.8 4.2 3.8 1.1-.1 2.4-.3 3.8-.8zm-8-4.8h6.7c0-2.6-.8-3.8-3.1-3.8s-3.4 1.3-3.6 3.8z"/><path d="m1358 336.9h1.9v1.9c.5-1.1 1.8-2.2 4-2.2 2.7 0 4 1.3 4 4.3v8h-2v-8c0-1.8-.6-2.6-2.3-2.6-2.4 0-3.7 1.6-3.7 3.5v7.1h-2v-12z"/><path d="m1373.7 338.7v7.4c0 .9.4 1.3 1.5 1.3.6 0 1.3-.1 1.8-.2v1.7c-.7.2-1.5.3-2.2.3-2.1 0-3-.9-3-3.1v-7.5h-1.6v-1.7h1.7l.2-3.4h1.7v3.4h3.2v1.7h-3.3z"/><path d="m1387 345.7c0-1.2-.9-1.6-2.5-1.8l-1.2-.2c-2.6-.4-4.1-1.2-4.1-3.5 0-2.2 1.6-3.5 4.7-3.5 2.9 0 4.6 1.1 4.8 3.6h-1.9c-.1-1.3-1.1-1.8-2.8-1.8-2.1 0-2.8.8-2.8 1.8 0 1.1 1 1.5 2.6 1.7l1.1.1c2.8.4 4.2 1.3 4.2 3.6 0 2.4-1.8 3.6-4.9 3.6s-5.1-1.2-5.2-3.9h1.9c.1 1.5 1.4 2.2 3.3 2.2 1.7 0 2.8-.7 2.8-1.9z"/><path d="m1406.4 336.9 2.6 9.4 2.7-9.4h2l-3.6 12.1h-2.1l-2.6-9.4-2.6 9.4h-2.1l-3.6-12.1h2l2.7 9.4 2.6-9.4z"/><path d="m1425.1 346.9v1.7c-1.3.5-2.4.7-3.8.7-4.4 0-6.1-2.2-6.1-6.3 0-4 1.8-6.3 5.5-6.3s5 2.3 5 6c0 .4 0 .7-.1 1.2h-8.5c0 2.5 1.2 3.8 4.2 3.8 1.1-.1 2.4-.3 3.8-.8zm-8-4.8h6.7c0-2.6-.8-3.8-3.1-3.8s-3.5 1.3-3.6 3.8z"/><path d="m1428.3 340.5c.1-2.4 1.8-3.8 4.9-3.8 3.5 0 4.6 1.8 4.6 3.9v8.4h-1.9v-1.8c-.7 1.2-2.1 2.1-4.2 2.1-2.4 0-4-1.1-4-3.5 0-3.1 2.7-3.6 5.3-3.9l2.9-.2v-1c0-1.3-.6-2.1-2.6-2.1-1.9 0-2.9.6-3 2.1h-2zm7.6 2.7-2.6.2c-2.2.2-3.7.5-3.7 2.3 0 1.3.9 1.9 2.2 1.9 2.4 0 4.1-1.7 4.1-3.3z"/><path d="m1444.8 342.8-1.6 1.5v4.7h-2v-16.6h2v9.4l5.3-4.9h2.6l-5 4.7 5.3 7.4h-2.2z"/><path d="m1453.4 336.9h1.9v1.9c.5-1.1 1.8-2.2 4-2.2 2.7 0 4 1.3 4 4.3v8h-2v-8c0-1.8-.6-2.6-2.3-2.6-2.4 0-3.7 1.6-3.7 3.5v7.1h-2v-12z"/><path d="m1476 346.9v1.7c-1.3.5-2.4.7-3.8.7-4.4 0-6.1-2.2-6.1-6.3 0-4 1.8-6.3 5.5-6.3s5 2.3 5 6c0 .4 0 .7-.1 1.2h-8.5c0 2.5 1.2 3.8 4.2 3.8 1.1-.1 2.5-.3 3.8-.8zm-7.9-4.8h6.7c0-2.6-.8-3.8-3.1-3.8s-3.5 1.3-3.6 3.8z"/><path d="m1486.8 345.7c0-1.2-.9-1.6-2.5-1.8l-1.2-.2c-2.6-.4-4.1-1.2-4.1-3.5 0-2.2 1.6-3.5 4.7-3.5 2.9 0 4.6 1.1 4.8 3.6h-1.9c-.1-1.3-1.1-1.8-2.8-1.8-2.1 0-2.8.8-2.8 1.8 0 1.1 1 1.5 2.6 1.7l1.1.1c2.8.4 4.2 1.3 4.2 3.6 0 2.4-1.8 3.6-4.9 3.6s-5.1-1.2-5.2-3.9h1.9c.1 1.5 1.4 2.2 3.3 2.2 1.7 0 2.8-.7 2.8-1.9z"/><path d="m1498.9 345.7c0-1.2-.9-1.6-2.5-1.8l-1.2-.2c-2.6-.4-4.1-1.2-4.1-3.5 0-2.2 1.6-3.5 4.7-3.5 2.9 0 4.6 1.1 4.8 3.6h-1.9c-.1-1.3-1.1-1.8-2.8-1.8-2.1 0-2.8.8-2.8 1.8 0 1.1 1 1.5 2.6 1.7l1.1.1c2.8.4 4.2 1.3 4.2 3.6 0 2.4-1.8 3.6-4.9 3.6s-5.1-1.2-5.2-3.9h1.9c.1 1.5 1.4 2.2 3.3 2.2 1.7 0 2.8-.7 2.8-1.9z"/><path d="m1512.8 346.9v1.7c-1.3.5-2.4.7-3.8.7-4.4 0-6.1-2.2-6.1-6.3 0-4 1.8-6.3 5.5-6.3s5 2.3 5 6c0 .4 0 .7-.1 1.2h-8.5c0 2.5 1.2 3.8 4.2 3.8 1.1-.1 2.4-.3 3.8-.8zm-8-4.8h6.7c0-2.6-.8-3.8-3.1-3.8s-3.5 1.3-3.6 3.8z"/><path d="m1523.6 345.7c0-1.2-.9-1.6-2.5-1.8l-1.2-.2c-2.6-.4-4.1-1.2-4.1-3.5 0-2.2 1.6-3.5 4.7-3.5 2.9 0 4.6 1.1 4.8 3.6h-1.9c-.1-1.3-1.1-1.8-2.8-1.8-2.1 0-2.8.8-2.8 1.8 0 1.1 1 1.5 2.6 1.7l1.1.1c2.8.4 4.2 1.3 4.2 3.6 0 2.4-1.8 3.6-4.9 3.6s-5.1-1.2-5.2-3.9h1.9c.1 1.5 1.4 2.2 3.3 2.2 1.7 0 2.8-.7 2.8-1.9z"/></g></svg>