<svg enable-background="new 0 0 1611.9 408.2" viewBox="0 0 1611.9 408.2" xmlns="http://www.w3.org/2000/svg" xmlns:xlink="http://www.w3.org/1999/xlink"><linearGradient id="a"><stop offset="0" stop-color="#7a22d2"/><stop offset="1" stop-color="#006bff"/></linearGradient><linearGradient id="b" gradientUnits="userSpaceOnUse" x1="524.168" x2="624.0223" xlink:href="#a" y1="239.6966" y2="139.8423"/><linearGradient id="c" gradientUnits="userSpaceOnUse" x1="375.3258" x2="462.1815" y1="190.3377" y2="190.3377"><stop offset="0" stop-color="#fff"/><stop offset=".1007" stop-color="#fbf9fe"/><stop offset=".2383" stop-color="#f1e7fa"/><stop offset=".3973" stop-color="#dfcaf4"/><stop offset=".5724" stop-color="#c7a2ec"/><stop offset=".7607" stop-color="#a86fe2"/><stop offset=".957" stop-color="#8331d5"/><stop offset="1" stop-color="#7a22d2"/></linearGradient><linearGradient id="d" gradientUnits="userSpaceOnUse" x1="245.4257" x2="375.4091" xlink:href="#a" y1="274.3771" y2="144.3938"/><linearGradient id="e" gradientUnits="userSpaceOnUse" x1="252.2037" x2="368.2666" xlink:href="#a" y1="266.4052" y2="150.3423"/><linearGradient id="f" gradientUnits="userSpaceOnUse" x1="1312.7003" x2="1437.0527" xlink:href="#a" y1="243.3397" y2="118.9872"/><linearGradient id="g" gradientUnits="userSpaceOnUse" x1="1321.3457" x2="1445.6982" xlink:href="#a" y1="250.5091" y2="126.1566"/><linearGradient id="h" gradientUnits="userSpaceOnUse" x1="1330.0159" x2="1454.3684" xlink:href="#a" y1="257.046" y2="132.6935"/><linearGradient id="i" gradientUnits="userSpaceOnUse" x1="789.8532" x2="896.3737" xlink:href="#a" y1="242.8539" y2="136.3334"/><linearGradient id="j" gradientUnits="userSpaceOnUse" x1="793.4265" x2="892.8004" xlink:href="#a" y1="239.2806" y2="139.9066"/><linearGradient id="k" gradientUnits="userSpaceOnUse" x1="522.6318" x2="561.2933" y1="187.5055" y2="154.6435"><stop offset=".05452887" stop-color="#fff" stop-opacity=".001761"/><stop offset=".2793" stop-color="#c0daff" stop-opacity=".2272"/><stop offset=".7804" stop-color="#378bff" stop-opacity=".7298"/><stop offset="1" stop-color="#006bff" stop-opacity=".95"/></linearGradient><linearGradient id="l" gradientUnits="userSpaceOnUse" x1="1353.4207" x2="1353.4207" xlink:href="#a" y1="194.6586" y2="171.4633"/><linearGradient id="m" gradientUnits="userSpaceOnUse" x1="1368.9193" x2="1368.9193" xlink:href="#a" y1="194.6586" y2="160.8759"/><linearGradient id="n" gradientUnits="userSpaceOnUse" x1="1384.2072" x2="1384.2072" xlink:href="#a" y1="194.6586" y2="150.438"/><linearGradient id="o" gradientUnits="userSpaceOnUse" x1="1061.5005" x2="1165.7996" xlink:href="#a" y1="229.4289" y2="125.1298"/><linearGradient id="p" gradientUnits="userSpaceOnUse" x1="1053.3958" x2="1139.5203" xlink:href="#a" y1="208.5771" y2="122.4526"/><linearGradient id="q" gradientUnits="userSpaceOnUse" x1="1090.4349" x2="1180.5115" xlink:href="#a" y1="245.2762" y2="155.1996"/><linearGradient id="r" gradientUnits="userSpaceOnUse" x1="1074.9237" x2="1165.1998" xlink:href="#a" y1="189.5316" y2="189.5316"/><linearGradient id="s" gradientUnits="userSpaceOnUse" x1="517.6876" x2="630.5027" xlink:href="#a" y1="246.177" y2="133.3619"/><linearGradient id="t" gradientUnits="userSpaceOnUse" x1="841.8431" x2="1318.166" xlink:href="#a" y1="665.5905" y2="189.2676"/><linearGradient id="u" gradientUnits="userSpaceOnUse" x1="653.12" x2="1129.4429" xlink:href="#a" y1="476.8673" y2=".5444"/><linearGradient id="v" gradientUnits="userSpaceOnUse" x1="465.0197" x2="941.3427" xlink:href="#a" y1="288.7672" y2="-187.5558"/><linearGradient id="w" gradientUnits="userSpaceOnUse" x1="415.952" x2="892.275" xlink:href="#a" y1="239.6994" y2="-236.6236"/><linearGradient id="x" gradientUnits="userSpaceOnUse" x1="367.7701" x2="844.0931" xlink:href="#a" y1="191.5175" y2="-284.8054"/><linearGradient id="y" gradientUnits="userSpaceOnUse" x1="556.4933" x2="1032.8162" xlink:href="#a" y1="380.2407" y2="-96.0823"/><linearGradient id="z" gradientUnits="userSpaceOnUse" x1="744.5935" x2="1220.9165" xlink:href="#a" y1="568.3409" y2="92.0179"/><linearGradient id="A" gradientUnits="userSpaceOnUse" x1="793.6613" x2="1269.9843" xlink:href="#a" y1="617.4086" y2="141.0857"/><circle cx="574.1" cy="189.8" fill="#fff" r="70.1" stroke="url(#b)" stroke-miterlimit="10"/><path d="m375.3 190.3 86.9 98.6v-197.1z" fill="url(#c)" opacity=".3"/><path d="m202.2 209.1c.5-4.1 1.7-8.2 3.5-12.1 6.3-13.2 21.2-22.8 36.2-22.6h1.3c6.2-16.7 23.7-27.5 41.4-25.1 9.2-14.6 25.5-24.4 42.6-26.2 26.1-2.8 51.6 16.7 55.7 42.6.6 3.7.7 7.5 1.1 11.1 3.7 2.3 7.9 4.2 11.3 7.1 12.7 10.7 17.1 24.4 13 40.4-3.8 15.1-16.9 26.3-32.2 28.3-1.7.2-3.4.3-5 .3-43.4 0-86.8 0-130.2 0-12.5 0-24.6-6.1-31.8-16.4-5.8-8-8.1-17.9-6.9-27.4z" fill="#fff" stroke="url(#d)" stroke-miterlimit="10"/><path d="m212 208.2c1-7.4 5.2-14.5 11.4-18.9 7.4-5.3 17.2-6.3 26.1-6.2h1.2c2.7-7.1 5.7-14.4 11.9-19.3 7.4-5.8 17.2-6.6 26.3-5.4 8.4-12.9 24.6-26.6 40.2-26.6 24.2 0 41.8 15.3 45.5 38.3.5 3.3.7 8.3 1 11.4 3.4 2 8.4 3.6 11.5 6.1 11.5 9.4 15.5 18.9 11.8 33.1-3.5 13.3-15.3 21.6-29.2 23.4-1.5.2-3.1.3-4.6.3-39.4 0-78.7 0-118.1 0-14 0-27.5-7.1-33-20.3-.2-.4-.3-.7-.4-1.1-2-5.1-2.3-9.6-1.6-14.8z" fill="#fff" stroke="url(#e)" stroke-miterlimit="10"/><path d="m1423.9 254.3h-98c-2 0-3.6-1.6-3.6-3.6v-139.1c0-2 1.6-3.6 3.6-3.6h98c2 0 3.6 1.6 3.6 3.6v139.1c0 2-1.6 3.6-3.6 3.6z" fill="#fff" stroke="url(#f)" stroke-linecap="round" stroke-miterlimit="10"/><path d="m1432.5 261.5h-98c-2 0-3.6-1.6-3.6-3.6v-139.1c0-2 1.6-3.6 3.6-3.6h98c2 0 3.6 1.6 3.6 3.6v139.1c0 2-1.6 3.6-3.6 3.6z" fill="#fff" stroke="url(#g)" stroke-linecap="round" stroke-miterlimit="10"/><path d="m1441.2 268h-98c-2 0-3.6-1.6-3.6-3.6v-139.1c0-2 1.6-3.6 3.6-3.6h98c2 0 3.6 1.6 3.6 3.6v139.1c0 2-1.6 3.6-3.6 3.6z" fill="#fff" stroke="url(#h)" stroke-linecap="round" stroke-miterlimit="10"/><path d="m524.5 239.3 3-2.9" fill="none" stroke="#d4d4d4" stroke-miterlimit="10" stroke-width=".75"/><path d="m623.7 140.2-3 3" fill="none" stroke="#d4d4d4" stroke-miterlimit="10" stroke-width=".75"/><path d="m623.7 239.3-3-2.9" fill="none" stroke="#d4d4d4" stroke-miterlimit="10" stroke-width=".75"/><path d="m524.5 140.2 3 3" fill="none" stroke="#d4d4d4" stroke-miterlimit="10" stroke-width=".75"/><path d="m580.2 259.6-.4-4.2" fill="none" stroke="#d4d4d4" stroke-miterlimit="10" stroke-width=".75"/><path d="m568 119.9.4 4.3" fill="none" stroke="#d4d4d4" stroke-miterlimit="10" stroke-width=".75"/><path d="m508.5 195.5-4.2.4" fill="none" stroke="#d4d4d4" stroke-miterlimit="10" stroke-width=".75"/><path d="m643.9 183.7-4.2.3" fill="none" stroke="#d4d4d4" stroke-miterlimit="10" stroke-width=".75"/><path d="m619.2 136.1-2.8 3.2" fill="none" stroke="#d4d4d4" stroke-miterlimit="10" stroke-width=".75"/><path d="m529 243.5 2.8-3.3" fill="none" stroke="#d4d4d4" stroke-miterlimit="10" stroke-width=".75"/><path d="m520.4 144.7 3.2 2.7" fill="none" stroke="#d4d4d4" stroke-miterlimit="10" stroke-width=".75"/><path d="m627.8 234.8-3.2-2.7" fill="none" stroke="#d4d4d4" stroke-miterlimit="10" stroke-width=".75"/><path d="m561.9 120.7.8 4.2" fill="none" stroke="#d4d4d4" stroke-miterlimit="10" stroke-width=".75"/><path d="m586.3 258.8-.8-4.2" fill="none" stroke="#d4d4d4" stroke-miterlimit="10" stroke-width=".75"/><path d="m643.1 177.6-4.1.7" fill="none" stroke="#d4d4d4" stroke-miterlimit="10" stroke-width=".75"/><path d="m509.2 201.2-4.1.7" fill="none" stroke="#d4d4d4" stroke-miterlimit="10" stroke-width=".75"/><path d="m533.9 247.2 2.4-3.5" fill="none" stroke="#d4d4d4" stroke-miterlimit="10" stroke-width=".75"/><path d="m614.3 132.3-2.4 3.5" fill="none" stroke="#d4d4d4" stroke-miterlimit="10" stroke-width=".75"/><path d="m516.7 149.6 3.4 2.4" fill="none" stroke="#d4d4d4" stroke-miterlimit="10" stroke-width=".75"/><path d="m628.1 227.5 3.4 2.5" fill="none" stroke="#d4d4d4" stroke-miterlimit="10" stroke-width=".75"/><path d="m556 122.1 1 4" fill="none" stroke="#d4d4d4" stroke-miterlimit="10" stroke-width=".75"/><path d="m592.2 257.5-1.1-4.1" fill="none" stroke="#d4d4d4" stroke-miterlimit="10" stroke-width=".75"/><path d="m641.8 171.6-4.1 1.1" fill="none" stroke="#d4d4d4" stroke-miterlimit="10" stroke-width=".75"/><path d="m510.5 206.8-4.1 1.1" fill="none" stroke="#d4d4d4" stroke-miterlimit="10" stroke-width=".75"/><path d="m609.1 129.1-2.1 3.6" fill="none" stroke="#d4d4d4" stroke-miterlimit="10" stroke-width=".75"/><path d="m539 250.5 2.2-3.7" fill="none" stroke="#d4d4d4" stroke-miterlimit="10" stroke-width=".75"/><path d="m517 156.8-3.6-2.1" fill="none" stroke="#d4d4d4" stroke-miterlimit="10" stroke-width=".75"/><path d="m634.8 224.8-3.7-2.1" fill="none" stroke="#d4d4d4" stroke-miterlimit="10" stroke-width=".75"/><path d="m598.1 255.6-1.5-3.9" fill="none" stroke="#d4d4d4" stroke-miterlimit="10" stroke-width=".75"/><path d="m550.1 123.9 1.5 3.9" fill="none" stroke="#d4d4d4" stroke-miterlimit="10" stroke-width=".75"/><path d="m640 165.8-4 1.4" fill="none" stroke="#d4d4d4" stroke-miterlimit="10" stroke-width=".75"/><path d="m512.2 212.3-4 1.4" fill="none" stroke="#d4d4d4" stroke-miterlimit="10" stroke-width=".75"/><path d="m544.5 253.3 1.8-3.8" fill="none" stroke="#d4d4d4" stroke-miterlimit="10" stroke-width=".75"/><path d="m603.7 126.2-1.8 3.9" fill="none" stroke="#d4d4d4" stroke-miterlimit="10" stroke-width=".75"/><path d="m510.6 160.1 3.8 1.8" fill="none" stroke="#d4d4d4" stroke-miterlimit="10" stroke-width=".75"/><path d="m633.8 217.6 3.8 1.8" fill="none" stroke="#d4d4d4" stroke-miterlimit="10" stroke-width=".75"/><path d="m603.7 253.3-1.8-3.8" fill="none" stroke="#d4d4d4" stroke-miterlimit="10" stroke-width=".75"/><path d="m514.4 217.6-3.8 1.8" fill="none" stroke="#d4d4d4" stroke-miterlimit="10" stroke-width=".75"/><path d="m637.6 160.1-3.8 1.8" fill="none" stroke="#d4d4d4" stroke-miterlimit="10" stroke-width=".75"/><path d="m598.1 123.9-1.5 3.9" fill="none" stroke="#d4d4d4" stroke-miterlimit="10" stroke-width=".75"/><path d="m550.1 255.6 1.5-3.9" fill="none" stroke="#d4d4d4" stroke-miterlimit="10" stroke-width=".75"/><path d="m512.2 167.2-4-1.4" fill="none" stroke="#d4d4d4" stroke-miterlimit="10" stroke-width=".75"/><path d="m640 213.7-4-1.4" fill="none" stroke="#d4d4d4" stroke-miterlimit="10" stroke-width=".75"/><path d="m539 129.1 2.2 3.6" fill="none" stroke="#d4d4d4" stroke-miterlimit="10" stroke-width=".75"/><path d="m609.1 250.5-2.1-3.7" fill="none" stroke="#d4d4d4" stroke-miterlimit="10" stroke-width=".75"/><path d="m517 222.7-3.6 2.1" fill="none" stroke="#d4d4d4" stroke-miterlimit="10" stroke-width=".75"/><path d="m634.8 154.7-3.7 2.1" fill="none" stroke="#d4d4d4" stroke-miterlimit="10" stroke-width=".75"/><path d="m556 257.5 1-4.1" fill="none" stroke="#d4d4d4" stroke-miterlimit="10" stroke-width=".75"/><path d="m592.2 122.1-1.1 4" fill="none" stroke="#d4d4d4" stroke-miterlimit="10" stroke-width=".75"/><path d="m637.7 206.8 4.1 1.1" fill="none" stroke="#d4d4d4" stroke-miterlimit="10" stroke-width=".75"/><path d="m506.4 171.6 4.1 1.1" fill="none" stroke="#d4d4d4" stroke-miterlimit="10" stroke-width=".75"/><path d="m533.9 132.3 2.4 3.5" fill="none" stroke="#d4d4d4" stroke-miterlimit="10" stroke-width=".75"/><path d="m614.3 247.2-2.4-3.5" fill="none" stroke="#d4d4d4" stroke-miterlimit="10" stroke-width=".75"/><path d="m631.5 149.6-3.4 2.4" fill="none" stroke="#d4d4d4" stroke-miterlimit="10" stroke-width=".75"/><path d="m520.1 227.5-3.4 2.5" fill="none" stroke="#d4d4d4" stroke-miterlimit="10" stroke-width=".75"/><path d="m561.9 258.8.8-4.2" fill="none" stroke="#d4d4d4" stroke-miterlimit="10" stroke-width=".75"/><path d="m586.3 120.7-.8 4.2" fill="none" stroke="#d4d4d4" stroke-miterlimit="10" stroke-width=".75"/><path d="m643.1 201.9-4.1-.7" fill="none" stroke="#d4d4d4" stroke-miterlimit="10" stroke-width=".75"/><path d="m509.2 178.3-4.1-.7" fill="none" stroke="#d4d4d4" stroke-miterlimit="10" stroke-width=".75"/><path d="m529 136.1 2.8 3.2" fill="none" stroke="#d4d4d4" stroke-miterlimit="10" stroke-width=".75"/><path d="m619.2 243.5-2.8-3.3" fill="none" stroke="#d4d4d4" stroke-miterlimit="10" stroke-width=".75"/><path d="m627.8 144.7-3.2 2.7" fill="none" stroke="#d4d4d4" stroke-miterlimit="10" stroke-width=".75"/><path d="m520.4 234.8 3.2-2.7" fill="none" stroke="#d4d4d4" stroke-miterlimit="10" stroke-width=".75"/><path d="m580.2 119.9-.4 4.3" fill="none" stroke="#d4d4d4" stroke-miterlimit="10" stroke-width=".75"/><path d="m568 259.6.4-4.2" fill="none" stroke="#d4d4d4" stroke-miterlimit="10" stroke-width=".75"/><path d="m504.3 183.7 4.2.3" fill="none" stroke="#d4d4d4" stroke-miterlimit="10" stroke-width=".75"/><path d="m639.7 195.5 4.2.4" fill="none" stroke="#d4d4d4" stroke-miterlimit="10" stroke-width=".75"/><path d="m285.6 179.5v36.5c0 4.5 8.3 8.2 18.6 8.2s18.6-3.7 18.6-8.2v-36.5" fill="none" stroke="#d4d4d4" stroke-miterlimit="10" stroke-width=".75"/><ellipse cx="304.2" cy="179.5" fill="none" rx="18.6" ry="8.2" stroke="#d4d4d4" stroke-miterlimit="10" stroke-width=".75"/><path d="m285.6 206.6c0 4.5 8.3 8.2 18.6 8.2s18.6-3.7 18.6-8.2" fill="none" stroke="#d4d4d4" stroke-miterlimit="10" stroke-width=".75"/><path d="m285.6 197.3c0 4.5 8.3 8.2 18.6 8.2s18.6-3.7 18.6-8.2" fill="none" stroke="#d4d4d4" stroke-miterlimit="10" stroke-width=".75"/><path d="m285.6 188.5c0 4.5 8.3 8.2 18.6 8.2s18.6-3.7 18.6-8.2" fill="none" stroke="#d4d4d4" stroke-miterlimit="10" stroke-width=".75"/><circle cx="317.1" cy="190.1" fill="#fff" r="1.3"/><circle cx="317.1" cy="199.1" fill="#fff" r="1.3"/><circle cx="317.1" cy="208.1" fill="#fff" r="1.3"/><circle cx="317.1" cy="217.1" fill="#fff" r="1.3"/><path d="m320.6 179.5v36.5c0 4.5 8.3 8.2 18.6 8.2s18.6-3.7 18.6-8.2v-36.5" fill="#fff" stroke="#d4d4d4" stroke-miterlimit="10" stroke-width=".75"/><ellipse cx="339.2" cy="179.5" fill="#fff" rx="18.6" ry="8.2" stroke="#d4d4d4" stroke-miterlimit="10" stroke-width=".75"/><path d="m320.6 206.6c0 4.5 8.3 8.2 18.6 8.2s18.6-3.7 18.6-8.2" fill="none" stroke="#d4d4d4" stroke-miterlimit="10" stroke-width=".75"/><path d="m320.6 197.3c0 4.5 8.3 8.2 18.6 8.2s18.6-3.7 18.6-8.2" fill="none" stroke="#d4d4d4" stroke-miterlimit="10" stroke-width=".75"/><path d="m320.6 188.5c0 4.5 8.3 8.2 18.6 8.2s18.6-3.7 18.6-8.2" fill="none" stroke="#d4d4d4" stroke-miterlimit="10" stroke-width=".75"/><circle cx="352" cy="190.1" fill="#d4d4d4" r="1.3"/><circle cx="352" cy="199.1" fill="#d4d4d4" r="1.3"/><circle cx="352" cy="208.1" fill="#d4d4d4" r="1.3"/><circle cx="352" cy="217.1" fill="#d4d4d4" r="1.3"/><path d="m303.1 185.8v36.5c0 4.5 8.3 8.2 18.6 8.2s18.6-3.7 18.6-8.2v-36.5" fill="#fff" stroke="#d4d4d4" stroke-miterlimit="10" stroke-width=".75"/><ellipse cx="321.7" cy="185.8" fill="#fff" rx="18.6" ry="8.2" stroke="#d4d4d4" stroke-miterlimit="10" stroke-width=".75"/><path d="m303.1 212.9c0 4.5 8.3 8.2 18.6 8.2s18.6-3.7 18.6-8.2" fill="none" stroke="#d4d4d4" stroke-miterlimit="10" stroke-width=".75"/><path d="m303.1 203.6c0 4.5 8.3 8.2 18.6 8.2s18.6-3.7 18.6-8.2" fill="none" stroke="#d4d4d4" stroke-miterlimit="10" stroke-width=".75"/><path d="m303.1 194.8c0 4.5 8.3 8.2 18.6 8.2s18.6-3.7 18.6-8.2" fill="none" stroke="#d4d4d4" stroke-miterlimit="10" stroke-width=".75"/><circle cx="334.5" cy="196.4" fill="#d4d4d4" r="1.3"/><circle cx="334.5" cy="205.4" fill="#d4d4d4" r="1.3"/><circle cx="334.5" cy="214.4" fill="#d4d4d4" r="1.3"/><circle cx="334.5" cy="223.4" fill="#d4d4d4" r="1.3"/><path d="m231.2 37.3h-2.6v-15.1h2.6z" fill="#006bff"/><path d="m234.3 26.3h2.4l.1 1.7c.5-.9 1.6-1.9 3.5-1.9 2.4 0 3.5 1.3 3.5 4.1v7.2h-2.4v-7.2c0-1.4-.5-2-1.8-2-2 0-2.9 1.3-2.9 2.9v6.3h-2.4z" fill="#006bff"/><path d="m253.1 26.3h2.5l-3.7 11h-2.8l-3.7-11h2.5l2.6 8.3z" fill="#006bff"/><path d="m265.8 34.9v2c-1.1.4-2.3.7-3.7.7-4.1 0-5.8-2-5.8-5.8 0-3.6 1.8-5.8 5.2-5.8 3.5 0 4.8 2.1 4.8 5.2 0 .5-.1 1-.1 1.4h-7.5c.1 2 1.1 2.9 3.6 2.9 1.2.1 2.3-.2 3.5-.6zm-7-4h5.3c0-1.9-.6-3-2.5-3-1.8 0-2.7 1-2.8 3z" fill="#006bff"/><path d="m268.7 26.3h2.4l.1 1.7c.5-.9 1.6-1.9 3.5-1.9 2.4 0 3.5 1.3 3.5 4.1v7.2h-2.4v-7.2c0-1.4-.5-2-1.8-2-2 0-2.9 1.3-2.9 2.9v6.3h-2.4z" fill="#006bff"/><path d="m284.1 28.3v6c0 .9.3 1.2 1.3 1.2.5 0 1.1-.1 1.6-.2v1.9c-.7.2-1.4.3-2.2.3-2.1 0-3.1-.8-3.1-3.1v-6.1h-1.5v-2h1.6l.2-3.1h2.2v3.1h2.8v2z" fill="#006bff"/><path d="m298.9 31.8c0 3.7-1.7 5.8-5.2 5.8s-5.2-2.2-5.2-5.8c0-3.6 1.7-5.8 5.2-5.8s5.2 2.1 5.2 5.8zm-2.5 0c0-2.4-.8-3.8-2.7-3.8s-2.7 1.3-2.7 3.7c0 2.4.8 3.7 2.7 3.7 2 .1 2.7-1.2 2.7-3.6z" fill="#006bff"/><path d="m301.2 26.3h2.4v2c.3-1.1 1.4-2.4 3.6-2.3v2.4c-2.6 0-3.6 1-3.6 3.4v5.4h-2.4z" fill="#006bff"/><path d="m312.1 37.2-4-11h2.5l2.7 8.2 2.5-8.2h2.5l-3.8 11.5c-.8 2.5-1.7 3.5-3.8 3.5-.6 0-1.4-.1-1.9-.3v-2.1c.5.1 1.1.2 1.5.2.9 0 1.3-.2 1.6-1.1z" fill="#006bff"/><path d="m328.7 29.7c0 3.7 1 5.6 4.1 5.6 2.1 0 3.1-1.1 3.2-3h2.6c-.2 3.2-2 5.3-5.8 5.3-4.8 0-6.7-3-6.7-7.8 0-4.8 1.9-7.8 6.6-7.8 3.8 0 5.6 2 5.8 4.9h-2.6c-.2-1.7-1.2-2.6-3.2-2.6-3-.1-4 1.8-4 5.4z" fill="#006bff"/><path d="m341.1 22.2h2.4v15.1h-2.4z" fill="#006bff"/><path d="m356.3 31.8c0 3.7-1.7 5.8-5.2 5.8s-5.2-2.2-5.2-5.8c0-3.6 1.7-5.8 5.2-5.8s5.2 2.1 5.2 5.8zm-2.4 0c0-2.4-.8-3.8-2.7-3.8s-2.7 1.3-2.7 3.7c0 2.4.8 3.7 2.7 3.7s2.7-1.2 2.7-3.6z" fill="#006bff"/><path d="m368 37.3h-2.4l-.1-1.7c-.5.9-1.6 1.9-3.4 1.9-2.4 0-3.6-1.3-3.6-4.1v-7.2h2.4v7.2c0 1.4.5 2 1.8 2 1.9 0 2.8-1.4 2.8-2.9v-6.3h2.4v11.1z" fill="#006bff"/><path d="m370.4 31.8c0-3.6 1.6-5.8 4.6-5.8 1.8 0 3.1 1 3.5 1.9v-5.7h2.4v15.1h-2.4l-.1-1.6c-.5 1-1.7 1.9-3.5 1.9-2.7-.1-4.5-2.1-4.5-5.8zm8.2.8v-1.6c0-1.7-1.2-3-3.1-3s-2.6 1.3-2.6 3.7c0 2.4.7 3.8 2.7 3.8 1.9 0 3-1.3 3-2.9z" fill="#006bff"/><path d="m199 59.8-1.2 3.7h-2.6l5.3-15.1h2.8l5.3 15.1h-2.6l-1.2-3.7zm2.8-8.6-2.1 6.4h4.2z" fill="#006bff"/><path d="m216.3 60.4c0-.9-.7-1.3-2-1.4l-1.1-.1c-2.4-.3-3.8-1.1-3.8-3.3 0-2.1 1.5-3.2 4.5-3.2 2.8 0 4.4 1 4.5 3.3h-2.4c-.1-1-.8-1.4-2.2-1.4-1.6 0-2.1.6-2.1 1.3 0 .8.7 1.2 2.1 1.4l1 .1c2.5.3 3.8 1.2 3.8 3.4 0 2.3-1.6 3.3-4.6 3.3-2.8 0-4.8-1-4.9-3.6h2.4c0 1.2 1.1 1.7 2.6 1.7s2.2-.5 2.2-1.5z" fill="#006bff"/><path d="m227.5 60.4c0-.9-.7-1.3-2-1.4l-1.1-.1c-2.4-.3-3.8-1.1-3.8-3.3 0-2.1 1.5-3.2 4.5-3.2 2.8 0 4.4 1 4.5 3.3h-2.4c-.1-1-.8-1.4-2.2-1.4-1.6 0-2.1.6-2.1 1.3 0 .8.7 1.2 2.1 1.4l1 .1c2.5.3 3.8 1.2 3.8 3.4 0 2.3-1.6 3.3-4.6 3.3-2.8 0-4.8-1-4.9-3.6h2.4c0 1.2 1.1 1.7 2.6 1.7s2.2-.5 2.2-1.5z" fill="#006bff"/><path d="m241.1 61.1v2c-1.1.4-2.3.7-3.7.7-4.1 0-5.8-2-5.8-5.8 0-3.6 1.8-5.8 5.2-5.8 3.5 0 4.8 2.1 4.8 5.2 0 .5-.1 1-.1 1.4h-7.5c.1 2 1.1 2.9 3.6 2.9 1.1.1 2.2-.1 3.5-.6zm-7.1-3.9h5.3c0-1.9-.6-3-2.5-3-1.8 0-2.7 1-2.8 3z" fill="#006bff"/><path d="m247.1 54.5v6c0 .9.3 1.2 1.3 1.2.5 0 1.1-.1 1.6-.2v1.9c-.7.2-1.4.3-2.2.3-2.1 0-3.1-.8-3.1-3.1v-6.1h-1.5v-2h1.6l.2-3.1h2.2v3.1h2.8v2z" fill="#006bff"/><path d="m258.7 60.4c0-.9-.7-1.3-2-1.4l-1.1-.1c-2.4-.3-3.8-1.1-3.8-3.3 0-2.1 1.5-3.2 4.5-3.2 2.8 0 4.4 1 4.5 3.3h-2.4c-.1-1-.8-1.4-2.2-1.4-1.6 0-2.1.6-2.1 1.3 0 .8.7 1.2 2.1 1.4l1 .1c2.5.3 3.8 1.2 3.8 3.4 0 2.3-1.6 3.3-4.6 3.3-2.8 0-4.8-1-4.9-3.6h2.4c0 1.2 1.1 1.7 2.6 1.7s2.2-.5 2.2-1.5z" fill="#006bff"/><path d="m263.7 52.5h2.7v2.7h-2.7zm0 8.3h2.7v2.8h-2.7z" fill="#006bff"/><path d="m280.3 56.8c-3-.5-4.8-1.5-4.8-4.3 0-3.1 2.2-4.3 5.4-4.3 3.8 0 5.4 1.5 5.6 4.5h-2.5c-.1-1.4-.9-2.2-3.1-2.2-1.7 0-2.9.5-2.9 2 0 1.2.9 1.7 2.7 2l1.6.2c3.3.5 4.6 1.8 4.6 4.4 0 3.4-2.2 4.7-5.7 4.7-3.8 0-5.9-1.6-6-5.2h2.5c.1 2.1 1.6 3 3.5 3 2.1 0 3.1-.7 3.1-2.4 0-1.2-.7-1.9-2.5-2.1z" fill="#006bff"/><path d="m296.1 59.9h2.4c-.1 2.4-1.7 3.9-4.6 3.9-3.4 0-5.2-2.2-5.2-5.8 0-3.6 1.7-5.8 5.2-5.8 2.8 0 4.4 1.5 4.5 3.8h-2.4c0-1.1-.7-1.8-2-1.8-2 0-2.8 1.3-2.8 3.7 0 2.4.8 3.7 2.7 3.7 1.4.1 2.1-.6 2.2-1.7z" fill="#006bff"/><path d="m310.5 58c0 3.7-1.7 5.8-5.2 5.8s-5.2-2.2-5.2-5.8c0-3.6 1.7-5.8 5.2-5.8s5.2 2.2 5.2 5.8zm-2.4 0c0-2.4-.8-3.8-2.7-3.8s-2.7 1.3-2.7 3.7c0 2.4.8 3.7 2.7 3.7 1.9.2 2.7-1.2 2.7-3.6z" fill="#006bff"/><path d="m315.3 61.9v5.3h-2.4v-14.7h2.4l.1 1.6c.4-.9 1.7-1.9 3.6-1.9 2.9 0 4.5 2.2 4.5 5.7 0 3.7-1.7 5.8-4.5 5.8-2 .1-3.2-.8-3.7-1.8zm5.7-3.9c0-2.4-.7-3.7-2.6-3.7-1.8 0-3 1.2-3 3v1.6c0 1.6 1.1 3 3 3 1.8-.1 2.6-1.5 2.6-3.9z" fill="#006bff"/><path d="m334.7 61.1v2c-1.1.4-2.3.7-3.7.7-4.1 0-5.8-2-5.8-5.8 0-3.6 1.8-5.8 5.2-5.8 3.5 0 4.8 2.1 4.8 5.2 0 .5-.1 1-.1 1.4h-7.5c.1 2 1.1 2.9 3.6 2.9 1.2.1 2.3-.1 3.5-.6zm-7-3.9h5.3c0-1.9-.6-3-2.5-3-1.8 0-2.7 1-2.8 3z" fill="#006bff"/><path d="m354.1 50.8h-4.4v12.7h-2.6v-12.7h-4.3v-2.3h11.3z" fill="#006bff"/><path d="m363.1 61.1v2c-1.1.4-2.3.7-3.7.7-4.1 0-5.8-2-5.8-5.8 0-3.6 1.8-5.8 5.2-5.8 3.5 0 4.8 2.1 4.8 5.2 0 .5-.1 1-.1 1.4h-7.5c.1 2 1.1 2.9 3.6 2.9 1.2.1 2.3-.1 3.5-.6zm-7-3.9h5.3c0-1.9-.6-3-2.5-3-1.8 0-2.7 1-2.8 3z" fill="#006bff"/><path d="m372.5 60.4c0-.9-.7-1.3-2-1.4l-1.1-.1c-2.4-.3-3.8-1.1-3.8-3.3 0-2.1 1.5-3.2 4.5-3.2 2.8 0 4.4 1 4.5 3.3h-2.4c-.1-1-.8-1.4-2.2-1.4-1.6 0-2.1.6-2.1 1.3 0 .8.7 1.2 2.1 1.4l1 .1c2.5.3 3.8 1.2 3.8 3.4 0 2.3-1.6 3.3-4.6 3.3-2.8 0-4.8-1-4.9-3.6h2.4c0 1.2 1.1 1.7 2.6 1.7s2.2-.5 2.2-1.5z" fill="#006bff"/><path d="m380.4 54.5v6c0 .9.3 1.2 1.3 1.2.5 0 1.1-.1 1.6-.2v1.9c-.7.2-1.4.3-2.2.3-2.1 0-3.1-.8-3.1-3.1v-6.1h-1.5v-2h1.6l.2-3.1h2.2v3.1h2.8v2z" fill="#006bff"/><path d="m385.5 48.4h2.5v2.4h-2.5zm0 4.1h2.4v11h-2.4z" fill="#006bff"/><path d="m390.8 52.5h2.4l.1 1.7c.5-.9 1.6-1.9 3.5-1.9 2.4 0 3.5 1.3 3.5 4.1v7.2h-2.4v-7.2c0-1.4-.5-2-1.8-2-2 0-2.9 1.3-2.9 2.9v6.3h-2.4z" fill="#006bff"/><path d="m410.6 61.4c-.5 1-1.6 1.9-3.3 1.9-2.8 0-4.6-2.1-4.6-5.6 0-3.3 1.6-5.5 4.5-5.5 1.8 0 3 1 3.4 1.9l.1-1.6h2.4v9.7c0 .4 0 .9-.1 1.2-.2 2.6-1.9 4.1-5.5 4.1-1.5 0-2.9-.3-3.9-.6v-2c1.4.5 2.5.6 3.7.6 2.4 0 3.3-1 3.3-2.7zm0-3v-1.1c0-1.7-1.1-3-2.9-3s-2.5 1.3-2.5 3.5c0 2.2.8 3.5 2.6 3.5s2.8-1.3 2.8-2.9z" fill="#006bff"/><path d="m509.2 30.5c-3-.5-4.8-1.5-4.8-4.3 0-3.1 2.2-4.3 5.4-4.3 3.8 0 5.4 1.5 5.6 4.5h-2.5c-.1-1.4-.9-2.2-3.1-2.2-1.7 0-2.9.5-2.9 2 0 1.2.9 1.7 2.7 2l1.6.2c3.3.5 4.6 1.8 4.6 4.4 0 3.4-2.2 4.7-5.7 4.7-3.8 0-5.9-1.6-6-5.2h2.5c.1 2.1 1.6 3 3.5 3 2.1 0 3.1-.7 3.1-2.4 0-1.2-.7-1.9-2.5-2.1z" fill="#006bff"/><path d="m520.8 37.2-4-11h2.5l2.7 8.2 2.5-8.2h2.5l-3.8 11.5c-.8 2.5-1.7 3.5-3.8 3.5-.6 0-1.4-.1-1.9-.3v-2.1c.5.1 1.1.2 1.5.2.9 0 1.3-.2 1.6-1.1z" fill="#006bff"/><path d="m528.7 26.3h2.4l.1 1.7c.5-.9 1.6-1.9 3.5-1.9 2.4 0 3.5 1.3 3.5 4.1v7.2h-2.4v-7.2c0-1.4-.5-2-1.8-2-2 0-2.9 1.3-2.9 2.9v6.3h-2.4z" fill="#006bff"/><path d="m541 29.6c.1-2.2 1.6-3.5 4.7-3.5 3.4 0 4.4 1.6 4.4 3.7v7.6h-2.2l-.1-1.6c-.6 1-1.9 1.8-3.7 1.8-2.1 0-3.7-.9-3.7-3.2 0-2.8 2.3-3.4 5.1-3.6l2.2-.2v-.8c0-1.1-.5-1.7-2-1.7s-2.3.5-2.3 1.6h-2.4zm6.7 2.6-1.9.2c-1.9.2-3 .5-3 1.8 0 1 .7 1.4 1.7 1.4 2 0 3.2-1.2 3.2-2.6z" fill="#006bff"/><path d="m559.7 33.7h2.4c-.1 2.4-1.7 3.9-4.6 3.9-3.4 0-5.2-2.2-5.2-5.8 0-3.6 1.7-5.8 5.2-5.8 2.8 0 4.4 1.5 4.5 3.8h-2.4c0-1.1-.7-1.8-2-1.8-2 0-2.8 1.3-2.8 3.7 0 2.4.8 3.7 2.7 3.7 1.4.1 2.1-.6 2.2-1.7z" fill="#006bff"/><path d="m568.1 32.1-1.3 1.2v4h-2.4v-15.1h2.4v8.2l4.4-4.2h3l-4.4 4.3 4.6 6.8h-2.6z" fill="#006bff"/><path d="m591.2 22.2h2.6v15.1h-2.6v-6.5h-6.1v6.5h-2.6v-15.1h2.6v6.2h6.1z" fill="#006bff"/><path d="m599.7 37.2-4-11h2.5l2.7 8.2 2.5-8.2h2.5l-3.8 11.5c-.8 2.5-1.7 3.5-3.8 3.5-.6 0-1.4-.1-1.9-.3v-2.1c.5.1 1.1.2 1.5.2.9 0 1.3-.2 1.6-1.1z" fill="#006bff"/><path d="m606.7 31.8c0-3.6 1.6-5.8 4.6-5.8 1.8 0 3.1 1 3.5 1.9v-5.7h2.4v15.1h-2.4l-.1-1.6c-.5 1-1.7 1.9-3.5 1.9-2.7-.1-4.5-2.1-4.5-5.8zm8.2.8v-1.6c0-1.7-1.2-3-3.1-3s-2.6 1.3-2.6 3.7c0 2.4.7 3.8 2.7 3.8 1.9 0 3-1.3 3-2.9z" fill="#006bff"/><path d="m620.2 26.3h2.4v2c.3-1.1 1.4-2.4 3.6-2.3v2.4c-2.6 0-3.6 1-3.6 3.4v5.4h-2.4z" fill="#006bff"/><path d="m627.8 29.6c.1-2.2 1.6-3.5 4.7-3.5 3.4 0 4.4 1.6 4.4 3.7v7.6h-2.2l-.1-1.6c-.6 1-1.9 1.8-3.7 1.8-2.1 0-3.7-.9-3.7-3.2 0-2.8 2.3-3.4 5.1-3.6l2.2-.2v-.8c0-1.1-.5-1.7-2-1.7s-2.3.5-2.3 1.6h-2.4zm6.7 2.6-1.9.2c-1.9.2-3 .5-3 1.8 0 1 .7 1.4 1.7 1.4 2 0 3.2-1.2 3.2-2.6z" fill="#006bff"/><path d="m644.4 31.7h-5.3v-2h5.3z" fill="#006bff"/><path d="m502.3 63.5h-2.6v-15.1h5.2c3.9 0 5.4 1.4 5.4 4.8 0 3.4-1.5 4.9-5.4 4.9h-2.6zm2.7-7.6c2.1 0 2.8-.7 2.8-2.6 0-1.8-.7-2.5-2.8-2.5h-2.7v5.1z" fill="#006bff"/><path d="m522.1 58c0 3.7-1.7 5.8-5.2 5.8s-5.2-2.2-5.2-5.8c0-3.6 1.7-5.8 5.2-5.8s5.2 2.2 5.2 5.8zm-2.5 0c0-2.4-.8-3.8-2.7-3.8s-2.7 1.3-2.7 3.7c0 2.4.8 3.7 2.7 3.7s2.7-1.2 2.7-3.6z" fill="#006bff"/><path d="m532.2 52.5 2.1 7.8 2.1-7.8h2.5l-3.3 11h-2.6l-2.1-7.8-2.1 7.8h-2.6l-3.3-11h2.5l2.1 7.8 2.1-7.8z" fill="#006bff"/><path d="m549.5 61.1v2c-1.1.4-2.3.7-3.7.7-4.1 0-5.8-2-5.8-5.8 0-3.6 1.8-5.8 5.2-5.8 3.5 0 4.8 2.1 4.8 5.2 0 .5-.1 1-.1 1.4h-7.5c.1 2 1.1 2.9 3.6 2.9 1.1.1 2.2-.1 3.5-.6zm-7.1-3.9h5.3c0-1.9-.6-3-2.5-3-1.8 0-2.7 1-2.8 3z" fill="#006bff"/><path d="m552.3 52.5h2.4v2c.3-1.1 1.4-2.4 3.6-2.3v2.4c-2.6 0-3.6 1-3.6 3.4v5.4h-2.4z" fill="#006bff"/><path d="m568.9 61.1v2c-1.1.4-2.3.7-3.7.7-4.1 0-5.8-2-5.8-5.8 0-3.6 1.8-5.8 5.2-5.8 3.5 0 4.8 2.1 4.8 5.2 0 .5-.1 1-.1 1.4h-7.5c.1 2 1.1 2.9 3.6 2.9 1.2.1 2.3-.1 3.5-.6zm-7-3.9h5.3c0-1.9-.6-3-2.5-3s-2.7 1-2.8 3z" fill="#006bff"/><path d="m571.3 58c0-3.6 1.6-5.8 4.6-5.8 1.8 0 3.1 1 3.5 1.9v-5.7h2.4v15.1h-2.4l-.1-1.6c-.5 1-1.7 1.9-3.5 1.9-2.8 0-4.5-2.1-4.5-5.8zm8.1.8v-1.6c0-1.7-1.2-3-3.1-3s-2.6 1.3-2.6 3.7c0 2.4.7 3.8 2.7 3.8 1.9.1 3-1.2 3-2.9z" fill="#006bff"/><path d="m593.8 63.5h-2.6v-15.1h5.4c3.9 0 5.4 1.4 5.4 4.8 0 2.7-1.2 4-3.4 4.6l4 5.7h-2.8l-3.8-5.4h-2.2zm2.9-7.7c2.1 0 2.8-.8 2.8-2.5 0-1.8-.7-2.5-2.8-2.5h-2.9v5.1h2.9z" fill="#006bff"/><path d="m613.1 61.1v2c-1.1.4-2.3.7-3.7.7-4.1 0-5.8-2-5.8-5.8 0-3.6 1.8-5.8 5.2-5.8 3.5 0 4.8 2.1 4.8 5.2 0 .5-.1 1-.1 1.4h-7.5c.1 2 1.1 2.9 3.6 2.9 1.1.1 2.3-.1 3.5-.6zm-7.1-3.9h5.3c0-1.9-.6-3-2.5-3-1.8 0-2.6 1-2.8 3z" fill="#006bff"/><path d="m622.9 59.9h2.4c-.1 2.4-1.7 3.9-4.6 3.9-3.4 0-5.2-2.2-5.2-5.8 0-3.6 1.7-5.8 5.2-5.8 2.8 0 4.4 1.5 4.5 3.8h-2.4c0-1.1-.7-1.8-2-1.8-2 0-2.8 1.3-2.8 3.7 0 2.4.8 3.7 2.7 3.7 1.4.1 2.1-.6 2.2-1.7z" fill="#006bff"/><path d="m637.3 58c0 3.7-1.7 5.8-5.2 5.8s-5.2-2.2-5.2-5.8c0-3.6 1.7-5.8 5.2-5.8s5.2 2.2 5.2 5.8zm-2.5 0c0-2.4-.8-3.8-2.7-3.8s-2.7 1.3-2.7 3.7c0 2.4.8 3.7 2.7 3.7s2.7-1.2 2.7-3.6z" fill="#006bff"/><path d="m639.6 52.5h2.4l.1 1.7c.5-.9 1.6-1.9 3.5-1.9 2.4 0 3.5 1.3 3.5 4.1v7.2h-2.4v-7.2c0-1.4-.5-2-1.8-2-2 0-2.9 1.3-2.9 2.9v6.3h-2.4z" fill="#006bff"/><path d="m712.4 188.2h5.8v2.8h-5.8v5.8h-2.9v-5.8h-5.8v-2.8h5.8v-5.8h2.9z" fill="#006bff"/><path d="m989.4 188.2h5.8v2.8h-5.8v5.8h-2.9v-5.8h-5.8v-2.8h5.8v-5.8h2.9z" fill="#006bff"/><path d="m788.3 37.3-5-15.1h2.7l3.7 12.2 3.7-12.2h2.7l-5 15.1z" fill="#006bff"/><path d="m806.5 37.3h-2.4l-.1-1.7c-.5.9-1.6 1.9-3.4 1.9-2.4 0-3.6-1.3-3.6-4.1v-7.2h2.4v7.2c0 1.4.5 2 1.8 2 1.9 0 2.8-1.4 2.8-2.9v-6.3h2.4v11.1z" fill="#006bff"/><path d="m809.4 22.2h2.4v15.1h-2.4z" fill="#006bff"/><path d="m814.8 26.3h2.4l.1 1.7c.5-.9 1.6-1.9 3.5-1.9 2.4 0 3.5 1.3 3.5 4.1v7.2h-2.4v-7.2c0-1.4-.5-2-1.8-2-2 0-2.9 1.3-2.9 2.9v6.3h-2.4z" fill="#006bff"/><path d="m835.9 34.9v2c-1.1.4-2.3.7-3.7.7-4.1 0-5.7-2-5.7-5.8 0-3.6 1.8-5.8 5.2-5.8 3.5 0 4.8 2.1 4.8 5.2 0 .5-.1 1-.1 1.4h-7.5c.1 2 1.1 2.9 3.6 2.9 1.1.1 2.2-.2 3.4-.6zm-7-4h5.3c0-1.9-.6-3-2.5-3-1.8 0-2.7 1-2.8 3z" fill="#006bff"/><path d="m838.8 26.3h2.4v2c.3-1.1 1.4-2.4 3.6-2.3v2.4c-2.6 0-3.6 1-3.6 3.4v5.4h-2.4z" fill="#006bff"/><path d="m846.4 29.6c.1-2.2 1.6-3.5 4.7-3.5 3.4 0 4.4 1.6 4.4 3.7v7.6h-2.2l-.1-1.6c-.6 1-1.9 1.8-3.7 1.8-2.1 0-3.7-.9-3.7-3.2 0-2.8 2.3-3.4 5.1-3.6l2.2-.2v-.8c0-1.1-.5-1.7-2-1.7s-2.3.5-2.3 1.6h-2.4zm6.7 2.6-1.9.2c-1.9.2-3 .5-3 1.8 0 1 .7 1.4 1.7 1.4 2 0 3.2-1.2 3.2-2.6z" fill="#006bff"/><path d="m860.7 35.7-.1 1.6h-2.4v-15.1h2.4v5.7c.4-.9 1.7-1.9 3.6-1.9 2.9 0 4.5 2.2 4.5 5.7 0 3.7-1.7 5.8-4.5 5.8-1.9 0-3-.8-3.5-1.8zm5.6-3.9c0-2.4-.7-3.7-2.6-3.7s-3.1 1.3-3.1 3v1.6c0 1.6 1.1 3 3 3 2-.2 2.7-1.5 2.7-3.9z" fill="#006bff"/><path d="m871.2 22.2h2.5v2.4h-2.5zm0 4.1h2.4v11h-2.4z" fill="#006bff"/><path d="m876.6 22.2h2.4v15.1h-2.4z" fill="#006bff"/><path d="m881.9 22.2h2.5v2.4h-2.5zm0 4.1h2.4v11h-2.4z" fill="#006bff"/><path d="m890.4 28.3v6c0 .9.4 1.2 1.3 1.2.5 0 1.1-.1 1.6-.2v1.9c-.7.2-1.4.3-2.2.3-2.1 0-3.1-.8-3.1-3.1v-6.1h-1.5v-2h1.6l.2-3.1h2.2v3.1h2.8v2z" fill="#006bff"/><path d="m898.2 37.2-4-11h2.5l2.7 8.2 2.5-8.2h2.5l-3.8 11.5c-.8 2.5-1.7 3.5-3.8 3.5-.6 0-1.4-.1-1.9-.3v-2.1c.5.1 1.1.2 1.5.2.9 0 1.3-.2 1.6-1.1z" fill="#006bff"/><path d="m802.9 48.4c4.9 0 6.8 2.7 6.8 7.5 0 4.8-1.9 7.5-6.7 7.5h-5.1v-15zm-2.4 2.3v10.5h2.5c3 0 4.1-1.5 4.1-5.2 0-3.7-1.1-5.2-4.2-5.2h-2.4z" fill="#006bff"/><path d="m812.2 48.4h2.5v2.4h-2.5zm.1 4.1h2.4v11h-2.4z" fill="#006bff"/><path d="m824.1 60.4c0-.9-.7-1.3-2-1.4l-1.1-.1c-2.4-.3-3.8-1.1-3.8-3.3 0-2.1 1.5-3.2 4.5-3.2 2.8 0 4.4 1 4.5 3.3h-2.4c-.1-1-.8-1.4-2.2-1.4-1.6 0-2.1.6-2.1 1.3 0 .8.7 1.2 2.1 1.4l1 .1c2.5.3 3.8 1.2 3.8 3.4 0 2.3-1.6 3.3-4.6 3.3-2.8 0-4.8-1-4.9-3.6h2.4c0 1.2 1.1 1.7 2.6 1.7s2.2-.5 2.2-1.5z" fill="#006bff"/><path d="m835.7 59.9h2.4c-.1 2.4-1.7 3.9-4.6 3.9-3.4 0-5.2-2.2-5.2-5.8 0-3.6 1.7-5.8 5.2-5.8 2.8 0 4.4 1.5 4.5 3.8h-2.4c0-1.1-.7-1.8-2-1.8-2 0-2.8 1.3-2.8 3.7 0 2.4.8 3.7 2.7 3.7 1.4.1 2.2-.6 2.2-1.7z" fill="#006bff"/><path d="m850.1 58c0 3.7-1.7 5.8-5.2 5.8s-5.2-2.2-5.2-5.8c0-3.6 1.7-5.8 5.2-5.8s5.2 2.2 5.2 5.8zm-2.4 0c0-2.4-.8-3.8-2.7-3.8s-2.7 1.3-2.7 3.7c0 2.4.8 3.7 2.7 3.7 1.9.2 2.7-1.2 2.7-3.6z" fill="#006bff"/><path d="m858.6 52.5h2.5l-3.7 11h-2.8l-3.7-11h2.5l2.6 8.3z" fill="#006bff"/><path d="m871.3 61.1v2c-1.1.4-2.3.7-3.7.7-4.1 0-5.7-2-5.7-5.8 0-3.6 1.8-5.8 5.2-5.8 3.5 0 4.8 2.1 4.8 5.2 0 .5-.1 1-.1 1.4h-7.5c.1 2 1.1 2.9 3.6 2.9 1.1.1 2.2-.1 3.4-.6zm-7-3.9h5.3c0-1.9-.6-3-2.5-3s-2.7 1-2.8 3z" fill="#006bff"/><path d="m874.2 52.5h2.4v2c.3-1.1 1.4-2.4 3.6-2.3v2.4c-2.6 0-3.6 1-3.6 3.4v5.4h-2.4z" fill="#006bff"/><path d="m885 63.5-4-11h2.5l2.7 8.2 2.5-8.2h2.5l-3.8 11.5c-.8 2.5-1.7 3.5-3.8 3.5-.6 0-1.4-.1-1.9-.3v-2.1c.5.1 1.1.2 1.5.2.9 0 1.3-.2 1.6-1.1z" fill="#006bff"/><path d="m1060.6 37.3h-2.6v-15.1h5.2c3.9 0 5.4 1.4 5.4 4.8 0 3.4-1.5 4.9-5.4 4.9h-2.6zm2.7-7.7c2.1 0 2.8-.7 2.8-2.6 0-1.8-.7-2.5-2.8-2.5h-2.7v5.1z" fill="#006bff"/><path d="m1079.4 34.9v2c-1.1.4-2.3.7-3.7.7-4.1 0-5.7-2-5.7-5.8 0-3.6 1.8-5.8 5.2-5.8 3.5 0 4.8 2.1 4.8 5.2 0 .5-.1 1-.1 1.4h-7.5c.1 2 1.1 2.9 3.6 2.9 1.1.1 2.2-.2 3.4-.6zm-7-4h5.3c0-1.9-.6-3-2.5-3s-2.7 1-2.8 3z" fill="#006bff"/><path d="m1082.3 26.3h2.4l.1 1.7c.5-.9 1.6-1.9 3.5-1.9 2.4 0 3.5 1.3 3.5 4.1v7.2h-2.4v-7.2c0-1.4-.5-2-1.8-2-2 0-2.9 1.3-2.9 2.9v6.3h-2.4z" fill="#006bff"/><path d="m1103.4 34.9v2c-1.1.4-2.3.7-3.7.7-4.1 0-5.7-2-5.7-5.8 0-3.6 1.8-5.8 5.2-5.8 3.5 0 4.8 2.1 4.8 5.2 0 .5-.1 1-.1 1.4h-7.5c.1 2 1.1 2.9 3.6 2.9 1.1.1 2.2-.2 3.4-.6zm-7-4h5.3c0-1.9-.6-3-2.5-3-1.8 0-2.7 1-2.8 3z" fill="#006bff"/><path d="m1109.4 28.3v6c0 .9.4 1.2 1.3 1.2.5 0 1.1-.1 1.6-.2v1.9c-.7.2-1.4.3-2.2.3-2.1 0-3.1-.8-3.1-3.1v-6.1h-1.5v-2h1.6l.2-3.1h2.2v3.1h2.8v2z" fill="#006bff"/><path d="m1114.6 26.3h2.4v2c.3-1.1 1.4-2.4 3.6-2.3v2.4c-2.6 0-3.6 1-3.6 3.4v5.4h-2.4z" fill="#006bff"/><path d="m1122.2 29.6c.1-2.2 1.6-3.5 4.7-3.5 3.4 0 4.4 1.6 4.4 3.7v7.6h-2.2l-.1-1.6c-.6 1-1.9 1.8-3.7 1.8-2.1 0-3.7-.9-3.7-3.2 0-2.8 2.3-3.4 5.1-3.6l2.2-.2v-.8c0-1.1-.5-1.7-2-1.7s-2.3.5-2.3 1.6h-2.4zm6.7 2.6-1.9.2c-1.9.2-3 .5-3 1.8 0 1 .7 1.4 1.7 1.4 2 0 3.2-1.2 3.2-2.6z" fill="#006bff"/><path d="m1137.1 28.3v6c0 .9.4 1.2 1.3 1.2.5 0 1.1-.1 1.6-.2v1.9c-.7.2-1.4.3-2.2.3-2.1 0-3.1-.8-3.1-3.1v-6.1h-1.5v-2h1.6l.2-3.1h2.2v3.1h2.8v2z" fill="#006bff"/><path d="m1142.3 22.2h2.5v2.4h-2.5zm0 4.1h2.4v11h-2.4z" fill="#006bff"/><path d="m1157.5 31.8c0 3.7-1.7 5.8-5.2 5.8s-5.2-2.2-5.2-5.8c0-3.6 1.7-5.8 5.2-5.8s5.2 2.1 5.2 5.8zm-2.5 0c0-2.4-.8-3.8-2.7-3.8s-2.7 1.3-2.7 3.7c0 2.4.8 3.7 2.7 3.7 2 .1 2.7-1.2 2.7-3.6z" fill="#006bff"/><path d="m1159.9 26.3h2.4l.1 1.7c.5-.9 1.6-1.9 3.5-1.9 2.4 0 3.5 1.3 3.5 4.1v7.2h-2.4v-7.2c0-1.4-.5-2-1.8-2-2 0-2.9 1.3-2.9 2.9v6.3h-2.4z" fill="#006bff"/><path d="m1089.2 50.8h-4.4v12.7h-2.6v-12.7h-4.3v-2.3h11.3z" fill="#006bff"/><path d="m1098.2 61.1v2c-1.1.4-2.3.7-3.7.7-4.1 0-5.7-2-5.7-5.8 0-3.6 1.8-5.8 5.2-5.8 3.5 0 4.8 2.1 4.8 5.2 0 .5-.1 1-.1 1.4h-7.5c.1 2 1.1 2.9 3.6 2.9 1.1.1 2.2-.1 3.4-.6zm-7-3.9h5.3c0-1.9-.6-3-2.5-3-1.8 0-2.7 1-2.8 3z" fill="#006bff"/><path d="m1107.6 60.4c0-.9-.7-1.3-2-1.4l-1.1-.1c-2.4-.3-3.8-1.1-3.8-3.3 0-2.1 1.5-3.2 4.5-3.2 2.8 0 4.4 1 4.5 3.3h-2.4c-.1-1-.8-1.4-2.2-1.4-1.6 0-2.1.6-2.1 1.3 0 .8.7 1.2 2.1 1.4l1 .1c2.5.3 3.8 1.2 3.8 3.4 0 2.3-1.6 3.3-4.6 3.3-2.8 0-4.8-1-4.9-3.6h2.4c0 1.2 1.1 1.7 2.6 1.7s2.2-.5 2.2-1.5z" fill="#006bff"/><path d="m1115.4 54.5v6c0 .9.4 1.2 1.3 1.2.5 0 1.1-.1 1.6-.2v1.9c-.7.2-1.4.3-2.2.3-2.1 0-3.1-.8-3.1-3.1v-6.1h-1.5v-2h1.6l.2-3.1h2.2v3.1h2.8v2z" fill="#006bff"/><path d="m1120.6 48.4h2.5v2.4h-2.5zm0 4.1h2.4v11h-2.4z" fill="#006bff"/><path d="m1125.9 52.5h2.4l.1 1.7c.5-.9 1.6-1.9 3.5-1.9 2.4 0 3.5 1.3 3.5 4.1v7.2h-2.4v-7.2c0-1.4-.5-2-1.8-2-2 0-2.9 1.3-2.9 2.9v6.3h-2.4z" fill="#006bff"/><path d="m1145.7 61.4c-.5 1-1.6 1.9-3.3 1.9-2.8 0-4.6-2.1-4.6-5.6 0-3.3 1.6-5.5 4.5-5.5 1.8 0 3 1 3.4 1.9l.1-1.6h2.4v9.7c0 .4 0 .9-.1 1.2-.2 2.6-1.9 4.1-5.5 4.1-1.5 0-2.9-.3-3.9-.6v-2c1.4.5 2.5.6 3.7.6 2.4 0 3.3-1 3.3-2.7zm0-3v-1.1c0-1.7-1.1-3-2.9-3s-2.5 1.3-2.5 3.5c0 2.2.8 3.5 2.6 3.5s2.8-1.3 2.8-2.9z" fill="#006bff"/><path d="m1321.5 29.7c0 3.7 1 5.6 4.1 5.6 2.1 0 3.1-1.1 3.2-3h2.6c-.2 3.2-2 5.3-5.8 5.3-4.8 0-6.7-3-6.7-7.8 0-4.8 1.9-7.8 6.6-7.8 3.8 0 5.6 2 5.8 4.9h-2.6c-.2-1.7-1.2-2.6-3.2-2.6-3-.1-4 1.8-4 5.4z" fill="#006bff"/><path d="m1343.7 31.8c0 3.7-1.7 5.8-5.2 5.8s-5.2-2.2-5.2-5.8c0-3.6 1.7-5.8 5.2-5.8s5.2 2.1 5.2 5.8zm-2.4 0c0-2.4-.8-3.8-2.7-3.8s-2.7 1.3-2.7 3.7c0 2.4.8 3.7 2.7 3.7 1.9.1 2.7-1.2 2.7-3.6z" fill="#006bff"/><path d="m1346.1 26.3h2.4l.1 1.7c.5-.9 1.6-1.9 3.5-1.9 2.4 0 3.5 1.3 3.5 4.1v7.2h-2.4v-7.2c0-1.4-.5-2-1.8-2-2 0-2.9 1.3-2.9 2.9v6.3h-2.4z" fill="#006bff"/><path d="m1364.9 34.2c0-.9-.7-1.3-2-1.4l-1.1-.1c-2.4-.3-3.8-1.1-3.8-3.3 0-2.1 1.5-3.2 4.5-3.2 2.8 0 4.4 1 4.5 3.3h-2.4c-.1-1-.8-1.4-2.2-1.4-1.6 0-2.1.6-2.1 1.3 0 .8.7 1.2 2.1 1.4l1 .1c2.5.3 3.8 1.2 3.8 3.4 0 2.3-1.6 3.3-4.6 3.3-2.8 0-4.8-1-4.9-3.6h2.4c0 1.2 1.1 1.7 2.6 1.7 1.4-.1 2.2-.6 2.2-1.5z" fill="#006bff"/><path d="m1379.4 31.8c0 3.7-1.7 5.8-5.2 5.8s-5.2-2.2-5.2-5.8c0-3.6 1.7-5.8 5.2-5.8s5.2 2.1 5.2 5.8zm-2.4 0c0-2.4-.8-3.8-2.7-3.8s-2.7 1.3-2.7 3.7c0 2.4.8 3.7 2.7 3.7 1.9.1 2.7-1.2 2.7-3.6z" fill="#006bff"/><path d="m1381.9 22.2h2.4v15.1h-2.4z" fill="#006bff"/><path d="m1387.2 22.2h2.5v2.4h-2.5zm0 4.1h2.4v11h-2.4z" fill="#006bff"/><path d="m1392.1 31.8c0-3.6 1.6-5.8 4.6-5.8 1.8 0 3.1 1 3.5 1.9v-5.7h2.4v15.1h-2.4l-.1-1.6c-.5 1-1.7 1.9-3.5 1.9-2.8-.1-4.5-2.1-4.5-5.8zm8.1.8v-1.6c0-1.7-1.2-3-3.1-3s-2.6 1.3-2.6 3.7c0 2.4.7 3.8 2.7 3.8 1.9 0 3-1.3 3-2.9z" fill="#006bff"/><path d="m1405.5 29.6c.1-2.2 1.6-3.5 4.7-3.5 3.4 0 4.4 1.6 4.4 3.7v7.6h-2.2l-.1-1.6c-.6 1-1.9 1.8-3.7 1.8-2.1 0-3.7-.9-3.7-3.2 0-2.8 2.3-3.4 5.1-3.6l2.2-.2v-.8c0-1.1-.5-1.7-2-1.7s-2.3.5-2.3 1.6h-2.4zm6.7 2.6-1.9.2c-1.9.2-3 .5-3 1.8 0 1 .7 1.4 1.7 1.4 2 0 3.2-1.2 3.2-2.6z" fill="#006bff"/><path d="m1420.4 28.3v6c0 .9.4 1.2 1.3 1.2.5 0 1.1-.1 1.6-.2v1.9c-.7.2-1.4.3-2.2.3-2.1 0-3.1-.8-3.1-3.1v-6.1h-1.5v-2h1.6l.2-3.1h2.2v3.1h2.8v2z" fill="#006bff"/><path d="m1434.3 34.9v2c-1.1.4-2.3.7-3.7.7-4.1 0-5.7-2-5.7-5.8 0-3.6 1.8-5.8 5.2-5.8 3.5 0 4.8 2.1 4.8 5.2 0 .5-.1 1-.1 1.4h-7.5c.1 2 1.1 2.9 3.6 2.9 1 .1 2.1-.2 3.4-.6zm-7.1-4h5.3c0-1.9-.6-3-2.5-3-1.8 0-2.7 1-2.8 3z" fill="#006bff"/><path d="m1436.6 31.8c0-3.6 1.6-5.8 4.6-5.8 1.8 0 3.1 1 3.5 1.9v-5.7h2.4v15.1h-2.4l-.1-1.6c-.5 1-1.7 1.9-3.5 1.9-2.7-.1-4.5-2.1-4.5-5.8zm8.2.8v-1.6c0-1.7-1.2-3-3.1-3s-2.6 1.3-2.6 3.7c0 2.4.7 3.8 2.7 3.8 1.9 0 3-1.3 3-2.9z" fill="#006bff"/><path d="m1354.2 63.5h-2.6v-15.1h5.4c3.9 0 5.4 1.4 5.4 4.8 0 2.7-1.2 4-3.4 4.6l4 5.7h-2.8l-3.8-5.4h-2.2zm2.8-7.7c2.1 0 2.8-.8 2.8-2.5 0-1.8-.7-2.5-2.8-2.5h-2.9v5.1h2.9z" fill="#006bff"/><path d="m1373.5 61.1v2c-1.1.4-2.3.7-3.7.7-4.1 0-5.7-2-5.7-5.8 0-3.6 1.8-5.8 5.2-5.8 3.5 0 4.8 2.1 4.8 5.2 0 .5-.1 1-.1 1.4h-7.5c.1 2 1.1 2.9 3.6 2.9 1 .1 2.1-.1 3.4-.6zm-7.1-3.9h5.3c0-1.9-.6-3-2.5-3-1.8 0-2.7 1-2.8 3z" fill="#006bff"/><path d="m1378.8 61.9v5.3h-2.4v-14.7h2.4l.1 1.6c.4-.9 1.7-1.9 3.6-1.9 2.9 0 4.5 2.2 4.5 5.7 0 3.7-1.7 5.8-4.5 5.8-2.1.1-3.2-.8-3.7-1.8zm5.6-3.9c0-2.4-.7-3.7-2.6-3.7-1.8 0-3 1.2-3 3v1.6c0 1.6 1.1 3 3 3 1.9-.1 2.6-1.5 2.6-3.9z" fill="#006bff"/><path d="m1399.1 58c0 3.7-1.7 5.8-5.2 5.8s-5.2-2.2-5.2-5.8c0-3.6 1.7-5.8 5.2-5.8s5.2 2.2 5.2 5.8zm-2.4 0c0-2.4-.8-3.8-2.7-3.8s-2.7 1.3-2.7 3.7c0 2.4.8 3.7 2.7 3.7 1.9.2 2.7-1.2 2.7-3.6z" fill="#006bff"/><path d="m1401.5 52.5h2.4v2c.3-1.1 1.4-2.4 3.6-2.3v2.4c-2.6 0-3.6 1-3.6 3.4v5.4h-2.4z" fill="#006bff"/><path d="m1412.6 54.5v6c0 .9.4 1.2 1.3 1.2.5 0 1.1-.1 1.6-.2v1.9c-.7.2-1.4.3-2.2.3-2.1 0-3.1-.8-3.1-3.1v-6.1h-1.5v-2h1.6l.2-3.1h2.2v3.1h2.8v2z" fill="#006bff"/><g fill="#666"><path d="m203.8 332.1v-9.8h1.3v9.8c0 3.1 1.2 4.4 4 4.4 2.7 0 4-1.2 4-4.4v-9.8h1.3v9.8c0 3.9-1.7 5.6-5.3 5.6-3.6-.1-5.3-1.8-5.3-5.6z"/><path d="m224.6 334.4c0-1.3-.9-1.7-2.6-2l-1.2-.2c-2.3-.3-3.6-1-3.6-3.1 0-1.9 1.4-3 4.1-3s4.1 1.1 4.2 3.3h-1.2c-.1-1.5-1-2.2-3-2.2-2.1 0-2.9.8-2.9 1.9 0 1.2.9 1.7 2.6 1.9l1.1.2c2.4.3 3.7 1.1 3.7 3.1 0 2.1-1.5 3.1-4.4 3.1s-4.5-1.2-4.5-3.5h1.2c.1 1.6 1.3 2.4 3.3 2.4 2.1.2 3.2-.5 3.2-1.9z"/><path d="m236.8 335.8v1.1c-1.1.4-2.3.6-3.5.6-3.9 0-5.3-2.1-5.3-5.7 0-3.6 1.6-5.7 4.9-5.7s4.5 2 4.5 5.4v.9h-8.1c0 2.6 1.1 4.1 4.1 4.1.9 0 2.2-.2 3.4-.7zm-7.6-4.5h6.9c0-2.8-.8-4.1-3.3-4.1s-3.5 1.4-3.6 4.1z"/><path d="m253.5 334h1.3c-.1 2.2-1.6 3.6-4.4 3.6-3.3 0-5-2.1-5-5.7 0-3.6 1.6-5.7 5-5.7 2.6 0 4.1 1.3 4.2 3.5h-1.3c0-1.5-1-2.4-2.9-2.4-2.7 0-3.7 1.7-3.7 4.6 0 2.9 1.1 4.6 3.7 4.6 1.9 0 3-1 3.1-2.5z"/><path d="m257.3 322.3h1.2v15.1h-1.2z"/><path d="m271.2 331.8c0 3.6-1.6 5.7-4.9 5.7s-4.9-2.1-4.9-5.7c0-3.6 1.6-5.7 4.9-5.7 3.4 0 4.9 2.1 4.9 5.7zm-1.3.1c0-3-1-4.6-3.6-4.6s-3.6 1.7-3.6 4.6c0 2.9 1 4.6 3.6 4.6s3.6-1.7 3.6-4.6z"/><path d="m282.5 337.3h-1.2v-2.1c-.5 1.2-1.8 2.3-3.7 2.3-2.4 0-3.6-1.2-3.6-3.9v-7.3h1.3v7.3c0 2 .8 2.8 2.5 2.8 2.2 0 3.6-1.5 3.6-3.6v-6.5h1.2v11z"/><path d="m293.8 328.4v-6.1h1.2v15.1h-1.2v-2c-.5 1.2-1.9 2.2-3.8 2.2-3.1 0-4.7-2.1-4.7-5.7 0-3.5 1.6-5.7 4.6-5.7 2-.1 3.4 1.1 3.9 2.2zm0 2.5c0-2.1-1.5-3.7-3.8-3.7-2.4 0-3.4 1.7-3.4 4.6 0 2.9 1 4.6 3.5 4.6 2.3 0 3.7-1.5 3.7-3.6z"/><path d="m311.8 334h1.3c-.1 2.2-1.6 3.6-4.4 3.6-3.3 0-5-2.1-5-5.7 0-3.6 1.6-5.7 5-5.7 2.6 0 4.1 1.3 4.2 3.5h-1.3c0-1.5-1-2.4-2.9-2.4-2.7 0-3.7 1.7-3.7 4.6 0 2.9 1.1 4.6 3.7 4.6 2 0 3.1-1 3.1-2.5z"/><path d="m315.7 326.4h1.2v2.3c.4-1.4 1.9-2.6 3.9-2.5v1.3c-2.5 0-4 1.4-4 3.9v6h-1.2v-11z"/><path d="m330.8 335.8v1.1c-1.1.4-2.3.6-3.5.6-3.9 0-5.3-2.1-5.3-5.7 0-3.6 1.6-5.7 4.9-5.7s4.5 2 4.5 5.4v.9h-8.1c0 2.6 1.1 4.1 4.1 4.1.9 0 2.2-.2 3.4-.7zm-7.6-4.5h6.9c0-2.8-.8-4.1-3.3-4.1-2.4 0-3.5 1.4-3.6 4.1z"/><path d="m342 328.4v-6.1h1.2v15.1h-1.2v-2c-.5 1.2-1.9 2.2-3.8 2.2-3.1 0-4.7-2.1-4.7-5.7 0-3.5 1.6-5.7 4.6-5.7 2-.1 3.4 1.1 3.9 2.2zm-.1 2.5c0-2.1-1.5-3.7-3.8-3.7-2.4 0-3.4 1.7-3.4 4.6 0 2.9 1 4.6 3.5 4.6 2.3 0 3.7-1.5 3.7-3.6z"/><path d="m354.8 335.8v1.1c-1.1.4-2.3.6-3.5.6-3.9 0-5.3-2.1-5.3-5.7 0-3.6 1.6-5.7 4.9-5.7s4.5 2 4.5 5.4v.9h-8.1c0 2.6 1.1 4.1 4.1 4.1 1 0 2.2-.2 3.4-.7zm-7.6-4.5h6.9c0-2.8-.8-4.1-3.3-4.1-2.4 0-3.5 1.4-3.6 4.1z"/><path d="m358 326.4h1.2v2.1c.5-1.2 1.9-2.3 3.9-2.3 2.4 0 3.6 1.2 3.6 3.9v7.3h-1.2v-7.4c0-2-.8-2.8-2.5-2.8-2.3 0-3.7 1.5-3.7 3.6v6.5h-1.3z"/><path d="m371.6 327.5v7.4c0 1.1.5 1.5 1.6 1.5.5 0 1.1-.1 1.6-.2v1.1c-.5.2-1.2.3-1.8.3-1.7 0-2.6-.7-2.6-2.6v-7.4h-1.5v-1.1h1.6l.1-3.1h1.1v3.1h3.1v1.1h-3.2z"/><path d="m377.1 322.3h1.3v2.2h-1.3zm0 4.1h1.2v11h-1.2z"/><path d="m381.6 329.6c.1-2.2 1.6-3.5 4.4-3.5 3.1 0 4 1.6 4 3.5v7.7h-1.2v-1.9c-.6 1.2-2.1 2.2-4.2 2.2-2 0-3.5-1-3.5-3.1 0-2.7 2.4-3.2 4.8-3.4l3-.3v-1c0-1.4-.6-2.4-2.8-2.4-2 0-3.1.8-3.1 2.3h-1.4zm7.2 2.2-2.8.2c-2.1.2-3.7.5-3.7 2.4 0 1.4 1 2.1 2.4 2.1 2.3 0 4.2-1.6 4.2-3.3v-1.4z"/><path d="m393.3 322.3h1.2v15.1h-1.2z"/><path d="m404.9 334.4c0-1.3-.9-1.7-2.6-2l-1.2-.2c-2.3-.3-3.6-1-3.6-3.1 0-1.9 1.4-3 4.1-3s4.1 1.1 4.2 3.3h-1.2c-.1-1.5-1-2.2-3-2.2-2.1 0-2.9.8-2.9 1.9 0 1.2.9 1.7 2.6 1.9l1.1.2c2.4.3 3.7 1.1 3.7 3.1 0 2.1-1.5 3.1-4.4 3.1s-4.5-1.2-4.5-3.5h1.2c.1 1.6 1.3 2.4 3.3 2.4 2.1.2 3.2-.5 3.2-1.9z"/><path d="m213.4 352.6v1.1h-3v9.9h-1.2v-9.9h-1.5v-1.1h1.5v-1.6c0-1.8.7-2.7 2.6-2.7.5 0 1.3.1 1.7.2v1.1c-.5-.1-1.1-.2-1.6-.2-1.2 0-1.5.5-1.5 1.5v1.6h3z"/><path d="m224.3 358.1c0 3.6-1.6 5.7-4.9 5.7s-4.9-2.1-4.9-5.7c0-3.6 1.6-5.7 4.9-5.7s4.9 2.1 4.9 5.7zm-1.3 0c0-3-1-4.6-3.6-4.6s-3.6 1.7-3.6 4.6c0 2.9 1 4.6 3.6 4.6 2.5 0 3.6-1.7 3.6-4.6z"/><path d="m227 352.6h1.2v2.3c.4-1.4 1.9-2.6 3.9-2.5v1.3c-2.5 0-4 1.4-4 3.9v6h-1.1z"/><path d="m248.5 362.1v1.1c-1.1.4-2.3.6-3.5.6-3.9 0-5.3-2.1-5.3-5.7 0-3.6 1.6-5.7 4.9-5.7s4.5 2 4.5 5.4v.9h-8.1c0 2.6 1.1 4.1 4.1 4.1 1-.1 2.2-.3 3.4-.7zm-7.6-4.6h6.9c0-2.8-.8-4.1-3.3-4.1-2.4.1-3.5 1.5-3.6 4.1z"/><path d="m251.7 352.6h1.2v2.1c.5-1.2 1.9-2.3 3.9-2.3 2.4 0 3.6 1.2 3.6 3.9v7.3h-1.2v-7.3c0-2-.8-2.8-2.5-2.8-2.3 0-3.7 1.5-3.7 3.6v6.5h-1.2v-11z"/><path d="m272.1 363.6h-1.2v-2.1c-.5 1.2-1.8 2.3-3.7 2.3-2.4 0-3.6-1.2-3.6-3.9v-7.3h1.3v7.3c0 2 .8 2.8 2.5 2.8 2.2 0 3.6-1.5 3.6-3.6v-6.5h1.2v11z"/><path d="m283.3 363.6h-1.2v-7.1c0-2.1-.6-3-2.1-3-2.1 0-3.3 1.5-3.3 3.5v6.5h-1.2v-11h1.2v2.1c.4-1.2 1.6-2.3 3.5-2.3 1.6 0 2.4.8 2.8 2.4.4-1.2 1.7-2.4 3.7-2.4 2.2 0 3.2 1.3 3.2 4v7.2h-1.2v-7.2c0-2-.6-2.9-2.1-2.9-2 0-3.2 1.4-3.2 3.3v6.9z"/><path d="m301.3 362.1v1.1c-1.1.4-2.3.6-3.5.6-3.9 0-5.3-2.1-5.3-5.7 0-3.6 1.6-5.7 4.9-5.7s4.5 2 4.5 5.4v.9h-8.1c0 2.6 1.1 4.1 4.1 4.1 1-.1 2.3-.3 3.4-.7zm-7.5-4.6h6.9c0-2.8-.8-4.1-3.3-4.1-2.5.1-3.5 1.5-3.6 4.1z"/><path d="m304.5 352.6h1.2v2.3c.4-1.4 1.9-2.6 3.9-2.5v1.3c-2.5 0-4 1.4-4 3.9v6h-1.2v-11z"/><path d="m311.2 355.9c.1-2.2 1.6-3.5 4.4-3.5 3.1 0 4 1.6 4 3.5v7.7h-1.2v-1.9c-.6 1.2-2.1 2.2-4.2 2.2-2 0-3.5-1-3.5-3.1 0-2.7 2.4-3.2 4.8-3.4l3-.3v-1c0-1.4-.6-2.4-2.8-2.4-2 0-3.1.8-3.1 2.3h-1.4zm7.2 2.1-2.8.3c-2.1.2-3.7.5-3.7 2.4 0 1.4 1 2.1 2.4 2.1 2.3 0 4.2-1.6 4.2-3.3v-1.5z"/><path d="m324.5 353.7v7.4c0 1.1.5 1.5 1.6 1.5.5 0 1.1-.1 1.6-.2v1.1c-.5.2-1.2.3-1.8.3-1.7 0-2.6-.7-2.6-2.6v-7.4h-1.5v-1.1h1.6l.1-3.1h1.1v3.1h3.1v1.1h-3.2z"/><path d="m330 348.5h1.3v2.2h-1.3zm0 4.1h1.2v11h-1.2z"/><path d="m343.9 358.1c0 3.6-1.6 5.7-4.9 5.7s-4.9-2.1-4.9-5.7c0-3.6 1.6-5.7 4.9-5.7s4.9 2.1 4.9 5.7zm-1.3 0c0-3-1-4.6-3.6-4.6s-3.6 1.7-3.6 4.6c0 2.9 1 4.6 3.6 4.6s3.6-1.7 3.6-4.6z"/><path d="m346.6 352.6h1.2v2.1c.5-1.2 1.9-2.3 3.9-2.3 2.4 0 3.6 1.2 3.6 3.9v7.3h-1.2v-7.3c0-2-.8-2.8-2.5-2.8-2.3 0-3.7 1.5-3.7 3.6v6.5h-1.2v-11z"/><path d="m366.6 363.6-3.3-11h1.3l2.7 9.2 2.8-9.2h1.3l2.8 9.2 2.7-9.2h1.3l-3.3 11h-1.3l-2.8-9.3-2.8 9.3z"/><path d="m380.2 348.5h1.3v2.2h-1.3zm.1 4.1h1.2v11h-1.2z"/><path d="m386.6 353.7v7.4c0 1.1.5 1.5 1.6 1.5.5 0 1.1-.1 1.6-.2v1.1c-.5.2-1.2.3-1.8.3-1.7 0-2.6-.7-2.6-2.6v-7.4h-1.5v-1.1h1.6l.1-3.1h1.1v3.1h3.1v1.1h-3.2z"/><path d="m392.2 348.5h1.2v6.1c.5-1.2 1.9-2.3 3.9-2.3 2.4 0 3.6 1.2 3.6 3.9v7.3h-1.2v-7.3c0-2-.8-2.8-2.5-2.8-2.3 0-3.7 1.5-3.7 3.6v6.5h-1.2v-15z"/><path d="m227.3 386.5h1.3c-.1 2.2-1.6 3.6-4.4 3.6-3.3 0-5-2.1-5-5.7 0-3.6 1.6-5.7 5-5.7 2.6 0 4.1 1.3 4.2 3.5h-1.3c0-1.5-1-2.4-2.9-2.4-2.7 0-3.7 1.7-3.7 4.6 0 2.9 1.1 4.6 3.7 4.6 2-.1 3.1-1 3.1-2.5z"/><path d="m231.2 374.7h1.2v15.1h-1.2z"/><path d="m235.8 374.7h1.3v2.2h-1.3zm0 4.1h1.2v11h-1.2z"/><path d="m248.6 388.3v1.1c-1.1.4-2.3.6-3.5.6-3.9 0-5.3-2.1-5.3-5.7 0-3.6 1.6-5.7 4.9-5.7s4.5 2 4.5 5.4v.9h-8.1c0 2.6 1.1 4.1 4.1 4.1 1-.1 2.3-.3 3.4-.7zm-7.5-4.5h6.9c0-2.8-.8-4.1-3.3-4.1s-3.5 1.4-3.6 4.1z"/><path d="m251.9 378.8h1.2v2.1c.5-1.2 1.9-2.3 3.9-2.3 2.4 0 3.6 1.2 3.6 3.9v7.3h-1.2v-7.3c0-2-.8-2.8-2.5-2.8-2.3 0-3.7 1.5-3.7 3.6v6.5h-1.2v-11z"/><path d="m265.4 379.9v7.4c0 1.1.5 1.5 1.6 1.5.5 0 1.1-.1 1.6-.2v1.1c-.5.2-1.2.3-1.8.3-1.7 0-2.6-.7-2.6-2.6v-7.4h-1.5v-1.1h1.6l.1-3.1h1.1v3.1h3.1v1.1h-3.2z"/><path d="m278.1 387.8v5.7h-1.2v-14.7h1.2v2c.5-1.2 1.9-2.3 3.8-2.3 3.1 0 4.6 2.2 4.6 5.7 0 3.6-1.5 5.7-4.6 5.7-1.9.1-3.2-.9-3.8-2.1zm.1-2.5c0 2 1.5 3.6 3.8 3.6 2.5 0 3.5-1.7 3.5-4.6 0-2.9-1-4.6-3.4-4.6-2.3 0-3.8 1.5-3.8 3.7v1.9z"/><path d="m289.4 378.8h1.2v2.3c.4-1.4 1.9-2.6 3.9-2.5v1.3c-2.5 0-4 1.4-4 3.9v6h-1.2v-11z"/><path d="m305.5 384.3c0 3.6-1.6 5.7-4.9 5.7s-4.9-2.1-4.9-5.7c0-3.6 1.6-5.7 4.9-5.7s4.9 2.1 4.9 5.7zm-1.3 0c0-3-1-4.6-3.6-4.6s-3.6 1.7-3.6 4.6c0 2.9 1 4.6 3.6 4.6s3.6-1.6 3.6-4.6z"/><path d="m310.9 389.8-4.1-11h1.3l3.5 9.6 3.5-9.6h1.3l-4.1 11z"/><path d="m318.4 374.7h1.3v2.2h-1.3zm0 4.1h1.2v11h-1.2z"/><path d="m330.9 380.9v-6.1h1.2v15.1h-1.1v-2c-.5 1.2-1.9 2.2-3.8 2.2-3.1 0-4.7-2.1-4.7-5.7 0-3.5 1.6-5.7 4.6-5.7 2-.1 3.3 1 3.8 2.2zm0 2.5c0-2.1-1.5-3.7-3.8-3.7-2.4 0-3.4 1.7-3.4 4.6 0 2.9 1 4.6 3.5 4.6 2.3 0 3.7-1.5 3.7-3.6z"/><path d="m343.8 388.3v1.1c-1.1.4-2.3.6-3.5.6-3.9 0-5.3-2.1-5.3-5.7 0-3.6 1.6-5.7 4.9-5.7s4.5 2 4.5 5.4v.9h-8.1c0 2.6 1.1 4.1 4.1 4.1.9-.1 2.2-.3 3.4-.7zm-7.6-4.5h6.9c0-2.8-.8-4.1-3.3-4.1s-3.5 1.4-3.6 4.1z"/><path d="m354.9 380.9v-6.1h1.2v15.1h-1.1v-2c-.5 1.2-1.9 2.2-3.8 2.2-3.1 0-4.7-2.1-4.7-5.7 0-3.5 1.6-5.7 4.6-5.7 2-.1 3.3 1 3.8 2.2zm0 2.5c0-2.1-1.5-3.7-3.8-3.7-2.4 0-3.4 1.7-3.4 4.6 0 2.9 1 4.6 3.5 4.6 2.3 0 3.7-1.5 3.7-3.6z"/><path d="m365.5 374.7h1.2v15.1h-1.2z"/><path d="m370.1 374.7h1.3v2.2h-1.3zm.1 4.1h1.2v11h-1.2z"/><path d="m381.8 386.9c0-1.3-.9-1.7-2.6-2l-1.2-.2c-2.3-.3-3.6-1-3.6-3.1 0-1.9 1.4-3 4.1-3s4.1 1.1 4.2 3.3h-1.2c-.1-1.5-1-2.2-3-2.2-2.1 0-2.9.8-2.9 1.9 0 1.2.9 1.7 2.6 1.9l1.1.2c2.4.3 3.7 1.1 3.7 3.1 0 2.1-1.5 3.1-4.4 3.1s-4.5-1.2-4.5-3.5h1.2c.1 1.6 1.3 2.4 3.3 2.4 2.1.1 3.2-.5 3.2-1.9z"/><path d="m387.3 379.9v7.4c0 1.1.5 1.5 1.6 1.5.5 0 1.1-.1 1.6-.2v1.1c-.5.2-1.2.3-1.8.3-1.7 0-2.6-.7-2.6-2.6v-7.4h-1.5v-1.1h1.6l.1-3.1h1.1v3.1h3.1v1.1h-3.2z"/><path d="m511.6 323.4h-7.6v5.7h6.8v1.2h-6.8v7h-1.3v-15.1h8.9z"/><path d="m513.9 322.3h1.3v2.2h-1.3zm.1 4.1h1.2v11h-1.2z"/><path d="m518.5 326.4h1.2v2.1c.5-1.2 1.9-2.3 3.9-2.3 2.4 0 3.6 1.2 3.6 3.9v7.3h-1.2v-7.4c0-2-.8-2.8-2.5-2.8-2.3 0-3.7 1.5-3.7 3.6v6.5h-1.2v-10.9z"/><path d="m538.4 328.4v-6.1h1.2v15.1h-1.2v-2c-.5 1.2-1.9 2.2-3.8 2.2-3.1 0-4.7-2.1-4.7-5.7 0-3.5 1.6-5.7 4.6-5.7 2-.1 3.4 1.1 3.9 2.2zm0 2.5c0-2.1-1.5-3.7-3.8-3.7-2.4 0-3.4 1.7-3.4 4.6 0 2.9 1 4.6 3.5 4.6 2.3 0 3.7-1.5 3.7-3.6z"/><path d="m556 334.4c0-1.3-.9-1.7-2.6-2l-1.2-.2c-2.3-.3-3.6-1-3.6-3.1 0-1.9 1.4-3 4.1-3s4.1 1.1 4.2 3.3h-1.2c-.1-1.5-1-2.2-3-2.2-2.1 0-2.9.8-2.9 1.9 0 1.2.9 1.7 2.6 1.9l1.1.2c2.4.3 3.7 1.1 3.7 3.1 0 2.1-1.5 3.1-4.4 3.1s-4.5-1.2-4.5-3.5h1.2c.1 1.6 1.3 2.4 3.3 2.4 2.1.2 3.2-.5 3.2-1.9z"/><path d="m568.4 337.3h-1.2v-2.1c-.5 1.2-1.8 2.3-3.7 2.3-2.4 0-3.6-1.2-3.6-3.9v-7.3h1.3v7.3c0 2 .8 2.8 2.5 2.8 2.2 0 3.6-1.5 3.6-3.6v-6.5h1.2v11z"/><path d="m578.7 334.4c0-1.3-.9-1.7-2.6-2l-1.2-.2c-2.3-.3-3.6-1-3.6-3.1 0-1.9 1.4-3 4.1-3s4.1 1.1 4.2 3.3h-1.2c-.1-1.5-1-2.2-3-2.2-2.1 0-2.9.8-2.9 1.9 0 1.2.9 1.7 2.6 1.9l1.1.2c2.4.3 3.7 1.1 3.7 3.1 0 2.1-1.5 3.1-4.4 3.1s-4.5-1.2-4.5-3.5h1.2c.1 1.6 1.3 2.4 3.3 2.4 2.2.2 3.2-.5 3.2-1.9z"/><path d="m583.9 335.4v5.7h-1.2v-14.7h1.2v2c.5-1.2 1.9-2.3 3.8-2.3 3.1 0 4.6 2.2 4.6 5.7 0 3.6-1.5 5.7-4.6 5.7-2 .1-3.3-.9-3.8-2.1zm0-2.5c0 2 1.5 3.6 3.8 3.6 2.5 0 3.5-1.7 3.5-4.6 0-2.9-1-4.6-3.4-4.6-2.3 0-3.8 1.5-3.8 3.7v1.9z"/><path d="m603.4 335.8v1.1c-1.1.4-2.3.6-3.5.6-3.9 0-5.3-2.1-5.3-5.7 0-3.6 1.6-5.7 4.9-5.7s4.5 2 4.5 5.4v.9h-8.1c0 2.6 1.1 4.1 4.1 4.1 1 0 2.2-.2 3.4-.7zm-7.6-4.5h6.9c0-2.8-.8-4.1-3.3-4.1-2.4 0-3.5 1.4-3.6 4.1z"/><path d="m614.1 334h1.3c-.1 2.2-1.6 3.6-4.4 3.6-3.3 0-5-2.1-5-5.7 0-3.6 1.6-5.7 5-5.7 2.6 0 4.1 1.3 4.2 3.5h-1.2c0-1.5-1-2.4-2.9-2.4-2.7 0-3.7 1.7-3.7 4.6 0 2.9 1.1 4.6 3.7 4.6 1.9 0 3-1 3-2.5z"/><path d="m619.7 327.5v7.4c0 1.1.5 1.5 1.6 1.5.5 0 1.1-.1 1.6-.2v1.1c-.5.2-1.2.3-1.8.3-1.7 0-2.6-.7-2.6-2.6v-7.4h-1.5v-1.1h1.6l.1-3.1h1.1v3.1h3.1v1.1h-3.2z"/><path d="m633.1 335.8v1.1c-1.1.4-2.3.6-3.5.6-3.9 0-5.3-2.1-5.3-5.7 0-3.6 1.6-5.7 4.9-5.7s4.5 2 4.5 5.4v.9h-8.1c0 2.6 1.1 4.1 4.1 4.1 1 0 2.3-.2 3.4-.7zm-7.5-4.5h6.9c0-2.8-.8-4.1-3.3-4.1s-3.5 1.4-3.6 4.1z"/><path d="m644.3 328.4v-6.1h1.2v15.1h-1.2v-2c-.5 1.2-1.9 2.2-3.8 2.2-3.1 0-4.7-2.1-4.7-5.7 0-3.5 1.6-5.7 4.6-5.7 2.1-.1 3.4 1.1 3.9 2.2zm0 2.5c0-2.1-1.5-3.7-3.8-3.7-2.4 0-3.4 1.7-3.4 4.6 0 2.9 1 4.6 3.5 4.6 2.3 0 3.7-1.5 3.7-3.6z"/><path d="m513.9 363.6-4.1-11h1.3l3.5 9.6 3.5-9.6h1.3l-4.1 11z"/><path d="m530 363.6h-1.2v-2.1c-.5 1.2-1.8 2.3-3.7 2.3-2.4 0-3.6-1.2-3.6-3.9v-7.3h1.3v7.3c0 2 .8 2.8 2.5 2.8 2.2 0 3.6-1.5 3.6-3.6v-6.5h1.2v11z"/><path d="m533.4 348.5h1.2v15.1h-1.2z"/><path d="m538 352.6h1.2v2.1c.5-1.2 1.9-2.3 3.9-2.3 2.4 0 3.6 1.2 3.6 3.9v7.3h-1.2v-7.3c0-2-.8-2.8-2.5-2.8-2.3 0-3.7 1.5-3.7 3.6v6.5h-1.3z"/><path d="m558.1 362.1v1.1c-1.1.4-2.3.6-3.5.6-3.9 0-5.3-2.1-5.3-5.7 0-3.6 1.6-5.7 4.9-5.7s4.5 2 4.5 5.4v.9h-8.1c0 2.6 1.1 4.1 4.1 4.1 1-.1 2.3-.3 3.4-.7zm-7.6-4.6h6.9c0-2.8-.8-4.1-3.3-4.1-2.4.1-3.5 1.5-3.6 4.1z"/><path d="m561.3 352.6h1.2v2.3c.4-1.4 1.9-2.6 3.9-2.5v1.3c-2.5 0-4 1.4-4 3.9v6h-1.2v-11z"/><path d="m568 355.9c.1-2.2 1.6-3.5 4.4-3.5 3.1 0 4 1.6 4 3.5v7.7h-1.2v-1.9c-.6 1.2-2.1 2.2-4.2 2.2-2 0-3.5-1-3.5-3.1 0-2.7 2.4-3.2 4.8-3.4l3-.3v-1c0-1.4-.6-2.4-2.8-2.4-2 0-3.1.8-3.1 2.3h-1.4zm7.2 2.1-2.8.3c-2.1.2-3.7.5-3.7 2.4 0 1.4 1 2.1 2.4 2.1 2.3 0 4.2-1.6 4.2-3.3v-1.5z"/><path d="m581 354.6c.5-1.1 1.8-2.3 3.9-2.3 3 0 4.6 2.2 4.6 5.7 0 3.6-1.6 5.7-4.6 5.7-2 0-3.4-1-3.9-2.2v2h-1.2v-15.1h1.2zm-.1 4.5c0 2.1 1.5 3.6 3.7 3.6 2.5 0 3.5-1.7 3.5-4.6 0-2.9-1-4.6-3.4-4.6-2.3 0-3.8 1.6-3.8 3.7z"/><path d="m592.2 348.5h1.3v2.2h-1.3zm0 4.1h1.2v11h-1.2z"/><path d="m596.8 348.5h1.2v15.1h-1.2z"/><path d="m601.4 348.5h1.3v2.2h-1.3zm0 4.1h1.2v11h-1.2z"/><path d="m607.8 353.7v7.4c0 1.1.5 1.5 1.6 1.5.5 0 1.1-.1 1.6-.2v1.1c-.5.2-1.2.3-1.8.3-1.7 0-2.6-.7-2.6-2.6v-7.4h-1.6v-1.1h1.6l.1-3.1h1.1v3.1h3.1v1.1h-3.1z"/><path d="m613.3 348.5h1.3v2.2h-1.3zm0 4.1h1.2v11h-1.2z"/><path d="m626.1 362.1v1.1c-1.1.4-2.3.6-3.5.6-3.9 0-5.3-2.1-5.3-5.7 0-3.6 1.6-5.7 4.9-5.7s4.5 2 4.5 5.4v.9h-8.1c0 2.6 1.1 4.1 4.1 4.1 1-.1 2.3-.3 3.4-.7zm-7.5-4.6h6.9c0-2.8-.8-4.1-3.3-4.1-2.5.1-3.5 1.5-3.6 4.1z"/><path d="m636.4 360.6c0-1.3-.9-1.7-2.6-2l-1.2-.2c-2.3-.3-3.6-1-3.6-3.1 0-1.9 1.4-3 4.1-3s4.1 1.1 4.2 3.3h-1.2c-.1-1.5-1-2.2-3-2.2-2.1 0-2.9.8-2.9 1.9 0 1.2.9 1.7 2.6 1.9l1.1.2c2.4.3 3.7 1.1 3.7 3.1 0 2.1-1.5 3.1-4.4 3.1s-4.5-1.2-4.5-3.5h1.2c.1 1.6 1.3 2.4 3.3 2.4 2.1.2 3.2-.5 3.2-1.9z"/><path d="m761.5 322.3h5.3c3.2 0 4.7 1.3 4.7 3.9 0 1.9-1.2 3.1-2.5 3.4 1.6.2 2.9 1.3 2.9 3.5 0 3-1.8 4.2-5.1 4.2h-5.4v-15zm1.3 6.7h4.3c2 0 3.1-1.2 3.1-2.8 0-2-1.1-2.8-3.4-2.8h-4zm0 7.2h4.1c2.4 0 3.7-.9 3.7-3.1 0-2-1.4-2.9-3.5-2.9h-4.3z"/><path d="m783 337.3h-1.2v-2.1c-.5 1.2-1.8 2.3-3.7 2.3-2.4 0-3.6-1.2-3.6-3.9v-7.3h1.3v7.3c0 2 .8 2.8 2.5 2.8 2.2 0 3.6-1.5 3.6-3.6v-6.5h1.2v11z"/><path d="m794.2 337.2v-2.2c-.5 1.2-1.8 2.2-3.7 2.2-3 0-4.6-2.1-4.6-5.6 0-3.4 1.6-5.5 4.6-5.5 2 0 3.3 1.1 3.7 2.3 0-.7 0-1.4 0-2h1.2v10.8c0 2.7-1.8 4.1-4.9 4.1-1.5 0-2.8-.3-3.8-.6v-1.1c1.2.4 2.4.6 3.7.6 2.5 0 3.8-1.1 3.8-3zm-.1-6.3c0-2.1-1.5-3.7-3.7-3.7-2.3 0-3.4 1.6-3.4 4.4 0 2.8 1.1 4.4 3.4 4.4 2.2 0 3.6-1.5 3.6-3.6v-1.5z"/><path d="m806 328.4c.5-1.1 1.8-2.3 3.9-2.3 3 0 4.6 2.2 4.6 5.7 0 3.6-1.6 5.7-4.6 5.7-2 0-3.4-1-3.9-2.2v2h-1.2v-15.1h1.2zm0 4.5c0 2.1 1.5 3.6 3.7 3.6 2.5 0 3.5-1.7 3.5-4.6 0-2.9-1-4.6-3.4-4.6-2.3 0-3.8 1.6-3.8 3.7z"/><path d="m826.5 331.8c0 3.6-1.6 5.7-4.9 5.7s-4.9-2.1-4.9-5.7c0-3.6 1.6-5.7 4.9-5.7s4.9 2.1 4.9 5.7zm-1.3.1c0-3-1-4.6-3.6-4.6s-3.6 1.7-3.6 4.6c0 2.9 1 4.6 3.6 4.6s3.6-1.7 3.6-4.6z"/><path d="m837.8 337.3h-1.2v-2.1c-.5 1.2-1.8 2.3-3.7 2.3-2.4 0-3.6-1.2-3.6-3.9v-7.3h1.3v7.3c0 2 .8 2.8 2.5 2.8 2.2 0 3.6-1.5 3.6-3.6v-6.5h1.2v11z"/><path d="m841.1 326.4h1.2v2.1c.5-1.2 1.9-2.3 3.9-2.3 2.4 0 3.6 1.2 3.6 3.9v7.3h-1.2v-7.4c0-2-.8-2.8-2.5-2.8-2.3 0-3.7 1.5-3.7 3.6v6.5h-1.2v-10.9z"/><path d="m854.6 327.5v7.4c0 1.1.5 1.5 1.6 1.5.5 0 1.1-.1 1.6-.2v1.1c-.5.2-1.2.3-1.8.3-1.7 0-2.6-.7-2.6-2.6v-7.4h-1.5v-1.1h1.6l.1-3.1h1.1v3.1h3.1v1.1h-3.2z"/><path d="m863.1 337.3-4.3-10.9h1.3l3.7 9.4 3.4-9.4h1.3l-4.7 12.5c-.6 1.6-1.5 2.3-2.9 2.3-.5 0-1.1-.1-1.5-.2v-1.1c.4.1.9.2 1.3.2 1 0 1.5-.4 1.9-1.6z"/><path d="m876.4 329.6c.1-2.2 1.6-3.5 4.4-3.5 3.1 0 4 1.6 4 3.5v7.7h-1.2v-1.9c-.6 1.2-2.1 2.2-4.2 2.2-2 0-3.5-1-3.5-3.1 0-2.7 2.4-3.2 4.8-3.4l3-.3v-1c0-1.4-.6-2.4-2.8-2.4-2 0-3.1.8-3.1 2.3h-1.4zm7.2 2.2-2.8.3c-2.1.2-3.7.5-3.7 2.4 0 1.4 1 2.1 2.4 2.1 2.3 0 4.2-1.6 4.2-3.3v-1.5z"/><path d="m888 322.3h1.2v15.1h-1.2z"/><path d="m901.9 331.8c0 3.6-1.6 5.7-4.9 5.7s-4.9-2.1-4.9-5.7c0-3.6 1.6-5.7 4.9-5.7s4.9 2.1 4.9 5.7zm-1.3.1c0-3-1-4.6-3.6-4.6s-3.6 1.7-3.6 4.6c0 2.9 1 4.6 3.6 4.6s3.6-1.7 3.6-4.6z"/><path d="m904.6 326.4h1.2v2.1c.5-1.2 1.9-2.3 3.9-2.3 2.4 0 3.6 1.2 3.6 3.9v7.3h-1.2v-7.4c0-2-.8-2.8-2.5-2.8-2.3 0-3.7 1.5-3.7 3.6v6.5h-1.2v-10.9z"/><path d="m924.4 337.2v-2.2c-.5 1.2-1.8 2.2-3.7 2.2-3 0-4.6-2.1-4.6-5.6 0-3.4 1.6-5.5 4.6-5.5 2 0 3.3 1.1 3.7 2.3 0-.7 0-1.4 0-2h1.2v10.8c0 2.7-1.8 4.1-4.9 4.1-1.5 0-2.8-.3-3.8-.6v-1.1c1.2.4 2.4.6 3.7.6 2.5 0 3.8-1.1 3.8-3zm-.1-6.3c0-2.1-1.5-3.7-3.7-3.7-2.3 0-3.4 1.6-3.4 4.4 0 2.8 1.1 4.4 3.4 4.4 2.2 0 3.6-1.5 3.6-3.6v-1.5z"/><path d="m747.6 363.6-3.3-11h1.3l2.7 9.2 2.8-9.2h1.3l2.8 9.2 2.7-9.2h1.3l-3.3 11h-1.3l-2.8-9.3-2.8 9.3z"/><path d="m761.3 348.5h1.3v2.2h-1.3zm0 4.1h1.2v11h-1.2z"/><path d="m767.7 353.7v7.4c0 1.1.5 1.5 1.6 1.5.5 0 1.1-.1 1.6-.2v1.1c-.5.2-1.2.3-1.8.3-1.7 0-2.6-.7-2.6-2.6v-7.4h-1.5v-1.1h1.6l.1-3.1h1.1v3.1h3.1v1.1h-3.2z"/><path d="m773.2 348.5h1.2v6.1c.5-1.2 1.9-2.3 3.9-2.3 2.4 0 3.6 1.2 3.6 3.9v7.3h-1.2v-7.3c0-2-.8-2.8-2.5-2.8-2.3 0-3.7 1.5-3.7 3.6v6.5h-1.2v-15z"/><path d="m798.4 359.3h-.9l-5-8.5v12.9h-1.3v-15.1h1.4l5.4 9.2 5.3-9.2h1.4v15.1h-1.3v-12.9z"/><path d="m808.1 348.5h1.3v2.2h-1.3zm0 4.1h1.2v11h-1.2z"/><path d="m819.7 360.6c0-1.3-.9-1.7-2.6-2l-1.2-.2c-2.3-.3-3.6-1-3.6-3.1 0-1.9 1.4-3 4.1-3s4.1 1.1 4.2 3.3h-1.2c-.1-1.5-1-2.2-3-2.2-2.1 0-2.9.8-2.9 1.9 0 1.2.9 1.7 2.6 1.9l1.1.2c2.4.3 3.7 1.1 3.7 3.1 0 2.1-1.5 3.1-4.4 3.1s-4.5-1.2-4.5-3.5h1.2c.1 1.6 1.3 2.4 3.3 2.4 2.1.2 3.2-.5 3.2-1.9z"/><path d="m830.6 360.6c0-1.3-.9-1.7-2.6-2l-1.2-.2c-2.3-.3-3.6-1-3.6-3.1 0-1.9 1.4-3 4.1-3s4.1 1.1 4.2 3.3h-1.2c-.1-1.5-1-2.2-3-2.2-2.1 0-2.9.8-2.9 1.9 0 1.2.9 1.7 2.6 1.9l1.1.2c2.4.3 3.7 1.1 3.7 3.1 0 2.1-1.5 3.1-4.4 3.1s-4.5-1.2-4.5-3.5h1.2c.1 1.6 1.3 2.4 3.3 2.4 2.1.2 3.2-.5 3.2-1.9z"/><path d="m834.5 348.5h1.3v2.2h-1.3zm0 4.1h1.2v11h-1.2z"/><path d="m848.4 358.1c0 3.6-1.6 5.7-4.9 5.7s-4.9-2.1-4.9-5.7c0-3.6 1.6-5.7 4.9-5.7s4.9 2.1 4.9 5.7zm-1.3 0c0-3-1-4.6-3.6-4.6s-3.6 1.7-3.6 4.6c0 2.9 1 4.6 3.6 4.6 2.5 0 3.6-1.7 3.6-4.6z"/><path d="m851.1 352.6h1.2v2.1c.5-1.2 1.9-2.3 3.9-2.3 2.4 0 3.6 1.2 3.6 3.9v7.3h-1.2v-7.3c0-2-.8-2.8-2.5-2.8-2.3 0-3.7 1.5-3.7 3.6v6.5h-1.2v-11z"/><path d="m869 352.6h1.2v2.3c.4-1.4 1.9-2.6 3.9-2.5v1.3c-2.5 0-4 1.4-4 3.9v6h-1.1z"/><path d="m884.1 362.1v1.1c-1.1.4-2.3.6-3.5.6-3.9 0-5.3-2.1-5.3-5.7 0-3.6 1.6-5.7 4.9-5.7s4.5 2 4.5 5.4v.9h-8.1c0 2.6 1.1 4.1 4.1 4.1.9-.1 2.2-.3 3.4-.7zm-7.6-4.6h6.9c0-2.8-.8-4.1-3.3-4.1-2.4.1-3.5 1.5-3.6 4.1z"/><path d="m889.4 363.6-3.3-11h1.3l2.7 9.2 2.8-9.2h1.3l2.8 9.2 2.7-9.2h1.3l-3.3 11h-1.3l-2.8-9.3-2.8 9.3z"/><path d="m902.9 355.9c.1-2.2 1.6-3.5 4.4-3.5 3.1 0 4 1.6 4 3.5v7.7h-1.2v-1.9c-.6 1.2-2.1 2.2-4.2 2.2-2 0-3.5-1-3.5-3.1 0-2.7 2.4-3.2 4.8-3.4l3-.3v-1c0-1.4-.6-2.4-2.8-2.4-2 0-3.1.8-3.1 2.3h-1.4zm7.1 2.1-2.8.3c-2.1.2-3.7.5-3.7 2.4 0 1.4 1 2.1 2.4 2.1 2.3 0 4.2-1.6 4.2-3.3v-1.5z"/><path d="m914.5 352.6h1.2v2.3c.4-1.4 1.9-2.6 3.9-2.5v1.3c-2.5 0-4 1.4-4 3.9v6h-1.2v-11z"/><path d="m929.3 354.6v-6.1h1.2v15.1h-1.2v-2c-.5 1.2-1.9 2.2-3.8 2.2-3.1 0-4.7-2.1-4.7-5.7 0-3.5 1.6-5.7 4.6-5.7 2 0 3.4 1.1 3.9 2.2zm0 2.5c0-2.1-1.5-3.7-3.8-3.7-2.4 0-3.4 1.7-3.4 4.6 0 2.9 1 4.6 3.5 4.6 2.3 0 3.7-1.5 3.7-3.6z"/><path d="m940.9 360.6c0-1.3-.9-1.7-2.6-2l-1.2-.2c-2.3-.3-3.6-1-3.6-3.1 0-1.9 1.4-3 4.1-3s4.1 1.1 4.2 3.3h-1.2c-.1-1.5-1-2.2-3-2.2-2.1 0-2.9.8-2.9 1.9 0 1.2.9 1.7 2.6 1.9l1.1.2c2.4.3 3.7 1.1 3.7 3.1 0 2.1-1.5 3.1-4.4 3.1s-4.5-1.2-4.5-3.5h1.2c.1 1.6 1.3 2.4 3.3 2.4 2.1.2 3.2-.5 3.2-1.9z"/><path d="m1007.2 337.3v-15.1h4.7c4.5 0 6.6 2.5 6.6 7.5 0 5-2.1 7.5-6.6 7.5h-4.7zm4.6-1.2c3.6 0 5.3-1.9 5.3-6.3 0-4.4-1.6-6.3-5.2-6.3h-3.3v12.7h3.2z"/><path d="m1030.6 331.8c0 3.6-1.6 5.7-4.9 5.7s-4.9-2.1-4.9-5.7c0-3.6 1.6-5.7 4.9-5.7s4.9 2.1 4.9 5.7zm-1.3.1c0-3-1-4.6-3.6-4.6s-3.6 1.7-3.6 4.6c0 2.9 1 4.6 3.6 4.6 2.5 0 3.6-1.7 3.6-4.6z"/><path d="m1040.8 334h1.3c-.1 2.2-1.6 3.6-4.4 3.6-3.3 0-5-2.1-5-5.7 0-3.6 1.6-5.7 5-5.7 2.6 0 4.1 1.3 4.2 3.5h-1.3c0-1.5-1-2.4-2.9-2.4-2.7 0-3.7 1.7-3.7 4.6 0 2.9 1.1 4.6 3.7 4.6 2 0 3.1-1 3.1-2.5z"/><path d="m1053.2 337.3h-1.2v-2.1c-.5 1.2-1.8 2.3-3.7 2.3-2.4 0-3.6-1.2-3.6-3.9v-7.3h1.3v7.3c0 2 .8 2.8 2.5 2.8 2.2 0 3.6-1.5 3.6-3.6v-6.5h1.2v11z"/><path d="m1064.4 337.3h-1.2v-7.1c0-2.1-.6-3-2.1-3-2.1 0-3.3 1.5-3.3 3.5v6.5h-1.2v-11h1.2v2.1c.4-1.2 1.6-2.3 3.5-2.3 1.6 0 2.4.8 2.8 2.4.4-1.2 1.7-2.4 3.7-2.4 2.2 0 3.2 1.3 3.2 4v7.2h-1.2v-7.2c0-2-.6-2.9-2.1-2.9-2 0-3.2 1.4-3.2 3.3v6.9z"/><path d="m1082.4 335.8v1.1c-1.1.4-2.3.6-3.5.6-3.9 0-5.3-2.1-5.3-5.7 0-3.6 1.6-5.7 4.9-5.7s4.5 2 4.5 5.4v.9h-8.1c0 2.6 1.1 4.1 4.1 4.1 1 0 2.2-.2 3.4-.7zm-7.6-4.5h6.9c0-2.8-.8-4.1-3.3-4.1-2.4 0-3.5 1.4-3.6 4.1z"/><path d="m1085.6 326.4h1.2v2.1c.5-1.2 1.9-2.3 3.9-2.3 2.4 0 3.6 1.2 3.6 3.9v7.3h-1.2v-7.4c0-2-.8-2.8-2.5-2.8-2.3 0-3.7 1.5-3.7 3.6v6.5h-1.2v-10.9z"/><path d="m1099.2 327.5v7.4c0 1.1.5 1.5 1.6 1.5.5 0 1.1-.1 1.6-.2v1.1c-.5.2-1.2.3-1.8.3-1.7 0-2.6-.7-2.6-2.6v-7.4h-1.5v-1.1h1.6l.1-3.1h1.1v3.1h3.1v1.1h-3.2z"/><path d="m1118.1 334h1.3c-.1 2.2-1.6 3.6-4.4 3.6-3.3 0-5-2.1-5-5.7 0-3.6 1.6-5.7 5-5.7 2.6 0 4.1 1.3 4.2 3.5h-1.3c0-1.5-1-2.4-2.9-2.4-2.7 0-3.7 1.7-3.7 4.6 0 2.9 1.1 4.6 3.7 4.6 2 0 3.1-1 3.1-2.5z"/><path d="m1122 322.3h1.2v6.1c.5-1.2 1.9-2.3 3.9-2.3 2.4 0 3.6 1.2 3.6 3.9v7.3h-1.2v-7.3c0-2-.8-2.8-2.5-2.8-2.3 0-3.7 1.5-3.7 3.6v6.5h-1.2v-15z"/><path d="m1142.2 335.8v1.1c-1.1.4-2.3.6-3.5.6-3.9 0-5.3-2.1-5.3-5.7 0-3.6 1.6-5.7 4.9-5.7s4.5 2 4.5 5.4v.9h-8.1c0 2.6 1.1 4.1 4.1 4.1.9 0 2.2-.2 3.4-.7zm-7.6-4.5h6.9c0-2.8-.8-4.1-3.3-4.1-2.4 0-3.5 1.4-3.6 4.1z"/><path d="m1152.9 334h1.3c-.1 2.2-1.6 3.6-4.4 3.6-3.3 0-5-2.1-5-5.7 0-3.6 1.6-5.7 5-5.7 2.6 0 4.1 1.3 4.2 3.5h-1.3c0-1.5-1-2.4-2.9-2.4-2.7 0-3.7 1.7-3.7 4.6 0 2.9 1.1 4.6 3.7 4.6 2 0 3.1-1 3.1-2.5z"/><path d="m1156.8 322.3h1.2v9.1l5.5-5h1.7l-4.9 4.5 5.2 6.5h-1.4l-4.7-5.7-1.4 1.3v4.4h-1.2z"/><path d="m1174.2 334.4c0-1.3-.9-1.7-2.6-2l-1.2-.2c-2.3-.3-3.6-1-3.6-3.1 0-1.9 1.4-3 4.1-3s4.1 1.1 4.2 3.3h-1.2c-.1-1.5-1-2.2-3-2.2-2.1 0-2.9.8-2.9 1.9 0 1.2.9 1.7 2.6 1.9l1.1.2c2.4.3 3.7 1.1 3.7 3.1 0 2.1-1.5 3.1-4.4 3.1s-4.5-1.2-4.5-3.5h1.2c.1 1.6 1.3 2.4 3.3 2.4 2.1.2 3.2-.5 3.2-1.9z"/><path d="m1185.9 327.5v7.4c0 1.1.5 1.5 1.6 1.5.5 0 1.1-.1 1.6-.2v1.1c-.5.2-1.2.3-1.8.3-1.7 0-2.6-.7-2.6-2.6v-7.4h-1.5v-1.1h1.6l.1-3.1h1.1v3.1h3.1v1.1h-3.2z"/><path d="m1191.4 322.3h1.2v6.1c.5-1.2 1.9-2.3 3.9-2.3 2.4 0 3.6 1.2 3.6 3.9v7.3h-1.2v-7.3c0-2-.8-2.8-2.5-2.8-2.3 0-3.7 1.5-3.7 3.6v6.5h-1.2v-15z"/><path d="m1203.3 329.6c.1-2.2 1.6-3.5 4.4-3.5 3.1 0 4 1.6 4 3.5v7.7h-1.2v-1.9c-.6 1.2-2.1 2.2-4.2 2.2-2 0-3.5-1-3.5-3.1 0-2.7 2.4-3.2 4.8-3.4l3-.3v-1c0-1.4-.6-2.4-2.8-2.4-2 0-3.1.8-3.1 2.3h-1.4zm7.2 2.2-2.8.3c-2.1.2-3.7.5-3.7 2.4 0 1.4 1 2.1 2.4 2.1 2.3 0 4.2-1.6 4.2-3.3v-1.5z"/><path d="m1216.6 327.5v7.4c0 1.1.5 1.5 1.6 1.5.5 0 1.1-.1 1.6-.2v1.1c-.5.2-1.2.3-1.8.3-1.7 0-2.6-.7-2.6-2.6v-7.4h-1.5v-1.1h1.6l.1-3.1h1.1v3.1h3.1v1.1h-3.2z"/><path d="m1013.1 354.6v-6.1h1.2v15.1h-1.2v-2c-.5 1.2-1.9 2.2-3.8 2.2-3.1 0-4.7-2.1-4.7-5.7 0-3.5 1.6-5.7 4.6-5.7 2.1 0 3.4 1.1 3.9 2.2zm0 2.5c0-2.1-1.5-3.7-3.8-3.7-2.4 0-3.4 1.7-3.4 4.6 0 2.9 1 4.6 3.5 4.6 2.3 0 3.7-1.5 3.7-3.6z"/><path d="m1027 358.1c0 3.6-1.6 5.7-4.9 5.7s-4.9-2.1-4.9-5.7c0-3.6 1.6-5.7 4.9-5.7s4.9 2.1 4.9 5.7zm-1.3 0c0-3-1-4.6-3.6-4.6s-3.6 1.7-3.6 4.6c0 2.9 1 4.6 3.6 4.6 2.5 0 3.6-1.7 3.6-4.6z"/><path d="m1029.7 352.6h1.2v2.1c.5-1.2 1.9-2.3 3.9-2.3 2.4 0 3.6 1.2 3.6 3.9v7.3h-1.2v-7.3c0-2-.8-2.8-2.5-2.8-2.3 0-3.7 1.5-3.7 3.6v6.5h-1.2v-11z"/><path d="m1041.3 352.6c.5-.2.7-.7.7-1.9h-.7v-2.2h1.6v2.1c0 1.6-.7 2.4-1.6 2.6z"/><path d="m1047.7 353.7v7.4c0 1.1.5 1.5 1.6 1.5.5 0 1.1-.1 1.6-.2v1.1c-.5.2-1.2.3-1.8.3-1.7 0-2.6-.7-2.6-2.6v-7.4h-1.5v-1.1h1.6l.1-3.1h1.1v3.1h3.1v1.1h-3.2z"/><path d="m1064.8 353.7h-3.7v9.9h-1.2v-9.9h-1.5v-1.1h1.5v-1.3c0-1.9.9-3 3-3 .9 0 1.6.2 2.1.3v1.1c-.5-.2-1.2-.3-1.9-.3-1.5 0-2 .7-2 1.9v1.3h5v11h-1.2v-9.9z"/><path d="m1069.4 352.6h1.2v2.1c.5-1.2 1.9-2.3 3.9-2.3 2.4 0 3.6 1.2 3.6 3.9v7.3h-1.2v-7.3c0-2-.8-2.8-2.5-2.8-2.3 0-3.7 1.5-3.7 3.6v6.5h-1.2v-11z"/><path d="m1089.2 354.6v-6.1h1.2v15.1h-1.2v-2c-.5 1.2-1.9 2.2-3.8 2.2-3.1 0-4.7-2.1-4.7-5.7 0-3.5 1.6-5.7 4.6-5.7 2.1 0 3.4 1.1 3.9 2.2zm0 2.5c0-2.1-1.5-3.7-3.8-3.7-2.4 0-3.4 1.7-3.4 4.6 0 2.9 1 4.6 3.5 4.6 2.3 0 3.7-1.5 3.7-3.6z"/><path d="m1102.5 363.6-4.1-11h1.3l3.5 9.6 3.5-9.6h1.3l-4.1 11z"/><path d="m1118.6 363.6h-1.2v-2.1c-.5 1.2-1.8 2.3-3.7 2.3-2.4 0-3.6-1.2-3.6-3.9v-7.3h1.3v7.3c0 2 .8 2.8 2.5 2.8 2.2 0 3.6-1.5 3.6-3.6v-6.5h1.2v11z"/><path d="m1122 348.5h1.2v15.1h-1.2z"/><path d="m1126.6 352.6h1.2v2.1c.5-1.2 1.9-2.3 3.9-2.3 2.4 0 3.6 1.2 3.6 3.9v7.3h-1.2v-7.3c0-2-.8-2.8-2.5-2.8-2.3 0-3.7 1.5-3.7 3.6v6.5h-1.2v-11z"/><path d="m1146.7 362.1v1.1c-1.1.4-2.3.6-3.5.6-3.9 0-5.3-2.1-5.3-5.7 0-3.6 1.6-5.7 4.9-5.7s4.5 2 4.5 5.4v.9h-8.1c0 2.6 1.1 4.1 4.1 4.1 1-.1 2.3-.3 3.4-.7zm-7.5-4.6h6.9c0-2.8-.8-4.1-3.3-4.1-2.5.1-3.6 1.5-3.6 4.1z"/><path d="m1149.9 352.6h1.2v2.3c.4-1.4 1.9-2.6 3.9-2.5v1.3c-2.5 0-4 1.4-4 3.9v6h-1.2v-11z"/><path d="m1156.6 355.9c.1-2.2 1.6-3.5 4.4-3.5 3.1 0 4 1.6 4 3.5v7.7h-1.2v-1.9c-.6 1.2-2.1 2.2-4.2 2.2-2 0-3.5-1-3.5-3.1 0-2.7 2.4-3.2 4.8-3.4l3-.3v-1c0-1.4-.6-2.4-2.8-2.4-2 0-3.1.8-3.1 2.3h-1.4zm7.2 2.1-2.8.3c-2.1.2-3.7.5-3.7 2.4 0 1.4 1 2.1 2.4 2.1 2.3 0 4.2-1.6 4.2-3.3v-1.5z"/><path d="m1169.6 354.6c.5-1.1 1.8-2.3 3.9-2.3 3 0 4.6 2.2 4.6 5.7 0 3.6-1.6 5.7-4.6 5.7-2 0-3.4-1-3.9-2.2v2h-1.2v-15.1h1.2zm-.1 4.5c0 2.1 1.5 3.6 3.7 3.6 2.5 0 3.5-1.7 3.5-4.6 0-2.9-1-4.6-3.4-4.6-2.3 0-3.8 1.6-3.8 3.7z"/><path d="m1180.8 348.5h1.3v2.2h-1.3zm0 4.1h1.2v11h-1.2z"/><path d="m1185.4 348.5h1.2v15.1h-1.2z"/><path d="m1190 348.5h1.3v2.2h-1.3zm0 4.1h1.2v11h-1.2z"/><path d="m1196.4 353.7v7.4c0 1.1.5 1.5 1.6 1.5.5 0 1.1-.1 1.6-.2v1.1c-.5.2-1.2.3-1.8.3-1.7 0-2.6-.7-2.6-2.6v-7.4h-1.5v-1.1h1.6l.1-3.1h1.1v3.1h3.1v1.1h-3.2z"/><path d="m1209.9 362.1v1.1c-1.1.4-2.3.6-3.5.6-3.9 0-5.3-2.1-5.3-5.7 0-3.6 1.6-5.7 4.9-5.7s4.5 2 4.5 5.4v.9h-8.1c0 2.6 1.1 4.1 4.1 4.1.9-.1 2.2-.3 3.4-.7zm-7.6-4.6h6.9c0-2.8-.8-4.1-3.3-4.1-2.4.1-3.5 1.5-3.6 4.1z"/><path d="m1220.1 360.6c0-1.3-.9-1.7-2.6-2l-1.2-.2c-2.3-.3-3.6-1-3.6-3.1 0-1.9 1.4-3 4.1-3s4.1 1.1 4.2 3.3h-1.2c-.1-1.5-1-2.2-3-2.2-2.1 0-2.9.8-2.9 1.9 0 1.2.9 1.7 2.6 1.9l1.1.2c2.4.3 3.7 1.1 3.7 3.1 0 2.1-1.5 3.1-4.4 3.1s-4.5-1.2-4.5-3.5h1.2c.1 1.6 1.3 2.4 3.3 2.4 2.1.2 3.2-.5 3.2-1.9z"/><path d="m1324.2 322.3h1.3v15.1h-1.3v-7.1h-8v7.1h-1.3v-15.1h1.3v6.8h8z"/><path d="m1337.5 337.3h-1.2v-2.1c-.5 1.2-1.8 2.3-3.7 2.3-2.4 0-3.6-1.2-3.6-3.9v-7.3h1.3v7.3c0 2 .8 2.8 2.5 2.8 2.2 0 3.6-1.5 3.6-3.6v-6.5h1.2v11z"/><path d="m1348.6 337.3h-1.2v-7.1c0-2.1-.6-3-2.1-3-2.1 0-3.3 1.5-3.3 3.5v6.5h-1.2v-11h1.2v2.1c.4-1.2 1.6-2.3 3.5-2.3 1.6 0 2.4.8 2.8 2.4.4-1.2 1.7-2.4 3.7-2.4 2.2 0 3.2 1.3 3.2 4v7.2h-1.2v-7.2c0-2-.6-2.9-2.1-2.9-2 0-3.2 1.4-3.2 3.3v6.9z"/><path d="m1358.4 329.6c.1-2.2 1.6-3.5 4.4-3.5 3.1 0 4 1.6 4 3.5v7.7h-1.2v-1.9c-.6 1.2-2.1 2.2-4.2 2.2-2 0-3.5-1-3.5-3.1 0-2.7 2.4-3.2 4.8-3.4l3-.3v-1c0-1.4-.6-2.4-2.8-2.4-2 0-3.1.8-3.1 2.3h-1.4zm7.2 2.2-2.8.3c-2.1.2-3.7.5-3.7 2.4 0 1.4 1 2.1 2.4 2.1 2.3 0 4.2-1.6 4.2-3.3v-1.5z"/><path d="m1370 326.4h1.2v2.1c.5-1.2 1.9-2.3 3.9-2.3 2.4 0 3.6 1.2 3.6 3.9v7.3h-1.2v-7.4c0-2-.8-2.8-2.5-2.8-2.3 0-3.7 1.5-3.7 3.6v6.5h-1.2v-10.9z"/><path d="m1390 337.3-3.3-11h1.3l2.7 9.2 2.8-9.2h1.3l2.8 9.2 2.7-9.2h1.3l-3.3 11h-1.3l-2.8-9.3-2.8 9.3z"/><path d="m1403.6 326.4h1.2v2.3c.4-1.4 1.9-2.6 3.9-2.5v1.3c-2.5 0-4 1.4-4 3.9v6h-1.2v-11z"/><path d="m1410.9 322.3h1.3v2.2h-1.3zm0 4.1h1.2v11h-1.2z"/><path d="m1417.3 327.5v7.4c0 1.1.5 1.5 1.6 1.5.5 0 1.1-.1 1.6-.2v1.1c-.5.2-1.2.3-1.8.3-1.7 0-2.6-.7-2.6-2.6v-7.4h-1.5v-1.1h1.6l.1-3.1h1.1v3.1h3.1v1.1h-3.2z"/><path d="m1424.6 327.5v7.4c0 1.1.5 1.5 1.6 1.5.5 0 1.1-.1 1.6-.2v1.1c-.5.2-1.2.3-1.8.3-1.7 0-2.6-.7-2.6-2.6v-7.4h-1.5v-1.1h1.6l.1-3.1h1.1v3.1h3.1v1.1h-3.2z"/><path d="m1438.1 335.8v1.1c-1.1.4-2.3.6-3.5.6-3.9 0-5.3-2.1-5.3-5.7 0-3.6 1.6-5.7 4.9-5.7s4.5 2 4.5 5.4v.9h-8.1c0 2.6 1.1 4.1 4.1 4.1 1 0 2.2-.2 3.4-.7zm-7.6-4.5h6.9c0-2.8-.8-4.1-3.3-4.1-2.4 0-3.5 1.4-3.6 4.1z"/><path d="m1441.3 326.4h1.2v2.1c.5-1.2 1.9-2.3 3.9-2.3 2.4 0 3.6 1.2 3.6 3.9v7.3h-1.2v-7.4c0-2-.8-2.8-2.5-2.8-2.3 0-3.7 1.5-3.7 3.6v6.5h-1.2v-10.9z"/><path d="m1347.4 360.6c0-1.3-.9-1.7-2.6-2l-1.2-.2c-2.3-.3-3.6-1-3.6-3.1 0-1.9 1.4-3 4.1-3s4.1 1.1 4.2 3.3h-1.2c-.1-1.5-1-2.2-3-2.2-2.1 0-2.9.8-2.9 1.9 0 1.2.9 1.7 2.6 1.9l1.1.2c2.4.3 3.7 1.1 3.7 3.1 0 2.1-1.5 3.1-4.4 3.1s-4.5-1.2-4.5-3.5h1.2c.1 1.6 1.3 2.4 3.3 2.4 2.1.2 3.2-.5 3.2-1.9z"/><path d="m1359.8 363.6h-1.2v-2.1c-.5 1.2-1.8 2.3-3.7 2.3-2.4 0-3.6-1.2-3.6-3.9v-7.3h1.3v7.3c0 2 .8 2.8 2.5 2.8 2.2 0 3.6-1.5 3.6-3.6v-6.5h1.2v11z"/><path d="m1371 363.6h-1.2v-7.1c0-2.1-.6-3-2.1-3-2.1 0-3.3 1.5-3.3 3.5v6.5h-1.2v-11h1.2v2.1c.4-1.2 1.6-2.3 3.5-2.3 1.6 0 2.4.8 2.8 2.4.4-1.2 1.7-2.4 3.7-2.4 2.2 0 3.2 1.3 3.2 4v7.2h-1.2v-7.2c0-2-.6-2.9-2.1-2.9-2 0-3.2 1.4-3.2 3.3v6.9z"/><path d="m1388.6 363.6h-1.2v-7.1c0-2.1-.6-3-2.1-3-2.1 0-3.3 1.5-3.3 3.5v6.5h-1.2v-11h1.2v2.1c.4-1.2 1.6-2.3 3.5-2.3 1.6 0 2.4.8 2.8 2.4.4-1.2 1.7-2.4 3.7-2.4 2.2 0 3.2 1.3 3.2 4v7.2h-1.2v-7.2c0-2-.6-2.9-2.1-2.9-2 0-3.2 1.4-3.2 3.3v6.9z"/><path d="m1398.3 355.9c.1-2.2 1.6-3.5 4.4-3.5 3.1 0 4 1.6 4 3.5v7.7h-1.2v-1.9c-.6 1.2-2.1 2.2-4.2 2.2-2 0-3.5-1-3.5-3.1 0-2.7 2.4-3.2 4.8-3.4l3-.3v-1c0-1.4-.6-2.4-2.8-2.4-2 0-3.1.8-3.1 2.3h-1.4zm7.2 2.1-2.8.3c-2.1.2-3.7.5-3.7 2.4 0 1.4 1 2.1 2.4 2.1 2.3 0 4.2-1.6 4.2-3.3v-1.5z"/><path d="m1409.9 352.6h1.2v2.3c.4-1.4 1.9-2.6 3.9-2.5v1.3c-2.5 0-4 1.4-4 3.9v6h-1.2v-11z"/><path d="m1420.3 363.5-4.3-10.9h1.3l3.7 9.4 3.4-9.4h1.3l-4.7 12.5c-.6 1.6-1.5 2.3-2.9 2.3-.5 0-1.1-.1-1.5-.2v-1.1c.4.1.9.2 1.3.2 1 0 1.5-.4 1.9-1.6z"/></g><circle cx="843.1" cy="189.6" fill="none" r="74.7" stroke="url(#i)" stroke-miterlimit="10" stroke-width="1.25"/><circle cx="843.1" cy="189.6" fill="none" r="69.6" stroke="url(#j)" stroke-miterlimit="10" stroke-width="1.25"/><circle cx="843.1" cy="114.9" fill="#fff" r="5.1" stroke="#d4d4d4" stroke-miterlimit="10"/><circle cx="843.1" cy="264.3" fill="#fff" r="5.1" stroke="#d4d4d4" stroke-miterlimit="10"/><circle cx="917.8" cy="189.6" fill="#fff" r="5.1" stroke="#d4d4d4" stroke-miterlimit="10"/><circle cx="768.4" cy="189.6" fill="#fff" r="5.1" stroke="#d4d4d4" stroke-miterlimit="10"/><circle cx="790.3" cy="136.8" fill="#fff" r="5.1" stroke="#d4d4d4" stroke-miterlimit="10"/><circle cx="895.9" cy="242.4" fill="#fff" r="5.1" stroke="#d4d4d4" stroke-miterlimit="10"/><circle cx="895.9" cy="136.8" fill="#fff" r="5.1" stroke="#d4d4d4" stroke-miterlimit="10"/><circle cx="790.3" cy="242.4" fill="#fff" r="5.1" stroke="#d4d4d4" stroke-miterlimit="10"/><path d="m773.5 189.6h24.3" fill="none" stroke="#d4d4d4" stroke-miterlimit="10"/><path d="m795.8 192.2 1.1-2.6-1.1-2.6 6.1 2.6z" fill="#d4d4d4"/><path d="m912.8 189.6h-24.3" fill="none" stroke="#d4d4d4" stroke-miterlimit="10"/><path d="m890.4 187-1.1 2.6 1.1 2.6-6.1-2.6z" fill="#d4d4d4"/><path d="m843.1 120v24.2" fill="none" stroke="#d4d4d4" stroke-miterlimit="10"/><path d="m840.5 142.3 2.6 1.1 2.6-1.1-2.6 6.1z" fill="#d4d4d4"/><path d="m843.1 259.2v-24.3" fill="none" stroke="#d4d4d4" stroke-miterlimit="10"/><path d="m845.7 236.9-2.6-1.1-2.6 1.1 2.6-6.1z" fill="#d4d4d4"/><path d="m793.9 140.3 17.1 17.2" fill="none" stroke="#d4d4d4" stroke-miterlimit="10"/><path d="m807.8 158 2.6-1.1 1.1-2.6 2.5 6.2z" fill="#d4d4d4"/><path d="m892.4 238.8-17.2-17.1" fill="none" stroke="#d4d4d4" stroke-miterlimit="10"/><path d="m878.4 221.2-2.6 1.1-1.1 2.6-2.5-6.2z" fill="#d4d4d4"/><path d="m892.4 140.3-17.2 17.2" fill="none" stroke="#d4d4d4" stroke-miterlimit="10"/><path d="m874.7 154.3 1.1 2.6 2.6 1.1-6.2 2.5z" fill="#d4d4d4"/><path d="m793.9 238.8 17.1-17.1" fill="none" stroke="#d4d4d4" stroke-miterlimit="10"/><path d="m811.5 224.9-1.1-2.6-2.6-1.1 6.2-2.5z" fill="#d4d4d4"/><path d="m846.2 185c0 1.5 0 2.9-.2 4.4-.1.9-.5 1.8-1 2.5-1 1.4-2.7 1.4-3.8.1-.9-1-1-2.3-1-3.5-.1-2.4-.1-4.7-.1-7.1 0-.5.1-1 .2-1.5.5-1.5 1.6-2.3 2.9-2.3s2.4 1.1 2.8 2.5c.1.4.2.9.2 1.3v3.6c-.1 0 0 0 0 0z" fill="#006bff"/><path d="m845.9 197.5c0 1.6-1.2 2.8-2.8 2.8s-2.8-1.2-2.8-2.8 1.2-2.8 2.8-2.8 2.8 1.2 2.8 2.8z" fill="#006bff"/><path d="m806 191.9c.2-1.4.6-2.9 1.2-4.2 2.2-4.6 7.4-8 12.6-7.9h.4c2.2-5.8 8.3-9.6 14.4-8.8 3.2-5.1 8.9-8.5 14.9-9.1 9.1-1 18 5.8 19.4 14.9.2 1.3.3 2.6.4 3.9 1.3.8 2.8 1.5 3.9 2.5 4.4 3.7 6 8.5 4.5 14.1-1.3 5.3-5.9 9.9-11.2 9.9-.9 0-32.1 0-47.2 0-4.4 0-8.6-2-11.1-5.6-1.8-3-2.6-6.4-2.2-9.7z" fill="none" stroke="#006bff" stroke-miterlimit="10" stroke-width=".75"/><path d="m809.5 191.6c.4-2.6 1.8-5.1 4-6.6 2.6-1.9 6-2.2 9.1-2.2h.4c.9-2.5 2-5 4.1-6.7 2.6-2 6-2.3 9.2-1.9 2.9-4.5 8.6-9.3 14-9.3 8.4 0 14.6 5.4 15.9 13.4.2 1.1.2 2.9.3 4 1.2.7 2.9 1.2 4 2.1 4 3.3 5.4 6.6 4.1 11.5-1.2 4.6-5.3 8.2-10.2 8.2-.9 0-29.2 0-42.9 0-4.9 0-9.5-2.4-11.4-7-.1-.1-.1-.3-.2-.4-.6-1.7-.7-3.3-.4-5.1z" fill="none" stroke="#006bff" stroke-miterlimit="10" stroke-width=".75"/><circle cx="574.1" cy="189.8" fill="none" r="47.1" stroke="#d4d4d4" stroke-miterlimit="10"/><circle cx="574.1" cy="189.8" fill="none" r="23.6" stroke="#d4d4d4" stroke-miterlimit="10"/><path d="m504 189.8c0-28.1 16.6-52.4 40.5-63.6l29.6 63.5z" fill="url(#k)"/><path d="m574.1 259.9v-140.2" fill="none" stroke="#d4d4d4" stroke-miterlimit="10"/><path d="m644.2 189.8h-35.1" fill="none" stroke="#d4d4d4" stroke-miterlimit="10" stroke-width="1.25"/><path d="m504 189.8h140.2" fill="none" stroke="#d4d4d4" stroke-miterlimit="10"/><path d="m569.8 154.7h8.6" fill="none" stroke="#d4d4d4" stroke-miterlimit="10"/><path d="m569.8 224.8h8.6" fill="none" stroke="#d4d4d4" stroke-miterlimit="10"/><path d="m609.1 185.5v8.6" fill="none" stroke="#d4d4d4" stroke-miterlimit="10"/><path d="m539 185.5v8.6" fill="none" stroke="#d4d4d4" stroke-miterlimit="10"/><circle cx="536.3" cy="148.4" fill="#006bff" r="2.5"/><circle cx="550.4" cy="170.7" fill="#006bff" r="2.5"/><circle cx="541.7" cy="207.8" fill="#006bff" r="2.5"/><circle cx="524.6" cy="219.9" fill="#006bff" r="2.5"/><circle cx="520.1" cy="175.1" fill="#e70000" opacity=".2" r="5.6"/><path d="m544.5 126.2 29.6 63.6" fill="none" stroke="#d4d4d4" stroke-miterlimit="10"/><path d="m1348.2 171.5h10.4v23.2h-10.4z" fill="url(#l)"/><path d="m1404.8 141.8h7.8v23.9h-7.8z" fill="#d4d4d4" transform="matrix(0 1 -1 0 1562.3998 -1254.9586)"/><path d="m1363.7 160.9h10.4v33.8h-10.4z" fill="url(#m)"/><path d="m1379 150.4h10.4v44.2h-10.4z" fill="url(#n)"/><path d="m1397.3 165.7h38.2" fill="none" stroke="#d4d4d4" stroke-linecap="round" stroke-miterlimit="10"/><path d="m1397.3 175.5h38.2" fill="none" stroke="#d4d4d4" stroke-linecap="round" stroke-miterlimit="10"/><path d="m1397.3 184.1h38.2" fill="none" stroke="#d4d4d4" stroke-linecap="round" stroke-miterlimit="10"/><path d="m1397.3 193.9h38.2" fill="none" stroke="#d4d4d4" stroke-linecap="round" stroke-miterlimit="10"/><path d="m1348.6 202.6h86.9" fill="none" stroke="#d4d4d4" stroke-linecap="round" stroke-miterlimit="10"/><path d="m1348.6 212.5h86.9" fill="none" stroke="#d4d4d4" stroke-linecap="round" stroke-miterlimit="10"/><path d="m1348.6 221h86.9" fill="none" stroke="#d4d4d4" stroke-linecap="round" stroke-miterlimit="10"/><path d="m1348.6 230.8h86.9" fill="none" stroke="#d4d4d4" stroke-linecap="round" stroke-miterlimit="10"/><path d="m1348.6 239.5h86.9" fill="none" stroke="#d4d4d4" stroke-linecap="round" stroke-miterlimit="10"/><path d="m1348.6 249.4h86.9" fill="none" stroke="#d4d4d4" stroke-linecap="round" stroke-miterlimit="10"/><text fill="#006bff" font-family="'CriqueGrotesk-Medium'" font-size="12.0188" transform="translate(1360.1818 141.3477)">Vuln Report</text><path d="m1113.7 119.7v50.9" fill="none" stroke="#d4d4d4" stroke-miterlimit="10"/><path d="m1113.7 259.4v-50.6" fill="none" stroke="#d4d4d4" stroke-miterlimit="10"/><path d="m1085.2 251.6c14 11.7 27.9 17.7 28.3 17.7h.3c.8 0 57.7-25.1 57.7-71.7v-65.7l-13.8-5.2m-3.3-1.3-40.6-15.3h-.3l-57.7 21.8v65.7c0 21.6 12.2 38.5 25.3 50.5" fill="none" stroke="url(#o)" stroke-miterlimit="10" stroke-width="1.25"/><path d="m1083.8 238.1c-10.2-10.3-18.9-23.9-18.9-40.6v-59.4l48.7-18.4 35.9 13.6" fill="none" stroke="url(#p)" stroke-miterlimit="10" stroke-width="1.25"/><path d="m1154.3 135.1 8.1 3.1v59.4c0 34.9-37.9 56.4-48.7 61.8-4.8-2.4-15-8-24.8-16.5" fill="none" stroke="url(#q)" stroke-miterlimit="10" stroke-width="1.25"/><path d="m1088.9 242.8-14 28.5 6.3-23.2 15.5-58 6.5 16.6 17.3-58.2 7.7 19.5 37-60.3-37.4 93.3-7-18-13.8 50.9-6.1-15.6z" fill="none" stroke="#fff" stroke-linecap="round" stroke-miterlimit="10" stroke-width="4"/><path d="m1088.9 242.8-14 28.5 6.3-23.2 15.5-58 6.5 16.6 17.3-58.2 7.7 19.5 37-60.3-37.4 93.3-7-18-13.8 50.9-6.1-15.6z" fill="url(#r)" stroke="#fff" stroke-linecap="round" stroke-miterlimit="10" stroke-width="2"/><ellipse cx="230.6" cy="225.9" fill="#fff" rx="27.3" ry="26.9"/><path d="m226.7 193.8c2.1-.3 4.3-.3 6.6-.1 8.8.8 16.9 4.9 22.6 11.7 4.3 5.2 7 11.7 7.4 18.4.2 3.4-.2 6.7-1 10-.5 1.7-1.1 3.4-1.8 5s-2.4 3.3-1.6 5c1 1.9 3.9 3.8 5.5 5.3 3.6 3.5 7.1 7 10.7 10.5 2.4 2.3 4.5 4.9 3.6 8.4-1.5 5.4-8.3 6.6-12.1 2.9-5.8-5.7-11.6-11.4-17.4-17.1-.6-.6-1-.8-1.9-.3-4.2 2.5-8.8 3.8-13.6 4.3-17.6 1.8-34.1-11.8-35.5-29.5-1.5-16.8 12.1-32.4 28.5-34.5zm3.7 5.5c-12.8-.5-26.7 10.5-26.8 26.4 0 14.8 12 26.7 26.9 26.7s27-11.9 27-26.6c.1-15.5-13.3-27.2-27.1-26.5z" fill="#7a22d2" stroke="#fff" stroke-miterlimit="10"/><ellipse cx="230.6" cy="225.9" fill="#fff" rx="23.8" ry="23.4"/><circle cx="574.1" cy="189.8" fill="none" r="70.1" stroke="url(#b)" stroke-miterlimit="10"/><circle cx="574.1" cy="189.8" fill="none" r="79.3" stroke="url(#s)" stroke-miterlimit="10"/><path d="m1219.9 286.3v1.5h-1.5" fill="none" stroke="url(#t)" stroke-miterlimit="10" stroke-width="2"/><path d="m1215.4 287.8h-746.4" fill="none" stroke="url(#u)" stroke-dasharray="2.9916 2.9916" stroke-miterlimit="10" stroke-width="2"/><path d="m467.5 287.8h-1.5v-1.5" fill="none" stroke="url(#v)" stroke-miterlimit="10" stroke-width="2"/><path d="m466 283.2v-187.2" fill="none" stroke="url(#w)" stroke-dasharray="3.0436 3.0436" stroke-miterlimit="10" stroke-width="2"/><path d="m466 94.5v-1.5h1.5" fill="none" stroke="url(#x)" stroke-miterlimit="10" stroke-width="2"/><path d="m470.5 93h746.4" fill="none" stroke="url(#y)" stroke-dasharray="2.9916 2.9916" stroke-miterlimit="10" stroke-width="2"/><path d="m1218.4 93h1.5v1.5" fill="none" stroke="url(#z)" stroke-miterlimit="10" stroke-width="2"/><path d="m1219.9 97.6v187.1" fill="none" stroke="url(#A)" stroke-dasharray="3.0436 3.0436" stroke-miterlimit="10" stroke-width="2"/><path d="m1224.6 189.1h1.5" fill="none" stroke="#006bff" stroke-miterlimit="10" stroke-width="2"/><path d="m1229.2 189.1h59.7" fill="none" stroke="#006bff" stroke-dasharray="3.0637 3.0637" stroke-miterlimit="10" stroke-width="2"/><path d="m1290.4 189.1h1.5" fill="none" stroke="#006bff" stroke-miterlimit="10" stroke-width="2"/><path d="m1306 189.1-19.9 8.2 4.8-8.2-4.8-8.1z" fill="#006bff"/><circle cx="520.1" cy="175.1" fill="#e70000" opacity=".3" r="4"/><circle cx="520.1" cy="175.1" fill="#e70000" r="2.5"/></svg>