<svg enable-background="new 0 0 2000 576" viewBox="0 0 2000 576" xmlns="http://www.w3.org/2000/svg"><path d="m429.4 40.8c1.9-.1 4.3.2 6.8.5 1.5.2 2.8.9 4 1.5 2.6 1.3 5.3 1.8 8 2.4 2 .4 3.9 1 5.7 1.8s3.8.7 5.6 1.5c.3.2.7-.1 1-.3.5-.4 1-.8 1.4-1.2 1.4-1.1 2.9-1.2 4.3-.1 1.2 1 2.4 1.1 3.8.8 1.9-.4 3.9-.8 5.6-1.9 1.5-.9 3.3-.5 4.9-.4 2.8.3 5.6.2 8.1-1.4 1-.6 2.1-1 3.4-1h2.4c1.4 0 2.4-.5 3.1-1.6.5-.7.9-1.5 1.7-1.9.5-.3.5-.8.4-1.3-.1-1 .5-1.5 1.3-1.7 2-.6 4-.7 5.7.7.9.7 2 .9 3 .6 1.8-.5 3.6-.5 5.4-.7 1.2-.1 2.3-.4 3-1.6.4-.7 1.2-.8 2-.9 2.2-.2 4.1-.9 6.1-2 1.8-1.1 3.8-2 6.1-2.2 1.7-.1 3.3-.5 5-.8 1-.2 2-.4 3.1-.4 1.1.1 2.2-.5 3.1-1.1 2.4-1.4 4.8-1.9 7.5-.8.8.3 1.7.6 2.5.6 1 0 2 .2 2.9.5 1.2.5 2.5.3 3.7.3 2 .1 4 .3 5.8 1.1 1.4.6 2.6 1.6 3.3 2.9.9 1.6 2.3 2.2 4 2.3 1.2 0 2.4.1 3.5.3.6.1 1.2.2 1.9 0 4.6-1.2 9.3-.9 13.9-.2 2.3.3 4.7.5 7.1.6 2.1.1 3.9.7 5.6 1.8 1.6 1.1 3.4 1.6 5.2 2.1.8.2 1.6.2 2.4-.1 1.3-.5 2.7-.9 4-1.6 1.7-1 3.5-1.3 5.4-.9 2.2.4 4.5.3 6.7.6 2.2.4 4.5.2 6.7.8 2.4.7 5 .9 7.4 2 1.7.8 3.4.7 5.2.5 2.8-.4 5.6-.2 8.3.5 1.5.4 3.1.6 4.5 1.7.9.7 2.4.7 3.6.7h8.2c.7 0 1.5 0 2.2-.2 2.7-.9 5.5-.8 8.2-.4 4.5.6 9.1.7 13.5 1.8 1.9.5 3.9.7 5.9 1 3 .4 5.9 1.2 8.6 2.5 2.6 1.2 5.4 1.5 8.1 1.9 2.1.3 3.9 1.1 5.8 2 .8.4 1.4 1 1.8 1.8.5 1.2 0 3.2-1.9 3-.7-.1-1.5.1-2.2-.2-2.2-.9-4.6-1.2-6.8-2.2-1.3-.6-2.5-.1-3.5.7-.9.7-.8 1.5.2 2.1s2.1 1.2 3.3 1.4c.6.1 1.1.2 1.6.5.4.3 1 .6.9 1.3-.1.6-.6.7-1.1.9-.3.1-.6.2-.9.2-2-.1-3.5.9-4.7 2.2-.6.6-1.2 1.3-1.7 2-1 1.1-2.4 1.7-3.9 1.4-1.1-.3-2.1-.2-3 .4-.5.3-1 .4-1.5.6-1.2.6-1.5 1.6-.8 2.8.3.5.8 1 1.2 1.5 1.2 1.5 2.6 2.8 3.2 4.8 0 .1.1.2.2.3 2.7 2 2 4.8 1.8 7.4-.1 1.4-.6 2.8-1 4.2-.3 1.2-1.2 1.5-2.1.6-2.2-2.2-5.2-3.7-7.1-6.4-.6-.9-1.4-1.6-2.3-2.2-1.8-1.2-3-2.9-4.4-4.6-1.7-2-1.7-4.2-.5-6.4.5-.9.8-1.8 1-2.8.3-1.4-.1-1.9-1.6-2-.6 0-1.2.1-1.7-.1-.9-.3-1.8-.5-2.6-1.3-1-1.1-2.5-1.1-3.9-.8s-1.9 1.7-1.1 3c.3.5.8.9 1.1 1.5.6 1 .4 1.8-.8 2-2.2.3-4.4 1-6.5-.5-.3-.2-.7-.3-1.1-.3-2.5 0-5-.3-7.4.3-.7.1-1.4.2-2 0-.7-.2-1.4-.2-2-.2-2.9.1-3.6.7-4.7 3.3-.7 1.7-1.1 3.4-1.6 5.1-.3 1 0 1.7.9 2.1 1.1.5 2.1 1.1 3.1 1.7.4.2.8.5 1.2.4 2.1-.6 4.2.2 6.3 0 .4 0 .8.1 1.1 0 1.9-.6 3.1.4 4.1 1.8.5.8 1.1 1.5 2.1 1.8.2.1.5.2.6.4 1 2 3 3.2 4.1 5.1.6 1.1 1.5 2 2.7 2.4.8.3 1.3.9 1.7 1.6 1.2 2.1 1.7 4.4 3 6.4.4.6.4 1.2 0 1.7-.5.5-1.1.8-1.8.7-.6-.1-1.2-.5-1.5-1-.8-1.4-1.7-2.8-2.5-4.2-.1-.2-.2-.5-.4-.7-.6-.9-1.5-1.7-2.6-1.5-.9.1-1.2 1.2-1.4 2-.3 1-.6 2.1-.5 3.1 0 1.5-.3 2.8-.9 4.2-.5 1.2-.7 2.5-1 3.8-.6 2.5-1.5 3.2-4 3.2-2 0-2.6.4-3.3 2.3-.2.4-.4.8-.4 1.2-.1 1.4-.9 2.3-1.8 3.1-1.1 1-1 1.5 0 2.4.1.1.3.3.4.4 2.3 1.1 3.7 3.2 5.2 5 1.1 1.2 1.6 2.8 2.1 4.4.3.9-.1 1.5-.9 1.8-1.1.5-2.3 1-3.5 1.4s-1.6.2-2.2-1c-.2-.5-.5-1-.6-1.6-.5-3-2.6-4.9-5-6.5-1-.7-1.7-1.4-2-2.7-.4-2.4-3.5-3.2-5.5-1.6-.4.4-.8.8-1.2 1.2-.7.5-1.3.4-1.7-.3-.3-.6-.7-1.1-.7-1.9-.1-1.4-1.3-1.9-2.5-1.1-1.3.9-1.7 2.3-1.2 3.8.3 1.1 1.2 1.7 1.9 2.5.5.5 1.3.5 1.9.2.8-.4 1.6-.2 2.3.1s1.5.5 2.4.5c.7 0 1.5.1 1.5 1 .1.8-.6 1.1-1.2 1.1-1.7.1-2.2 1.5-2.9 2.7-.2.4-.2.9.1 1.2.3.5.6 1 1 1.3 1.4 1.4 2.5 3 3.4 4.6.4.6.7 1.2 1.2 1.7 2.7 2.3 3.5 5.4 3.6 8.8.1 2.4-1.1 4.3-1.6 6.4-.1.5-.5.9-.5 1.4-.5 4-3.3 6.4-5.9 8.9-.1.1-.2.2-.3.2-3.6 1.1-6.3 3.9-9.6 5.6-.9.5-1.9.9-2.9 1.4-1.3.6-2.4.4-3.5-.4-.8-.5-1.5-1.1-2.3-1.6-.6-.4-1.1-.3-1.7 0-1.7 1-2.5 2.5-3.1 4.3-.4 1.1 0 2.1.7 2.9 1.5 1.8 3.1 3.4 4.7 5.1 1.7 1.9 3.6 3.8 3.8 6.7 0 .6.4 1.2.6 1.8 1.1 3.4.4 6.4-2.9 8.1-1.9 1-2.9 2.9-4.4 4.2-.3.2-.4.6-.7.8-1 .8-1.6.8-2.3-.2-.5-.6-1-1.3-1.4-2-.8-1.7-2.4-3-3.1-4.9-.5-1.3-1.7-2.2-2.6-3.1-.8-.8-2.8-.7-3.6.3-1.4 1.8-2 4-2.1 6.3 0 .6.2 1.1.9 1.3.8.2 1 .8 1.2 1.5.6 2.2 1.8 4 3.8 5.4 1.9 1.3 3.3 3.2 4.4 5.2.3.6.5 1.3.5 2-.1 1.9.4 3.7 1.2 5.4.4.8 1.1 1.7.1 2.5-.9.7-1.6-.2-2.4-.5-3.9-1.8-5.5-5.3-6.9-8.9-1.1-2.9-2.7-5.4-4.9-7.7-1-1-1-2.4-.7-3.5.6-2.2 0-4.3.3-6.4.3-2.6-.6-5.2-1.9-7.5-.5-1-1-2-1.3-3.1-.9-2.9-2.6-3-4.3-1.6-1.5 1.3-2.5 0-3.7-.1-.5 0-.6-.8-.5-1.3.7-3.3-1-5.8-2.5-8.4-.5-.9-1.6-1.4-2.3-2.3-.8-1-1.6-2-2.2-3.2-.9-1.7-1.3-1.8-3.3-1.5-1.2.2-2.4.6-3.7.6-1.1 0-2.2.5-3.1 1.2-.4.3-.8.6-.8 1.2.1 1.6-1 2.5-2.1 3.1-2.4 1.1-3.4 3.3-5 5.1-.1.1-.1.3-.2.3-1.9 1.3-2.9 3.6-4.8 4.9-1.6 1.1-2.4 2.5-1.8 4.5.7 2.5-.3 4.9-.4 7.4 0 .3-.2.6-.2.9.4 3-1.3 4.8-3.4 6.5-.4.4-.8.8-1.2 1.2-1 .9-1.9.9-2.7-.1-.4-.5-.8-1-1-1.5-1.1-3.1-2.6-5.9-3.9-8.9-.4-.8-.7-1.7-.9-2.6-.5-1.8-1.8-3.2-2.4-4.8-1.4-3.4-3.1-6.8-3.3-10.6-.1-1.2-.6-2.2-.7-3.5s-1.2-1.9-2.4-1.6c-.4.1-.7.2-1.1.3-.9.3-1.6.1-2.1-.7-.7-.9-1.5-1.7-2.4-2.3-.7-.4-1.1-1-1.3-1.8-.3-1.2-1-2.2-2-2.8-1.6-1.1-2.8-2.4-3.9-3.9-.5-.6-1.1-1-1.9-1-1 0-2 0-3 .2-3.4.7-6.8.8-10.2.1-1.8-.4-3.7-.6-5.5-1.1-1-.2-1.7-.7-2-1.7-.1-.4-.3-.7-.4-1-.5-1-.8-1.1-1.8-.6-.4.2-.8.4-1.2.5-1.3.5-2.4.3-3.8 0-2.4-.6-4.1-2.3-6.3-3.3-.9-.4-1.2-1.3-1.3-2.1-.2-1.2-1-2-1.6-2.9-.6-.8-1.6-1-2.5-1-1.4-.1-2.4 1.4-1.9 2.7 1 2.6 2.7 4.6 5.2 5.8 1 .5 1.8 1.3 2.6 2.1.9 1 1 2.3.7 3.5-.2 1 .2 1.3 1 1.4 1 .1 2 .2 3 .1 1.3-.1 2.3-.6 3.2-1.7 1.4-2 3.3-1.9 4.6.1.4.6.9 1.2 1.3 1.8s1 1 1.7.9c1.1-.1 1.9.4 2.6 1.2.3.3.5.7.8 1 2 1.8 1.3 3.6.2 5.5-.4.8-1 1.5-1.4 2.2-.3.5-.7 1-.8 1.5-.6 3-2.9 4.2-5.1 5.8-1.9 1.4-4.1 2.3-6.2 3.4-.7.4-1.5 1-1.9 1.8-.7 1.4-1.9 2-3.3 2.3-1.6.3-2.9 1-4.3 1.8-.3.2-.5.4-.8.5-2.8.9-5.6 2-8.3 3.3-.8.4-1.5.2-2.1-.3-1-.7-1.7-1.6-2-2.8-.2-.9-.6-1.6-1.1-2.3-1.1-1.4-1.3-3.1-1.9-4.7-.5-1.3-1-2.6-1.9-3.6-.3-.3-.5-.7-.6-1.1-.6-2.1-1.9-3.8-3.7-5-1.3-.8-1.8-2.2-2.2-3.6-.3-1.3-.3-2.6-1-3.8-.7-1.4-1.5-2.7-2.8-3.7-.5-.4-.9-.9-1.1-1.5-.5-1.4-1.3-2.6-2.2-3.7-1.6-2.1-2.9-4.3-3.9-6.8-.7-1.6-1.5-3.1-1.9-4.8-.3-1.3-.4-2.5.3-3.6.3-.5.4-1.1.5-1.6.6-1.8.7-3.6 1.6-5.4.7-1.4.3-3.1.2-4.6-.1-1.1-1.6-1.8-2.8-1.5-.5.1-.9.4-1.3.7-1.2.8-2.4.8-3.5.1-.8-.4-1.7-.7-2.6-1-.6-.2-1.2-.3-1.7.2-.7.7-1.5.6-2.4.1-1.2-.6-2.5-1-3.9-1-1.2 0-1.9-.9-2.5-1.7-.8-1.2-1.4-2.6-1.4-4.2 0-.8 0-1.6-.1-2.4-.1-1.5-2.1-2.9-3.5-2.4-.6.2-1.7 1.7-1.7 2.5 0 .2 0 .5.1.7 1.2 2.5.2 4.8-.6 7.1-.4 1.1-.7 1.3-1.8 1-1.4-.3-2.7-.7-2.7-2.5 0-.8-.5-1.6-1.1-2.1-1.6-1.5-2.1-3.6-3.5-5.3-.3-.4-.2-1-.2-1.5 0-2.3-.9-4.1-3-5.2-.5-.3-.9-.6-1.3-1-.5-.6-1.1-1-1.9-1.1-1-.2-2-.7-2.5-1.6-.8-1.3-2.1-2.1-3.3-3-1-.7-1.8-.8-2.5-.1-.6.6-.7 1.8-.1 2.6.3.4.7.8 1.2 1.2s.9.8 1.1 1.5c.5 1.6 1.8 2.3 3.1 2.8 1.1.4 2 .9 2.9 1.5 1.1.7 2.2 1.4 3.3 2.1.4.3.8.6 1.1 1s.3 1-.1 1.4-.8.2-1.2-.1c-.3-.2-.6-.5-1-.5s-.8-.2-1.1.1c-.4.4-.3.8-.1 1.2.7 1.8-.1 3.8-1.9 4.6-1 .4-1.7.9-1.6 2.1 0 1-.8 1.5-1.7 1-1.3-.8-2.8-1.4-4.1-2.2-.4-.3-.9-.6-.7-1.2.2-.5.7-.7 1.2-.7 1.6 0 3.1.2 4.6-.3s2.2-2.1 1.3-3.3c-1.1-1.4-2.3-2.8-4.1-3.5-2.5-1-4.5-2.7-6.4-4.5-.6-.5-1.1-1.2-1.4-2-.3-.7-.8-1.3-1.4-1.7-1.2-.9-1.4-.9-2.7 0-1.2.9-2.7 1.2-3.9 2.1-.5.4-1.2 0-1.8-.1-.9-.2-1.8-.5-2.7-.6-1.6-.1-2.6.7-2.7 2.1-.1.9.2 1.8-.6 2.5-.9.8-1.8 1.8-3.1 2-1 .2-1.7.6-2.2 1.5-.3.6-.8 1.1-1.2 1.7-.5.7-1.1 1.4-.6 2.3.1.2.1.6 0 .7-1.3 1-1.2 3-2.8 3.8-.3.2-.6.4-.9.7-1 1.1-2.3 1.4-3.8 1.3-.9 0-1.8-.2-2.6.3-1.5.9-2.9.4-4-.5-1.3-1-2.6-1.4-4.3-1.3-1.9.2-2.1-.1-2.2-2.1 0-.9.1-1.7-.7-2.4-.4-.4-.4-.9-.1-1.4s.6-1 .8-1.5c.6-1.4 1.3-2.8 1-4.5-.3-1.4.6-3 0-4.4 0-.1 0-.3.1-.3 1.2-.6 2-2 3.6-1.8 2.3.3 4.6.1 6.9.4 1.5.2 3 .4 4.5.4 1.4 0 1.6-.2 1.9-1.5.1-.8.3-1.6.6-2.4.5-1.4.2-2.6-.5-3.7-1.3-1.8-2.6-3.5-5.1-3.7-.8-.1-1.6-1.2-1.7-2-.1-.5.2-.7.6-.8.9-.3 1.9-.4 2.9-.5 1.2 0 2.3-.2 3-1.5.5-.9 1.4-.9 2.3-.6 2.1.5 4-.3 5.1-2.2.3-.6.8-.9 1.3-1.3 1.8-1 3.7-2 4.9-3.8.7-1.1 1.9-1.8 3.1-2.3.3-.1.6-.3.9-.4 2.5-.8 3.7-2.2 3.2-5.1-.4-2.2 1.1-4.1 3-4.8 1-.4 1.6-.1 1.8 1 .2 1.2.2 2.3-.2 3.5-.6 1.8 0 2.6 1.7 3.4.7.3 1.2.1 1.8-.2 1.6-.9 3.1-.9 4.3.7.4.6.9.4 1.5.2 2.1-.6 4.1-1.6 6.3-1.8.6 0 1.1-.1 1.7-.1 2.3 0 3.6-1 4.1-3.3.1-.6.2-1.2.4-1.8.3-1.4 1.1-2.2 2.5-2.4 1.1-.2 1.9-.6 2.1-1.7.3-1.4-.1-2.5-1.4-3.1-.7-.3-1.4-.6-2-.9-1.1-.4-1.7-1.3-2-2.3-.3-.9-.5-1.8-.7-2.7-.2-1.4.3-2.5 1.5-3.2 1.7-1 3.1-2.2 4.6-3.5.2-.2.5-.4.4-.8-.1-.3-.4-.4-.7-.5-.9 0-1.8-.2-2.6-.1-1.1.1-2.1.7-2.5 1.7-.8 2-2.4 3-4.1 3.9-.4.2-.8.4-1.1.6-2.3 1.2-2.5 3.3-.5 5 .2.2.5.4.7.6 1.7 1.6 1.7 3.1-.4 4.1-1.9.9-2.7 2.1-2.6 4.1 0 .5-.2 1.1-.4 1.6-.2 1.1-.7 1.8-2 1.7-.6-.1-1.1.2-1.6.5-1.5 1.3-3.4 1.2-5.1 1.6-.6.1-1.2 0-1.4-.6s-.1-1.1.5-1.5c.3-.2.6-.4.9-.6 1.4-.9 1.5-1.3.5-2.5-1.2-1.4-2.1-3.1-3.7-4.2-.7-.5-1.2-.5-1.8 0-.5.3-.9.7-1.3 1-1 .8-2.1 1.1-3.3 1.1-1.7 0-2.8-1-3.1-2.6-.1-.6-.3-1.2-.5-1.8-.2-.8-.6-1.7-.6-2.5-.1-3.4-.2-3.1 2.7-4.6s6-2.8 8.6-4.8c.2-.2.4-.3.6-.5 2.2-3.2 5.4-5.5 8-8.3 1.5-1.6 3.4-2.9 5.3-4.1.9-.5 2.1-.5 3.3-.6 1.1-.1 2.1-.3 2.9-1.1.5-.5 1.1-.5 1.8-.5 1.2 1 2.6 1 4.6 1z" style="fill:none;stroke:#e2e3e4;stroke-width:.75;stroke-linecap:round;stroke-linejoin:round;stroke-miterlimit:10"/><path d="m403.9 130.3c.3 1.3.1 2.6-.7 3.9-.5.7.2 2.4 1.2 3 1.4.8 2.8 1.6 4.6 1.4.7-.1 1.5-.1 2.2.1 1.4.3 2.7.8 3.1 2.4.3 1.1 1.1 1.6 2.2 1.6 1.6 0 3 .6 4.3 1.7.6.5 1.3.8 2.1.6 1.1-.2 1.5-.8 1.3-1.9-.5-2.5.3-3.5 2.8-4.2 2.1-.6 3.9-.5 5.5 1 .6.6 1.5.3 2.1.7 2.2 1.3 4.6 1.4 7 2 1 .2 2 .4 2.9.8s1.6.3 2.4-.3c1.4-1 2.9-1.6 4.5-.7 1.8 1 3.6 2 4.2 4.2.5 1.9.9 3.7 1.4 5.6.1.3.1.6 0 .9-.3.9.1 1.6.5 2.3 1.2 1.8 2.1 3.7 2.8 5.7.8 2.1 2.1 3.9 3.6 5.6 1.3 1.5 1.7 3.3 2.2 5.1v.2c0 2.5 1.2 4.5 2.8 6.3 1.3 1.5 2 3.1 2.2 5 .2 1.6.9 3.1 2.4 3.5 2.4.7 3.7 2.6 5.2 4.3.5.5 1 1.1 1.5 1.7.7.8 1.5 1.6 1.3 2.8-.2 1.9 2.4 3.6 4.4 3.2 2.7-.5 5.3-1.6 8-2.3 1.6-.4 3.2-.4 4.7-1.2.5-.3 1.6.4 1.5 1-.4 1.4 0 2.7-.1 4.1-.2 2.7-1.7 4.9-2.7 7.3s-2.1 4.8-3.3 7.1c-2 3.6-4.4 7-8.3 8.8-1.6.8-2.6 2.3-3.8 3.6-1.1 1.3-2.1 2.7-3 4-.7 1-1.4 2.1-2.5 2.8-1.6 1.1-1.9 3-2.7 4.6-.2.4-.3.8-.6 1.2-1.8 2.2-1.4 4.7-.7 7.1.2.9.4 1.9.3 2.8-.3 2.2.3 4.2 1.6 6 1.2 1.7 1.3 3.6.9 5.6-.3 1.7-.4 3.4-.2 5 .4 3.3-1.1 5.8-3.5 7.8-1.1.9-2.3 1.7-3.7 2.2-.4.2-.9.3-1.2.6-1.6 1.6-3.3 3.2-4.7 4.9-1.2 1.5-1 3.3-.4 5 .9 2.4.5 4.6-.2 6.9-.4 1.3-1.2 2.2-2.3 2.9-.5.3-1 .7-1.6 1-1.1.7-1.7 1.6-2 2.8-.4 1.6-.9 3.2-1.5 4.8-.2.6-.5 1.1-1 1.5-1.6 1.2-2.7 2.8-3.6 4.5-.6 1.2-1.4 2.2-2.4 3-.7.5-1.3 1.2-1.8 1.9-1.5 1.8-3.3 3.1-5.6 3.8-2.3.8-4.6 1.4-7.1 1.3-.3 0-.6.1-.9.2-2.2 1-4.6.8-7 1.2-1 .2-1.9-.4-2.8-.7-1.1-.4-1.3-1.2-1.7-2.2-.5-1.3-.7-2.6-.6-4 .1-1.1-.1-2.1-.6-3.1-.1-.2-.2-.3-.2-.5-.6-3-1.7-5.7-4.1-7.9-1.6-1.5-1.9-3.9-2-6.1 0-.9-.1-1.9-.5-2.7-.4-1.1-.4-2.3-.2-3.5.2-1.9-.1-3.6-1.5-5-1.3-1.4-1.8-3.3-2.6-5-.5-1.3-1-2.5-1.8-3.7-.4-.5-.7-1.1-.7-1.7.1-1.9 0-3.9.6-5.7.6-1.7 1.2-3.4 1.4-5.2.1-1.1.6-2 1.4-2.8 2.1-2 2.2-4.2 1.1-6.7-.9-2-1.4-4-1.3-6.2.1-1.3-.4-2.5-1-3.5s-1.1-2.1-1.2-3.3c-.2-1.7-1-3-2.1-4.3-1.2-1.4-2.3-2.9-3.5-4.4-.7-.9-1.2-1.9-1.6-2.9-.3-.7-.3-1.3 0-2 .7-1.6 1-3.2.9-4.9 0-.7.3-1.3.5-2 1.3-4.2-.3-5.6-4.6-6.2-.7-.1-1.5.1-2.2.2-1.9.2-2.6-.2-3.2-2-.8-2.5-2.2-3.5-4.9-3.5-2 0-3.8.4-5.7 1.3-2 .9-4.1 1.8-6.2 2.6-.7.3-1.4.4-2.2.1-1.2-.4-2.5-.6-3.8-.9-1.5-.3-2.9.3-4.4.8-1 .3-2 .8-3 1.1-1 .4-2 .4-2.8-.3-3.1-2.6-6.7-4.5-9.7-7.3-1-.9-1.7-2.1-2.1-3.3-1.2-3.7-3.6-6.4-6.6-8.7-1.6-1.2-4.1-6.7-3.1-9.6.3-.8.6-1.7 1.3-2.2 1-.8 1.3-1.9 1.5-3.1.1-.7.2-1.4.4-2 .5-2.2-.3-4.2-1-6.1-.9-2.5-.6-4.6.5-6.9 1.1-2.1 2.5-4 3.6-6.1.3-.5.6-1.1.7-1.7.3-1.4.8-2.5 2.2-3.2.9-.5 1.2-1.7 1.7-2.6.3-.7.7-1.2 1.4-1.4 2.1-.5 3.3-2.2 4.5-3.7 1.2-1.4 2.1-2.9 2.5-4.7.7-2.9 2.6-5.1 5.1-6.5 1.4-.8 2.5-1.6 3-3.1.2-.5.6-1 .9-1.4.7-1.1 1.8-1.5 2.8-.7 1 .7 2 .8 3 .7 2.3-.2 4.6-.4 6.7-1.3.6-.3 1.2-.5 1.7-1.1.7-.8 1.6-1.3 2.6-1.3 2.2.1 4.2-.5 6.3-.9 1.1-.2 2.2-.4 3.3.2.6.3 1.1.1 1.6-.1 1-.5 2-.6 3.1-.5 1.5.2 3 .3 4.4-.4.6-.3 1.3-.2 2-.1 1.6.1 2.2.7 2 2.4.3.3.3.7.2 1.2z" style="fill:none;stroke:#e2e3e4;stroke-width:.75;stroke-linecap:round;stroke-linejoin:round;stroke-miterlimit:10"/><path d="m243.8 34.9c1.8 0 3.6-.1 5.4-.4 2.5-.3 5-.3 7.4.3 1 .2 1.8.6 2.2 1.8.6 1.7 1.8 2.6 3.6 2.9 1.6.3 3 .9 4.2 1.9.8.6 1.2 1.4 1.1 2.4-.3 2.1.9 3.4 2.6 4.3.9.5 1.4 1.2 1.7 2.1.4 1.3.3 1.8-.8 2.6-.9.7-1.7 1.4-2.6 2.1-1.1.8-2 .8-3-.3-.6-.6-1-1.5-1.7-2-.4-.3-.8-.5-1.2-.2s-.3.8-.1 1.2c.2.5.5 1 .7 1.5.9 1.8.7 3.4-1 4.4-1.2.8-2.3 1.7-3.4 2.6-.9.7-1.8.8-2.8.5-1.4-.5-2.8-1-4.2-1.6-.9-.4-1.7-1-2-2.1-.1-.5-.4-.9-.7-1.3-.4-.7-1-1.1-1.9-.9-2 .4-4 0-6-.2-1-.1-1.3-.6-.8-1.5.8-1.5 2.2-2.1 3.9-1.6 1 .3 1.9.5 2.9.4.9-.1 1.9-.2 2.2-1.4.2-.7.8-.9 1.4-1.2 1-.5 1.8-1.1 2.6-1.8 1-.9.9-1.7-.3-2.3-.8-.4-1.4-.9-1.9-1.7-.7-1.1-1.9-1.4-3.1-1.5s-2.4 0-3.5-.1c-1-.1-1.9.3-2.3 1.2s-1.1 1.5-1.8 2.2c-.2.2-.5.4-.6.7-.9 2.1-3 2.7-4.6 3.9-.6.5-1.4.4-2.1.5-1.3.2-1.6.7-1.3 1.9.2.8.5 1.7 1.3 2.2.4.3.6.7.4 1.1-.2.5-.6.7-1.2.8-.6 0-1.1-.1-1.6-.4-1-.6-1.9-.5-2.8 0-.7.4-1.3.7-2 1.1-.8.5-1.5.6-2.4-.2-1.2-1-2.6-1.4-4.2-1.3-1.1.1-2 .4-2.9 1.2-1.2 1.2-2.7 2-4.4 2.2-2.4.2-4.5 1.4-6.5 2.7-1.2.8-2.3 1.7-3.5 2.5-1.6 1.2-1.7 1.9-1.1 3.8.2.6.3 1.3.4 2 .2.8.6 1.3 1.5 1.5 1.8.4 3.3 1.3 4.8 2.7s3.4 2.5 5.7 2.5c1 0 2 .2 2.9.6.7.2.9.7.4 1.3-.9 1.1-1.3 2.4-2.1 3.5-.7.9-.6 1.9-.2 2.9.5 1.4 1.4 1.7 2.7 1.1.5-.2 1-.5 1.5-.8s1.1-.7 1.1-1.2c0-1.5 1-2.8 1-4.3 0-.9.5-1.4 1.3-1.8 1.8-.8 3.7-1.4 5.5-2.4 1.3-.8 2.2-1.8 2.9-3.1.5-.9.5-1.7-.2-2.6-1.1-1.3-.9-1.8.7-2.4 1.8-.7 3-1.7 2.8-3.9 0-.5.1-.9.5-1.2.6-.6 1-1.2 1.2-2 .4-1.3 1.6-1.9 2.9-1.9 1.9 0 3.9.2 5.8.4 1.1.1 1.9.9 2.6 1.7.7.7 1.3 1.5 2.2 1.9.9.5 1 1.2.5 2.1-.2.3-.3.5-.4.8-.6 1.3-.5 2 .2 2.7.8.7 2.1.9 3.1.3 1.4-.9 2.9-1.8 4.2-2.8 1.7-1.3 2.3-1.2 3.4.6.9 1.3 1.3 2.8 1.4 4.4v3.4c.1 1.9.6 3.6 2.8 4.1.8.2 1.5.6 1.4 1.7-.1.7.5.9.9 1.3.7.6.8 1.2.7 2.1-.2 1.9-1.2 3.5-1.4 5.4-.2 1.8 0 2.2 1.6 2.9 1.5.6 1.5.7.8 2.2-.5 1-.5 2-.1 3.1.6 1.8-.6 3.3-2.4 2.9-1-.2-2.1-.3-3-.9-1.2-.8-2.6-.9-3.9-.6-1.2.3-2.4.1-3.5-.1-.9-.1-1-.5-.7-1.3.3-.9.7-1.9 1.5-2.6.6-.5 1-1.1 1.4-1.7.3-.5.2-.9 0-1.4-.3-.5-.8-.5-1.3-.3-1.6.6-3.3.5-5 .2-1.4-.2-2.7-.1-4.1.3-.9.3-1.6.7-1.3 1.9.2 1.1-.2 2-1.1 2.8-.7.6-1.1 1.4-1.3 2.2-.5 2 .3 3.2 2.3 3.6.7.1 1.5.2 2.2.4.8.2 1.3.7 1.3 1.6-.1.8-.7 1-1.4 1-2 .2-3.8 1-5.8 1-.8 0-1.3.4-1.8.9s-1 1.1-1.6 1.6c-.9.7-1.7.5-2.1-.5s-1-1.2-1.9-1.2c-1.5 0-3-.1-4.4 1-.9.7-2.3.9-3.2 1.7-.8.8-1.6 1.6-1.5 2.9.1.7-.4 1.2-1 1.4-1 .4-2 1-3.2 1.1-2.4.3-4.2 1.5-5.8 3.3-1.4 1.6-2.9 3.1-4.2 4.7-1.2 1.4-2.2 3-2.7 4.9-.3 1.2-1.1 2.2-1.7 3.2-1 1.8-2.6 2.4-4.2 3.1-2.8 1.4-5.4 3.1-7.9 5-3 2.3-4.1 5.4-3.2 9.1.5 1.9 1 3.8.9 5.9-.1 1.6-.8 2.9-2 3.9-1 .8-1.5.6-2.2-.4-1.1-1.6-1.8-3.4-2.2-5.3-.2-.9-.3-1.8-.1-2.8.3-2-1-3.3-2.9-3-1 .1-1.6 0-2.1-1-.5-.9-1.5-1.2-2.6-1-1.2.2-2.3.5-3.5.8-1 .2-1.7.8-2.2 1.6-.4.8-1 .9-1.7.7-.6-.1-1.2 0-1.9-.1-1.5-.2-3-.3-4.3-.9-1.4-.5-2.6-.4-3.7.3-1.5 1-3.1 1.6-4.7 2.4-1.3.6-2.3 1.5-3.3 2.4-.7.6-1 1.6-1 2.6 0 1.3-.4 2.4-.9 3.6-1 2-1.8 4.1-2 6.4-.2 3.3 0 6.6 1.7 9.5 1.2 1.9 3.2 2.3 5.2 2.3 1.3 0 2.6-.1 3.9-.1 1.8.1 2.5-.4 3.3-2.1.5-1.1.9-2.3 1.1-3.6.1-.8.5-1.2 1.2-1.5 2.2-.8 4.5-1.5 6.9-1 1.1.2 1.7 1.1 1.1 1.8-1.6 1.6-1.1 3.8-2 5.5-.5 1-.8 2.2-1.7 3.1-.6.7-.8 1.5-.9 2.4-.2 1.8.5 2.6 2.2 2.6 1.4 0 2.7 0 4.1-.1 1.8-.1 3.1 1.1 4.3 2 .9.7.7 2.1.3 3-1 2.2-1 4.6-1.8 6.9-.7 2-.3 3.8 1.6 5.2.3.2.6.5.8.7 1.1 1 2.4 1.6 3.9 1.1.6-.2 1.3-.3 1.7.3.4.5.3 1.2-.1 1.8-.3.4-.4.9-.4 1.4.1.6-.1 1.2-.7 1.4-.7.2-1.5.4-1.9-.2-.9-1.2-2.2-1.5-3.6-1.7-.8-.1-1.6-.5-1.9-1.3-.7-1.5-2-2.2-3.4-2.8-1.3-.6-2.2-1.6-2.5-3-.2-1.3-.7-2.5-1.3-3.7-.7-1.5-1.9-2.2-3.6-2.6-3.8-.9-7.7-1.6-10.1-5.3-.3-.5-.8-.9-1.3-1.4-1.1-1.1-2.4-1.8-4-1.1-2.2.9-4.2.6-6.3-.4-1.3-.6-2.7-1-4-1.6-1.6-.7-3.2-1.3-4.5-2.7-.2-.3-.6-.5-.9-.6-1.6-.4-2.9-1.1-3.8-2.5-.1-.2-.5-.4-.8-.5-2.3-1.1-3.1-3.3-2-5.5.7-1.4.6-2.7-.1-3.9-.8-1.3-1.4-2.6-2.1-3.9-.8-1.3-1.7-2.6-3-3.5-.8-.5-1.2-1.2-1.1-2.2 0-.3.1-.7-.1-.9-1.2-1.7-1.4-3.9-2.8-5.4-1.3-1.4-1.8-3.1-1.7-5 .1-.7 0-1.4 0-2.1 0-.6-.3-1.1-1-1.2-.6-.1-1.1.3-1.4.8-.4.8-.3 1.7-.1 2.6.8 2.7.9 5.5 2.1 8.1.4.8.5 1.7.7 2.5.5 1.8.8 3.8 2.1 5.3.5.5.6 1.2.5 1.9-.1.5-.4.9-.9 1.1s-.8-.1-1.1-.5c-.9-1.1-1.8-2.2-3-3-.6-.4-.8-1-.9-1.6s-.3-1.2-.3-1.8c0-1-.3-1.6-1.3-2.1-.7-.3-1.2-.9-1.7-1.4-1.1-1.1-1-2.1.3-3 .7-.5.8-1.1.5-1.8-.1-.3-.3-.6-.5-.8-1.3-1.4-1.5-3.2-1.6-5-.1-1.9-.3-3.9-.7-5.7-.4-1.9-1.7-3-3.5-3.5s-1.9-.5-1.9-2.4c0-2.4-.6-4.7-.2-7.1.1-.6-.3-1.1-.5-1.6-.4-1.1-.3-2.2-.2-3.3.1-1.8 1-3.1 2.1-4.4.4-.4.7-.9.8-1.5.3-2.1 1.7-3.5 3.1-5 2.1-2.3 3.9-4.9 5.6-7.5.8-1.3 1.2-2.7 1.7-4.1.3-.7.1-1.3-.2-2s-.8-1.2-1.2-1.9c-1-1.4-.8-2.3 0-3.7 1-1.8 2.1-3.6 1.7-5.9-.4-1.9 0-3.8.4-5.6.6-2.9-.5-5.2-2-7.4-.4-.6-.9-1.1-1.1-1.7-.6-1.3-1.6-2-3-2.3-1.9-.3-3.7-1.2-5.7-1.1-1 0-1.7-.7-2.5-1.1-1.2-.6-2.3-.6-3.4-.1-.3.1-.7.3-.8.5-.7 2-2.6 1.9-4.1 2.5-1.4.5-3 .8-4.5 1.1-.3.1-.7.1-.9 0-1.6-.6-3 .1-4.5.6-5.7 1.9-11.1 4.3-16.7 6.5-1.2.5-2.3 1-3.3 1.7-.8.5-1.7.8-2.7.8-.8 0-1.4-.3-1.6-1s.6-.9 1-1.1c2.4-1 4.7-2.2 7.1-3.3.6-.3 1.1-.5 1.6-1 .8-.8.6-1.7-.5-1.7-2.5-.1-2.6-2.1-3.3-3.7-.2-.3-.2-.9.1-1.1.9-.5.9-1.6 1.3-2.4s1-1.3 1.8-1.4c1.3-.2 2.4-.7 3.5-1.4 2.2-1.3 4.8-1.5 7-2.6.5-.3 1-.4 1.4-.8.5-.5.3-1-.4-1.2s-1.3.2-2 .2c-.9 0-1.1-.2-1-1.1.1-.4.2-.9.3-1.3.1-1.1.7-1.6 1.8-1.8 1.9-.3 3.8-.7 5.7-1 .6-.1 1.2-.3 1.8-.5 1.5-.5 2.4-1.3 2.3-2.9 0-.9.5-1.4 1.4-1.8 1-.5 2.1-.7 3.2-.8 1-.1 2-.2 2.9-.6 2.3-1 4.9-1.4 7.2-2.6.9-.5 1.9-.8 2.9-.8 1.7-.1 3.5-.3 5.2-.4 1.6-.1 3.1 0 4.6-.6.7-.3 1.6-.2 2.4 0 2.1.5 4.2 1 6.4 1.1.5 0 1.1.2 1.6.4 2.7.6 5.5 1.1 8.3.7 1-.1 2 0 2.9.6 1 .6 2 1 3.2.9 1.1 0 2 .7 3.1.8.5 0 1 .2 1.5 0 1.7-.7 3.6-.6 5.3-.8 1.7-.3 3.3-.6 5-.9.9-.2 1.9-.3 2.8-.2 1.3.1 2.5.1 3.6-.5.7-.4 1.6-.2 2.4.1 1 .4 2.1.4 3.1.4 2.8-.1 5.4.6 7.8 2.2.8.5 1.6.6 2.5.5 1-.1 1.9-.1 2.7.6 2.6 2.2 5.6 1.8 8.5 1 2-.6 4-.7 6.1-1.1 1.1-.2 2.3 0 3.1.9 1.2 1.3 2.6 1.4 4.1 1.2 1.3-.2 2.6-.2 3.9-.2.8 0 1.5-.1 2.3-.5 1.3-.5 2.7-.3 4-.1.8.1 1.6.4 2.4 0 1.3-.5 1.8-1 1.5-2.4-.6-2.2.8-3.2 2.3-4.2 1.1-.7 2.4-1.3 3.8-1.5 1.3-.2 2.1.2 2.3 1.5.2 1.2.6 2.3 1.1 3.3.6 1.1 1.6 1.1 2.6 1.1 1-.1 1.7-.6 2.2-1.5.3-.5-.1-1-.3-1.4-.5-1.3-.2-2.3.8-3.2 1.3-1.1 2.6-2.1 4-3.1.8-.6 1.9-.7 2.9-.8 1.5-1.1 2.8-1 4-1z" style="fill:none;stroke:#e2e3e4;stroke-width:.75;stroke-linecap:round;stroke-linejoin:round;stroke-miterlimit:10"/><path d="m244.7 211.6c2.1-.3 4 .8 6 1.3.3.1.7.4.9.6.8.9 1.6 1.7 2.6 2.4 1 .6 1.2 1.8 1.4 2.8.4 1.7.8 3.3 2 4.6.5.6.4 1.4.7 2.1.5 1.4 1.3 2.2 2.7 2.8 3.8 1.7 7.8 3 11.4 5.1 2.5 1.5 5.2 2.8 8.3 2.2 1.8-.3 3 .9 4.4 1.8.4.3.8.6 1.1 1 1.4 1.7 3.1 2.8 5.3 3.1 1.3.2 1.9 1 2.3 2.1 1.4 3.6.9 7.1-.8 10.5-.1.3-.3.6-.5.8-2.3 2.5-3.8 5.6-5.9 8.3-1.6 2-1.6 4.3-1 6.6.3 1.2.6 2.4.2 3.6-.2.4-.1 1-.1 1.5 0 .4.1.8 0 1.1-1.6 2.8-.5 6.5-2.9 9-.5.5-.3 1.2-.3 1.8 0 .9-.2 1.6-1 2.1-.2.1-.5.3-.6.5-.6 1.7-2.1 1.8-3.5 1.9-1.9.1-3.5.7-5.1 1.7-1.3.8-2.8 1-4 1.9-2.9 2-3 3.3-2.5 6.4.2.9.5 1.8.5 2.7 0 1.4-.2 2.6-1.4 3.5-.9.7-1.3 1.8-1.6 2.9-.2.7-.6 1.3-1.3 1.8-1.1.7-1.5 2-1.9 3.1-.7 2-1.6 3.8-2.4 5.7-.5 1.1-1.3 2-2.3 2.7-1.8 1.3-2.5 3.2-3.3 5.1-.1.3-.2.6-.2.9-.1 2.6-1.9 3.7-4.1 4.5-.5.2-1 .3-1.4.5-1.3.5-2.3 1.3-2.5 2.8-.2 1.1-.7 2-1.3 2.9-.5.7-.9 1.5-1.1 2.4-.2 1.3-.6 2.5-1.6 3.5-.4.4-.6 1-.4 1.6.5 1.2-.1 2.2-.7 3.2-1.1 1.8-.6 3.7 1.3 4.7 2 1 2.3 2.6.7 4.2-.9.9-1.7 1.7-1.5 3 0 .2-.1.3-.2.5-1 2.4-.9 3.2 1.2 4.8.6.5 1.1.9 1.4 1.7 1.2 3.1 3.8 4.4 6.9 5.2.7.2 1.4.1 1.9.7.3.4.5.8.3 1.4-.2.5-.6.6-1.1.6-1.5 0-3 .2-4.4-.4-.9-.4-1.8-.3-2.8-.4s-1.7-.4-2-1.5c-.5-1.8-2.7-3-4.4-2.4-1.9.7-3.3-.1-4.6-1.2-1.4-1.4-2.7-2.9-3.4-4.8-.6-1.4-1.3-2.7-2.1-3.9-1.1-1.7-1.6-3.6-1.9-5.6-.2-1-.4-2-.9-2.8-.6-.9-.9-1.9-1-3-.3-3.1-1.1-6-3.2-8.4-1.4-1.6-2-3.6-2.4-5.6-.5-2.4-.8-4.8-2-7-.2-.5-.3-1-.2-1.5.2-2 .3-4 .7-5.9.4-1.8.5-3.6.1-5.4-.3-1.8-.7-3.5-1.2-5.3-.8-2.8-1.3-5.6-.5-8.5.2-.8.2-1.6.1-2.4-.5-4.1-.6-8.2-.8-12.3-.2-3.1-.1-6.2-.8-9.3-.4-1.4-1-2.5-2.1-3.4-2.5-2.3-5.3-4.1-8.6-5.1-1.7-.5-2.4-2-3.4-3.1s-2.2-2.3-2.3-4c-2-3-3.3-6.5-5.8-9.1-.8-.8-1.3-1.8-1.6-2.9-.6-2.1-1.5-4-3.3-5.3-2.1-1.4-2.4-3.5-2.6-5.7-.1-.8.2-1.5.8-2 .4-.4.8-1 1.1-1.5.4-.8.4-1.5 0-2.3-1.6-3.7-.8-7.7 2.2-10.3.4-.4.7-.9 1-1.3.7-1 1.4-1.9 2.3-2.6 1.2-.9 1.8-2.1 2.1-3.4.3-1.4.5-2.8.5-4.3s-.3-2.9-1.1-4.3c-.4-.7-1-1.5-.9-2.4 0-.3-.1-.6-.5-.7-1-.5-.6-1.4-.6-2.1 0-.4.4-.6.8-.6.6 0 1.3 0 1.9.1 2.1.4 4.2-.8 4.7-2.7.6-2.4 2.6-3.3 4.6-3.7 1.6-.4 3.1-.8 4.3-2.1.5-.5 1-.7 1.6-.6 1.7.3 3.3.6 4.9 1.4 2.3 1.2 4.3 3.3 7.3 3 .5 0 .8.3 1.2.5 1.4.7 2.7.9 4-.2.1-.1.3-.3.5-.3 2.4-.1 4.7-1 7.2-.3 1.1.3 1.3.7 1.1 1.8 0 .2-.2.5-.2.7-.6 1.9-.1 3.1 1.8 3.8 1.4.5 2.4 1.4 3 2.6 1.3 2.5 3.7 4.2 6.8 3.8z" style="fill:none;stroke:#e2e3e4;stroke-width:.75;stroke-linecap:round;stroke-linejoin:round;stroke-miterlimit:10"/><path d="m724.2 275.6v1.8c-.1 1.3.4 2.1 1.6 2.8 1.3.8 2.3 2 3.1 3.5 1.8 3.5 3.2 7.3 5.9 10.3 1.2 1.4 2.1 2.9 1.7 4.9-.1.3 0 .6-.2.9-1.6 3.8-2.7 7.9-5 11.4-.3.4-.4.8-.5 1.2-.2.7-.5 1.3-1.1 1.7-1.8 1.7-3.6 3.5-5.5 5-1.5 1.2-2.6 2.8-3.8 4.3-1.8 2.3-3.5 4.7-5.3 6.9-1.9.7-3.2 2.3-5.4 2.5-.5 0-1.1.1-1.6.4-3.6 1.7-7.2.7-10.7.1-.9-.1-1.8-.6-2.7-.9-2.1-.7-2.5-1.2-2.3-3.4.1-.8-.2-1.5-.4-2.2-.3-.9-.8-1.5-1.7-1.9-1.2-.5-2.3-1.2-3.5-1.7s-1.8-1.5-1.5-2.7c.2-1.3-.5-2.3-.8-3.4-.2-.7-1-1-1.6-1.2-.9-.3-1.8-.6-2.5-1.2-.5-.5-1.3-.5-2-.5-1.8.1-3.6.3-5.3 1-1.4.6-3 1-4.5 1-1.1 0-2.1.3-3 .8-2 1-4.2 1.6-5.9 3.1-.6.6-1.5.6-2.3.5-3.2-.5-6.1 1-9.1 1.8-.6.2-1.2.7-1.8 1-2.2 1.3-5.5.2-6.5-2.1-.4-.9-.1-1.7.6-2.2 1.6-1.1 1.9-2.9 2.7-4.4.2-.3.2-.7.1-1.1-.4-1.7-.4-3.5-.3-5.2.1-2.4-.5-4.7-1.2-6.9-.4-1.5-.6-3 .2-4.5.5-.9.8-1.8.9-2.8.1-.4.2-.9.4-1.2.8-1.3 1.6-2.6 1.5-4.3 0-.5.3-.9.8-1.1 1.8-.7 3.5-1.6 4.9-3 .2-.2.6-.3.8-.4 1.7-.3 3.3-1.1 4.8-1.9.9-.5 2-.7 3-.8 3.5-.4 5.4-2.7 6.8-5.5.8-1.6 1.6-3 3.2-3.9.5-.3.8-.7 1.2-1.2 1.3-1.4 2.7-2.7 4.5-3.6 1.4-.7 2.6-1.6 4.1-2.1.7-.2 1.2-.2 1.7.2.8.7 1.7 1.3 2.6 1.8.5.2.9.2 1.2-.3 1-1.4 2-2.8 3.1-4.2 1.2-1.6 2.9-2.7 4.3-4.1.6-.7 1.7-.5 2.5-.1 2.2 1.1 4.5 1.4 6.9 1.5.4 0 .9.1 1.3.2 1.2.3 1.7 1.3 1.1 2.3-.8 1.5-1 3.2-1.8 4.7-.6 1.1-.1 2.5 1.1 3.5 1.8 1.4 3.8 2.6 5.8 3.7 1.4.8 2.1.5 2.5-1.1.6-2.6 1.9-5 2.4-7.6.4-2.1 1.1-4.3 2.2-6.3.3-.5.3-1.2 1.1-1.1s1.5.4 1.7 1.2c.5 1.8 1.3 3.5 1.9 5.3.4 1.1.8 2.2 1.7 3.1.3.3.6.7.6 1.1.4 2.4 1.6 4.6 1.3 6.6z" style="fill:none;stroke:#e2e3e4;stroke-width:.75;stroke-linecap:round;stroke-linejoin:round;stroke-miterlimit:10"/><path d="m309.2 18c6.4.4 12.1-.3 17.7-1.2 2.4-.4 4.7-.3 7.1-.1 1.5.1 3 0 4.4-.2 4.7-.9 9.4-.7 14.1.3 1.9.4 3.7.8 5.6 1.4 2.1.6 4.3.8 6.5.7 1.1-.1 2.2-.1 3.4.1.5.1 1.1.1 1.1.7 0 .5-.5.7-.9.8-1 .4-2.1.9-3.2 1-2.7.2-5 1.6-7.4 2.6-.9.4-1.4 1.1-1.3 2.1.1 1.2-.2 2.2-1.1 3.1-.3.3-.4.8-.5 1.2-1.1 3.1-3.5 4.9-6.4 6-1.7.7-2 1.1-1.6 2.9.3 1.4.4 2.7-.7 3.8-.5.6-1.1 1-1.9 1.1-1.7.3-3.3 1-4.9 1.8-1.4.6-2.8 1.1-4.3 1.3-2.3.4-4.6 1-7 1.1-1.3 0-2.4 1-3.4 1.8-2.1 1.7-4.6 2.8-7.3 3.2-1.9.3-3.8.7-5.7.9-1.1.1-1.9.5-2.5 1.4-.5.7-1 1.3-1.4 2-.6 1.1-1.3 2-2.4 2.6-.7.4-1.2 1-1.5 1.6-.8 1.9-2.4 3-3.8 4.3-1.3 1.3-2.7 1.3-3.9-.1-1.2-1.3-2.4-1.9-4.1-1.3-.9.3-1.4-.2-1.8-.9-1.4-2.6-2.7-5.2-2.4-8.3.1-1.3-.4-2.6-.4-3.9.1-2.8 1.8-5 4.6-5.6.2 0 .4 0 .6-.1 1.4-.3 1.7-.9.8-2-.8-.9-1.2-2.1-1.8-3.1-.5-.9-.6-1.9 0-2.8.6-1.1.9-2.2.8-3.4-.2-2-1.5-3.6-3.5-3.9-2.6-.5-5.3-1-8-.5-1.4.3-2.9.1-4.2-.4-1.4-.6-2.4-2.2-2.3-3.5.1-.6.3-1.1.9-1.2.9-.2 1.8-.6 2.7-.6 1.7 0 3.3-.4 5-.5 1.6-.1 3.3-.2 4.2-1.8.3-.5.9-.5 1.3-.6 2.4-.2 4.6-1.2 6.9-1.5 1.3-.2 2.6-.4 3.8-.9.2-.1.5-.2.7-.2 3.6-.4 6.8-.6 9.4-1.2z" style="fill:none;stroke:#e2e3e4;stroke-width:.75;stroke-linecap:round;stroke-linejoin:round;stroke-miterlimit:10"/><path d="m732.4 247.8c-.1.9-.1 1.7.3 2.6s.7 1.7 1.9 1.8c.4 0 .8.3 1.1.7.8 1 1.6 1.9 2.4 2.9.7.9.3 1.7-.9 1.8-.6.1-1.1-.1-1.6-.5-.8-.7-1.7-.9-2.8-.7-1.7.3-3-.8-3.9-2.1-.4-.5-.8-1.1-1-1.8-.7-1.7-2.2-2.3-3.7-2.9-.6-.3-1.1 0-1.5.4-.6.5-1.2 1.1-1.4 1.9-.4 1.1-1.3 1.7-2.4 1.8-1.5.1-3.1.3-4.3-1.1-1.3-1.3-2.9-1.9-4.8-1.2-.3.1-.6.1-.9.1-1.3 0-1.8-.4-1.3-1.7.3-.9.7-1.9.8-2.9.4-2.1-.5-4-2.4-5-.9-.4-1.8-.9-2.8-1.1-.9-.2-1.8-.5-2.6-1.1-.9-.6-1.9-.9-2.9-.2-.8.6-1.5.3-1.8-.6-.5-1.4-1.7-2.5-1.3-4.3.2-1.1-.7-2-1.8-2.4-.6-.2-1.2-.3-1.5-1-.3-.6-.2-1.2.5-1.2 1 0 1.8-.5 2.6-.9 2-.9 4.8 0 5.8 1.8.2.3.2.7.2 1.1.1.7.3 1.3.8 1.9.7.9 1.1 1.1 2 .4 1.3-.8 2.7-1.2 3.9-2.2.7-.6 1.6-.6 2.4-.3 3.7 1.4 7.4 2.9 11.2 4.1 3 1 5.1 3 7.1 5.1 1 1 1.8 2.1 3.3 2.7 1.3 1 1.5 2.5 1.3 4.1z" style="fill:none;stroke:#e2e3e4;stroke-width:.75;stroke-linecap:round;stroke-linejoin:round;stroke-miterlimit:10"/><path d="m638.7 225.6c.5-1.3.9-2.8 2.5-3.4 2.2-.8 4-2.3 6.1-3.2 1.2-.5 2.2-1.4 2.9-2.6.4-.6.8-1.1 1.4-1.5 2-1 3.5-2.6 4.7-4.5.3-.4.6-.8.9-1.2.4-.6.9-.7 1.4-.1 1.2 1.6 2.8 2.7 4.6 3.7.7.4.9 1 .4 1.7-.5.8-.9 1.6-1.7 2.2-1.1.9-1.2 2-.9 3.2.5 1.5 1 3.1 1.6 4.6.4.8.5 1.3-.3 1.9-1.1.9-2.1 2-2.3 3.5-.1.6-.6.9-1.1 1.2-1.2.6-1.7 1.6-1.4 2.9.2 1.4-.4 2.7-.7 4-.1.2-.2.5-.4.6-1.5.6-3 1.5-4.8.5-1.5-.7-3-1.5-4.8-1-.4.1-.9.1-1.2-.3-.6-.6-1.4-.8-2.2-.8-.9 0-1.3-.6-1.5-1.4-.2-1.2-.8-2.4-1.5-3.4-.5-.7-.8-1.5-.9-2.4-.1-1.4-.3-2.8-.8-4.2z" style="fill:none;stroke:#e2e3e4;stroke-width:.75;stroke-linecap:round;stroke-linejoin:round;stroke-miterlimit:10"/><path d="m640.6 246.1c.3 0 .6 0 .9-.2 1.4-.9 2.9-.5 4.3 0 1 .3 1.9.5 2.9.4.9-.1 1.7.1 2.2 1 .6.9 1.4 1.6 2.5 1.9.3.1.5.3.8.5.4.3.7.7.6 1.3-.1.7-.6.6-1.1.7-1.4.2-2.7.3-4.1-.1-.8-.2-1.7 0-2.6 0-1.9.1-3.7-.2-5.4-1.1-1.3-.7-2.6-1-4.1-1.1-1.7 0-3.3-.5-4.7-1.5-.9-.6-2-.6-2.8-1.4s-1.6-1.5-2.2-2.5c-.9-1.4-1.8-2.7-3.3-3.6-.6-.4-1-1-1.4-1.5-.9-1.2-1.6-2.5-2.8-3.5-.4-.4-.8-.8-.9-1.4-.7-2.2-2.1-3.9-3.3-5.8-.7-1.1-1.4-2.2-1.8-3.5-.3-1-.8-2-1.9-2.4-.3-.1-.5-.4-.6-.7-.7-2.5-2.9-3.7-4.5-5.4-.6-.7-1.4-1.3-1.4-2.3s.4-1.4 1.4-1.2c.9.2 1.7.2 2.6.4 1.4.2 2.6.8 3.4 2.1.2.3.4.7.7.9 3.9 3.2 7.1 7.2 11.4 9.9 2.1 1.4 3.5 3.3 4.2 5.8.3 1 .7 1.9 1.7 2.5.9.6 1.2 1.8 1.1 3-.2 1.5-.3 3.1.2 4.6.6 1.7 1.7 2.6 3.4 2.8.9.1 1.7.2 2.5.7.4.6 1.2.6 2.1.7z" style="fill:none;stroke:#e2e3e4;stroke-width:.75;stroke-linecap:round;stroke-linejoin:round;stroke-miterlimit:10"/><path d="m479.2 289.6c-.2-1.4.1-2.6 1-3.7.9-1 1.2-2.3 1.7-3.5.2-.5.1-1 .1-1.5-.2-1.3-.4-2.6-.5-3.9-.2-2.5 1.4-5.1 3.8-5.6 3.1-.7 5-2.7 6.2-5.4.7-1.5 1.7-2.9 2.6-4.3.6-1 1.2-.9 1.8.1 1.3 2.5 1.7 5.2 2 7.9.1.9-.3 1.7-.7 2.5-.8 1.4-1.4 2.9-1.6 4.5-.4 2.5-1.5 4.7-2.4 7-1 2.7-2 5.4-2.9 8.1-.4 1.4-1.2 2.6-1.6 4-.1.2-.1.4-.3.5-1.4 1.1-3.1 1.8-4.8 1.6-1.8-.2-3.4-1.4-3.8-3.4-.2-1.6-.8-3.3-.6-4.9z" style="fill:none;stroke:#e2e3e4;stroke-width:.75;stroke-linecap:round;stroke-linejoin:round;stroke-miterlimit:10"/><path d="m684.9 104.8c.5 0 .8.2 1.2.4 1.2.5 2.4 1 3.6 1.6s2.4 1.1 3.7 1c.8-.1 1.3.2 1.6 1 .2.4.4.8.7 1.1 1 1.3 1 1.7-.2 2.8-.8.7-1.6 1.3-2.5 1.9-1.1.8-1.5 1.8-.6 2.8 1.7 2 2 4.5 3.3 6.7.6 1 .5 2.2.7 3.3.2 1.4.2 2.9.2 4.3 0 1.1-.4 1.7-1.5 2.1-.7.2-1.4.5-2.1.7-1.7.3-3.1 1-3.9 2.8-.4.9-1.3 1.1-2.2 1.1-1.1 0-2.1.2-3.1.5-1.6.4-2.9 1.2-3.1 3.1-.1.7-.5 1.3-1 1.7-.4.4-.9.5-1.4.1-1.5-1.4-3.1-2.7-3.8-4.8-.1-.4-.2-.8 0-1.3.8-2.3 1.9-4.4 4-5.9.7-.5 1.4-.7 2.2-.7 1.7 0 3.2-.7 4.1-2.2.9-1.6 2.3-2.6 3.7-3.6 1.2-.8 1.4-1.7 1.2-3s-.6-2.5-1.2-3.5c-1.1-1.9-1.6-4.2-3.6-5.6-.7-.5-1-1.4-.7-2.4.5-1.4.4-2.6-.2-4-.6-1.1-.1-1.9.9-2z" style="fill:none;stroke:#e2e3e4;stroke-width:.75;stroke-linecap:round;stroke-linejoin:round;stroke-miterlimit:10"/><path d="m373.4 70.4c2.5 0 4.2 1.5 4 3.8s1.1 3.9 1.9 5.8c.1.2.3.4.5.5.9.5 1.2 1.3 1.5 2.3.2 1 .6 1.7 1.8 2.1 1.7.5 1.9 1.4.6 2.7-.3.3-.7.5-.8.8-.5 2.3-2.5 2.4-4.2 2.6-1.2.2-2.5.3-3.7.4-.6 0-1.2.3-1.8.6-.4.2-.9.5-1.3.7-.5.2-1.1.3-1.6 0-.5-.4-.4-1-.2-1.5.6-1.8 1.1-3.6 1.4-5.4.1-.8.7-1.3 1.5-1.5.7-.2 1.7 0 1.7-1.1 0-.9-.5-1.8-1.4-2.2-1.2-.5-2.2-1.4-3.1-2.4-.6-.7-1-1.4-.9-2.3 0-.5 0-1-.1-1.5-.2-.6 0-1.1.3-1.6.3-.3.6-.7.8-1 .7-1.4 1.8-2 3.1-1.8z" style="fill:none;stroke:#e2e3e4;stroke-width:.75;stroke-linecap:round;stroke-linejoin:round;stroke-miterlimit:10"/><path d="m663.8 242.5c.1-.5.2-1.1.3-1.7.1-1.1.1-2-1-2.8-1-.7-1.1-1.8-.5-2.8 1.1-1.8 1.5-3.8 1.6-5.8.1-1.8.7-3.1 2.3-4 .3-.2.5-.3.7-.6.5-.7 1.2-.8 2-.5 1.5.6 3.1.5 4.6.7.9.1 1.6-.2 2.1-1 .2-.3.3-.5.5-.8.3-.3.7-.6 1.2-.3.4.2.6.7.5 1.1-.2 1.1-.7 2.1-1.6 2.9s-1.8 1.7-1.9 3.1c-.1.7-.6 1.1-1.1 1.4-2.1 1.5-2.4 2.3-1.6 4.9.4 1.3.7 2.6 1.1 4 .1.5.2 1 .2 1.5s0 1-.6 1.3c-.5.3-1 .1-1.4-.3-.6-.7-1.5-.8-2.3-1-1.1-.2-2 0-2.5 1.1-.2.3-.4.6-.7.8-1 .6-1.9.1-1.9-1.2z" style="fill:none;stroke:#e2e3e4;stroke-width:.75;stroke-linecap:round;stroke-linejoin:round;stroke-miterlimit:10"/><path d="m661.6 183.8c-.2-1.8.5-3.4.8-5.1.1-.7.5-1.1 1.3-1.2.9 0 1.9-.1 2.8.1 1.1.3 1.8 1.1 1.9 2.3.1 1.7.3 3.3-.9 4.8-.9 1.2-.4 2.5.1 3.7.2.5.7.6 1.2.5 1.7-.4 3.1.8 4.6 1.2.6.2.9 2.1.5 2.9-.4.9-1.1.6-1.8.5-1-.1-1.8-.7-2.6-1.3-.7-.5-1.4-.9-2.4-1-2.8-.3-5.4-3.1-5.6-5.9 0-.5.1-1 .1-1.5z" style="fill:none;stroke:#e2e3e4;stroke-width:.75;stroke-linecap:round;stroke-linejoin:round;stroke-miterlimit:10"/><path d="m186.3 164.7c1.1 0 2 .1 2.9.5 2.1 1 4.5 1.2 6.2 2.9 1.6 1.6 3.6 2.7 5.6 3.7.6.3 1.1.6 1.6.9 1.1.8 1.1 1.4 0 2.1-.9.6-1.9.6-2.8.1s-1.7-.8-2.8-.5c-1.2.3-1.4.2-1.8-1.2-.1-.5-.3-.9-.8-1.2-1.3-.8-2.6-1.7-3.8-2.7-.9-.7-6.1-1.7-7.2-1.4s-2.2.8-3.3 1.2c-.4.1-.9.4-1.2-.1-.4-.5 0-.9.3-1.3.6-.9 1.5-1.6 2.5-1.9 1.5-.6 3.1-1.2 4.6-1.1z" style="fill:none;stroke:#e2e3e4;stroke-width:.75;stroke-linecap:round;stroke-linejoin:round;stroke-miterlimit:10"/><path d="m370.4 81.2c0 .5-.1 1-.6 1.3-.9.5-1.1 1.2-1.1 2.2 0 .7-.4 1.3-.7 1.9-.2.4-.5.7-1 .7-1.5 0-2.7.7-4 1.5-1.6 1-2.5.7-3.3-1-.3-.6-.4-1.2.1-1.7.7-.9.8-1.9.7-3-.1-1.4 0-1.5 1.3-1.8 1-.2 1.7-1 2.5-1.6 1.3-1.1 4-1.2 5.2-.2.6.5.8 1 .9 1.7z" style="fill:none;stroke:#e2e3e4;stroke-width:.75;stroke-linecap:round;stroke-linejoin:round;stroke-miterlimit:10"/><path d="m208.5 179.9c-1.8-.3-3.6-.6-5.5-.9-.4-.1-.9-.2-1-.7 0-.6.5-.8 1-.9.7-.1 1.4-.1 2-.3.8-.1 1-.5.6-1.1-.1-.1-.1-.2-.2-.3-.3-.5-1.1-.8-.6-1.5.4-.6 1.2-.2 1.7-.1.9.1 1.8.3 2.8 0 .4-.1 1-.1 1.3.1 1.4 1.1 3.2 1.2 4.7 2.2.6.4 1.1.7.9 1.4-.1.7-.6.8-1.2.9-2.1.4-4.3.8-6.5 1.2z" style="fill:none;stroke:#e2e3e4;stroke-width:.75;stroke-linecap:round;stroke-linejoin:round;stroke-miterlimit:10"/><path d="m447.6 256.5c-14.4-13.7-58.5-22-75.1-26.9-15.3-4.5-14.6-15.7-14.4-22.7h-.1c9.2-11.3 15.8-26.8 18.2-44.5 16.6-9.4 16.8-30.8 15.5-33.3s-5.7-1.5-5.7-1.5 1.2-6.1 1.2-23.9c0-25.6-26.5-53.9-65.4-53.9s-65.4 28.3-65.4 53.9c0 17.8 1.2 23.9 1.2 23.9s-4.4-1-5.7 1.5-1.5 23.9 15.1 33.3c2.4 17.7 9.1 33.2 18.3 44.6.2 7 .8 18.1-14.4 22.7-16.6 4.9-60.7 13.3-75.1 26.9-14.4 13.7-17.6 21.6-17.6 32.4s.9 30.7 3 32.4c2.2 1.7 42.2 27.7 140.3 27.7h.2c98.1 0 138.2-26 140.3-27.7 2.2-1.7 3-21.6 3-32.4.2-10.9-3-18.9-17.4-32.5" fill="#fff"/><path d="m376.6 162.1c16.7-9.5 16.9-31 15.6-33.6-1.3-2.5-5.7-1.5-5.7-1.5s1.2-6.1 1.2-24c0-25.8-26.7-54.3-65.8-54.3s-65.9 28.5-65.9 54.3c0 17.9 1.2 24 1.2 24s-4.4-1-5.7 1.5-1.5 24 15.2 33.6c5 36.6 27.8 64.2 55 64.2 27.2-.1 49.9-27.7 54.9-64.2zm-119.4-35.1c0 4 6.2 21 6.2 21 0-9.7 7.8-34.7 17.4-43.2l79-.8s20.6 9.6 20.3 43.1c0 0 5.8-14.3 6.4-20.1m76.5 195c2.2-1.7 3-21.7 3-32.6s-3.2-18.8-17.7-32.6-58.9-22.2-75.5-27.1c-15.4-4.6-14.7-15.8-14.5-22.9m-73.2.1c.2 7.1.8 18.3-14.5 22.8-16.7 4.9-61 13.3-75.5 27.1s-17.7 21.7-17.7 32.6.9 30.9 3 32.6" fill="none"/><path d="m633.5 256.5c-14.4-13.7-58.5-22-75.1-26.9-15.3-4.5-14.6-15.7-14.4-22.7h-.1c9.2-11.3 15.8-26.8 18.2-44.5 16.6-9.4 16.8-30.8 15.5-33.3s-5.7-1.5-5.7-1.5 1.2-6.1 1.2-23.9c0-25.6-26.5-53.9-65.4-53.9s-65.4 28.3-65.4 53.9c0 17.8 1.2 23.9 1.2 23.9s-4.4-1-5.7 1.5-1.5 23.9 15.1 33.3c2.4 17.7 9.1 33.2 18.3 44.6.2 7 .8 18.1-14.4 22.7-16.6 4.9-60.7 13.3-75.1 26.9-14.4 13.7-17.6 21.6-17.6 32.4s.9 30.7 3 32.4c2.2 1.7 42.2 27.7 140.3 27.7h.2c98.1 0 138.2-26 140.3-27.7 2.2-1.7 3-21.6 3-32.4.1-10.9-3-18.9-17.4-32.5" fill="#fff"/><path d="m562.5 162.1c16.7-9.5 16.9-31 15.6-33.6-1.3-2.5-5.7-1.5-5.7-1.5s1.2-6.1 1.2-24c0-25.8-26.7-54.3-65.8-54.3s-65.8 28.5-65.8 54.3c0 17.9 1.2 24 1.2 24s-4.4-1-5.7 1.5-1.5 24 15.2 33.6c5 36.6 27.8 64.2 55 64.2s49.8-27.7 54.8-64.2zm-119.4-35.1c0 4 6.2 21 6.2 21 0-9.7 7.8-34.7 17.4-43.2l79-.8s20.6 9.6 20.3 43.1c0 0 5.8-14.3 6.4-20.1m76.5 195c2.2-1.7 3-21.7 3-32.6s-3.2-18.8-17.7-32.6-58.9-22.2-75.5-27.1c-15.4-4.6-14.7-15.8-14.5-22.9m-73.2.1c.2 7.1.8 18.3-14.5 22.8-16.7 4.9-61 13.3-75.5 27.1s-17.7 21.7-17.7 32.6.9 30.9 3 32.6" fill="none"/><path d="m549.8 271.3c-15.4-14.7-62.7-23.6-80.4-28.9-16.4-4.9-15.7-16.8-15.5-24.4h-.1c9.9-12.1 16.9-28.8 19.5-47.7 17.8-10.1 18-33 16.6-35.7s-6.1-1.6-6.1-1.6 1.2-6.5 1.2-25.6c0-27.5-28.4-57.8-70.1-57.8s-70.1 30.3-70.1 57.8c0 19.1 1.2 25.6 1.2 25.6s-4.7-1.1-6.1 1.6-1.6 25.6 16.2 35.7c2.6 19 9.7 35.6 19.6 47.8h-.1c.2 7.5.9 19.4-15.5 24.3-17.8 5.3-65 14.2-80.4 28.9s-18.8 23.2-18.8 34.7c0 11.6.9 32.9 3.2 34.7 2.3 1.9 45.2 29.7 150.4 29.7h.2c105.1 0 148-27.8 150.4-29.7 2.3-1.9 3.2-23.2 3.2-34.7.3-11.5-3.1-20-18.5-34.7" fill="#fff"/><path d="m447.7 256.1c-14.3-13.6-58.2-21.9-74.6-26.8-15.2-4.5-14.5-15.6-14.4-22.6h-.1c9.2-11.3 15.7-26.7 18.1-44.3 16.5-9.4 16.7-30.7 15.4-33.2s-5.6-1.5-5.6-1.5 1.1-6 1.1-23.8c0-25.5-26.3-53.6-65.1-53.6-38.7 0-65.1 28.1-65.1 53.6 0 17.7 1.1 23.8 1.1 23.8s-4.3-1-5.6 1.5-1.5 23.8 15 33.2c2.4 17.6 9 33.1 18.2 44.3.2 7 .8 18-14.4 22.5-16.5 4.9-60.3 13.2-74.6 26.8s-17.5 21.5-17.5 32.2.9 30.5 3 32.2-18.1 133.3 79.5 133.3l60.3-105.8c97.6 0 137.4-25.8 139.5-27.5s3-21.5 3-32.2c.2-10.6-2.9-18.5-17.2-32.1" fill="#fff"/><path d="m377.1 162.2c16.6-9.5 16.8-30.9 15.5-33.4s-5.7-1.5-5.7-1.5 1.2-6.1 1.2-23.9c0-25.6-26.5-54-65.5-54s-65.5 28.3-65.5 54c0 17.8 1.2 23.9 1.2 23.9s-4.4-1-5.7 1.5-1.5 23.9 15.1 33.4c5 36.4 27.6 63.8 54.7 63.8s49.7-27.4 54.7-63.8zm-118.8-34.8c0 3.9 6.1 20.9 6.1 20.9 0-9.6 7.7-34.5 17.3-42.9l78.6-.8s20.4 9.5 20.2 42.9c0 0 5.8-14.2 6.4-20m76.1 193.8c2.2-1.7 3-21.6 3-32.4s-3.2-18.7-17.6-32.4-58.5-22.1-75.1-27c-15.3-4.5-14.6-15.7-14.4-22.7m-72.9 0c.2 7 .8 18.2-14.4 22.7-16.6 4.9-60.7 13.3-75.1 27s-17.6 21.6-17.6 32.4.9 30.7 3 32.4" style="fill:none;stroke:#d9d9d8;stroke-width:1.5;stroke-linecap:round;stroke-linejoin:round;stroke-miterlimit:10;stroke-dasharray:3 3"/><path d="m632.5 256.1c-14.3-13.6-58.2-21.9-74.6-26.8-15.2-4.5-14.5-15.6-14.4-22.6h-.1c9.2-11.3 15.7-26.7 18.1-44.3 16.5-9.4 16.7-30.7 15.4-33.2s-5.6-1.5-5.6-1.5 1.1-6 1.1-23.8c0-25.5-26.3-53.6-65.1-53.6-38.7 0-65.1 28.1-65.1 53.6 0 17.7 1.1 23.8 1.1 23.8s-4.3-1-5.6 1.5-1.5 23.8 15 33.2c2.4 17.6 9 33.1 18.2 44.3.2 7 .8 18-14.4 22.5-16.5 4.9-60.3 13.2-74.6 26.8s-17.5 21.5-17.5 32.2.9 30.5 3 32.2 42 27.5 139.5 27.5h.2c97.6 0 137.4-25.8 139.5-27.5s3-21.5 3-32.2c.4-10.6-2.8-18.5-17.1-32.1" fill="#fff"/><path d="m561.9 162.2c16.6-9.5 16.8-30.9 15.5-33.4s-5.7-1.5-5.7-1.5 1.2-6.1 1.2-23.9c0-25.6-26.5-54-65.5-54s-65.5 28.3-65.5 54c0 17.8 1.2 23.9 1.2 23.9s-4.4-1-5.7 1.5-1.5 23.9 15.1 33.4c5 36.4 27.6 63.8 54.7 63.8s49.7-27.4 54.7-63.8zm-118.7-34.8c0 3.9 6.1 20.9 6.1 20.9 0-9.6 7.7-34.5 17.3-42.9l78.6-.8s20.4 9.5 20.2 42.9c0 0 5.8-14.2 6.4-20m76.1 193.8c2.2-1.7 3-21.6 3-32.4s-3.2-18.7-17.6-32.4-58.5-22.1-75.1-27c-15.3-4.5-14.6-15.7-14.4-22.7m-72.9 0c.2 7 .8 18.2-14.4 22.7-16.6 4.9-60.7 13.3-75.1 27s-17.6 21.6-17.6 32.4.9 30.7 3 32.4" style="fill:none;stroke:#d9d9d8;stroke-width:1.5;stroke-linecap:round;stroke-linejoin:round;stroke-miterlimit:10;stroke-dasharray:3 3"/><path d="m549.3 270.9c-15.4-14.6-62.3-23.5-80-28.7-16.3-4.8-15.6-16.8-15.4-24.2h-.1c9.8-12.1 16.8-28.6 19.4-47.4 17.7-10.1 17.9-32.9 16.6-35.5-1.4-2.7-6-1.6-6-1.6s1.2-6.5 1.2-25.5c0-27.3-28.2-57.5-69.7-57.5s-69.7 30.2-69.7 57.5c0 19 1.2 25.5 1.2 25.5s-4.6-1.1-6 1.6-1.6 25.5 16.1 35.5c2.6 18.9 9.6 35.4 19.5 47.5h-.1c.2 7.5.9 19.3-15.4 24.1-17.7 5.2-64.6 14.1-80 28.7s-18.7 23-18.7 34.5.9 32.7 3.2 34.5 45 29.5 149.5 29.5h.2c104.6 0 147.2-27.7 149.5-29.5s3.2-23 3.2-34.5c.2-11.5-3.1-19.9-18.5-34.5" fill="#fff"/><path d="m473.4 170.3c17.8-10.1 18.1-33.1 16.7-35.8s-6.1-1.6-6.1-1.6 1.2-6.5 1.2-25.6c0-27.5-28.4-57.8-70.2-57.8s-70.2 30.3-70.2 57.8c0 19.1 1.2 25.6 1.2 25.6s-4.7-1.1-6.1 1.6-1.6 25.6 16.2 35.8c5.3 39 29.6 68.4 58.6 68.4 29.2 0 53.4-29.4 58.7-68.4zm-127.2-37.4c0 4.2 6.6 22.4 6.6 22.4 0-10.3 8.3-37 18.6-46 0 0 21.2 9 69.8 9 0 0-4.9-3.3-6.2-6 0 0 13.9 1 25 6.2 0 0-4.5-8.9-7-11.8 0 0 24.5 11.8 24.2 47.5 0 0 6.2-15.2 6.8-21.4m-108.1 85.3c.2 7.5.9 19.5-15.5 24.3-17.8 5.3-65 14.2-80.5 28.9-15.5 14.6-18.9 23.1-18.9 34.7s.9 32.9 3.2 34.8 45.3 29.7 150.5 29.7h.2c105.2 0 148.2-27.8 150.5-29.7s3.2-23.2 3.2-34.8-3.4-20.1-18.9-34.8c-15.4-14.7-62.7-23.6-80.5-28.9-16.4-4.9-15.7-16.9-15.5-24.4" style="fill:none;stroke:#d9d9d8;stroke-width:2;stroke-linecap:round;stroke-linejoin:round;stroke-miterlimit:10"/><path d="m1063.3 467.8h-32.5c-5.6 0-10.1-4.5-10.1-10.1v-366.5c0-5.6 4.5-10.1 10.1-10.1h32.5c5.6 0 10.1 4.5 10.1 10.1v366.5c0 5.5-4.5 10.1-10.1 10.1zm12.3 8h-57.2c-3.7 0-6.7-3-6.7-6.7v-391.4c0-3.7 3-6.7 6.7-6.7h57.2c3.7 0 6.7 3 6.7 6.7v391.3c.1 3.7-3 6.8-6.7 6.8z" fill="none" stroke="#d8d8d7" stroke-miterlimit="10" stroke-width="2"/><path d="m1051.3 158.1h-6.7v6.7h6.7zm-1.5 5.2h-3.8v-3.8h3.8z" fill="#d8d8d7"/><path d="m1060.4 158.1h-6.7v6.7h6.7zm-1.5 5.2h-3.8v-3.8h3.8z" fill="#d8d8d7"/><path d="m1051.3 166.4h-6.7v6.7h6.7zm-1.5 5.2h-3.8v-3.8h3.8z" fill="#d8d8d7"/><path d="m1060.4 166.4h-6.7v6.7h6.7zm-1.5 5.2h-3.8v-3.8h3.8z" fill="#d8d8d7"/><path d="m1051.3 174.7h-6.7v6.7h6.7zm-1.5 5.2h-3.8v-3.8h3.8z" fill="#d8d8d7"/><path d="m1060.4 174.7h-6.7v6.7h6.7zm-1.5 5.2h-3.8v-3.8h3.8z" fill="#d8d8d7"/><path d="m1051.3 183h-6.7v6.7h6.7zm-1.5 5.2h-3.8v-3.8h3.8z" fill="#d8d8d7"/><path d="m1060.4 183h-6.7v6.7h6.7zm-1.5 5.2h-3.8v-3.8h3.8z" fill="#d8d8d7"/><path d="m1051.3 191.3h-6.7v6.7h6.7zm-1.5 5.2h-3.8v-3.8h3.8z" fill="#d8d8d7"/><path d="m1060.4 191.3h-6.7v6.7h6.7zm-1.5 5.2h-3.8v-3.8h3.8z" fill="#d8d8d7"/><path d="m1051.3 199.6h-6.7v6.7h6.7zm-1.5 5.2h-3.8v-3.8h3.8z" fill="#d8d8d7"/><path d="m1060.4 199.6h-6.7v6.7h6.7zm-1.5 5.2h-3.8v-3.8h3.8z" fill="#d8d8d7"/><path d="m1051.3 207.9h-6.7v6.7h6.7zm-1.5 5.2h-3.8v-3.8h3.8z" fill="#d8d8d7"/><path d="m1060.4 207.9h-6.7v6.7h6.7zm-1.5 5.2h-3.8v-3.8h3.8z" fill="#d8d8d7"/><path d="m1051.3 216.2h-6.7v6.7h6.7zm-1.5 5.2h-3.8v-3.8h3.8z" fill="#d8d8d7"/><path d="m1060.4 216.2h-6.7v6.7h6.7zm-1.5 5.2h-3.8v-3.8h3.8z" fill="#d8d8d7"/><path d="m1051.3 224.5h-6.7v6.7h6.7zm-1.5 5.2h-3.8v-3.7h3.8z" fill="#d8d8d7"/><path d="m1060.4 224.5h-6.7v6.7h6.7zm-1.5 5.2h-3.8v-3.7h3.8z" fill="#d8d8d7"/><path d="m1051.3 232.8h-6.7v6.7h6.7zm-1.5 5.2h-3.8v-3.8h3.8z" fill="#d8d8d7"/><path d="m1060.4 232.8h-6.7v6.7h6.7zm-1.5 5.2h-3.8v-3.8h3.8z" fill="#d8d8d7"/><path d="m1051.3 241.1h-6.7v6.7h6.7zm-1.5 5.2h-3.8v-3.8h3.8z" fill="#d8d8d7"/><path d="m1060.4 241.1h-6.7v6.7h6.7zm-1.5 5.2h-3.8v-3.8h3.8z" fill="#d8d8d7"/><path d="m1051.3 249.4h-6.7v6.7h6.7zm-1.5 5.2h-3.8v-3.8h3.8z" fill="#d8d8d7"/><path d="m1060.4 249.4h-6.7v6.7h6.7zm-1.5 5.2h-3.8v-3.8h3.8z" fill="#d8d8d7"/><path d="m1051.3 257.7h-6.7v6.7h6.7zm-1.5 5.2h-3.8v-3.8h3.8z" fill="#d8d8d7"/><path d="m1060.4 257.7h-6.7v6.7h6.7zm-1.5 5.2h-3.8v-3.8h3.8z" fill="#d8d8d7"/><path d="m1051.3 278.8h-6.7v6.7h6.7zm-1.5 5.3h-3.8v-3.8h3.8z" fill="#d8d8d7"/><path d="m1060.4 278.8h-6.7v6.7h6.7zm-1.5 5.3h-3.8v-3.8h3.8z" fill="#d8d8d7"/><path d="m1051.3 287.1h-6.7v6.7h6.7zm-1.5 5.3h-3.8v-3.8h3.8z" fill="#d8d8d7"/><path d="m1060.4 287.1h-6.7v6.7h6.7zm-1.5 5.3h-3.8v-3.8h3.8z" fill="#d8d8d7"/><path d="m1051.3 295.4h-6.7v6.7h6.7zm-1.5 5.3h-3.8v-3.8h3.8z" fill="#d8d8d7"/><path d="m1060.4 295.4h-6.7v6.7h6.7zm-1.5 5.3h-3.8v-3.8h3.8z" fill="#d8d8d7"/><path d="m1056.9 453.9h-19.7v-11h19.7zm-13.7-16.8h-6v-11h6zm5.9-16.8h-11.9v-13.8h11.9z" fill="none" stroke="#d8d8d7" stroke-miterlimit="10" stroke-width="2"/><path d="m1047 99.8-3.4 6.1h6.9z" fill="#016bff"/><path d="m1037.3 103.2-9.2-5.4 1.5 4.8 6.1 3.6h.1c2.2 1.1 3.8 3 5 5.8l-10-5.9 1.5 4.8 13.5 8c-.5-5.2-2.3-12.7-8.5-15.7" fill="#016bff"/><path d="m1033.2 114.1 1.6 4.8 8.9 5.3-2.2 1.3v3.9l5.5-3.3 5.6 3.3v-3.9l-2.2-1.3 8.9-5.3 1.5-4.8-13.8 8.1z" fill="#016bff"/><path d="m1058.3 106.2 6.1-3.6 1.5-4.8-9.2 5.4c-6.2 3.1-8 10.6-8.4 15.7l13.5-8 1.5-4.8-10 5.9c1.2-2.8 2.9-4.8 5-5.8" fill="#016bff"/><path d="m1032 475.8v36.5" fill="none" stroke="#d8d8d7" stroke-miterlimit="10" stroke-width="2"/><circle cx="1032" cy="518.9" fill="none" r="6.6" stroke="#d8d8d7" stroke-miterlimit="10" stroke-width="2"/><path d="m1062.1 475.8v36.5" fill="none" stroke="#d8d8d7" stroke-miterlimit="10" stroke-width="2"/><circle cx="1062.1" cy="518.9" fill="none" r="6.6" stroke="#d8d8d7" stroke-miterlimit="10" stroke-width="2"/><path d="m1994.1 470.8h-213.6c-2.2 0-4-1.8-4-4v-406.5c0-2.2 1.8-4 4-4h213.6c2.2 0 4 1.8 4 4v406.5c0 2.2-1.8 4-4 4z" fill="none" stroke="#d8d8d7" stroke-miterlimit="10" stroke-width="2"/><g fill="#d8d8d7"><path d="m1986.8 75v23.6h-199v-23.6zm2-2h-203v27.6h203z"/><path d="m1986.8 111.8v23.6h-199v-23.6zm2-2h-203v27.6h203z"/><path d="m1986.8 148.6v23.6h-199v-23.6zm2-2h-203v27.6h203z"/><path d="m1986.8 185.4v23.6h-199v-23.6zm2-2h-203v27.6h203z"/><path d="m1986.8 222.2v23.6h-199v-23.6zm2-2h-203v27.6h203z"/><path d="m1986.8 259v23.6h-199v-23.6zm2-2h-203v27.6h203z"/><path d="m1986.8 295.8v23.6h-199v-23.6zm2-2h-203v27.6h203z"/><path d="m1986.8 332.6v23.6h-199v-23.6zm2-2h-203v27.6h203z"/><path d="m1986.8 369.4v23.6h-199v-23.6zm2-2h-203v27.6h203z"/><path d="m1986.8 406.2v23.6h-199v-23.6zm2-2h-203v27.6h203z"/><path d="m1796.7 80.4v13h-3.5v-13zm2-2h-7.5v17h7.5z"/><path d="m1981.4 80.4v13h-3.5v-13zm2-2h-7.5v17h7.5z"/><circle cx="1807" cy="86.9" r="3.3"/><path d="m1796.7 117.2v13h-3.5v-13zm2-2h-7.5v17h7.5z"/><path d="m1981.4 117.2v13h-3.5v-13zm2-2h-7.5v17h7.5z"/><circle cx="1807" cy="123.7" r="3.3"/><path d="m1796.7 154.1v13h-3.5v-13zm2-2h-7.5v17h7.5z"/><path d="m1981.4 154.1v13h-3.5v-13zm2-2h-7.5v17h7.5z"/><circle cx="1807" cy="160.6" r="3.3"/><path d="m1798.2 189.4v16h-6.5v-16zm.5-.5h-7.5v17h7.5z"/><path d="m1981.4 190.9v13h-3.5v-13zm2-2h-7.5v17h7.5z"/><circle cx="1807" cy="197.4" r="3.3"/><path d="m1798.2 226.2v16h-6.5v-16zm.5-.5h-7.5v17h7.5z"/><path d="m1981.4 227.7v13h-3.5v-13zm2-2h-7.5v17h7.5z"/><circle cx="1807" cy="234.2" r="3.3"/><path d="m1798.2 263v16h-6.5v-16zm.5-.5h-7.5v17h7.5z"/><path d="m1981.4 264.5v13h-3.5v-13zm2-2h-7.5v17h7.5z"/><circle cx="1807" cy="271" r="3.3"/><path d="m1798.2 299.8v16h-6.5v-16zm.5-.5h-7.5v17h7.5z"/><path d="m1981.4 301.3v13h-3.5v-13zm2-2h-7.5v17h7.5z"/><circle cx="1807" cy="307.8" r="3.3"/><path d="m1798.2 336.6v16h-6.5v-16zm.5-.5h-7.5v17h7.5z"/><path d="m1981.4 338.1v13h-3.5v-13zm2-2h-7.5v17h7.5z"/><circle cx="1807" cy="344.6" r="3.3"/><path d="m1798.2 373.4v16h-6.5v-16zm.5-.5h-7.5v17h7.5z"/><path d="m1981.4 374.9v13h-3.5v-13zm2-2h-7.5v17h7.5z"/><circle cx="1807" cy="381.4" r="3.3"/><path d="m1798.2 410.2v16h-6.5v-16zm.5-.5h-7.5v17h7.5z"/><path d="m1981.4 411.7v13h-3.5v-13zm2-2h-7.5v17h7.5z"/><circle cx="1807" cy="418.2" r="3.3"/></g><path d="m1389.3 469.8c-.8 0-1.5-.7-1.5-1.5v-308.5c0-.8.7-1.5 1.5-1.5h451c.8 0 1.5.7 1.5 1.5v308.5c0 .8-.7 1.5-1.5 1.5z" fill="#fff"/><path d="m1840.2 159.2c.3 0 .5.2.5.5v308.5c0 .3-.2.5-.5.5h-451c-.3 0-.5-.2-.5-.5v-308.5c0-.3.2-.5.5-.5zm0-2h-451c-1.4 0-2.5 1.1-2.5 2.5v308.5c0 1.4 1.1 2.5 2.5 2.5h451c1.4 0 2.5-1.1 2.5-2.5v-308.5c0-1.3-1.1-2.5-2.5-2.5z" fill="#d8d8d7"/><path d="m1389.1 214.1h453.6m-453.6-26.4h453.6" fill="none" stroke="#d8d8d7" stroke-miterlimit="10" stroke-width="2"/><path d="m1409.4 171.9c0 3.4-2.7 6.1-6.1 6.1s-6.1-2.7-6.1-6.1 2.7-6.1 6.1-6.1 6.1 2.7 6.1 6.1" fill="#d8d8d7"/><path d="m1427.8 171.9c0 3.4-2.7 6.1-6.1 6.1s-6.1-2.7-6.1-6.1 2.7-6.1 6.1-6.1 6.1 2.7 6.1 6.1" fill="#d8d8d7"/><path d="m1446.2 171.9c0 3.4-2.7 6.1-6.1 6.1s-6.1-2.7-6.1-6.1 2.7-6.1 6.1-6.1 6.1 2.7 6.1 6.1" fill="#d8d8d7"/><path d="m1507.9 470.3v-54.2h218.8v54.2m-54.6-76.4h-164.1v-9.9h164.1zm-27.7-17.9h-136.5v-9.9h136.5zm82.4-27.4h-218.8v-118.8h218.8z" fill="none" stroke="#d8d8d7" stroke-miterlimit="10" stroke-width="2"/><path d="m1766.6 239.9c-1.5 0-2.7 1.2-2.7 2.7v13.2c0 1.5 1.2 2.7 2.7 2.7h2.7v-18.5h-2.7z" fill="none" stroke="#d8d8d7" stroke-miterlimit="10" stroke-width="2"/><path d="m1763.9 271v13.2c0 1.5 1.2 2.7 2.7 2.7h2.7v-18.5h-2.7c-1.5-.1-2.7 1.1-2.7 2.6z" fill="none" stroke="#d8d8d7" stroke-miterlimit="10" stroke-width="2"/><path d="m1928.6 518.3h-153.3c-3.3 0-6-2.7-6-6v-312.2c0-3.3 2.7-6 6-6h153.3c3.3 0 6 2.7 6 6v312.3c0 3.2-2.7 5.9-6 5.9z" fill="#fff" stroke="#d8d8d7" stroke-miterlimit="10" stroke-width="2"/><path d="m1778.2 231.7h146.5v248.2h-146.5z" fill="none" stroke="#d8d8d7" stroke-miterlimit="10" stroke-width="2"/><path d="m1850.8 491.4c4.3 0 7.9 3.5 7.9 7.9 0 4.3-3.5 7.9-7.9 7.9s-7.9-3.5-7.9-7.9 3.5-7.9 7.9-7.9m0-2c-5.5 0-9.9 4.4-9.9 9.9s4.4 9.9 9.9 9.9 9.9-4.4 9.9-9.9-4.5-9.9-9.9-9.9z" fill="#d8d8d7"/><path d="m1872.5 218h-35.6c-.4 0-.6-.3-.6-.6v-3.6c0-.4.3-.6.6-.6h35.6c.4 0 .6.3.6.6v3.6c0 .4-.3.6-.6.6z" fill="none" stroke="#d8d8d7" stroke-miterlimit="10" stroke-width="2"/><circle cx="1826.3" cy="215.6" fill="none" r="3.3" stroke="#d8d8d7" stroke-miterlimit="10" stroke-width="2"/><path d="m559.1 481.4h-287.3c-.6 0-1.1-.5-1.1-1.1v-12.2c0-.6.5-1.1 1.1-1.1h287.2c.6 0 1.1.5 1.1 1.1v12.2c0 .6-.5 1.1-1 1.1z" fill="none" stroke="#d8d8d7" stroke-miterlimit="10" stroke-width="2"/><path d="m303.6 472.9v2.8h-17.6v-2.8zm1-2h-19.5c-.6 0-1.1.5-1.1 1.1v4.6c0 .6.5 1.1 1.1 1.1h19.5c.6 0 1.1-.5 1.1-1.1v-4.6c-.1-.7-.6-1.1-1.1-1.1z" fill="#d8d8d7"/><path d="m473.7 472.9v2.8h-113.6v-2.8zm2-2h-117.6v6.8h117.6z" fill="#d8d8d7"/><path d="m365.3 471.8v4.9" fill="none" stroke="#d8d8d7" stroke-miterlimit="10" stroke-width="2"/><path d="m372.7 471.8v4.9" fill="none" stroke="#d8d8d7" stroke-miterlimit="10" stroke-width="2"/><path d="m380.1 471.8v4.9" fill="none" stroke="#d8d8d7" stroke-miterlimit="10" stroke-width="2"/><path d="m387.5 471.8v4.9" fill="none" stroke="#d8d8d7" stroke-miterlimit="10" stroke-width="2"/><path d="m394.9 471.8v4.9" fill="none" stroke="#d8d8d7" stroke-miterlimit="10" stroke-width="2"/><path d="m402.3 471.8v4.9" fill="none" stroke="#d8d8d7" stroke-miterlimit="10" stroke-width="2"/><path d="m409.7 471.8v4.9" fill="none" stroke="#d8d8d7" stroke-miterlimit="10" stroke-width="2"/><path d="m417.1 471.8v4.9" fill="none" stroke="#d8d8d7" stroke-miterlimit="10" stroke-width="2"/><path d="m424.4 471.8v4.9" fill="none" stroke="#d8d8d7" stroke-miterlimit="10" stroke-width="2"/><path d="m431.8 471.8v4.9" fill="none" stroke="#d8d8d7" stroke-miterlimit="10" stroke-width="2"/><path d="m439.2 471.8v4.9" fill="none" stroke="#d8d8d7" stroke-miterlimit="10" stroke-width="2"/><path d="m446.6 471.8v4.9" fill="none" stroke="#d8d8d7" stroke-miterlimit="10" stroke-width="2"/><path d="m454 471.8v4.9" fill="none" stroke="#d8d8d7" stroke-miterlimit="10" stroke-width="2"/><path d="m461.4 471.8v4.9" fill="none" stroke="#d8d8d7" stroke-miterlimit="10" stroke-width="2"/><path d="m468.8 471.8v4.9" fill="none" stroke="#d8d8d7" stroke-miterlimit="10" stroke-width="2"/><path d="m559.3 459.8h-287.7l-17.8-166.6h323.3z" fill="#fff" stroke="#d8d8d7" stroke-miterlimit="10" stroke-width="2"/><path d="m285.6 459.8v7.3" fill="none" stroke="#d8d8d7" stroke-miterlimit="10" stroke-width="2"/><path d="m549 459.8v7.3" fill="none" stroke="#d8d8d7" stroke-miterlimit="10" stroke-width="2"/><path d="m1040.2 273.4h24.4v35.3h-24.4z" fill="none" stroke="#016bff" stroke-miterlimit="10" stroke-width="2"/><path d="m415.2 360-6.1 10.5h12.1z" fill="#e70000"/><path d="m398.2 365.8-15.9-9.4 2.6 8.4 10.5 6.2h.1c3.7 1.8 6.6 5.2 8.6 10l-17.4-10.2 2.6 8.4 23.4 13.8c-.6-8.9-3.7-21.9-14.5-27.2z" fill="#e70000"/><path d="m391.2 384.7 2.6 8.4 15.6 9.2-3.9 2.2v6.9l9.7-5.7 9.7 5.7v-6.9l-3.9-2.2 15.5-9.2 2.6-8.4-23.9 14.1z" fill="#e70000"/><path d="m434.8 371 10.6-6.2 2.6-8.4-15.9 9.4c-10.8 5.4-13.8 18.3-14.6 27.2l23.4-13.8 2.6-8.4-17.4 10.2c2-4.8 4.9-8.2 8.7-10z" fill="#e70000"/><circle cx="1852.3" cy="358.7" fill="#016bff" r="10"/><circle cx="1448.9" cy="290.5" fill="#016bff" r="10"/><path d="m1448.9 290.5h-365.1" fill="none" stroke="#016bff" stroke-miterlimit="10" stroke-width="3"/><path d="m1852.3 358.7h-492.4l-86.4-68.2" fill="none" stroke="#016bff" stroke-miterlimit="10" stroke-width="3"/><path d="m1040.2 290.5h-3.5" fill="none" stroke="#016bff" stroke-miterlimit="10" stroke-width="3"/><path d="m1030.9 290.5h-122.5" fill="none" stroke="#016bff" stroke-dasharray="6.7535 5.7887" stroke-miterlimit="10" stroke-width="3"/><path d="m905.5 290.5h-3.5v3.5" fill="none" stroke="#016bff" stroke-miterlimit="10" stroke-width="3"/><path d="m902 299.7v72.2" fill="none" stroke="#016bff" stroke-dasharray="6.7341 5.772" stroke-miterlimit="10" stroke-width="3"/><path d="m902 374.8v3.5h-3.5" fill="none" stroke="#016bff" stroke-miterlimit="10" stroke-width="3"/><path d="m892.5 378.3h-359" fill="none" stroke="#016bff" stroke-dasharray="6.9609 5.9665" stroke-miterlimit="10" stroke-width="3"/><path d="m530.6 378.3h-3.5" fill="none" stroke="#016bff" stroke-miterlimit="10" stroke-width="3"/><circle cx="515.6" cy="378.3" fill="none" r="10" stroke="#016bff" stroke-miterlimit="10" stroke-width="2"/></svg>