<svg height="24" viewBox="0 0 24 24" width="24" xmlns="http://www.w3.org/2000/svg"><g fill="none" fill-rule="evenodd"><path d="m-939-1399h1600v4350h-1600z" fill="#f6f9ff"/><g><circle cx="12" cy="12" fill="none" r="11" stroke="#106bff" stroke-width="2"/><path d="m16.7787414 8.21701635c-.161615-.15572882-.3856066-.23401605-.6120377-.21391308-.2264311.02010296-.4321887.13654411-.562215.31816536l-4.946573 6.89640067-2.2622368-3.1541939c-.13001921-.1817496-.33585956-.2982814-.562395-.3183871-.22653543-.0201056-.45062041.0582692-.61224277.2141348-.26784887.2743274-.29542675.6960819-.06547162 1.0012719l2.55108218 3.5569527c.21717754.3024129.57228951.4825523.95126401.4825523s.7340865-.1801394.9512641-.4825523l5.2354183-7.29915947c.2298516-.30527847.2021111-.72703852-.0658567-1.00127188z" fill="#106bff"/></g></g></svg>