<svg height="15" viewBox="0 0 15 15" width="15" xmlns="http://www.w3.org/2000/svg"><path d="m439.909232 40.741055c-.354998.3450015-.930869.3452977-1.286244.0006615-.355375-.3446361-.35568-.9036978-.000681-1.2486993l5.278984-5.1182781h-10.992766c-.501764 0-.908525-.3948873-.908525-.8820056 0-.4871182.406761-.8820055.908525-.8820055h10.977322l-5.26354-5.103725c-.229644-.2231768-.3192-.5483381-.234934-.8529986.084266-.3046606.329553-.5425352.643463-.6240189.31391-.0814838.648753.0058028.878396.2289796l6.823932 6.6176876c.170824.165321.266836.3898544.266836.6240189s-.096012.4586979-.266836.6240189z" fill="#8695ae" fill-rule="evenodd" transform="matrix(0 1 -1 0 41 -432)"/></svg>