<svg height="15" viewBox="0 0 15 15" width="15" xmlns="http://www.w3.org/2000/svg"><path d="m56.9092324 14.741055c-.3549984.3450015-.9308696.3452977-1.2862443.0006615-.3553747-.3446361-.3556798-.9036978-.0006814-1.2486993l5.2789848-5.11827812h-10.9927665c-.5017645 0-.908525-.39488733-.908525-.88200553 0-.48711821.4067605-.88200554.908525-.88200554h10.9773215l-5.2635398-5.10372504c-.2296437-.22317681-.3192-.54833804-.2349337-.85299858.0842662-.30466055.3295529-.54253522.6434629-.62401894.3139099-.08148371.6487528.00580285.8783965.22897969l6.8239316 6.61768754c.1708235.16532098.266836.38985442.266836.62401892 0 .23416449-.0960125.45869793-.266836.62401891z" fill="#8695ae" fill-rule="evenodd" transform="translate(-49)"/></svg>