<svg height="16" viewBox="0 0 16 16" width="16" xmlns="http://www.w3.org/2000/svg"><path d="m33 0c2.1726667 0 2.4453333.00933333 3.2993333.04866667 2.908.13333333 4.522 1.75066666 4.6526667 4.65333333.0386667.85333333.048 1.12533333.048 3.298 0 2.1726667-.0093333 2.4453333-.0486667 3.2986667-.1313333 2.908-1.75 4.52-4.6526666 4.6533333-.8533334.0386667-1.126.048-3.2986667.048s-2.4446667-.0093333-3.2986667-.048c-2.908-.1333333-4.52-1.748-4.6533333-4.6533333-.0386667-.8533334-.048-1.126-.048-3.2986667 0-2.17266667.0093333-2.44466667.0486667-3.29866667.1333333-2.908 1.748-4.52 4.6533333-4.65333333.8533333-.03866667 1.1253333-.048 3.298-.048zm4.2706667 2.77c-.5306667 0-.9606667.43-.9606667.96s.43.96.9606667.96c.53 0 .9593333-.43.9593333-.96s-.4293333-.96-.9593333-.96zm-4.2706667 1.122c-2.2686667 0-4.108 1.83933333-4.108 4.108 0 2.2686667 1.8393333 4.1086667 4.108 4.1086667s4.108-1.8393334 4.108-4.1086667c0-2.26866667-1.8393333-4.108-4.108-4.108zm0 6.7746667c-1.4726667 0-2.6666667-1.19333337-2.6666667-2.6666667 0-1.47266667 1.194-2.66666667 2.6666667-2.66666667s2.6666667 1.194 2.6666667 2.66666667c0 1.47333333-1.194 2.6666667-2.6666667 2.6666667z" fill="#535f75" transform="translate(-25)"/></svg>