<svg height="16" viewBox="0 0 16 16" width="16" xmlns="http://www.w3.org/2000/svg"><path d="m54.3526266 15.9937793v-10.68069773h3.2985876v10.68069773zm1.6494482-12.14193513c-1.056853 0-1.9111657-.86301547-1.9111657-1.92654415 0-1.06228455.8543127-1.92530002 1.9111657-1.92530002 1.0540743 0 1.910857.86301547 1.910857 1.92530002 0 1.06352868-.8567827 1.92654415-1.910857 1.92654415zm13.9979252 12.14815583h-3.2933389v-5.1968586c0-1.24009223-.0240825-2.83414111-1.7137712-2.83414111-1.7158295 0-1.9775471 1.35030196-1.9775471 2.74425231v5.2867474h-3.2962205v-10.68691843h3.1631491v1.45957855h.0449746c.4402783-.83989529 1.516068-1.72603095 3.1201299-1.72603095 3.3363581 0 3.9526241 2.21279905 3.9526241 5.09152173z" fill="#535f75" fill-rule="evenodd" transform="translate(-54)"/></svg>