<svg height="16" viewBox="0 0 16 16" width="16" xmlns="http://www.w3.org/2000/svg"><path d="m121.691365 2.25688779v6.00740026c2.155652 1.10817039 4.006404.91162048 5.017306.88052299.503788-.02482645.795906.10901304.945686.34653948.002713-.00850456.005252-.01683732.008053-.02534188.175254.16442156.3625.3175037.556837.45563843.035628-.4936083.314966-.81411866 1.072004-.77683603 1.026309.03161292 2.91803.23477749 5.115613-.93086313v-5.95706012c0-1.02406971-.339652-1.42962571-1.30127-1.42962571h-10.116811c-1.014929 0-1.297418.3412993-1.297418 1.42962571zm13.68552 5.36165478c.487068-.33348198.80606.12043836.507464.554257-.580997.69883458-1.686091 1.56655777-3.380411 2.24907043 1.796653 5.9921952-4.375032 6.944019-4.280927 3.871724 0 .0554085-.003239-1.6468786-.005602-2.9153472-.131922-.0318706-.27286-.0683801-.434545-.1057486-.002451 1.2772308-.005865 3.0781365-.005865 3.0210958.094105 3.072295-6.073466 2.1204712-4.280927-3.871724-1.69432-.68259857-2.799151-1.55023585-3.380411-2.24907043-.298684-.43373274.020572-.88765307.507464-.554257.065742.0460449.131134.08985629.196526.13332406v-6.19767914c0-.85964814.658819-1.55418749 1.469257-1.55418749h11.430423c.810438 0 1.46952.69453935 1.46952 1.55418749v6.19192353c.062503-.04166377.125093-.08349935.188034-.12756845zm-7.616081-.9963225c0 .97132423-.842476 1.75864064-1.881741 1.75864064s-1.881741-.78740231-1.881741-1.75864064.842476-1.75864063 1.881741-1.75864063 1.881741.7873164 1.881741 1.75864063zm2.628188 1.75872654c-1.039265 0-1.881741-.78740231-1.881741-1.75864063 0-.97123833.842476-1.75864064 1.881741-1.75864064s1.881741.78740231 1.881741 1.75864064c0 .97123832-.842476 1.75864063-1.881741 1.75864063z" fill="#535f75" fill-rule="evenodd" transform="translate(-120)"/></svg>