<svg height="13" viewBox="0 0 17 13" width="17" xmlns="http://www.w3.org/2000/svg"><path d="m23.8636364 14.5482487c.2553461.0298427.5151149.0451098.7786079.0451098 1.5291675 0 2.9365393-.516602 4.0535915-1.3832513-1.4282627-.026098-2.6336502-.9603255-3.048966-2.2441394.1992491.0377355.4037356.0579572.6140412.0579572.2977099 0 .5860509-.0394639.8599603-.1133218-1.4932049-.2968143-2.6182876-1.60286616-2.6182876-3.16851532 0-.01359631.0000582-.027135.000291-.04061609.4401055.24202577.9433493.38737949 1.4784241.40414443-.8757885-.57945611-1.4520632-1.56852974-1.4520632-2.68959123 0-.59218825.1609589-1.14727471.4419095-1.62452808 1.6098215 1.95498744 4.0148356 3.24145145 6.7275105 3.37620466-.0556897-.23649506-.0844947-.48312974-.0844947-.73638974 0-1.78451512 1.4613739-3.23131183 3.2639852-3.23131183.9387522 0 1.7870159.3924493 2.3824357 1.02047187.74346-.14495044 1.4419959-.41388076 2.0726218-.78414964-.2437077.75453735-.7612085 1.38780257-1.4351293 1.78774136.6603038-.07812115 1.2893004-.25181971 1.874653-.50882446-.4376033.64801376-.9910085 1.21715742-1.6286757 1.67274888.0062847.13855557.0094271.27791771.0094271.41802879 0 4.2701041-3.2829557 9.1939832-9.2865005 9.1939832-1.8432292 0-3.5589018-.5349224-5.0033418-1.4517513z" fill="#535f75" fill-rule="evenodd" transform="translate(-23 -3)"/></svg>