<svg enable-background="new 0 0 89.4 52" height="52" viewBox="0 0 89.4 52" width="89.4" xmlns="http://www.w3.org/2000/svg"><g fill="none" stroke-miterlimit="10"><ellipse cx="44.7" cy="26" opacity=".2" rx="44.2" ry="25.5" stroke="#ff3655"/><path d="m29.1 17 8.9 5.2c-3.7 2.1-3.7 5.6 0 7.7s9.7 2.1 13.4 0l8.9 5.2" stroke="#b2bfd3"/><path d="m60.3 35c8.6-5 8.6-13.1 0-18s-22.6-5-31.2 0l-6.7-3.9c-12.4 7.1-12.4 18.7 0 25.8s32.3 7.1 44.6 0z" stroke="#b2bfd3"/><path d="m67 38.9 5.1 3" stroke="#b2bfd3"/><path d="m22.4 13.1-5.2-2.9" stroke="#b2bfd3"/><path d="m44.7 26 27.4-15.8" stroke="#b2bfd3"/><path d="m38 29.9-20.8 12" stroke="#b2bfd3"/></g><ellipse cx="44.7" cy="26" fill="#ff3655" rx="3.2" ry="1.8"/><ellipse cx="44.7" cy="26" fill="none" rx="38.8" ry="22.4" stroke="#ff3655" stroke-miterlimit="10"/></svg>